<svg xmlns="http://www.w3.org/2000/svg" viewBox="0 0 1842.57 244.105">
  <defs>
    <style>
      .cls-1 {
        fill: #fff;
      }

      .cls-2 {
        fill: #e81f4e;
      }
    </style>
  </defs>
  <g id="Logo_Gradient" data-name="Logo Gradient" transform="translate(-192 -91.135)">
    <g id="Group_7" data-name="Group 7" transform="translate(671.444 91.135)">
      <path id="Path_1" data-name="Path 1" class="cls-1" d="M182.475,197.44H121.328a58.326,58.326,0,0,1-5.8-9.909c-19.093,14.018-36.737,16.193-49.546,16.193C19.577,203.724,0,171.337,0,136.051,0,82.4,39.637,28.5,114.319,28.5c27.553,0,55.347,8.7,86.766,28.036L180.783,166.5C177.4,184.872,180.783,192.364,182.475,197.44ZM124.953,79.013c-3.625-.483-9.426-1.692-14.26-1.692-22.477,0-36.012,19.577-36.012,53.9,0,13.293,1.934,22.96,14.26,22.96,6.767,0,15.71-2.9,22.96-6.042Z" transform="translate(0 40.381)"/>
      <path id="Path_2" data-name="Path 2" class="cls-1" d="M249.307,169.746c-13.293,14.743-40.6,33.836-80.241,33.836-52.447,0-83.866-33.111-83.866-74.2C85.2,60.019,145.622,28.6,194.444,28.6s64.773,28.519,71.3,38.67L222.479,94.822c-11.359-13.051-20.06-17.643-30.453-17.643-20.3,0-32.145,26.1-32.145,53.171,0,14.985,4.109,24.41,17.643,24.41,16.193,0,27.794-10.634,37.945-21.268Z" transform="translate(120.719 40.523)"/>
      <path id="Path_3" data-name="Path 3" class="cls-1" d="M279.336,222.752c-7.251,3.142-25.377,8.217-51.963,8.217-35.045,0-63.806-19.818-56.072-62.114l10.393-56.072H162.6l9.426-50.754h19.093l8.942-45.2L267.735,9.1l-5.076,52.93H306.4l-10.393,50.754H253.475l-10.393,55.83c-1.934,10.876,1.692,11.118,8.942,11.118,12.085,0,22.235-2.659,31.9-6.284Z" transform="translate(230.386 12.894)"/>
      <path id="Path_4" data-name="Path 4" class="cls-1" d="M322.118,72.506,291.423,237.579H219.4L249.853,75.165ZM335.411,0,325.018,56.313,252.995,58.73,261.937,8.7Z" transform="translate(310.866)"/>
      <path id="Path_5" data-name="Path 5" class="cls-1" d="M455.459,31.1,364.1,193.756H297.878L266.7,31.1h71.54l4.834,56.555,1.933,24.169,10.634-24.169L382.227,31.1Z" transform="translate(377.885 44.065)"/>
      <path id="Path_6" data-name="Path 6" class="cls-1" d="M538.727,105.357c0,68.881-50.271,98.367-111.661,98.367-65.014,0-86.766-31.9-86.766-74.681,0-71.3,50.271-100.542,111.66-100.542C517.216,28.5,538.727,60.161,538.727,105.357Zm-123.02,21.51c-1.208,21.994,7.976,27.552,16.918,27.552,15.468,0,29.486-15.226,31.178-50.029.967-19.818-7.251-27.311-17.4-27.311C433.35,77.321,417.64,90.13,415.707,126.867Z" transform="translate(482.168 40.381)"/>
      <path id="Path_7" data-name="Path 7" class="cls-1" d="M545.136,222.752c-7.25,3.142-25.377,8.217-51.963,8.217-35.045,0-63.806-19.818-56.072-62.114l10.393-56.072H428.4l9.426-50.754h19.093l8.943-45.2L533.535,9.1l-5.075,52.93h43.987l-10.393,50.754H519.517l-10.393,55.83c-1.933,10.876,1.692,11.118,8.943,11.118,12.085,0,22.235-2.659,31.9-6.284Z" transform="translate(606.996 12.894)"/>
      <path id="Path_8" data-name="Path 8" class="cls-1" d="M670.692,87.472c0,43.987-63.564,48.821-109.243,51.479-2.659,12.809,10.634,15.951,21.268,15.951,15.71,0,33.353-6.526,47.371-16.435L653.532,172.3c-20.3,22.719-51.963,31.419-80.241,31.419-53.9,0-84.591-30.453-84.591-75.648C488.7,64.27,541.388,28.5,596.977,28.5c40.362,0,73.715,18.852,73.715,58.972ZM567.732,101.49c21.994-1.45,43.262-4.35,43.262-17.4,0-10.151-7.25-11.843-14.26-11.843-18.368,0-25.861,13.776-29,29.244Z" transform="translate(692.434 40.381)"/>
    </g>
    <g id="Group_10" data-name="Group 10" transform="translate(192 131.84)">
      <path id="Subtraction_1_2_" class="cls-1" d="M148.368,122.04H1.8L19.149,0H165.717Zm-67.6-38.885h0L104.1,102.3h.6a.586.586,0,0,0,.6-.6v-.6L99.911,71.788c0-.6,0-.6.6-.6L127.43,54.439l.6-.6a.586.586,0,0,0-.6-.6H96.92a.586.586,0,0,1-.6-.6L90.937,20.938l-.6-.6c-.6,0-.6,0-.6.6h0L74.785,52.645l-.6.6H43.078c-.6,0-.6,0-.6.6v.6L64.615,71.19v.6L50.855,101.1v.6h1.2L80.767,83.154Z" transform="translate(8.968)"/>
      <g id="Group_9" data-name="Group 9">
        <path id="Rectangle_1_2_" class="cls-2" d="M39.279,0H234.9l-7.179,49.055H32.1Z" transform="translate(159.934)"/>
        <path id="Rectangle_2_2_" class="cls-2" d="M36.981,12.4H232.6l-7.179,48.457H30.4Z" transform="translate(151.464 61.781)"/>
        <path id="Rectangle_3_2_" class="cls-2" d="M7.179,24.7H373.3l-6.581,49.055H0Z" transform="translate(0 123.064)"/>
      </g>
    </g>
  </g>
</svg>
