<svg xmlns="http://www.w3.org/2000/svg" viewBox="0 0 35.98 60.88"><title>alabama</title><g id="Layer_2" data-name="Layer 2"><g id="_ÎÓÈ_1" data-name="—ÎÓÈ 1"><path d="M10.17,58.17a3.88,3.88,0,0,1-.48-2.07,1.32,1.32,0,0,0-.62-1.28,2.65,2.65,0,0,1-1-1.38c-.33-1,0-2.24,1.46-2.26a13.72,13.72,0,0,0,2.56-.35,4.3,4.3,0,0,1,1.29-.09,8.07,8.07,0,0,0,2.25-.11A86,86,0,0,1,29,49.78a12.59,12.59,0,0,0,4-.24c1.14-.36,1.32-.5,1.3-1.72,0-.83-.15-1.66-.09-2.48a16.07,16.07,0,0,0-.26-3.85,4.91,4.91,0,0,1,.59-4,.79.79,0,0,0,.11-.62A1.63,1.63,0,0,1,35.51,35a.74.74,0,0,0,.42-1,6.15,6.15,0,0,1-.42-2.21.68.68,0,0,0-.32-.54,3.16,3.16,0,0,1-1-2.18,33.14,33.14,0,0,0-.73-3.7c-.31-1.33-.73-2.63-1.05-4-.9-3.73-1.45-7.54-2.44-11.26-.61-2.25-.94-4.57-1.38-6.86A7.57,7.57,0,0,0,27.78.93,1.59,1.59,0,0,0,26.42.07,34.15,34.15,0,0,0,22,.08c-2.55.08-5.1.11-7.65.11-1.58,0-3.16.15-4.74.08S6.6.21,5.09.21c-.77,0-1,.21-.92,1,.08,1.15,0,2.3,0,3.44a28,28,0,0,1-.56,6,55.82,55.82,0,0,0-1.22,8.53C2,23.29,1.86,27.42,1.27,31.52c-.2,1.38-.41,2.77-.5,4.17a46.13,46.13,0,0,1-.71,6.74,4.86,4.86,0,0,0,0,1.08c0,1.8.09,3.61.15,5.42a4.11,4.11,0,0,1,.61,0,1.31,1.31,0,0,1,.42.22.92.92,0,0,1-.17.29.32.32,0,0,1-.45,0c-.11-.1-.24-.21-.4-.33,0,.74,0,1.49.09,2.24A34.15,34.15,0,0,0,.88,57.9a3.13,3.13,0,0,0,.16.62,1.21,1.21,0,0,0,1.34.67c.52-.09.51-.53.56-.92s.07-.64.09-1a4.93,4.93,0,0,1,.37-1.57,1.29,1.29,0,0,1,1.88-.59,1.13,1.13,0,0,1,.53,1.63c-.14.32-.46.56-.43,1,.26.5.83.73,1.2,1.17A3.27,3.27,0,0,1,7,60.66c.84.35,1,.31,1.43-.38.29-.45.49-.92,1.15-1S10.52,58.87,10.17,58.17Zm22.25-14,.1.22a1.62,1.62,0,0,1-.31,0s-.07-.09-.1-.14ZM31,44.05s.08.08.12.12-.12.12-.15.11a2.09,2.09,0,0,1-.29-.16A1.23,1.23,0,0,1,31,44.05Zm-1.2.92a6.12,6.12,0,0,1,.65.28,7.08,7.08,0,0,1-.89.06,1.73,1.73,0,0,1-.46-.19A.72.72,0,0,1,29.76,45Zm-4.48,2.24.28.16s-.11.1-.15.09a1.56,1.56,0,0,1-.28-.16Zm-1-8.31c.09,0,.16.11.25.18-.1,0-.2.11-.29.1s-.17-.11-.25-.17C24.1,39,24.2,38.89,24.29,38.9ZM23,48s0,0,0,0a.49.49,0,0,1,0-.12c.07-.31-.1-.75.41-.81.2,0,.3.15.32.33.06.58-.32.62-.74.6a.09.09,0,0,0,0,.05s0,0,0,0a1.55,1.55,0,0,1-.14.43c-.05.09-.18,0-.17-.15s.15-.24.31-.28A.24.24,0,0,1,23,48Zm1.2-15.82a2,2,0,0,1,.1.21c-.1,0-.2,0-.29,0s-.07-.08-.1-.13Zm-.56,5.73.19.33c-.1,0-.21.11-.3.09a.29.29,0,0,1-.23-.38C23.37,37.83,23.48,37.81,23.67,37.94Zm-1.31,1.92c.05,0,.1.11.15.18s-.09.08-.12.07a2.24,2.24,0,0,1-.27-.13C22.2,39.93,22.28,39.86,22.36,39.86Zm-3.53,8.59.29.17c-.05,0-.11.1-.15.09s-.19-.11-.29-.16Zm-.35-12.92c-.11,0-.21.06-.32.07s-.07-.08-.1-.13a2.64,2.64,0,0,1,.3-.07S18.44,35.48,18.48,35.53ZM19,26.59c0,.1.06.21.07.31s-.08.08-.13.12-.05-.21-.08-.32Zm-.94,10c0,.05.1.11.09.14a1.35,1.35,0,0,1-.16.29l-.1-.15Zm-1.1-1.66a.27.27,0,0,1,.2.39.34.34,0,0,1-.13.12L16.6,35C16.73,35,16.84,34.87,16.91,34.89Zm-15.66,4c-.28,0-.41-.2-.55-.41.06-.08.11-.22.17-.22.28,0,.43.19.54.41S1.4,38.83,1.25,38.84ZM9,1.2a2.22,2.22,0,0,1-.45,0s-.05,0-.06,0,0,0,0,0a1.4,1.4,0,0,1-.13.41c-.05.1-.18,0-.17-.12s.16-.24.3-.29l0-.08h.08c.08-.15.18-.27.36-.24S9.13,1.17,9,1.2ZM6.79,44.88a1.92,1.92,0,0,1-.09-.32s.08-.07.13-.1a1.81,1.81,0,0,1,.09.31S6.84,44.84,6.79,44.88Zm7-12.51s.07.08.11.13a1.94,1.94,0,0,1-.33.07s-.07-.09-.1-.14A1.8,1.8,0,0,1,13.83,32.37ZM11.16,47l.27.16s-.1.11-.13.09a1.51,1.51,0,0,1-.28-.15ZM10,50.4l-.14-.23.19-.17a1.63,1.63,0,0,1,.07.3S10.06,50.37,10,50.4Zm.81-8.92c0,.11.13.23.1.31a.3.3,0,0,1-.4.21c-.06,0-.09-.17-.15-.29Zm-2.28.89,1.47.4C9.5,43.1,9,43.14,8.55,42.37Z" style="fill:#fff"/></g></g></svg>