<svg xmlns="http://www.w3.org/2000/svg" viewBox="0 0 119.19 79.39"><title>alaska</title><g id="Layer_2" data-name="Layer 2"><g id="_ÎÓÈ_1" data-name="—ÎÓÈ 1"><path d="M113.88,78.11c0-.36.33-.5.26-.79A2,2,0,0,0,112.78,76a2.43,2.43,0,0,0-.78-2.24,3.91,3.91,0,0,1-.83-1,.51.51,0,0,0-.82-.26,5,5,0,0,1-.38,1.15c.27.13.52-.1.82.15a8,8,0,0,1,.78,2.44,2,2,0,0,0,1,1.4,3.54,3.54,0,0,1,1.39,1.77h.36A.85.85,0,0,0,113.88,78.11Zm-2.59-4-.21-.12a1.63,1.63,0,0,1,.23-.29s.15.06.23.09Zm1,.39-.24-.11.12-.1.23.12S112.36,74.52,112.33,74.52Z" style="fill:#fff"/><path d="M118.62,74.05a1,1,0,0,0-.65-1,2.16,2.16,0,0,1-1-.76,1.49,1.49,0,0,0-.57-.41l-1.58-.79A2.72,2.72,0,0,1,113.71,70q-1.18-2-2.4-3.94a4.5,4.5,0,0,1-.59-1.48,12.88,12.88,0,0,0-.58-2,2.34,2.34,0,0,0-1.26-1.42A5.48,5.48,0,0,1,107.37,60c-.84-.9-1.76-1.73-2.65-2.59l-.17-.05a2.34,2.34,0,0,0-1.68,1.21c-.17.31-.3.68-.68.77a2.9,2.9,0,0,0-1.33.82c-.34.35-.73.19-.84-.29a.76.76,0,0,1,0-.26,1.84,1.84,0,0,0-1.19-2,2.36,2.36,0,0,1-1.2-1.15c-.35-.9-1.2-1.54-1.24-2.52a.78.78,0,0,0-1,.07,1,1,0,0,1-1.15.17,1.7,1.7,0,0,0-.61-.09c-1-.09-1.28-.33-1.26-1.4,0-1.33.09-2.66.15-4,0-.57.06-1.13.11-1.69q.33-3.59.78-7.15c.17-1.35.27-2.7.34-4.06,0,0,0-.11-.07-.17l.08-.07c.12-2.26.16-4.52.32-6.78.22-3.18.42-6.38.55-9.58A6.25,6.25,0,0,1,94.74,18,24.78,24.78,0,0,0,95,12a1.15,1.15,0,0,0-.28-.81c-.19-.22-.32-.5-.5-.73A3.12,3.12,0,0,0,91.3,8.85c-.41.05-.82.09-1.23.17a1.67,1.67,0,0,1-1.71-.48A2.35,2.35,0,0,0,86.7,7.8,2.67,2.67,0,0,1,85,7a19.75,19.75,0,0,0-1.61-1.25,1.27,1.27,0,0,0-1.49-.14c-.15.08-.32.14-.52.23a1.19,1.19,0,0,0-1-.32c-.27,0-.6,0-.69-.28a2.75,2.75,0,0,0-.91-1.13,2,2,0,0,1,0-.3c.14-.79.08-.9-.67-1.17a2.57,2.57,0,0,0-1.4-.1c-.61.11-.72,0-.9-.55-.08-.27,0-.61-.35-.77s-.6.35-.91.49a.75.75,0,0,1-.68.08.33.33,0,0,1-.18-.39c.06-.16.23-.23.36-.35.38-.38.33-.64-.16-.86a1.55,1.55,0,0,0-1.52,0,4.26,4.26,0,0,1-3.09.5c-.25,0-.52-.15-.65-.08a.6.6,0,0,0-.35.44c-.08.4-.13.82-.24,1.22s-.44.81-.81.82a1.06,1.06,0,0,1-.92-.84c-.07-.25,0-.54-.27-.82-.62-.15-1.43.11-2-.62-.93.85-2,1.31-2.82,2.32C60,4.72,58,5.61,56,4.11A.69.69,0,0,0,55.21,4a2.41,2.41,0,0,1-1.47,1.75,1.31,1.31,0,0,0,.28.93c.45.8.9,1.6,1.36,2.4A3.6,3.6,0,0,1,56,11.33a6.31,6.31,0,0,0,0,1,1.46,1.46,0,0,0,.93,1.31c.43.19.88.34,1.32.5.72.26.83.45.69,1.19s-.15.78.54,1.08a1.81,1.81,0,0,1,.93.77c.22.41.2.76-.07,1s-.6.13-.87-.1a3.52,3.52,0,0,0-1.43-.67c.21.47.64.73.51,1.19,0,.08-.1.14-.14.19-.32,0-.4-.39-.73-.32s-.41.41-.86.42c-.73-.35-1.46-.92-2.32-1.26s-.89-.57-.67-1.37c0-.14.1-.27.14-.42a.78.78,0,0,0-.41-.9,2,2,0,0,0-2.17.36,1.37,1.37,0,0,1-.7.53A10,10,0,0,1,49,14.89a2.59,2.59,0,0,1-2,.72c-.28,0-.61,0-.74.26a3,3,0,0,0,.22.48.24.24,0,0,1,.09.2,5.66,5.66,0,0,0,.79,1.08s.05-.08.09-.09.28.05.29.21a.26.26,0,0,1-.09.18l.53.47a2.29,2.29,0,0,1,.86,1.08c-.49.6-.7.6-1,0-.07-.13-.11-.28-.19-.4a.59.59,0,0,0-.93-.15,3.37,3.37,0,0,1-.1,1.79,6.66,6.66,0,0,0,1,1.38,1.15,1.15,0,0,0,1.14.51,1.92,1.92,0,0,1,1.5.41,1.33,1.33,0,0,0,1,.27c.62,0,.83.17.94.79,0,.21-.13.47.17.68a3.46,3.46,0,0,1,1.72-.58,5.81,5.81,0,0,0,1.76-.12c.45-.12.73.18.73.64s-.27.77-.81.92c-.3.08-.68,0-.84.45a5.29,5.29,0,0,1,.33,1.76,2.13,2.13,0,0,1-.85,1.59,3.42,3.42,0,0,1-1.54.4c-.62.06-.9-.47-1.37-.79-.44.54-1.1.59-1.64.89s-.79.33-1.32-.18a1.82,1.82,0,0,0-.71-.51,1.85,1.85,0,0,0-2.38,1,1.92,1.92,0,0,1-1.32,1.16,1.49,1.49,0,0,0-1,.82,2.12,2.12,0,0,1-1.21,1.09,1.19,1.19,0,0,0-.8,1.26,3.61,3.61,0,0,0,.18,1.13c.13.39.21.8.33,1.2a1.43,1.43,0,0,1-.44,1.68.88.88,0,0,0-.3,1c.33.8.42,1.67.81,2.45a2,2,0,0,0,2.94,1.06c.34-.84.76-1.64,1.81-1.76a.38.38,0,0,1-.15.57,2.09,2.09,0,0,0-.69,2.47,2.74,2.74,0,0,1-.16,1.74,4.75,4.75,0,0,1-.4.89,1,1,0,0,0,0,1.29,13.89,13.89,0,0,1-.92,1.93.41.41,0,0,0,.65.14,3.3,3.3,0,0,0,.53-.46c.19-.2.41-.42.69-.3a3.93,3.93,0,0,0,1.82,0,1.18,1.18,0,0,0,1.12,1.2c.22,0,.33.22.43.41a3.41,3.41,0,0,1,.47,1.15c0,.16,0,.36.32.35a1.46,1.46,0,0,0,.16-.19c.28-.45.54-.92.83-1.36a.75.75,0,0,1,.85-.33c.35.11.42.39.42.71,0,.12,0,.24,0,.35,0,.48.16.65.64.67A3.23,3.23,0,0,0,55,52.47c.21-.11.44-.2.63.11-.1.24-.32.43-.37.71l.06,0-.07.07s0,0,0,0a.72.72,0,0,1-.52.75,1.13,1.13,0,0,0-.71,1,1.53,1.53,0,0,1-.28.84,4.79,4.79,0,0,0-.87,1.73c-.3,1-.69,1.18-1.71,1.07a2.21,2.21,0,0,0-2,.81,8.7,8.7,0,0,0-.62,1c-.35.1-.49-.28-.89-.22a1.78,1.78,0,0,1-1.42.16,1.19,1.19,0,0,0-.78.08l-1.33.5a.6.6,0,0,1-.11.06,1.3,1.3,0,0,1,.1.15h0s0,0,0,0l.09,0c.2-.08.37-.39.63-.13,0,0,0,.18-.07.23-.24.25-.46.25-.65-.07l0,0s0,0,0,0a.65.65,0,0,1-.24,0l-.06,0a3.79,3.79,0,0,0-.54.45.7.7,0,0,0-.22.8c.08.21.23.43-.07.67a2.77,2.77,0,0,0-1.36-.24c-.25-.25-.1-.63-.42-.8a2.37,2.37,0,0,0-1.59-.42A5.58,5.58,0,0,0,36.88,63a1.79,1.79,0,0,1-1.64.45c-.48-.11-.54,0-.67.64.22.23.53.2.84.25a1.33,1.33,0,0,1,1.37-.36,1.61,1.61,0,0,0,1.86-.36c.64-.56,1.09-.43,1.46.33.17.34.37.53.74.49a6.85,6.85,0,0,0,2.42-.51,1.33,1.33,0,0,1,1.18-.09,2,2,0,0,0,1.39,0,18.68,18.68,0,0,0,3.93-1.81,3.33,3.33,0,0,1,1.67-.53,3,3,0,0,0,2.2-1,2.63,2.63,0,0,1,1.19-.75,22.35,22.35,0,0,0,3-1.23,6.11,6.11,0,0,1,2-.7.88.88,0,0,0,.48-.22l1.16-1A1.49,1.49,0,0,0,62,54.94a5.8,5.8,0,0,0-.19-.59A1.17,1.17,0,0,1,62.12,53a4.24,4.24,0,0,1,2.19-1.43,1.5,1.5,0,0,0,1.29-1.07,2.18,2.18,0,0,1,1.25-1.61,3.77,3.77,0,0,0,1.77-1.67,1.09,1.09,0,0,1,1.1-.62A1.62,1.62,0,0,0,71,46.05a1.61,1.61,0,0,1,1.9-.26,1.05,1.05,0,0,1,.46,1.63,1.47,1.47,0,0,1-1.27.7,3.8,3.8,0,0,0-1.29.26.87.87,0,0,0-.65.75,1.07,1.07,0,0,1-.32.72c-.64.51-.94,1.29-1.52,1.84a.7.7,0,0,0-.15,1c.23.29.51.2.8.09s.61-.27.94.13a9.86,9.86,0,0,1-2.12,1.29c-.34.09-.51.27-.33.64.41.18.77-.22,1.13-.09a1.38,1.38,0,0,0,1.63-.56c.22-.25.5-.54.9-.34s0,.52.23.68a.51.51,0,0,0,.29-.38c.17-.5.38-.93,1-1a.91.91,0,0,0,.58-.38.68.68,0,0,1,1-.16c.27.13.56.32.84.22a1.69,1.69,0,0,1,1.37.16.44.44,0,0,0,.28-.56A.94.94,0,0,1,77,51.25c.18-.14.24-.33,0-.51-.41-.13-.89.44-1.25-.07,0-.41.49-.26.53-.57,0-.15-.17-.15-.26-.22-.56-.4-.58-.77-.08-1.2a7.78,7.78,0,0,1,.8-.58c.66-.41,1-.3,1.25.44,0,.06,0,.11.11.25.39-.22.6.18.91.3.93-.38,1.58.28,1.82,1.37a2.18,2.18,0,0,1,1,.79,1,1,0,0,0,1.42.51c.25-.07.47-.29.78-.14s.14.46.1.72a.8.8,0,0,0,.38.92,6.84,6.84,0,0,1,1.2,1.1c.81-.1,1.62-.25,2.45-.27a2.45,2.45,0,0,1,1.61.4,2.35,2.35,0,0,0,1.69.52c.78,1.61,2.14,1.92,3.49.84.14-.11.27-.24.41-.34a.65.65,0,0,1,1.08.43.76.76,0,0,1-.07.67c-.25.13-.25-.35-.54-.18a6,6,0,0,0-.21.64c-.15.63,0,.85.52,1.15a6.48,6.48,0,0,1,.86.47,13.67,13.67,0,0,0,2,1.42,1.25,1.25,0,0,1,.58.76,2.28,2.28,0,0,0,1,1.17,1.74,1.74,0,0,1,1,1.64c0,.12.08.22.27.29l1.34-.56c.34.61-.38.86-.35,1.38.45,1.15,1.29,2.17,1.75,3.46a.83.83,0,0,1,.9.86,3.12,3.12,0,0,0,.71,1.85,2.36,2.36,0,0,1,.24.66c.07.17,0,.41.31.53a3.64,3.64,0,0,1,.1-1,1.35,1.35,0,0,0-.16-1.34.92.92,0,0,1-.22-.75,1.34,1.34,0,0,0-1.1-1.84.64.64,0,0,1-.53-.78c.56-.25.81.5,1.32.36.28-.67-.58-.64-.69-1.17a6.81,6.81,0,0,0,.83-1.62c-.48-.26-.43-.75-.51-1.2s-.18-1-.25-1.49-.45-.84,0-1.39a5.74,5.74,0,0,1,.74,1.46,2.57,2.57,0,0,0,2.21,2.12c.73.69,1,1.73,1.8,2.4a1,1,0,0,0-.09,1.11,1.18,1.18,0,0,1,.07,1.19,4.59,4.59,0,0,1,2.2,1.91,11.89,11.89,0,0,0,.9,1.33c.08.8-.59,1-1,1.38.24.64.24.64,1,.66.27-.29.24-.72.46-1s.59-.48.84-.33.31.47.21.78a1.59,1.59,0,0,0-.16.77c.13.7.27,1.39.42,2.08l.06.19a.41.41,0,0,1,.54,0c.23.16.51.28.49.64-.31.27-.48-.09-.72-.17a1,1,0,0,0,.38.25,1.68,1.68,0,0,1,1,1.17c.24.75.83.87,1.45.36a2,2,0,0,0,.54-2.43A4.19,4.19,0,0,1,118.62,74.05ZM93.48,32.23a2.77,2.77,0,0,1,.1.26.18.18,0,0,1-.1.09s-.11-.07-.1-.1A1.3,1.3,0,0,1,93.48,32.23Zm-.12,6.65.09.15a.85.85,0,0,1-.23,0s-.06-.07-.09-.1ZM58.44,14s-.06-.06-.09-.1l.25-.08s.06.07.09.1A1,1,0,0,1,58.44,14Zm-10,6.86s-.17.11-.19.09a2,2,0,0,1-.25-.32l.25-.09C48.34,20.62,48.44,20.72,48.4,20.87Zm3-3.71c-.14,0-.32,0-.36-.14s.09-.22.29-.24.26,0,.31.15S51.52,17.15,51.39,17.16Zm-9,21c-.07,0-.12-.08-.18-.13s.07-.09.09-.09a.84.84,0,0,1,.25.09S42.39,38.16,42.34,38.16Zm1.82-5.81c-.29-.06-.31-.3-.29-.55,0-.08.09-.23.12-.23a.53.53,0,0,1,.44.5C44.45,32.24,44.33,32.31,44.16,32.35Zm2.25-.07a4.16,4.16,0,0,1-.06-.44c0-.06.1-.11.15-.17a1.83,1.83,0,0,1,.09.39C46.59,32.12,46.49,32.18,46.41,32.28Zm1.9,2.55a2,2,0,0,1-.41-.41c.12-.07.21-.16.28-.16a.42.42,0,0,1,.41.36A.2.2,0,0,1,48.31,34.83Zm.58-.62c-.2-.35-.79-.06-.88-.55,0,0,.05-.1.09-.11a1.05,1.05,0,0,1,1.12.44,2.75,2.75,0,0,1,.2.53C49.11,34.34,49,34.31,48.89,34.21Zm1.47-1.72a4.3,4.3,0,0,0-.6.68c-.14.19-.15.51-.51.24-.17-.14-.45-.14-.3-.52.24-.64-.5-.29-.64-.57,0-.75,1-.7,1-1.43h0s0-.06,0-.1-.25-.14-.2-.31.09-.09.1-.09.11.25.1.4,0,.07.06.08,0,0,0,0a1.65,1.65,0,0,1,.59,0C51.39,31.42,51.39,31.46,50.36,32.49ZM53,30.82s-.06-.05-.09-.09l.24-.09s.07.06.1.1A1,1,0,0,1,53,30.82ZM54,51.3a1.28,1.28,0,0,1-.24-.11s.08-.09.1-.09a1.28,1.28,0,0,1,.24.11S54,51.3,54,51.3Zm.78-20.17s-.06-.06-.09-.09a2.34,2.34,0,0,1,.24-.09S55,31,55,31A1.7,1.7,0,0,1,54.79,31.13Zm.52,6.38a.35.35,0,0,1-.23,0s0-.07-.07-.1l.24-.09C55.35,37.39,55.39,37.47,55.31,37.51Zm2.21-2.11s-.06-.07-.09-.1a1.21,1.21,0,0,1,.25-.08s.07.06.1.1Zm1.19-.26c-.13,0-.28,0-.31-.17s.16-.07.24-.11.28,0,.31.17A.59.59,0,0,1,58.71,35.14Zm.66-8s-.07-.07-.1-.1a1.29,1.29,0,0,1,.26-.08s.06.06.09.1Zm.88,28.9C60,56,60,55.77,60,55.7s-.09-.29,0-.3.33.18.33.39S60.27,56.06,60.25,56.05Zm.81-51a.51.51,0,0,1,.28-.31c.25-.06.25.22.36.36a2.43,2.43,0,0,1,.16.37h0s0,.06,0,.09c.14.07.27.16.21.35C62.11,6,62,6,62,6c-.16-.11-.12-.27-.12-.43,0,0,0-.06,0-.07v0a2.69,2.69,0,0,1-.4,0C61.19,5.51,61,5.4,61.06,5.09Zm.58,33.64c-.08,0-.2,0-.25-.11a.21.21,0,0,1,.13-.33.28.28,0,0,1,.25.11C61.86,38.54,61.78,38.66,61.64,38.73ZM62,23.11,61.93,23a2.4,2.4,0,0,0,.11-.23s.1.08.09.1A1.28,1.28,0,0,1,62,23.11Zm-.1-11.84c-.07,0-.22-.11-.21-.13a.67.67,0,0,1,.45-.37l.2.13A.59.59,0,0,1,61.92,11.27Zm1.94,32.1a.63.63,0,0,1-.88.3c-.43-.18-.32-.47-.22-.84a2.46,2.46,0,0,1,.81-1.54c.1.41.08.79.26,1C64.28,42.65,64.09,43,63.86,43.37Zm1.29-16.52s-.06-.07-.09-.1a.8.8,0,0,1,.26-.09s.06.07.1.11A1.38,1.38,0,0,1,65.15,26.85Zm-.23-9.77c0-.06-.14-.15-.13-.18a.53.53,0,0,1,.44-.34.67.67,0,0,1,.24.11A.59.59,0,0,1,64.92,17.08Zm4.37,29c-.07,0-.16,0-.25-.05s.08-.12.14-.15.09,0,.12,0S69.43,46.06,69.29,46.1Zm1-25.13a.52.52,0,0,0-.1-.11l.12-.24s.09.08.08.11A1.22,1.22,0,0,1,70.26,21Zm.85,8.63-.25-.1s.08-.1.11-.09a1.52,1.52,0,0,1,.25.09Zm1.22,7.34a1,1,0,0,1-.24-.11,1,1,0,0,1,.25-.08s.09.07.08.1S72.35,37,72.33,36.94Zm-.78-14.08c.09-.5.51-.55,1.09-.82C72.31,22.72,71.89,22.72,71.55,22.86Zm1.89,19c-.14-.06-.23-.15-.19-.31s.13-.13.22,0l.17.22Zm1.15-37.7c0,.08.1.17.09.25s-.11.1-.17.15l-.09-.25ZM74,19.84a1.07,1.07,0,0,1-.06-.17,2.31,2.31,0,0,1,.43-.08c.19,0,.46,0,.5.16s-.2.34-.4.38S74.08,20,74,19.84ZM74.74,47a.23.23,0,0,1-.29-.21c0-.07.07-.16.1-.24l.34.25C74.83,46.9,74.8,47,74.74,47Zm2.17-9.47a1.19,1.19,0,0,1-.26-.11.87.87,0,0,1,.11-.09.16.16,0,0,1,.24.11S76.93,37.56,76.91,37.55Zm.69,3.28c0-.09,0-.17-.08-.25l.09-.1c0,.09.07.17.09.25S77.64,40.79,77.6,40.83Zm.93-21.41a1.56,1.56,0,0,1,.1.4c0,.07-.08.15-.15.27a2.86,2.86,0,0,1-.08-.43C78.4,19.58,78.49,19.5,78.53,19.42Zm.2,9.89c-.19.06-.46.07-.51-.12s.18-.33.37-.38.28,0,.36.23S78.86,29.27,78.73,29.31Zm1.7,12.54a1.74,1.74,0,0,1-.38-.14l.29-.15.34.17C80.6,41.77,80.51,41.86,80.43,41.85Zm5.41-5.61c0-.09-.07-.17-.09-.25s.07-.06.11-.09a1.83,1.83,0,0,1,.08.25S85.87,36.21,85.84,36.24Zm1.22,8L87,44l.1-.11a.84.84,0,0,1,.09.25S87.1,44.17,87.06,44.2Zm-.54-8.49a.28.28,0,0,1-.11-.38.26.26,0,0,1,.4-.06c.28.19.55.42.9.68C87.17,36.21,86.86,35.89,86.52,35.71Zm2.4,2.69a2.34,2.34,0,0,1-.3-.25c-.06-.07,0-.17.1-.19a.25.25,0,0,1,.3.2ZM89.2,54s-.1-.08-.09-.1a1.22,1.22,0,0,1,.1-.24s.1.07.09.1A1.22,1.22,0,0,1,89.2,54Zm2.06-19.05s.07.06.1.09l-.24.09S91.06,35,91,35Zm.38,4.43a.51.51,0,0,1-.12-.2h0s0,0,0,0a.8.8,0,0,1-.75-.37c.89-.25.9-.24.75.37h0l0,0h.23a1.26,1.26,0,0,1,.23.13A.22.22,0,0,1,91.64,39.34Zm.86-4.13.09.1a1.06,1.06,0,0,1-.25.09s-.07-.06-.1-.1ZM92.33,38a1.29,1.29,0,0,1,.26.08c-.06.05-.12.14-.17.14s-.13-.09-.19-.14S92.3,38,92.33,38Zm13.21,26.56a.51.51,0,0,1-.45.57.49.49,0,0,1-.61-.38c-.1-.86-.88-1.38-1-2.24-.07-.44-.57-.8-1-1.11a1.75,1.75,0,0,1-.76-1c.64,0,1.17,0,1.69-.08a.75.75,0,0,1,.87.59,2.51,2.51,0,0,0,.85,1.42.68.68,0,0,1,.3.53A10.39,10.39,0,0,0,105.54,64.52ZM116.14,73s-.06-.06-.09-.09a1.84,1.84,0,0,1,.25-.09s.06.07.09.1A1,1,0,0,1,116.14,73Z" style="fill:#fff"/><path d="M63.18,60.5c-.12-.23.18-.81-.55-.63a.7.7,0,0,1-.61.75.32.32,0,0,1,.11.19L62,61c-.08-.1-.15-.21-.23-.32h-.27c-.39.38-.26,1.06-.86,1.17-.23-.17-.16-.35-.15-.53a.44.44,0,0,0-.26-.47,2.5,2.5,0,0,0-1.24.87.58.58,0,0,0,.45.95,2,2,0,0,0,.35,0c.32,0,.61,0,.73.33s-.07.56-.29.78-.42.22-.48.55a1.48,1.48,0,0,0,.9-.55,1.2,1.2,0,0,1,1.68-.53,1.59,1.59,0,0,1,.95-.61,3,3,0,0,0,0-.3c0-.12,0-.24.08-.32.65.13.65.13,1.08-.07-.07-.38-.15-.77-.21-1.1C63.84,60.48,63.46,60.76,63.18,60.5Zm-3.36,1.19a1.44,1.44,0,0,1-.25-.08c.06,0,.12-.13.16-.13s.13.08.19.13S59.85,61.69,59.82,61.69Z" style="fill:#fff"/><path d="M38.62,39.42a1,1,0,0,0-1.09-.84,6.3,6.3,0,0,1-1.77-.21c-.49.39-.41.73-.13,1.06a4.85,4.85,0,0,1,.69.81,1.12,1.12,0,0,0,1.34.57C38.54,40.66,38.83,40.28,38.62,39.42Z" style="fill:#fff"/><path d="M39.21,24.55c0-.46-.34-.55-.52-.76-.56-.67-1.36-1.19-1.23-2.22-.65-.32-1.24-.65-1.86-.91a.66.66,0,0,0-.94.29c.25.3.58.26.84.37s.67.26.73.6a6.15,6.15,0,0,0,1,1.84,2.12,2.12,0,0,0,1.8.88C39.11,24.65,39.19,24.56,39.21,24.55Z" style="fill:#fff"/><path d="M24.37,64.93c-.06-.31,0-.69-.47-.75s-.65,0-.75.35c.06.39.55.55.39,1-.37.14-.65-.25-1,0a1.92,1.92,0,0,1-1.7.16.42.42,0,0,0-.56.18c.07.4.36.45.71.37a1.83,1.83,0,0,1,1.28.16c.71.36,1.3-.16,1.95-.23,0-.21,0-.38.06-.56.2-.09.39-.16.57-.26s.12-.13.06-.26Z" style="fill:#fff"/><path d="M111,70.33c.43.2.53,1,1.29.75-.54-1.57-1.05-2-2.49-2.06a3.86,3.86,0,0,0,.89,2.33C111.09,71.11,110.57,70.6,111,70.33Z" style="fill:#fff"/><path d="M108.11,65.44c-.13-.28,0-.45.27-.45-.11-.13-.22-.27-.43-.24a.5.5,0,0,0-.35.46,13.37,13.37,0,0,0,.41,3.34l.9-1.41C108.63,66.55,108.36,66,108.11,65.44Z" style="fill:#fff"/><path d="M108.4,65h0Z" style="fill:#fff"/><path d="M33.25,64.26c0-.42-.3-.59-.63-.73a2,2,0,0,0-1.55.07c-.24.09-.44.22-.43.5a.5.5,0,0,0,.52.49,6.75,6.75,0,0,0,1.68,0A.48.48,0,0,0,33.25,64.26Z" style="fill:#fff"/><path d="M19.13,64.37c-.77.58-1.71.88-2.42,1.51,1.38.26,2.35-.67,3.49-1.12C19.86,64.12,19.61,64,19.13,64.37Z" style="fill:#fff"/><path d="M64.65,57.64c-.17.88-1.21.58-1.47,1.33a4.15,4.15,0,0,0,2.08-.1.4.4,0,0,0,.25-.5A4.26,4.26,0,0,1,64.65,57.64Z" style="fill:#fff"/><path d="M79.09,52.23a5.54,5.54,0,0,0-2.29,1.7A1.38,1.38,0,0,0,78,53.24C78.29,52.9,78.84,52.86,79.09,52.23Z" style="fill:#fff"/><path d="M26.36,64.78a1.75,1.75,0,0,0,1.32.24C26.75,64.33,26.69,64.32,26.36,64.78Z" style="fill:#fff"/><path d="M1.9,61A8.64,8.64,0,0,1,0,60.6a7.17,7.17,0,0,0,.9.48s0,0,0,0S1,61,1,61s.1.07.09.1,0,.05,0,.08A1.62,1.62,0,0,0,1.9,61Z" style="fill:#fff"/><path d="M108.68,72.88c.56-.3.62-.5.39-1.3C109,72,108.62,72.37,108.68,72.88Z" style="fill:#fff"/><path d="M3.07,62.37c.45.31.76.82,1.44,1.08C4,62.9,3.76,62.36,3.07,62.37Z" style="fill:#fff"/><path d="M80.17,52.26c.34-.06.61-.16.63-.65C80.16,51.59,80.16,51.59,80.17,52.26Z" style="fill:#fff"/><path d="M7.09,63.52a.22.22,0,0,0-.24-.18.17.17,0,0,0-.16.17c0,.14.12.18.24.17A.16.16,0,0,0,7.09,63.52Z" style="fill:#fff"/><path d="M108.41,65l.34.54C108.77,65.14,108.61,65.05,108.41,65Z" style="fill:#fff"/><path d="M108.41,65v0h0Z" style="fill:#fff"/></g></g></svg>