<svg xmlns="http://www.w3.org/2000/svg" viewBox="0 0 57.5 73.07"><title>arizona</title><g id="Layer_2" data-name="Layer 2"><g id="_ÎÓÈ_1" data-name="—ÎÓÈ 1"><path d="M57.29,51.7c-.09-3.58,0-7.17.08-10.76,0-.65,0-1.3,0-1.94-.17-4.34-.4-8.69-.51-13a60.38,60.38,0,0,1-.05-8.07,32.89,32.89,0,0,0,.1-5.06c-.08-1.9-.16-3.8-.27-5.7s0-3.52-.22-5.27c-.13-.88-.26-1-1.15-1.13A6.34,6.34,0,0,0,54.22.67c-1,0-1.94.06-2.91.08-3.08.07-6.17.1-9.26.19-4.67.14-9.34.07-14,0A120.34,120.34,0,0,1,15.9.24C14.69.1,13.46.05,12.24,0,10.49-.06,9.73.55,9.41,2.27c-.11.63-.19,1.28-.26,1.92-.2,1.75-.36,3.5-.57,5.25A6.59,6.59,0,0,1,8,11.61,2.69,2.69,0,0,1,6.25,13.1c-.76.2-1.18-.28-1.68-.7a2,2,0,0,0-2.13-.47,1.15,1.15,0,0,0,0,1,9.91,9.91,0,0,1,.31,2.7.45.45,0,0,1,.13.43c0,.07-.07.15-.15.26,0,.3,0,.59-.07.89A9.81,9.81,0,0,0,3,21.89a1.77,1.77,0,0,1,.09,1.37,4,4,0,0,0,.26,3.34c.45,1,.83,2.13,1.34,3.16s1.15,2.31,1.78,3.44c.76,1.33.64,2-.59,2.92A4.86,4.86,0,0,0,4.82,37a12.27,12.27,0,0,1-1.1,1.45,2.15,2.15,0,0,0-.62,2.24,6.84,6.84,0,0,1-1,5.06,2.85,2.85,0,0,0-.45,2c.06.46.17.92.23,1.38a2.16,2.16,0,0,0,.63,1.21A2.35,2.35,0,0,1,3,53.16a4.45,4.45,0,0,1-1.24,1.73A22,22,0,0,0,.18,56.51a.64.64,0,0,0-.14.68c.28.42.84.51,1.33.71l4.87,2,0,0s.09.07.14.1q14.92,6.11,29.86,12.21a7.15,7.15,0,0,0,4.25.79,1.82,1.82,0,0,1,.33,0c2.4,0,4.81.07,7.21,0s5-.17,7.53-.32c1.56-.09,1.65-.23,1.77-1.83.17-2.4.11-4.8.08-7.21C57.4,59.67,57.39,55.69,57.29,51.7ZM2.66,13.39l-.18-.28L2.69,13a1.58,1.58,0,0,1,.09.31S2.7,13.35,2.66,13.39Zm-1,43.26-.31-.07s.08-.12.11-.12a1.55,1.55,0,0,1,.31.06ZM4.32,51a.68.68,0,0,1-.47.51c-.11,0-.24,0-.36.05h0a1.48,1.48,0,0,1,0-.36c.07-.39.38-.43.69-.43C4.31,50.8,4.37,50.9,4.32,51ZM5,41.2c-.17,0-.27-.09-.34-.23H4.56a.24.24,0,0,1,0-.08c-.16,0-.3-.09-.31-.26s.1-.24.16-.15a2.48,2.48,0,0,1,.15.41s0,0,0,0,0,0,.06,0a3.15,3.15,0,0,1,.44,0C5.19,41,5.15,41.17,5,41.2Zm.67,1.48c0-.4.68-.8,1-.61.09,0,.14.17.21.26-.34.21-.59.57-1,.6C5.8,42.93,5.73,42.77,5.66,42.68ZM9.13,56.36c-.09,0-.19-.06-.35-.13a2.39,2.39,0,0,1,.5-.16c.09,0,.2.06.3.1A2,2,0,0,1,9.13,56.36ZM8.45,49.7c-.09,0-.19-.07-.28-.12l.25-.19.28.13C8.62,49.59,8.54,49.69,8.45,49.7Zm2.45,7.75c-.07-.06-.19-.12-.19-.18s.09-.16.13-.24.14.07.13.1A1.32,1.32,0,0,1,10.9,57.45ZM5.6,18.2a1.92,1.92,0,0,1-.14-.29s0-.09.09-.14a2.7,2.7,0,0,1,.15.29S5.64,18.15,5.6,18.2ZM8,15.47c.07,0,.26.09.26.1a.63.63,0,0,1-.46.49c-.07,0-.18-.07-.27-.11A.62.62,0,0,1,8,15.47ZM9.39,23.6c-.09.06-.19.17-.28.17a1.63,1.63,0,0,1-.48-.09L9,23.47Zm-1-1.32c.08,0,.2.08.25.15a.36.36,0,0,1-.12.55s-.17-.13-.21-.23A.37.37,0,0,1,8.39,22.28ZM10.45,46s-.08-.06-.13-.1a1.64,1.64,0,0,1,.3-.14s.08.07.13.1A2,2,0,0,1,10.45,46ZM9.35,33.24a.36.36,0,0,1-.26.2.27.27,0,0,1-.3-.33c0-.08.17-.14.25-.2S9.39,33,9.35,33.24ZM11,42.8a1.12,1.12,0,0,1,.16.28s-.06.09-.1.13a1.43,1.43,0,0,1-.15-.27S11,42.85,11,42.8Zm2,11.88c-.09,0-.2,0-.3-.06.05-.08.09-.2.15-.22s.2.05.29.07S13,54.67,13,54.68Zm-2.79-22,.18-.21.34.34s-.08.11-.13.12A.33.33,0,0,1,10.19,32.66Zm2.72,12.51c-.08-.05-.21-.09-.21-.13a.79.79,0,0,1,.11-.29s.12.06.13.1A1.91,1.91,0,0,1,12.91,45.17ZM12,39.08c-.15,0-.44,0-.44-.09a.51.51,0,0,1,.37-.52c.13,0,.3.07.44.1A.39.39,0,0,1,12,39.08Zm-.95-8.31c-.33.2-.37.86-1,.63a.35.35,0,0,1-.17-.29c.16-.45.34-.9.92-1l.72-.1A.84.84,0,0,1,11.09,30.77ZM14,44.39c-.14,0-.21-.06-.18-.23l.34-.28c0,.1.13.22.1.3A.4.4,0,0,1,14,44.39Zm2.3-31.63s.09.06.14.09a1.56,1.56,0,0,1-.28.16s-.09-.06-.14-.1A1.91,1.91,0,0,1,16.32,12.76Zm.82,15.32c.05,0,.13.07.13.1a1.92,1.92,0,0,1-.09.32s-.13-.08-.12-.11A1.57,1.57,0,0,1,17.14,28.08Zm-.92.8a.68.68,0,0,1-.38.32.29.29,0,0,1-.42-.16.52.52,0,0,1,.47-.47C16.08,28.55,16.28,28.67,16.22,28.88Zm1,15.69a1.92,1.92,0,0,1,.29-.14s.09.06.13.09a1.47,1.47,0,0,1-.28.14S17.28,44.61,17.23,44.57Zm.43,2.56s-.09.12-.12.12a1.67,1.67,0,0,1-.3-.08l.12-.12ZM15.74,26.74c.12,0,.09.12-.06.22a.87.87,0,0,1-1.07-.39c.06-.1.08-.26.17-.31C15.31,26,15.31,26.75,15.74,26.74Zm-1.6-7.3a.29.29,0,0,1-.32.29c-.14,0-.19-.11-.13-.29l.3-.27C14,19.26,14.14,19.35,14.14,19.44ZM11,1.66s.2.1.2.14a.39.39,0,0,1-.14.29c-.08,0-.21,0-.36,0A2.72,2.72,0,0,1,11,1.66Zm.34,14.55c-.06-.07-.18-.13-.18-.21a.29.29,0,0,1,.29-.33l.21.18Zm-1-11.85a1.51,1.51,0,0,1,.28-.15s.08.06.13.1a2.49,2.49,0,0,1-.28.15S10.38,4.4,10.33,4.36ZM11.25,8c.05,0,.13.07.13.1a1.67,1.67,0,0,1-.08.3l-.13-.09C11.2,8.15,11.22,8.05,11.25,8Zm7,46.69a2,2,0,0,1-.31-.08s.08-.12.11-.12a1.57,1.57,0,0,1,.31.08S18.26,54.64,18.23,54.64Zm.18.6s.07-.13.1-.13a2,2,0,0,1,.33.09s-.08.14-.11.13A1.28,1.28,0,0,1,18.41,55.24Zm.64,1.15s-.09-.07-.14-.1.08-.13.11-.13a1.87,1.87,0,0,1,.32.08A2,2,0,0,1,19.05,56.39ZM17.64,41c-.09-.06-.21-.26-.19-.28a.85.85,0,0,1,1.15-.14C18.42,41.08,18.16,41.37,17.64,41Zm.24-6.67c-.54.48-1,0-1.72-.38a11.1,11.1,0,0,1,1.67-.46.65.65,0,0,1,.66.53C18.57,34.63,18.07,34.18,17.88,34.36Zm1.47,2.4-.3-.33a1.9,1.9,0,0,1,.47-.2c.13,0,.42-.08.28.24A.4.4,0,0,1,19.35,36.76Zm1.3,1.53c0,.06,0,.11-.11.25-.14-.1-.23-.12-.23-.17-.07-.33-.6-.51-.34-.95,0-.07.25-.14.3-.1A1.09,1.09,0,0,1,20.65,38.29Zm3.9,23.21a1.91,1.91,0,0,1-.16-.27s.06-.09.1-.14a1.51,1.51,0,0,1,.15.28S24.58,61.46,24.55,61.5Zm-8-60.29s.2.08.22.15a.29.29,0,0,1-.24.38c-.08,0-.18-.07-.31-.13A4.39,4.39,0,0,1,16.56,1.21Zm6.05,43.43s-.08-.06-.13-.09a2.49,2.49,0,0,1,.28-.15s.09.06.14.09A1.34,1.34,0,0,1,22.61,44.64ZM21.52,33.19c-.15.09-.37.06-.32-.2a5.07,5.07,0,0,1,.23-.69c.11.12.22.18.25.27S21.77,33.06,21.52,33.19Zm2.7,13c-.06-.1-.12-.19-.17-.29l.12-.14c0,.1.12.19.16.29S24.26,46.16,24.22,46.21ZM19,3.63c-.07,0-.14-.11-.24-.19l.35-.35c.06.06.18.13.18.2A.29.29,0,0,1,19,3.63ZM20,3.46s-.09-.07-.13-.1a1.23,1.23,0,0,1,.29-.13s.08.06.13.09A1.92,1.92,0,0,1,20,3.46Zm8,51.17a1.73,1.73,0,0,1-.15-.27s.06-.08.1-.12.11.17.14.26S28.09,54.59,28.06,54.63Zm-1-7.36c-.11,0-.29-.12-.41-.19,0-.28.16-.31.31-.34s.39-.05.4.15A.51.51,0,0,1,27,47.27Zm-2.3-21c-.05,0-.14-.09-.14-.12a2,2,0,0,1,.09-.33s.13.08.13.12A2,2,0,0,1,24.73,26.31Zm6.7,25.59c-.07-.07-.19-.12-.2-.19s.09-.16.14-.25.13.08.13.11A2.17,2.17,0,0,1,31.43,51.9ZM27.1,14s.15.18.14.27a.62.62,0,0,1-.37.55c-.08-.07-.21-.13-.22-.2A.56.56,0,0,1,27.1,14Zm.36,1.9a1.87,1.87,0,0,1-.08.32c-.05,0-.14-.08-.13-.12a1.21,1.21,0,0,1,.09-.31S27.47,15.82,27.46,15.85Zm3.68,29a1.56,1.56,0,0,1-.16-.28s.07-.08.1-.12a1,1,0,0,1,.15.27S31.17,44.8,31.14,44.84Zm-.77-7.28a2,2,0,0,1-.33-.09l.13-.14.32.1S30.4,37.56,30.37,37.56Zm4.81,30.28L35,67.57l.1-.14a1.51,1.51,0,0,1,.15.28S35.21,67.8,35.18,67.84ZM29,24.75c-.34,0-.58-.14-.62-.49s0-.49.35-.4.62.09.68.44S29.2,24.67,29,24.75ZM34.18,47.1S34.1,47,34.05,47a1.51,1.51,0,0,1,.28-.15s.09.06.14.09A2,2,0,0,1,34.18,47.1ZM35.54,52l-.14-.11q0-.13.09-.3s.13.08.13.11S35.56,51.94,35.54,52Zm-2.06-16.9s-.13-.08-.12-.11a1.67,1.67,0,0,1,.08-.3s.13.07.13.1A1.58,1.58,0,0,1,33.48,35.14Zm1,4.36a1.68,1.68,0,0,1-.15-.3s.07-.09.11-.14a1.77,1.77,0,0,1,.15.31S34.53,39.46,34.49,39.5Zm1.14-8.33s-.09-.06-.14-.09.19-.11.29-.15.09.06.14.09A1.59,1.59,0,0,1,35.63,31.17Zm.7-7.34s-.1-.07-.11-.12a.3.3,0,0,1,.26-.37l.18.18Z" style="fill:#fff"/></g></g></svg>