<svg xmlns="http://www.w3.org/2000/svg" viewBox="0 0 46.98 45.02"><title>arkansas</title><g id="Layer_2" data-name="Layer 2"><g id="_ÎÓÈ_1" data-name="—ÎÓÈ 1"><path d="M35.17,32.23a1.36,1.36,0,0,1,.88-1.36,1,1,0,0,0,.54-.33,1.59,1.59,0,0,0,.16-.83,3.36,3.36,0,0,1,1.88-3.15,1.48,1.48,0,0,0,.83-1.31,12.74,12.74,0,0,1,.95-3.19c.45-1.18.92-2.37,2.26-2.78a5.5,5.5,0,0,1,1.44-2.69,1.76,1.76,0,0,0,.21-2.44,1.94,1.94,0,0,1-.15-1.94c.09-.2.16-.41.26-.59.74-1.27,1.31-2.63,2.11-3.87A2.5,2.5,0,0,0,47,6.44c-.25-.35-.51-.25-.75-.24l-2.15.08a.21.21,0,0,1,0,.16.44.44,0,0,1-.55.33.39.39,0,0,1-.36-.34s0-.07,0-.11c-1.47.09-1.93-.76-1.34-1.92.41-.8.7-1.66,1-2.49a6.13,6.13,0,0,0,.31-.81c.15-.64-.06-1-.71-1a19.47,19.47,0,0,0-2.16,0C36.77.12,33.23.54,29.68.8c-2.11.16-4.22.46-6.33.49-3.27.05-6.54.24-9.81.32-1.43,0-2.87.12-4.3.26a73.53,73.53,0,0,1-7.85.5,3.09,3.09,0,0,0-.43,0c-.77.1-1,.38-.95,1.13A4.51,4.51,0,0,0,.1,4c.34,1.88.67,3.75,1,5.62.27,1.41.53,2.82.87,4.22a10.3,10.3,0,0,1,.34,3,59.15,59.15,0,0,0,0,6.79,24.69,24.69,0,0,1,0,3.44c-.08,1.26-.12,2.52-.12,3.77a37.14,37.14,0,0,0,.42,5.48c.19,1.25.53,1.51,1.78,1.43a11,11,0,0,1,1.62,0c.73,0,1,.35,1.09,1.08,0,.47,0,.94.06,1.4,0,1.08.06,2.16.18,3.23s.31,1.3,1.46,1.48a5.83,5.83,0,0,0,1.72,0,24.65,24.65,0,0,1,2.58-.17c2.83-.09,5.67-.12,8.5-.31,3.52-.23,7-.36,10.55-.58a13,13,0,0,0,2.24-.3c.78-.18.94-.43.91-1.22a6.56,6.56,0,0,0-.34-2,8.88,8.88,0,0,1-.27-5A14.87,14.87,0,0,0,35.17,32.23ZM41.4,8.81a1.76,1.76,0,0,1-.1-.3s.08-.07.12-.11a1.71,1.71,0,0,1,.09.3S41.44,8.77,41.4,8.81ZM41.13.52c.11,0,.2.09.31.13,0,0-.1.12-.13.11A1.69,1.69,0,0,1,41,.63S41.1.52,41.13.52ZM41,7c0-.16.16-.17.27,0s.15.19.22.28l-.25.15C41,7.35,40.89,7.25,41,7Zm-4.71-1.6s.11.09.1.12a1.23,1.23,0,0,1-.13.29.69.69,0,0,0-.11-.13C36.15,5.62,36.19,5.53,36.24,5.44ZM1.92,8.56c-.18,0-.26-.14-.29-.31h0v0c-.11,0-.23,0-.34,0S.93,8.05,1,7.84a.36.36,0,0,1,.22-.23.31.31,0,0,1,.37.28,1.86,1.86,0,0,1,0,.34h0l0,0a1,1,0,0,1,.3,0,1.11,1.11,0,0,1,.27.17C2.11,8.48,2,8.57,1.92,8.56Zm1.2,2.59a.66.66,0,0,1-.58-.53.65.65,0,0,1,.3-.13c.24,0,.47,0,.55.3S3.31,11.09,3.12,11.15Zm4.21,7.67c0-.1-.09-.19-.12-.29s.08-.07.12-.11a1.45,1.45,0,0,1,.11.29S7.37,18.78,7.33,18.82ZM31.84,9.14c-.21,0-.22-.19-.25-.36s.05-.38.26-.33.25.23.36.35C32.09,8.92,32,9.11,31.84,9.14Z" style="fill:#fff"/></g></g></svg>