<svg xmlns="http://www.w3.org/2000/svg" viewBox="0 0 98.01 121.7"><title>california</title><g id="Layer_2" data-name="Layer 2"><g id="_ÎÓÈ_1" data-name="—ÎÓÈ 1"><path d="M27.21,77.56c-.06.08-.11.2-.18.22l-.26,0a2.39,2.39,0,0,1,.19.57,2,2,0,0,0,.53,1.27,14.92,14.92,0,0,1,2.23,3,4.74,4.74,0,0,0,2.18,1.95c.74.27.92.8.78,1.58,0,.18-.09.35-.13.52-.21.91-.17,1,.73,1.36a2,2,0,0,1,1.38,2.38c-.23,1.38,0,2.78-.19,4.17A1,1,0,0,0,35,95.72a2.82,2.82,0,0,1,1,1.09.94.94,0,0,0,1.19.47c.17,0,.36-.07.53-.12a3.13,3.13,0,0,1,3.3.65,2.53,2.53,0,0,0,2.73.44,2.5,2.5,0,0,1,2.36.23,8.19,8.19,0,0,1,2.44,2.09,5.81,5.81,0,0,0,3.13,2.09,5.27,5.27,0,0,0,3.65,0c.92-.35,1.28-.11,1.53.89.19.73.34,1.47.53,2.2.3,1.14.59,1.29,1.69.93,1.29-.43,1.52-.36,2.37.74a11.31,11.31,0,0,0,4.14,3.38,3.77,3.77,0,0,1,.48.28c0-.57-.41-1.21,0-1.65.35,0,.6.23.58.57-.05.75.26,1.14,1,1.17.15,0,.43,0,.3.27a.82.82,0,0,1-.32.42,1.05,1.05,0,0,1-.49.1,6.25,6.25,0,0,1,.68.92.76.76,0,0,0,.27-.21c.09-.12.36,0,.36.23s-.06.47-.14.48l-.2,0a27.27,27.27,0,0,1,1.41,3.61,1.36,1.36,0,0,1,0-.4c.77.25,1.32,1,2.31.88-.3.65-.4,1.1-.91,1.2s-.21-.92-.8-.66l-.3.13a8.24,8.24,0,0,1,.29,2.37c0,.36-.09.73.26,1a1.41,1.41,0,0,0,.93.06c2.28-.28,4.56-.58,6.84-.87s4.63-.6,7-.88c2.64-.32,5.28-.65,7.92-.9A3.64,3.64,0,0,0,96,117.15a1.21,1.21,0,0,0,0-1.59,7.87,7.87,0,0,1-1.51-3.64,3,3,0,0,1,.5-2.56,4,4,0,0,0,.82-2.93c0-.4,0-.8,0-1.19a7.41,7.41,0,0,1,1.92-6,1.54,1.54,0,0,0,.34-1.5,5.68,5.68,0,0,0-.88-1.84,72.4,72.4,0,0,1-4-6.49,7.21,7.21,0,0,0-1.75-2.16l-6.9-6.09a.41.41,0,0,1-.13.08.32.32,0,0,1-.37-.25.56.56,0,0,1,0-.26l-.21-.18a45.52,45.52,0,0,0-3.6-2.89.21.21,0,0,1-.23,0,.54.54,0,0,1-.29-.42h0a23.59,23.59,0,0,1-4.9-4.18c-.1-.11-.21-.2-.32-.3-2.92-2.45-5.67-5.08-8.48-7.66-.84-.77-1.64-1.61-2.49-2.38-.44-.41-.89-.8-1.33-1.2a.21.21,0,0,1,0,.07c.07.51-.05.93-.53,1.08-.25-.08-.28-.17-.2-.32l.52-1c-1.16-1-2.32-2.06-3.46-3.1-1.81-1.67-3.45-3.51-5.27-5.17a2.58,2.58,0,0,1-.85.23,1.4,1.4,0,0,1,.28-.75c-.91-.83-1.81-1.67-2.67-2.56L49.79,50a.9.9,0,0,1-.34-.21l0-.09a46.87,46.87,0,0,0-5.38-5c-1.38-1-2.58-2.29-3.9-3.39a5,5,0,0,1-1.78-4.1c0-1,0-2,0-3s0-2.14-.06-3.2l-.26-.15a1.58,1.58,0,0,1,.25-.17c0-1.05,0-2.11-.06-3.16-.08-2.91,0-5.82-.11-8.73a63.51,63.51,0,0,1,0-9.15c.23-2.45,0-4.88,0-7.32,0-1-.13-1.09-1.14-1.13a21.67,21.67,0,0,1-2.68-.12A26,26,0,0,0,31.45.76l-.06.08L31.33.75c-.74,0-1.48-.05-2.22,0a50,50,0,0,1-6.24,0A17.66,17.66,0,0,0,20,.63,103.56,103.56,0,0,1,6.09.15C5.59.1,5.09,0,4.58,0A4,4,0,0,0,2.77.34a.38.38,0,0,1-.29.27A.57.57,0,0,1,2.35.53c-1,.5-1.07,1.35-.22,2.11.18.17.43.28.6.45.69.71,1.38,1.43.8,2.54a1,1,0,0,0,0,.84A1.66,1.66,0,0,1,3.4,8a4.09,4.09,0,0,0-.47,2.25,7.37,7.37,0,0,1-.55,3.13,1.15,1.15,0,0,0-.08.83,1.84,1.84,0,0,1-.54,2,3.07,3.07,0,0,0-.91,2,2.4,2.4,0,0,1-.47,1.07,2.25,2.25,0,0,0,.54,3.06,11,11,0,0,1,3.72,6A5.89,5.89,0,0,0,5.11,30a1.62,1.62,0,0,1-.19,2,1.13,1.13,0,0,0-.06,1.56,2.4,2.4,0,0,1,.34,1.76,9,9,0,0,0,0,2.89,1.83,1.83,0,0,0,.6,1.21,4.45,4.45,0,0,1,1.36,1.9,1.87,1.87,0,0,0,.81,1,3.52,3.52,0,0,1,1.35,1.51,1.81,1.81,0,0,0,.9.89,1.82,1.82,0,0,1,1,1.18,1.69,1.69,0,0,0,.33.67,6.11,6.11,0,0,1,1.33,3,1.33,1.33,0,0,0,.78,1.09,3.78,3.78,0,0,1,1.48,1.21c.15.2.3.42.67.29a5.43,5.43,0,0,0,.42-1.94,1.21,1.21,0,0,1,.94-1.16,1.18,1.18,0,0,1,1.3.55,2.52,2.52,0,0,1,.55,2,3.32,3.32,0,0,0,.54,2.45A31.31,31.31,0,0,1,21.13,57a1.68,1.68,0,0,1-.78,2,1.25,1.25,0,0,1-1.59-.5c-.19-.29-.39-.63-.85-.47a5.87,5.87,0,0,0,0,4.79,1.26,1.26,0,0,0,.33.42c1.17.73,2.1,2.06,3.78,1.63a1.38,1.38,0,0,1,.53,0,.81.81,0,0,1,.76.67,9,9,0,0,1,.06,2.79c-.1.68-.69,1-1.13,1.38-.05,0-.07.12-.12.21a11.41,11.41,0,0,0,.44,3,2.4,2.4,0,0,0,.87,1.33,6.38,6.38,0,0,1,1.62,1.85,2.11,2.11,0,0,0,.91.89,1.53,1.53,0,0,1,.67.54l0,0A3,3,0,0,1,27.21,77.56Zm63.53,28.07s-.1-.06-.15-.09a1.67,1.67,0,0,1,.28-.18s.1,0,.15.08A2.31,2.31,0,0,1,90.74,105.63Zm4.37,11.91s-.1-.05-.15-.08.06-.15.1-.15a1.92,1.92,0,0,1,.32,0A2.11,2.11,0,0,1,95.11,117.54Zm-1.2-9.85a1.67,1.67,0,0,1,.31,0s-.06.13-.1.13a1.81,1.81,0,0,1-.31-.05S93.88,107.69,93.91,107.69Zm-1.2-3.34a.49.49,0,0,1,.08.28s-.07.1-.11.09-.2-.11-.17-.25S92.62,104.25,92.71,104.35Zm-2.08-7.84-.3-.05s.07-.12.1-.13a2.54,2.54,0,0,1,.29,0ZM89.4,92.46c.07.1.18.19.18.29a.7.7,0,0,1-.33.59c-.07-.09-.18-.18-.18-.27A.76.76,0,0,1,89.4,92.46ZM92,107.73a2.11,2.11,0,0,1,.33,0c-.06.08-.1.2-.17.21s-.17-.06-.26-.1S92,107.74,92,107.73Zm-3.11-11.5c-.12,0,.16,0,.29.13s-.17.26-.32.28-.48,0-.54-.31S88.4,96.11,88.88,96.23Zm4,22.24-.31,0s.06-.14.09-.14.21,0,.32,0Zm-7.6-31.19a1.64,1.64,0,0,1,.32,0s-.06.14-.09.14a1.77,1.77,0,0,1-.32,0S85.2,87.28,85.23,87.28Zm3.54,19.51c.17-.71,0-1.29.52-1.7C89.93,106.34,89.93,106.34,88.77,106.79ZM87,97.14s.09.06.14.09a2.61,2.61,0,0,1-.27.19s-.09-.06-.14-.1A2.53,2.53,0,0,1,87,97.14Zm-.21.8s.1.06.15.09l-.26.2-.16-.1C86.63,98.07,86.72,98,86.81,97.94Zm3.66,16.93c0-.18.09-.34.32-.33a.22.22,0,0,1,.13.08c-.09.18-.28.2-.45.25,0,0-.07,0-.07.07s-.06,0-.1.06c0,.18-.07.34-.3.34,0,0-.14-.07-.13-.09.07-.2.26-.22.43-.25,0,0,.07,0,.07-.08S90.43,114.88,90.47,114.87Zm-3.11-10.08c0-.05.06-.13.1-.14a1.65,1.65,0,0,1,.31,0,.71.71,0,0,1-.1.14ZM83.81,88.1a2.53,2.53,0,0,1,.18.27s-.07.09-.1.14-.12-.18-.17-.27Zm1.87,9.43s.11.06.12.1a1.5,1.5,0,0,1,0,.3c-.07,0-.19-.07-.19-.12A.77.77,0,0,1,85.68,97.53ZM80.58,80a.28.28,0,0,1,.33.3.63.63,0,0,1-.08.15l-.49-.23C80.44,80.14,80.51,80,80.58,80Zm4.13,18c0,.78-.71.35-1.1.71,0-.55-.19-1,.38-1.08C84.22,97.6,84.71,97.63,84.71,98Zm-3-9.13a1.63,1.63,0,0,1,.45,0c-.1.16-.12.23-.17.25-.25.09-.31.53-.68.38a.34.34,0,0,1-.22-.25C81.05,88.8,81.44,88.93,81.67,88.85ZM79.25,87.2a.27.27,0,0,1,.31.31s0,.15-.08.15a.43.43,0,0,1-.42-.27C79.11,87.33,79.18,87.2,79.25,87.2Zm2,9a1.57,1.57,0,0,1,.3,0s-.06.12-.09.12-.2,0-.3,0S81.24,96.22,81.27,96.22Zm-1.09.25a1.54,1.54,0,0,1,.31,0s-.06.13-.09.13a1.77,1.77,0,0,1-.32-.05S80.15,96.47,80.18,96.47Zm1.39,6.68c0-.05.08-.12.2-.07s.33.12.31.34c0,0-.08.1-.13.1S81.59,103.51,81.57,103.15Zm1,3.54a1.28,1.28,0,0,1,.15.25s0,.09-.08.14l-.2-.19Zm-13,7.91a1.79,1.79,0,0,1-.23.25l-.18-.26c0-.17.13-.32.35-.27S69.59,114.47,69.5,114.6Zm-2-4.11c.38-.45.63-.71.83-1s.51-.63.87-.52a1.19,1.19,0,0,1,.87,1c0,.39-.52.44-.68.62C68.59,111.59,68.23,110.48,67.53,110.49Zm.1-4a.21.21,0,0,1-.09.13.56.56,0,0,1-.64.07c0-.09.06-.21.13-.24A.45.45,0,0,1,67.63,106.47Zm-2.26-9.4s.07-.08.1-.13l.3.06a.45.45,0,0,1-.1.13A.18.18,0,0,1,65.37,97.07Zm5.4,15c.25,0,.56.08.56.44,0,.14-.16.4-.26.4a.55.55,0,0,1-.61-.48A.3.3,0,0,1,70.77,112.07ZM65.54,90.28l.09-.14a1.65,1.65,0,0,1,.19.27s-.06.09-.09.14Zm5.12,25.92c-.16,0-.38.06-.37-.19a.59.59,0,0,1,.43-.51c.21,0,.36,0,.38.24S70.91,116.15,70.66,116.2Zm.49-1.69c-.1,0-.18-.13-.27-.21a.78.78,0,0,1,.31-.8c.26-.18.46-.6.9-.4.1.05.25.15.26.24C72.37,113.8,71.59,114.56,71.15,114.51ZM67,90.45a.5.5,0,0,1-.28.57c-.23.11-.28-.08-.33-.24s0-.48.24-.56A.27.27,0,0,1,67,90.45Zm-1.47-5.13s0-.1.09-.15.13.07.13.1a1.88,1.88,0,0,1,0,.33A2.09,2.09,0,0,1,65.51,85.32Zm7.1,34.93c-.07,0-.16-.06-.25-.1s.07-.12.1-.12a1.71,1.71,0,0,1,.31,0C72.72,120.13,72.67,120.24,72.61,120.25Zm.5-2.76s-.13-.1-.19-.16a3.08,3.08,0,0,1,.47-.19s.13.09.25.18A4,4,0,0,1,73.11,117.49Zm.17-2.26c.21.86-.91.87-1,1.52-.35-1,.32-1.25,1-1.52,0,0,0,0,0,0h0s0-.08-.07-.13l-.24-.41c.1,0,.23-.14.31-.11.29.11.29.33.12.56,0,0-.08.06-.12.09l0,0S73.3,115.23,73.28,115.23Zm-1.1-3.5a1.67,1.67,0,0,1,0-.31s.14.06.14.1a1.92,1.92,0,0,1-.05.32S72.18,111.77,72.18,111.73Zm5.76,3-.18-.26c0-.06.11-.11.17-.17a1.11,1.11,0,0,1,.1.29S78,114.64,77.94,114.69ZM84,116.78c-.2.08-.32,0-.39-.24s0-.35.28-.33a.46.46,0,0,1,.28.17C84.32,116.58,84.17,116.71,84,116.78Zm-2.66-9.62c-.08,0-.19-.1-.29-.15.3-.23.77-.43.86,0S81.55,107.12,81.35,107.16Zm-2.26-11.8s-.07.13-.1.13a2.84,2.84,0,0,1-.31-.06l.1-.14ZM75.86,85.25l.45.09c-.09.07-.17.18-.27.19a1.63,1.63,0,0,1-.49,0Zm4,19.33a1.1,1.1,0,0,1,.31,0l-.09.15-.32-.06S79.8,104.58,79.83,104.58ZM71.43,75a.36.36,0,0,1,.26.17c.11.19,0,.33-.18.39s-.32,0-.38-.25S71.22,75,71.43,75Zm9.48,42.42a2.61,2.61,0,0,1-.27.19s-.1,0-.16-.08c.1-.07.19-.15.28-.2S80.86,117.36,80.91,117.39Zm-2.48-9.22a1.77,1.77,0,0,1-.05.32c-.06,0-.15-.06-.15-.09a1.8,1.8,0,0,1,.06-.32S78.43,108.14,78.43,108.17ZM71,79.59a1.61,1.61,0,0,1,.49,0c-.06.07-.11.19-.19.22a4,4,0,0,1-.54,0C70.88,79.73,70.94,79.6,71,79.59Zm1.7,8c.07,0,.22,0,.33,0l-.19.5c-.11-.08-.25-.13-.26-.19A.38.38,0,0,1,72.72,87.61Zm6.08,28.11-.27-.13a1.82,1.82,0,0,1,.16-.31c.09-.14.21-.14.29,0S79,115.63,78.8,115.72Zm-.67-3.92c0,.16,0,.35-.27.31a.46.46,0,0,1-.26-.17c-.11-.19,0-.31.17-.39S78.11,111.62,78.13,111.8Zm-4.5-18.15c0,.1-.27.18-.42.22s-.2-.08-.31-.12l.35-.3C73.45,93.46,73.68,93.42,73.63,93.65Zm-5-19.19s.09.07.14.1a1.61,1.61,0,0,1-.28.17s-.09-.06-.14-.09A1.21,1.21,0,0,1,68.65,74.46Zm.51,3.7s.1.06.15.1c-.1.06-.19.13-.29.18s-.1-.07-.15-.1A2.29,2.29,0,0,1,69.16,78.16Zm7.25,32.16.15.16a1.45,1.45,0,0,1-.26.11s-.09-.06-.13-.09Zm1.23,5s.1.06.15.09l-.27.2-.16-.09A1.79,1.79,0,0,1,77.64,115.36Zm.22,2s-.06.13-.1.13a1.72,1.72,0,0,1-.31,0c0-.08.09-.19.15-.2S77.77,117.34,77.86,117.37ZM67.24,78.86c.08-.16.19-.29.41-.21s.44.14.76.24a4.06,4.06,0,0,1-.73.34,1.47,1.47,0,0,1-.5,0A1.07,1.07,0,0,1,67.24,78.86Zm9.65,39c-.58.94-1.41,1-2.26,1-.33,0-.43,0-.42-.29s.27-.61.37-.54C75.39,118.65,76,117.75,76.89,117.89ZM67.1,80.27c.05,0,.13.07.13.1a1.54,1.54,0,0,1,0,.31l-.14-.1Zm1.6,8.38s.12.06.13.09,0,.2,0,.3L68.65,89C68.66,88.85,68.68,88.75,68.7,88.65Zm5.55,23.15c-.27.15-.54.27-.79.44s-.45.07-.5-.21-.07-.55.28-.55A1.39,1.39,0,0,1,74.25,111.8ZM68.06,90c.36,0,.41.13.45.29s0,.4-.18.39a.56.56,0,0,1-.43-.26C67.87,90.24,68,90.06,68.06,90Zm3.65,15.7c-.06.48-.46.46-.78.52-.14,0-.4-.06-.44-.16-.16-.4.17-.25.37-.3s.4-.2.62-.27C71.53,105.44,71.63,105.59,71.71,105.66ZM66.63,85.81a1.5,1.5,0,0,1,0,.3c-.08,0-.2-.07-.2-.11a.72.72,0,0,1,.07-.28S66.62,85.77,66.63,85.81Zm-2.24-9a1.18,1.18,0,0,1-.12.33.42.42,0,0,1-.29.13c-.55-.2-.78-.7-1.17-1.23C63.78,75.69,63.81,76.68,64.39,76.77ZM60,63.37a.46.46,0,0,1-.27.09s-.07-.06-.11-.09l.25-.18C60,63.22,60.09,63.3,60,63.37ZM58.67,59.7s.1.06.15.09a2.19,2.19,0,0,1-.29.17s-.09-.06-.14-.09A1.61,1.61,0,0,1,58.67,59.7Zm6.12,27.17c-.69.31-1.36.84-2.12.53-.11,0,.16-.45.54-.44A14,14,0,0,0,64.79,86.87ZM59.51,73.93c.07-.15.14-.33.34-.28a.37.37,0,0,1,.16.27.3.3,0,0,1-.37.25C59.47,74.15,59.43,74.07,59.51,73.93Zm6.81,28.65a1.61,1.61,0,0,1-.28.17s-.09-.07-.13-.1a1.53,1.53,0,0,1,.27-.17S66.28,102.54,66.32,102.58Zm-1.91-5.93a1,1,0,0,1-.3,0s.06-.12.1-.12a1.08,1.08,0,0,1,.3,0S64.44,96.65,64.41,96.65ZM56.14,63.09a2.68,2.68,0,0,1,.18.28s-.06.09-.09.14a1.73,1.73,0,0,1-.19-.28S56.1,63.14,56.14,63.09Zm.48,3.2a1.54,1.54,0,0,1,.31,0s-.06.13-.1.13a1.81,1.81,0,0,1-.31,0S56.59,66.29,56.62,66.29ZM65.79,106c.19-.1.33,0,.38.19s0,.19-.09.32a2.37,2.37,0,0,1-.4-.28A.33.33,0,0,1,65.79,106Zm-4-2.16c0,.07-.15.21-.21.2-.25,0-.47-.16-.49-.47,0-.15.09-.23.21-.2S61.78,103.56,61.79,103.86Zm-.63-1.08c-.28,0-.63-.11-.61-.49s0-.76.46-.88c.38,0,.77.17.78.6A.71.71,0,0,1,61.16,102.78Zm.31-3.14c0,.3-.29.53-.67.29-.77-.47-.69-1.19-.57-2.1.38.13.92.24.92.32C61.11,98.7,61.51,99.14,61.47,99.64Zm-1.83-3.57a.41.41,0,0,1,.22-.45.43.43,0,0,1,.61.2,7.58,7.58,0,0,1,.05,1.43C60.1,96.75,59.69,96.55,59.64,96.07Zm1-4.55c-.27,0-.52,0-.55-.32,0-.07.12-.22.21-.25a.48.48,0,0,1,.62.25C61,91.41,60.79,91.46,60.64,91.52ZM58.89,80.61a2.91,2.91,0,0,1,.31,0s-.06.13-.09.13a1.53,1.53,0,0,1-.3,0S58.86,80.61,58.89,80.61ZM55.62,68.43a1.57,1.57,0,0,1,.3,0s-.06.12-.09.12a1.06,1.06,0,0,1-.31,0S55.59,68.43,55.62,68.43ZM58.5,81.79s.1,0,.28.14a2,2,0,0,1-.42.21c-.24,0-.47,0-.71.07a1.07,1.07,0,0,1,.06-.32C57.91,81.5,58.23,81.77,58.5,81.79Zm-3.42-9.44c.27-.1.46.08.65.24s.05.18-.07.27a.68.68,0,0,1-.65-.25C54.92,72.53,54.94,72.4,55.08,72.35Zm2.18,15.49a.85.85,0,0,1,.93.83s0,0,.06,0v0c.23,0,.5-.17.65.08a2,2,0,0,1,.26,1.87c-.09.22-.11.5-.41.47s-.33-.28-.43-.5c-.28-.64,0-1.29-.07-1.92h0s0,0,0,0c-.57.23-.84-.14-1.07-.58C57.09,88,57.21,87.84,57.26,87.84ZM52.59,77.51s.13.08.2.13-.07.11-.1.12a1.67,1.67,0,0,1-.31-.05C52.45,77.64,52.5,77.54,52.59,77.51Zm6,24.34c0,.1,0,.2,0,.3s-.13-.07-.13-.1a1.57,1.57,0,0,1,0-.3S58.63,101.81,58.63,101.85Zm-.15,1.24c.09-.24.23-.43.52-.41s.2.12.13.28-.23.43-.53.41S58.4,103.24,58.48,103.09Zm-8-25c.1.08.2.12.23.2a.28.28,0,0,1-.2.38c-.07,0-.18-.06-.27-.09ZM34.34,10s.13.07.13.11a1.67,1.67,0,0,1,0,.31l-.14-.11Zm3.5,23.85a1.55,1.55,0,0,1,.31,0s-.06.13-.09.13a1.54,1.54,0,0,1-.31,0S37.81,33.81,37.84,33.81Zm12.63,68.1a1.87,1.87,0,0,1-.32,0c.06-.07.1-.18.16-.19s.17.06.25.1S50.5,101.9,50.47,101.91Zm-1.14-3.3s.07-.14.1-.14a1.8,1.8,0,0,1,.32.06,2.68,2.68,0,0,1-.28.18S49.38,98.65,49.33,98.61ZM42.55,59.24a1.88,1.88,0,0,1-.33-.05c.07-.07.13-.19.21-.21s.15.08.23.13S42.59,59.24,42.55,59.24Zm9.85,38a.21.21,0,0,1-.38-.07c0-.13.11-.3.15-.37s.3-.14.32,0A.57.57,0,0,1,52.4,97.24ZM43.68,56.7c0,.06-.08.24-.11.24a1,1,0,0,1-.31-.14c-.14-.1-.13-.2,0-.28A.29.29,0,0,1,43.68,56.7ZM39,40.89c.23.07.4.38.6.59-.12.11-.23.28-.37.3a.41.41,0,0,1-.54-.31C38.71,41.22,38.83,40.85,39,40.89Zm-1.13-.49a2.76,2.76,0,0,1,.08.27s-.06.07-.1.11a2.2,2.2,0,0,0-.17-.25Zm2.7,8a2.49,2.49,0,0,1-1.09.88C39.54,48.5,40,48.46,40.57,48.43Zm-4.94-14.6c-.07,0-.17-.06-.26-.1s.06-.14.1-.14a2,2,0,0,1,.34,0C35.75,33.7,35.7,33.82,35.63,33.83Zm-7.2-28.3s.06,0,.07-.06l.05,0a.31.31,0,0,1,.23-.35c.16,0,.26.09.19.15a1.81,1.81,0,0,1-.42.2s0,0,0,0-.05,0-.09,0c0,.18-.12.34-.34.33,0,0-.12-.08-.12-.09C28.06,5.58,28.25,5.57,28.43,5.53ZM26.7,1.41a1.57,1.57,0,0,1,.3.05s-.06.12-.09.12a1.67,1.67,0,0,1-.31-.05S26.67,1.41,26.7,1.41ZM48.51,94.93a.76.76,0,0,1,.2.2h0c.08-.07.17-.13.24-.2a.37.37,0,0,1,.67.26,1,1,0,0,1-.48.17,1.07,1.07,0,0,1-.43-.23l0,0s0,0,0,0a1,1,0,0,1-.29,0,1.37,1.37,0,0,1-.29-.07A.26.26,0,0,1,48.51,94.93Zm-13-51.8a1,1,0,0,1,.3,0,1,1,0,0,1-.08.14l-.31-.05S35.46,43.13,35.49,43.13ZM42.8,73.78c.1,0,.2,0,.3,0S43,74,43,74s-.21,0-.31,0S42.77,73.78,42.8,73.78Zm-2.49-8.44a.71.71,0,0,0-.1.14l-.31,0c0-.05.06-.13.1-.13A1.15,1.15,0,0,1,40.31,65.34Zm-8.73-34.6s.1.05.15.07a1.16,1.16,0,0,1-.27.18s-.09,0-.13-.08A1.38,1.38,0,0,1,31.58,30.74Zm9.36,42a2.2,2.2,0,0,1,.18.28s-.06.1-.09.14a1.59,1.59,0,0,1-.18-.27S40.91,72.83,40.94,72.78Zm-.39,15.14s0,0,0,0l-.08,0c0,.16-.08.3-.25.33s-.24-.09-.15-.15a1.81,1.81,0,0,1,.4-.18s0,0,0,0,0,0,0,0c0-.4-.61-.6-.38-1a1.12,1.12,0,0,1,.54-.44c.13-.06.32,0,.49.07C41.05,87,41.46,87.76,40.55,87.92Zm1.73.71c-.3.1-.39-.16-.5-.34s0-.51.23-.6.41.14.47.37S42.58,88.53,42.28,88.63Zm-.43-2.95c-.17,0-.33-.06-.32-.3.06,0,.16-.18.18-.16a2.27,2.27,0,0,1,.4.29C42,85.57,41.94,85.68,41.85,85.68ZM22.31,2.56a2.4,2.4,0,0,1,.18.26s-.06.09-.1.14a2.33,2.33,0,0,0-.17-.26Zm5.61,24.8c.23-.05.47-.18.67,0,0,0,0,.24-.09.33-.26.32-.56,0-.84,0,0,0-.09-.07-.22-.19A3.7,3.7,0,0,1,27.92,27.36Zm5.4,27.81a2.68,2.68,0,0,1,.18.28s-.06.1-.09.15a1.67,1.67,0,0,1-.18-.28S33.29,55.22,33.32,55.17Zm6.24,25.14c.42.22.82.5,1.32.83-.66.26-1.06-.08-1.5-.14s-.44-.15-.23-.42S39.49,80.27,39.56,80.31ZM30.24,43.72a2.07,2.07,0,0,1,.15.25s-.05.09-.08.14l-.21-.19C30.15,43.86,30.19,43.79,30.24,43.72ZM21.61,10.25c.18-.07.32,0,.42.19l-.06.32a3.5,3.5,0,0,1-.42-.24C21.44,10.44,21.47,10.31,21.61,10.25ZM29.1,43.11c.06,0,.15.07.22.12s-.06.12-.1.12a2.89,2.89,0,0,1-.29,0C29,43.24,29,43.13,29.1,43.11ZM19.85,6.57s.12.06.13.09a1.65,1.65,0,0,1,0,.3c-.07,0-.19-.09-.19-.14S19.81,6.65,19.85,6.57Zm14,81.28a1.53,1.53,0,0,1-.17-.27s.06-.09.09-.14a1.53,1.53,0,0,1,.17.27S33.9,87.8,33.86,87.85Zm-7.23-49.1s.09.06.14.09a1.81,1.81,0,0,1-.27.18s-.09-.05-.15-.08A1.73,1.73,0,0,1,26.63,38.75Zm8.73,38.67c.09,0,.19.07.28.11s-.07.13-.1.13a2,2,0,0,1-.34,0C35.26,77.56,35.3,77.43,35.36,77.42Zm.86,6c-.06.07-.11.18-.18.2a2.69,2.69,0,0,1-.54.06c.11-.12.16-.24.23-.25A2.68,2.68,0,0,1,36.22,83.43ZM34,77.63c-.07,0-.19-.06-.29-.09l.26-.46c.1.12.22.21.22.29A.36.36,0,0,1,34,77.63ZM19.77,17.94s.09,0,.13.08a1.48,1.48,0,0,1-.27.16s-.08-.06-.13-.09A1.43,1.43,0,0,1,19.77,17.94ZM31.46,66.16c0,.15-.07.2-.19.16S31,66.2,31,66s.19-.12.27-.09A.39.39,0,0,1,31.46,66.16Zm1.81,8.35s.1.07.15.1a1.75,1.75,0,0,1-.29.18S33,74.73,33,74.7A2.75,2.75,0,0,1,33.27,74.51ZM28.69,57.69c.69.17-.17.33,0,.52s.19.18.21.29a.41.41,0,0,1-.36.5c-.07,0-.18-.26-.21-.29-.06-.24-.09-.36-.11-.47C28.13,57.84,28.39,57.62,28.69,57.69ZM35.34,87.2a1.17,1.17,0,0,1,0,.32s-.13-.06-.13-.1a1.1,1.1,0,0,1,0-.31S35.34,87.17,35.34,87.2ZM25.86,47.87a1.16,1.16,0,0,1-.18-.27s.05-.1.09-.15.13.18.18.27S25.89,47.82,25.86,47.87Zm-2.45-9.74c-.15-.08-.34-.13-.3-.33,0,0,.21-.12.29-.1a.38.38,0,0,1,.21.25C23.64,38.1,23.54,38.16,23.41,38.13ZM14.65,2A1.65,1.65,0,0,1,15,2s-.07.13-.1.13a1.67,1.67,0,0,1-.31,0S14.62,2,14.65,2Zm12.8,53s.1,0,.15.08a2.11,2.11,0,0,1-.27.18s-.1-.05-.15-.08A1.59,1.59,0,0,1,27.45,55Zm8.69,36.81a.35.35,0,0,1,.31.1.3.3,0,0,1-.17.43c-.11,0-.26,0-.31-.11S36,91.83,36.14,91.76Zm-4-14.58a1.16,1.16,0,0,1,.18.27s-.06.09-.09.14a2.11,2.11,0,0,1-.18-.27S32.06,77.22,32.09,77.18Zm.6,3.56a.31.31,0,0,1,.42.21c0,.08-.11.24-.16.23a.38.38,0,0,1-.38-.31S32.64,80.76,32.69,80.74ZM27,57.42a.35.35,0,0,1,0,.27,1,1,0,0,1-.24.22l-.16-.29C26.64,57.44,26.77,57.34,27,57.42Zm4.52,21.73a.54.54,0,0,1,.66.13c.22.2,0,.3-.13.36s-.48.12-.62-.18C31.42,79.36,31.41,79.19,31.48,79.15Zm-3.69-1.93c0-.15.08-.21.2-.16s.32.11.3.32a.16.16,0,0,1-.13.09C28,77.5,27.82,77.45,27.79,77.22ZM25.68,57.28c.16,0,.23.08.17.21a.68.68,0,0,1-.2.27s-.22,0-.23-.11A.29.29,0,0,1,25.68,57.28ZM20.1,37.77a1.53,1.53,0,0,1,.11.27s-.06.09-.1.13l-.18-.24A1.29,1.29,0,0,1,20.1,37.77ZM30.75,80.62c-.64.33-1.17.72-1.73-.07A1.23,1.23,0,0,1,30.75,80.62Zm-1.74-2c0,.19-.18.25-.35.29s-.35.08-.36-.25c.08-.09.19-.3.31-.3A.51.51,0,0,1,29,78.66Zm-2.56-9.23a.55.55,0,0,1-.56-.28c-.11-.14-.12-.36.06-.4a.54.54,0,0,1,.54.36C26.53,69.19,26.47,69.32,26.45,69.43Zm-3-10.78c.29.3.83.55.66,1s-.74.48-1.23.25C22.84,59.34,23.46,59.14,23.48,58.65Zm-4.92-17.5a1.61,1.61,0,0,1,.17.28s-.06.09-.09.14a2.68,2.68,0,0,1-.18-.28S18.53,41.2,18.56,41.15Zm-11.93-8c-.39.11-.65-.15-.87-.42a.3.3,0,0,1,.18-.43.76.76,0,0,1,.86.44A.27.27,0,0,1,6.63,33.14Zm3.42-.56a2.09,2.09,0,0,0-.22-.2c0-.18,0-.34.24-.35s.16.09.24.14C10.23,32.31,10.14,32.44,10.05,32.58ZM8.7,20.71s-.09-.06-.14-.09,0-.22.07-.33.11.06.14.11A.19.19,0,0,1,8.7,20.71Zm1.41-2.52s-.1-.05-.16-.09a2,2,0,0,1,.28-.19s.1.05.15.08A1.35,1.35,0,0,1,10.11,18.19Zm9.56,41.73c-.08.26-.36.31-.6.33s-.23-.09-.18-.23.17-.48.47-.46S19.73,59.73,19.67,59.92Zm.56-6.45a1.57,1.57,0,0,1-.3,0s.06-.13.09-.13a1.67,1.67,0,0,1,.31.05S20.27,53.47,20.23,53.47ZM18.83,47a.35.35,0,0,1-.46-.12c.08-.13.15-.35.27-.39s.34.09.42.21S19,46.94,18.83,47ZM13.52,23.84a.3.3,0,0,1-.41-.2l.15-.25.38.33S13.57,23.83,13.52,23.84Z" style="fill:#fff"/></g></g></svg>