<svg xmlns="http://www.w3.org/2000/svg" viewBox="0 0 66.59 51.56"><title>colorado</title><g id="Layer_2" data-name="Layer 2"><g id="_ÎÓÈ_1" data-name="—ÎÓÈ 1"><path d="M1.77,49.83c.65,0,1.29-.06,1.94,0,2.33.16,4.63.53,7,.63,3.58.15,7.16.46,10.75.66,1.65.1,3.31,0,4.95.14,3.41.2,6.82.24,10.24.2s6.54,0,9.8.06a96,96,0,0,0,13.46-.46,12.34,12.34,0,0,1,1.61,0,17.27,17.27,0,0,0,3.87-.19c1-.2,1.2-.4,1.22-1.43,0-1.73,0-3.45,0-5.17,0-2.16,0-4.32-.11-6.47,0-.45,0-.91,0-1.37,0,0,0,.05,0,.07-.18.36-.52.48-1.11.39.26-.33.47-.61.7-.88s.31-.19.42,0c0-1.59,0-3.18-.13-4.76-.06-.64,0-1.29,0-1.94,0-2.41,0-4.81,0-7.22-.1-4.85-.41-9.69-.39-14.54,0-.58-.08-1.15-.12-1.72h0c0-.43-.06-.86-.1-1.29s0-.56-.07-.85c-.21.57-.57.73-1.22.53.46-.2.67-.65,1.22-.55l0-.42c-.16-1.32-.45-1.6-1.8-1.6-1.54,0-3.08,0-4.63.07s-3,.06-4.52.06c-3.31,0-6.6-.39-9.91-.39-2.55,0-5.1-.13-7.65-.18L29.38,1c-2.51-.08-5,0-7.54-.19L10.33.15c-2-.11-4-.18-6-.14C3.35,0,3,.29,2.78,1.22a9.85,9.85,0,0,0-.3,2c-.11,1.82-.3,3.65-.33,5.48S1.9,12.31,2,14.11A86.24,86.24,0,0,1,1.73,24C1.39,29,1,34,.57,39,.4,41.13.46,43.33.16,45.51A22.2,22.2,0,0,0,0,48.09C0,49.36.49,49.84,1.77,49.83ZM60.66,13.58a2,2,0,0,1,.38.32c.18.24,0,.29-.2.29a.31.31,0,0,1-.31-.35A2.09,2.09,0,0,0,60.66,13.58ZM56.11,23.93a3.71,3.71,0,0,1,.59-.1c.93-.12,1.55-.22,2,.39.15.21.72.12.5.56a.85.85,0,0,1-1,.6c-.79-.08-1.34-.78-2.16-.67-.08,0-.23-.26-.27-.42S55.94,24,56.11,23.93Zm0,13.16a.5.5,0,0,1,0,.28s-.07.06-.1.09L56,37.18C56,37,56.09,37,56.14,37.09Zm-2.7-6.28c.09,0,.2.06.31.09l-.34.24L53.06,31A1.19,1.19,0,0,1,53.44,30.81ZM51.55,15.47a1.88,1.88,0,0,1,.12.3s-.07.08-.12.13a1.66,1.66,0,0,1-.12-.31S51.51,15.51,51.55,15.47Zm-1.48-6c-.21.53-.1,1.08-.72,1-.15,0-.41-.23-.4-.31C49,9.73,49.45,9.63,50.07,9.48Zm.67,30.59s.1.08.11.13a.29.29,0,0,1-.28.36l-.19-.18ZM46.93,15.19l-.3-.09s.08-.12.12-.11a1.67,1.67,0,0,1,.3.08Zm-.5-3.44a1.51,1.51,0,0,1,.13.29s-.08.09-.11.13a2.71,2.71,0,0,1-.13-.3Zm1,38.63-.12-.3.11-.13c0,.1.1.2.13.3S47.42,50.33,47.38,50.38ZM46,31.85a1.3,1.3,0,0,1,.13.3s-.07.09-.11.13l-.14-.3Zm-2.5-17c.18,0,.33.1.3.3s-.14.21-.18.19a2.65,2.65,0,0,1-.46-.25C43.38,14.93,43.46,14.83,43.54,14.83Zm-3.83-3.69a1.48,1.48,0,0,1,.12.29s-.07.07-.11.11a1.39,1.39,0,0,1-.12-.28S39.67,11.18,39.71,11.14ZM40.26,49a1.43,1.43,0,0,1-.28.13s-.08-.06-.12-.1a2.39,2.39,0,0,1,.28-.13S40.22,49,40.26,49ZM37.31,16.06a.27.27,0,0,1,.26.34.48.48,0,0,1-.09.14l-.42-.29C37.16,16.17,37.24,16.05,37.31,16.06Zm-.86-3.58a1,1,0,0,1,.13.28s-.06.08-.1.13a1.92,1.92,0,0,1-.14-.29S36.41,12.52,36.45,12.48ZM15.34,32.18s-.08.07-.12.1l-.15-.3c0-.15.16-.2.23-.11A.54.54,0,0,1,15.34,32.18Zm10.45-3.26a3.67,3.67,0,0,1-.38-.27c-.08-.09,0-.2.1-.24a.3.3,0,0,1,.38.21Zm2.75-1.23a1.57,1.57,0,0,1-.29-.08c.07-.06.14-.15.22-.16s.13.09.19.15S28.57,27.69,28.54,27.69Zm-.9-13.79-.12-.28.11-.12a1.36,1.36,0,0,1,.11.28S27.68,13.86,27.64,13.9Zm5,27.87c0-.09-.08-.18-.11-.27l.1-.12a1.53,1.53,0,0,1,.11.27S32.68,41.73,32.65,41.77Zm-1-15.06s-.09-.07-.13-.11.09-.11.12-.11a2.47,2.47,0,0,1,.29.1A1.39,1.39,0,0,1,31.66,26.71Zm1.84-9.18s.12.09.12.12-.08.2-.12.3l-.13-.12ZM29.92,2.45c.49,0,.44.49.71.76-.33.31-.62.69-1.14.56a.69.69,0,0,1-.36-.33C29.35,3.08,30.05,3.11,29.92,2.45ZM28.13,5.27c0,.05.12.09.11.13s-.07.19-.1.29L28,5.56C28.06,5.47,28.09,5.37,28.13,5.27ZM26.82,3.82c.23.46.91.43.87,1-.06.81-.12,1.66-1.13,2.11C26.56,5.89,26.07,4.89,26.82,3.82Zm2.24,38.62a1.4,1.4,0,0,1,.06.28s-.07.07-.11.11-.1-.17-.14-.26ZM26.84,27.61c-1,.29-1,.29-1.89-.58C25.58,27.23,26.34,27,26.84,27.61Zm-3.7-12.06.15.21a2.82,2.82,0,0,1-.31.07s-.08-.07-.12-.12Zm.78,19.67s.09.07.14.11a1.73,1.73,0,0,1-.31.14s-.09-.07-.13-.11A1.38,1.38,0,0,1,23.92,35.22Zm2.23,2.89c-1,1.07-2.53.42-3.56,1.26C23.43,38.41,23.43,38.41,26.15,38.11ZM20,27s.08.07.12.11a2.39,2.39,0,0,1-.28.13s-.08-.07-.12-.1A1.47,1.47,0,0,1,20,27Zm.55,12.61s.09.07.13.11a2.08,2.08,0,0,1-.3.13s-.08-.08-.12-.12A1.48,1.48,0,0,1,20.52,39.58Zm-4.44-19c.06,0,.13.09.19.15s-.08.1-.12.09a1.52,1.52,0,0,1-.28-.09C15.94,20.66,16,20.56,16.08,20.56Zm-1,10.24s.2.09.22.16,0,.34-.24.36-.2-.09-.33-.15A2.49,2.49,0,0,1,15.07,30.8Zm.06,13.61c.1,0,.2.07.3.1a1.85,1.85,0,0,1-.29.13s-.09-.07-.13-.11S15.1,44.41,15.13,44.41Zm-.48,1.38a.37.37,0,0,1,.22-.22c.19-.07.32.06.35.24s-.1.29-.29.31S14.6,46,14.65,45.79Zm-3.21-4.66a2.2,2.2,0,0,1-.15-.31s.07-.09.12-.14a2.12,2.12,0,0,1,.14.31S11.48,41.08,11.44,41.13Zm.75-.46a1.36,1.36,0,0,1,.11.28s-.06.07-.1.11l-.18-.2Zm-3-30.05c.17,0,.34,0,.4.17a.73.73,0,0,1-.29.15c-.17,0-.34,0-.41-.17A2,2,0,0,1,9.18,10.62ZM7.54,6.7a2,2,0,0,1,.32.1s-.09.12-.13.12-.21-.07-.31-.1S7.51,6.7,7.54,6.7Zm2.57,35.14c.2-.07.34.07.37.26a.37.37,0,0,1-.18.26c-.22.08-.33-.06-.38-.25S10,41.87,10.11,41.84Zm-1,.77c.08,0,.16.09.24.14s-.08.11-.11.1a1.25,1.25,0,0,1-.31-.07C9,42.72,9.06,42.61,9.11,42.61ZM4.2,39.06c0-.08.19-.11.29-.15s.28.21.17.39a.3.3,0,0,1-.28.14C4.21,39.39,4.09,39.24,4.2,39.06Z" style="fill:#fff"/></g></g></svg>