<svg xmlns="http://www.w3.org/2000/svg" viewBox="0 0 46.31 35.02"><title>connecticut</title><g id="Layer_2" data-name="Layer 2"><g id="_ÎÓÈ_1" data-name="—ÎÓÈ 1"><path d="M5.36,0a9.87,9.87,0,0,0-.91,4.61C4.26,11.05,4.13,17.48,4,23.92c0,2.71-.55,5.2-2.59,7.24-.91.92-1.9,2-1.18,3.86a8.76,8.76,0,0,0,3.4-1.46c2.59-1.43,5.17-2.89,7.77-4.29a34.31,34.31,0,0,1,14.86-4c3.38-.14,6.76-.28,10.13-.54a30.66,30.66,0,0,0,9.9-2.15C46.1,15.26,46,8.22,46.27.76,32.35.82,18.82.84,5.36,0Zm25,9.4c-.17-.24-.34-.48-.52-.71l1.42-.61c.07.16.21.34.2.49C31.38,9.24,30.92,9.4,30.34,9.4ZM44.76,21.85c.25.11.42.38.62.58-.14.06-.31.21-.42.18a6.12,6.12,0,0,1-.79-.42C44.39,22.06,44.64,21.8,44.76,21.85Zm-2.61-.43c.08,0,.27.35.23.43a7.22,7.22,0,0,1-.59.73c-.09-.14-.25-.29-.27-.45A.59.59,0,0,1,42.15,21.42Z" style="fill:#fff"/></g></g></svg>