<svg xmlns="http://www.w3.org/2000/svg" viewBox="0 0 14.5 49.99"><title>delaware</title><g id="Layer_2" data-name="Layer 2"><g id="_ÎÓÈ_1" data-name="—ÎÓÈ 1"><path d="M.85,3.73a23.29,23.29,0,0,0,.17,6,23.48,23.48,0,0,1,.3,4.51C.89,23.68.52,33.12,0,42.55A3.2,3.2,0,0,0,1.84,46c2.79,1.38,5.51,2.95,8.58,3.65.76.17,1.52.6,2.37.14,1-1.89,1.64-3.8.55-6a3.74,3.74,0,0,1,.5-4,3.21,3.21,0,0,0,0-3.92,14.57,14.57,0,0,0-1.49-2.27,13.57,13.57,0,0,1-3.4-8.5,13.32,13.32,0,0,0-2.62-7.58,4.87,4.87,0,0,1-1-3.41C5.6,9.5,4.13,4.69,7,.39,3.73-.75,1.19.69.85,3.73Z" style="fill:#fff"/></g></g></svg>