<svg xmlns="http://www.w3.org/2000/svg" viewBox="0 0 80.55 73.79"><title>florida</title><g id="Layer_2" data-name="Layer 2"><g id="_ÎÓÈ_1" data-name="—ÎÓÈ 1"><path d="M80.47,53.44A14.26,14.26,0,0,0,80,50.51s-.08.06-.1.05a1.48,1.48,0,0,1-.27-.16s.11-.11.14-.1l.21.14a7,7,0,0,0-1.17-2.26A9.65,9.65,0,0,1,77,44.63q-.34-1.25-.72-2.49a23.07,23.07,0,0,0-1.77-4.62,5,5,0,0,1-.86-2.73,1.83,1.83,0,0,1-1-1.35c-.26-.89-.57-1.77-.85-2.67-.17-.54-.35-1.09-.49-1.65s0-.78.43-.88c.7.21.56,1.43,1.6,1.24a2.29,2.29,0,0,0-.73-1.58,8.23,8.23,0,0,1-1.51-2.22c-1.31-2.6-2.55-5.23-3.65-7.93a60.59,60.59,0,0,1-2.6-9,7.7,7.7,0,0,0-.76-2.88A.88.88,0,0,1,64,5.46c-.16-1.28-.16-1.28-1.41-1.28-.32,0-.64,0-1,0a12.72,12.72,0,0,0-2,0,1,1,0,0,0-.22.88A9.23,9.23,0,0,1,59,7.7a1.52,1.52,0,0,1-1.77,1.21A2.25,2.25,0,0,1,55,6.77c-.16-1-.24-1.08-1.21-1.17s-2.07-.19-3.11-.23c-3.74-.15-7.47-.26-11.2-.41A98.86,98.86,0,0,0,29.1,4.6a2.2,2.2,0,0,1-2.22-1.4c-.33-.65-.48-1.35-.75-2-.35-.87-.6-1-1.54-1s-1.87,0-2.8,0C17.84,0,13.89,0,9.93,0c-2,0-4.08.12-6.13.06A30.14,30.14,0,0,0,.26.34.89.89,0,0,0,0,.45a2,2,0,0,0,0,.4.56.56,0,0,0,.16.28A3.2,3.2,0,0,1,1.46,4.34c-.08.84.26,1.09,1.26,1.34.38-.47.82-.87,1.53-.56a.61.61,0,0,0,.41-.06c.63-.24,1,.09,1.38.53A1.38,1.38,0,0,1,6.17,7.2,15.4,15.4,0,0,0,8.53,7,2.84,2.84,0,0,0,9,6.9l.12-.08v0a1.49,1.49,0,0,0,.79-.64,1,1,0,0,1,.85-.6,12.29,12.29,0,0,1,2.57.1,2.46,2.46,0,0,1,.76.38.59.59,0,0,1,.27.75.63.63,0,0,1-.62.34c-.35,0-.73-.18-1.24.08a36.91,36.91,0,0,1,4.87,2c.53-.43.82-1.17,1.53-1s1.31-.41,1.71.33c0,.54-.5.67-.64,1.11a2.39,2.39,0,0,1,.08.58,2.43,2.43,0,0,0,0,.38l0,0,0,0a2.3,2.3,0,0,0,1,1.55,6.83,6.83,0,0,1,1.45,1.44,1.13,1.13,0,0,1,.17,1.2c-.39,1,0,1.4,1,1.32A23,23,0,0,0,29,15a.91.91,0,0,0,.38-.19,5.26,5.26,0,0,1,3.48-1.61c-.14-1.07.69-1.44,1.31-2a1.52,1.52,0,0,1,1.42-.3,9.56,9.56,0,0,1,5.22,3,15.58,15.58,0,0,0,2.58,2.74,2.23,2.23,0,0,1,.64,1A5.72,5.72,0,0,0,45.65,20a4.11,4.11,0,0,1,1.14,1.41,2.43,2.43,0,0,0,2,1.43c1.35.19,1.61.49,1.87,1.83a2.81,2.81,0,0,0,.94,1.76,1.3,1.3,0,0,1,.5.93,10.85,10.85,0,0,1,.06,3,29.49,29.49,0,0,1-1.77,6.09,2.25,2.25,0,0,0-.21,1.46,5.93,5.93,0,0,1,.1,2.14,2,2,0,0,0,0,.65c.12.61.35.69,1.09.44.17-.43-.06-.83-.15-1.24a3.26,3.26,0,0,1-.07-1.39c.08-.36.17-.72.61-.79s.6.19.78.46A2.43,2.43,0,0,0,54,39.3a.73.73,0,0,1,.45,1.05,7.33,7.33,0,0,1-.68,1.34c-.57.91-1,1.88-1.54,2.85a19.88,19.88,0,0,1,.72,2.93,11.3,11.3,0,0,0,2,4.27c.31.43.64,1,1.31.93.34-.56-.41-1.06.08-1.67.91,0,1.63.66,2.42.81a1.55,1.55,0,0,1-.05,1.37c-.08.24-.21.46-.28.7a2.23,2.23,0,0,0,1,2.66.94.94,0,0,1,.45.57,1.24,1.24,0,0,0,.41.74,1.82,1.82,0,0,1,.68,1.52,5.11,5.11,0,0,0,.19,1.16c.31,1.22.94,2.33,1.2,3.57a.68.68,0,0,0,.73.53c.21,0,.43,0,.64,0a2.66,2.66,0,0,1,2.56,1.27,22.6,22.6,0,0,1,1.72,3c.56,1.28,1.26,2.45,2.87,2.59a.5.5,0,0,1,.46.4,1.18,1.18,0,0,1-.54,1.1.67.67,0,0,1-.9,0c-.26-.18-.43-.5-.79-.56a.64.64,0,0,0-.63.59c.65.78,1.16,1,1.93.67a3.08,3.08,0,0,1,2.31-.11,1.13,1.13,0,0,0,.81,0c.5-.37.8-1.13,1.59-1.27s1.38.51,2.07.65a.74.74,0,0,0,.28-1,.79.79,0,0,1-.09-.63,3.19,3.19,0,0,0,.08-2,3,3,0,0,1,.46-1.94,13.69,13.69,0,0,0,1.94-6.86,7,7,0,0,1,.3-2.24A12.18,12.18,0,0,0,80.47,53.44ZM62.21,54.8a.38.38,0,0,1-.27.16.27.27,0,0,1-.27-.34.29.29,0,0,1,.39-.22C62.21,54.5,62.31,54.63,62.21,54.8Zm12-4c-.37.1-.73.55-1.16.13a1.17,1.17,0,0,1-.17-.31c0-.28.17-.25.34-.26s.61,0,.53-.5c0-.17-.78-.37,0-.53.42-.09.89,0,.94.58C74.68,50.32,74.62,50.73,74.2,50.84Zm2.38-2.9c-.43-.11-.45.52-.85.41-.17-.48.1-.79.43-1.05a.44.44,0,0,1,.64,0,.94.94,0,0,1,.2.29C77.11,48,76.73,48,76.58,47.94Z" style="fill:#fff"/></g></g></svg>