<svg xmlns="http://www.w3.org/2000/svg" viewBox="0 0 47.92 57.5"><title>georgia</title><g id="Layer_2" data-name="Layer 2"><g id="_ÎÓÈ_1" data-name="—ÎÓÈ 1"><path d="M22.69.12A.62.62,0,0,0,22.17,0c-3.55.12-7.09.38-10.65.36C8.11.35,4.7.48,1.29.55A1.63,1.63,0,0,0,.05.84a1.49,1.49,0,0,0,.07.93A38.2,38.2,0,0,1,.94,5.56c.4,2.12.79,4.24,1.31,6.33.26,1,.58,2,.76,3,.5,2.94,1.11,5.85,1.87,8.73a36.28,36.28,0,0,1,1.31,6,2,2,0,0,0,.7,1.4,1.72,1.72,0,0,1,.68,1.31,7.33,7.33,0,0,0,.48,2.41,1.82,1.82,0,0,1-.75,2.17l-.48.35a2.26,2.26,0,0,0-.15,1,1.47,1.47,0,0,1-.31.9,3.06,3.06,0,0,0-.3,3.26,5.23,5.23,0,0,1,.29,2.94,9.93,9.93,0,0,0,.12,4,28.54,28.54,0,0,0,1.28,3.53c.68,1.93,1,2.11,3,1.87a26.6,26.6,0,0,1,4.09-.14c1.32,0,2.65.09,4,.07,4-.06,8-.17,12-.2a26.6,26.6,0,0,1,4,.11,2.08,2.08,0,0,1,2,1.89c0,.14.05.28.08.42.15.6.2.63,1,.61a4.77,4.77,0,0,0,.27-2.4c-.05-.46-.16-.92-.23-1.38-.16-1.13.31-1.62,1.46-1.51a7.53,7.53,0,0,1,1.05.22,5.81,5.81,0,0,0,1.49.2c.86,0,1.08-.16,1.31-1a9.21,9.21,0,0,0,.28-1.81,2.86,2.86,0,0,1,.24-1.15c.48-.87.42-2,1.19-2.73a.76.76,0,0,0,.1-.51,3.16,3.16,0,0,1,.53-1.88,2.37,2.37,0,0,1,.52-2.6,1.36,1.36,0,0,1,.3-1.44A1.46,1.46,0,0,0,46.66,38l.5-.45c1.07-.91,1-1.45-.2-2.05a1.94,1.94,0,0,1-1.24-1.61,7.62,7.62,0,0,0-.24-.94,6.43,6.43,0,0,0-1.78-3.38,2.48,2.48,0,0,1-.85-1.7,4.45,4.45,0,0,0-1.09-2.63,34.06,34.06,0,0,1-2.61-3.15,15,15,0,0,0-2.63-3c-1.9-1.73-3.7-3.56-5.5-5.4l-.12,0s-.1-.14-.17-.24l.05,0-.1-.1a11.18,11.18,0,0,1-1.74-2.19c-.57-1-1.22-1.95-1.87-2.89-.53-.78-1-1.6-2.09-1.65a.89.89,0,0,1-.47-.24A13.69,13.69,0,0,1,22.1,4.25a1.9,1.9,0,0,1-.46-1.5,4.13,4.13,0,0,1,.74-2C22.52.56,22.78.42,22.69.12ZM8.9,48.51a2.43,2.43,0,0,1-.52-.11c.14-.08.23-.17.3-.16a2.69,2.69,0,0,1,.46.14C9.06,48.43,9,48.52,8.9,48.51Zm3.94-25.7s-.07-.08-.11-.13.21-.06.32-.07.06.08.1.13A1.16,1.16,0,0,1,12.84,22.81Zm1.47-9.54a.74.74,0,0,1-.29-.09A.84.84,0,0,1,14.2,13a.17.17,0,0,1,.15,0C14.5,13.16,14.49,13.25,14.31,13.27Zm1.75,3.3a1.51,1.51,0,0,1,.26.12l-.13.1-.26-.14S16,16.56,16.06,16.57Zm-.15-4.48s.07.08.11.13-.11.1-.14.09a1.47,1.47,0,0,1-.28-.14A1.57,1.57,0,0,1,15.91,12.09ZM11.85,51.86a.69.69,0,0,1,.28.15c-.07.18-.24.17-.4.16a2.19,2.19,0,0,1-.28-.16C11.52,51.82,11.69,51.83,11.85,51.86Zm-.28,1.38c1.27-1,1.27-1,1.73.7A1.52,1.52,0,0,0,11.57,53.24ZM43.26,34.51c0,.09.12.19.11.28s-.12.16-.18.23c0-.09-.12-.19-.11-.27S43.19,34.59,43.26,34.51ZM41.1,51.72l.09.21a1.34,1.34,0,0,1-.28,0s-.06-.08-.09-.13Zm-3.29,3.43s.07.08.11.13a1.87,1.87,0,0,1-.32.08s-.06-.08-.1-.13A2.81,2.81,0,0,1,37.81,55.15Zm.94-20.3a1.67,1.67,0,0,1,.08.3s-.09.07-.13.1-.05-.2-.08-.29Zm-4.14-2.34a1.83,1.83,0,0,1,.28.14s-.11.1-.14.09a1.38,1.38,0,0,1-.27-.14S34.58,32.5,34.61,32.51ZM31.14,52.89a1.93,1.93,0,0,1-.44-.2l.36-.12.38.22C31.34,52.83,31.23,52.91,31.14,52.89Zm.31-5.21-.27-.15s.1-.1.13-.09a1.47,1.47,0,0,1,.28.14Zm1.23-14.63a1.87,1.87,0,0,1,.28.16s-.1.12-.13.11a2.19,2.19,0,0,1-.29-.17C32.59,33.12,32.65,33,32.68,33.05ZM30.36,44.86a1.67,1.67,0,0,1-.3.08s-.07-.08-.1-.12a1.57,1.57,0,0,1,.29-.08S30.33,44.82,30.36,44.86Zm1.8-23.75s.07.08.11.12-.11.11-.14.1a1.82,1.82,0,0,1-.27-.15A1.63,1.63,0,0,1,32.16,21.11Zm-5,25.17s.06.07.1.12l-.25.12-.14-.19A1.47,1.47,0,0,1,27.12,46.28Zm.52-21c.26-.08.28.13.29.3a.42.42,0,0,1-.35.51c-.21,0-.3-.12-.34-.31A.49.49,0,0,1,27.64,25.27Zm-.19-11,.27.17s-.11.11-.14.1a1.61,1.61,0,0,1-.28-.17Zm-3.05-.56c0,.09.11.21.08.29a.37.37,0,0,1-.25.19c-.08,0-.24-.14-.23-.17A.38.38,0,0,1,24.4,13.74Zm-1,4.28a.66.66,0,0,1,.57.75.29.29,0,0,1-.4.24.74.74,0,0,1-.53-.65C23.07,18.14,23.23,18.06,23.43,18ZM20.74,35.23c.13.07.16.17.06.21a.48.48,0,0,1-.29,0s-.05-.08-.07-.12ZM22.87,5.69s.08.08.11.12a1.68,1.68,0,0,1-.32.09s-.07-.09-.1-.13A1.09,1.09,0,0,1,22.87,5.69Zm-1.32,1a.37.37,0,0,1,.25.2c0,.09-.06.2-.1.31-.12-.11-.25-.21-.41-.33C21.4,6.78,21.49,6.66,21.55,6.68Zm-1.74.69s-.11-.1-.1-.13A2.2,2.2,0,0,1,19.86,7s.1.09.09.12A1.38,1.38,0,0,1,19.81,7.37Zm-3.7,46c-.21-.08-.49-.11-.4-.44a.37.37,0,0,1,.4-.28c.25,0,.48.07.5.37S16.33,53.31,16.11,53.36Z" style="fill:#fff"/></g></g></svg>