<svg xmlns="http://www.w3.org/2000/svg" viewBox="0 0 139.87 39.21"><title>hawaii</title><g id="Layer_2" data-name="Layer 2"><g id="_ÎÓÈ_1" data-name="—ÎÓÈ 1"><path d="M137.5,19.56a6.51,6.51,0,0,1-3.38,3.74c-.92.39-.75,1.49-1.12,2.24-1.07,2.2-2.13,4.39-1.43,7a4.22,4.22,0,0,1-.24,2c-.17.73-.54,1.21-1.46.9a7.61,7.61,0,0,0-3.29,0c-2.37.27-3.71-.31-4.49-2.51-1.45-4.07-4.53-6.43-8.21-8.2-2.3-1.11-3-2.6-1.81-5.15.65-1.45.26-2.91.58-4.34.14-.62-.41-1-1-1.2a6.45,6.45,0,0,1-1.33-.61c-1.22-.91-2.54-2-1.85-3.64s2.29-1.35,3.74-1.19a12,12,0,0,0,4.89-.44,19.42,19.42,0,0,1,11.64-.35c.49.15,1,.25,1.23.73.5,1.28,1.26,1.65,2.55,1a1.22,1.22,0,0,1,1.32.52c1,1.34,2.44,1.49,4,1.4s2.28.6,1.9,2.26A15.18,15.18,0,0,1,137.5,19.56Z" style="fill:#fff"/><path d="M100.68,4.32C99,6.11,97.28,8,95.54,9.74c-1,1-2.36.13-3.52.48-.34.09-.4-.28-.36-.65.21-1.88-.62-2.49-2.39-1.81-2.44.94-5.36-.2-5.8-2.28a2.49,2.49,0,0,1,.63-2.56,2.09,2.09,0,0,1,2.59-.27c1.73,1,2.75.56,3.69-1.17A3,3,0,0,1,93.74.09,10.47,10.47,0,0,0,98,.15C99,0,100.07-.16,100.78.89S101,3.14,100.68,4.32Z" style="fill:#fff"/><path d="M50.47,15.64a28.47,28.47,0,0,1-4.91-2.51c-1-.57-1.07-1-.16-1.52a4.46,4.46,0,0,0,2.45-4.13C47.94,5.66,49.2,5,50.65,6S54.09,6.66,55,8.4c.15.27.59.41.8.14,1.18-1.45,2-.3,2.83.37.36.27.65.66,1.26.62,1.94-.1,1.5,1.47,1,2.08-.78.86-1.69,2.06-3,2a5.18,5.18,0,0,0-4.23,1.82C52.71,16.55,51.69,17,50.47,15.64Z" style="fill:#fff"/><path d="M10.17,16.51c.78-2.13,2.89-3.05,4.79-4.08a2.65,2.65,0,0,1,3.95,2.36,3.39,3.39,0,0,0,.63,1.88c.89,1.39.12,3.7-1.23,4.7-2.22,1.64-4.82,1.19-7.25,1.38-1.69.14-2.59-2.68-1.68-4.79C9.58,17.51,9.85,17.09,10.17,16.51Z" style="fill:#fff"/><path d="M80.73,4.65A3.6,3.6,0,0,1,78,6.87a12.3,12.3,0,0,0-5.84,2.92c-.58.48-1.28,1.16-2.14.69s-.31-1.38-.54-2c-.72-1.86.49-2.06,1.75-2.57S74,5.14,74.72,3.75a.7.7,0,0,1,.79-.36c1.37.44,2.18-.46,3.06-1.22a6.46,6.46,0,0,1,.75-.54,1.63,1.63,0,0,1,1.74-.23c.62.4.4,1.13.28,1.71A9.13,9.13,0,0,1,80.73,4.65Z" style="fill:#fff"/><path d="M84.07,11.43c-1.31,2.52-2.56,2.78-4.26,1.27a2.25,2.25,0,0,0-1.31-.57,1.27,1.27,0,0,1-1.27-.89A1.53,1.53,0,0,1,78,9.65,4.58,4.58,0,0,1,82.8,9C84.3,9.59,84.47,10.6,84.07,11.43Z" style="fill:#fff"/><path d="M6.29,28.93c-.84.53-.82,1.38-.72,2.27,0,.5,0,1-.55,1.22A1.29,1.29,0,0,1,3.69,32a2.4,2.4,0,0,1-.61-2.39c.27-1.23.89-2.32.67-3.73-.15-1,1-.63,1.57-.49S6.72,28.25,6.29,28.93Z" style="fill:#fff"/><path d="M89.73,12.43a5.83,5.83,0,0,1,.89-1.24,1.17,1.17,0,0,1,1.78.27c.51.59.95,1.2.28,1.93a11.34,11.34,0,0,1-1,.77c-.64.56-1.27,1.39-2.2.67S89.45,13.3,89.73,12.43Z" style="fill:#fff"/><path d="M.65,39.15c-.12,0-.32.1-.45,0a.36.36,0,0,1-.07-.6.51.51,0,0,1,.46-.12C.81,38.61.85,38.86.65,39.15Z" style="fill:#fff"/></g></g></svg>