<svg xmlns="http://www.w3.org/2000/svg" viewBox="0 0 53.71 89.68"><title>idaho</title><g id="Layer_2" data-name="Layer 2"><g id="_ÎÓÈ_1" data-name="—ÎÓÈ 1"><path d="M2.58,22.07c-.24,2.14-.41,4.29-.54,6.44a13,13,0,0,0,.19,4.18c.4,1.45.81,2.91,1.07,4.4a3.72,3.72,0,0,0,1.25,2.44,6.57,6.57,0,0,1,1.74,2.26,2.42,2.42,0,0,1,.1,2.55,26.76,26.76,0,0,0-1.66,3.85,13.06,13.06,0,0,1-1.14,2.07,6.18,6.18,0,0,0-.8,1.87,7.1,7.1,0,0,1-1,2.35C1.28,55.21.83,56,.33,56.65a1.53,1.53,0,0,0-.21,1.42,3.55,3.55,0,0,0,1.35,1.77,2.44,2.44,0,0,1,.81,3,13.63,13.63,0,0,0-.79,3C.87,71.08.41,76.34.14,81.61.08,82.83,0,84.05,0,85.27.05,87,.5,87.52,2.19,88a4,4,0,0,0,.75.14c.85.09,1.71.2,2.57.25q9.68.55,19.38.68c5.7.08,11.39.63,17.1.6,3,0,6,.16,8.94,0,.47,0,.94,0,1.4,0,.75-.08.94-.28,1-1,0-.5,0-1,0-1.51,0-1.54-.17-3.08-.15-4.63,0-2.51.16-5,.31-7.53a112.29,112.29,0,0,0,0-14.21A2.29,2.29,0,0,0,53,59.25a13.31,13.31,0,0,1-1.17-1.81A2,2,0,0,0,50.5,56.3c-.26.56-.47,1.1-.74,1.59-.41.75-.67.84-1.49.6a1.56,1.56,0,0,0-.74-.11,5.64,5.64,0,0,1-2.45-.17,1.17,1.17,0,0,0-1.11.21,3.34,3.34,0,0,1-2.83.72,2.57,2.57,0,0,0-2.3.56c-.57.54-1,.42-1.42-.24A9.26,9.26,0,0,1,36,56.8a3,3,0,0,0-1.6-1.93,10.37,10.37,0,0,0-1.11-.65,1.8,1.8,0,0,1-1.11-1.34,2.76,2.76,0,0,1,0-1.48,1.83,1.83,0,0,0-.29-1.54c-.22-.33-.44-.65-.66-1-.93-1.44-2-2.79-2.3-4.57,0,0-.09-.1-.15-.16-.47-.07-.8.26-1.17.45-.74.37-1.46.77-2.18,1.17-.34.19-.74.34-1,.05a4.29,4.29,0,0,1-1.34-2c-.08-.49-.15-1-.25-1.49A1.21,1.21,0,0,1,23.29,41a1.44,1.44,0,0,0,.43-2,4.61,4.61,0,0,1-.25-2.32,20.44,20.44,0,0,1,1.15-5.47.48.48,0,0,0-.06-.49c-1,.58-1.78-.05-2.6-.58a9.59,9.59,0,0,1-1.64-1.54,1.14,1.14,0,0,1-.34-.78,1.76,1.76,0,0,0-.72-1.26,7.92,7.92,0,0,1-2-2.52,6.11,6.11,0,0,0-2.43-2.79,2.22,2.22,0,0,1-1.05-1.9c0-.43,0-.86-.08-1.29a4.13,4.13,0,0,0-1.43-2.89,3.54,3.54,0,0,1-1.58-3.45,19.65,19.65,0,0,0,0-5.47,12.83,12.83,0,0,1,0-4.5C10.94.84,10.44.31,9.45.24,8.09.13,6.72.1,5.36,0S3.61.36,3.24,1.74a3.51,3.51,0,0,0,0,.86c0,1,.07,1.94,0,2.9C3,7.65,2.94,9.81,3,12A75.85,75.85,0,0,1,2.58,22.07Zm1.22.28a1.59,1.59,0,0,1-.3-.06c0-.05.07-.14.1-.13a1.88,1.88,0,0,1,.31.06C3.87,22.27,3.84,22.35,3.8,22.35Zm46.6,48.2a.28.28,0,0,1,.41.19c0,.08-.07.21-.1.31l-.48-.22C50.3,70.71,50.33,70.58,50.4,70.55Z" style="fill:#fff"/></g></g></svg>