<svg xmlns="http://www.w3.org/2000/svg" viewBox="0 0 37 70.82"><title>illinois</title><g id="Layer_2" data-name="Layer 2"><g id="_ÎÓÈ_1" data-name="—ÎÓÈ 1"><path d="M34.12,15.17a14,14,0,0,1-.46-3.08,22.23,22.23,0,0,0-1-5.18,5.81,5.81,0,0,0-1.45-2.72,2.46,2.46,0,0,1-.72-1.85c0-.29,0-.58,0-.87A1.35,1.35,0,0,0,29.44.16,3.56,3.56,0,0,0,28.06,0C25,.4,21.88.93,18.78,1.25,15.53,1.59,12.29,2,9,2.34c-1,.12-1.23.51-.9,1.45A4.32,4.32,0,0,0,9.65,5.58a4.34,4.34,0,0,1,.45,6.06,2.69,2.69,0,0,0-.73.93,3.88,3.88,0,0,1-2.55,2.57,2.39,2.39,0,0,0-.56.32,3.93,3.93,0,0,1-2.88,1,.91.91,0,0,0-.32,0,.78.78,0,0,0-.69.93,2.74,2.74,0,0,0,.81,1.83,2.28,2.28,0,0,1,.56,2A3.47,3.47,0,0,1,3,23a1.48,1.48,0,0,0-.41,1.18,2.11,2.11,0,0,1-1.31,2.26l-.56.31A1,1,0,0,0,.2,27.89a15.06,15.06,0,0,1,0,3.55c-.06.9-.24,1.78-.23,2.68a2.61,2.61,0,0,0,.37,1.44,23.79,23.79,0,0,0,2.17,3.21c.62.69,1.19,1.44,1.76,2.18a6.52,6.52,0,0,0,2,1.81,2.12,2.12,0,0,1,1,1.21c.18.51.34,1,.53,1.53s.27.9.56,1.1c1,0,1.92,0,2.81,0a3,3,0,0,1,2.89,3.85,8.59,8.59,0,0,1-.49,1.31c-.32.69-.67,1.36-1,2a2.44,2.44,0,0,0,0,2.55,6.88,6.88,0,0,0,2,2.2c1.72,1.18,3.27,2.58,4.88,3.89a6,6,0,0,1,2.07,2.93c.31,1,.47,2-.47,2.76,0,0,0,.13-.09.26a3.29,3.29,0,0,0,2.85,2.44c.29-.24.32-.58.46-.87A2.22,2.22,0,0,1,27,68.57a12,12,0,0,1,1.67.42c.43.12.87.36,1.38.06A2.16,2.16,0,0,0,30,67.7a6.58,6.58,0,0,1-.33-1.46,1.74,1.74,0,0,1,.95-1.89l1.88-1a3.15,3.15,0,0,1,.36-1.7,3.56,3.56,0,0,0,.45-2.07,7.45,7.45,0,0,1,.26-2.35,5.31,5.31,0,0,0,.22-1.59A4.51,4.51,0,0,1,34.58,53a7.76,7.76,0,0,0,.92-1.7,12.13,12.13,0,0,1,1.21-2.64A1.79,1.79,0,0,0,36.88,47a5.26,5.26,0,0,1-.32-2.12,2,2,0,0,0-.33-1.23,3.1,3.1,0,0,1-.36-2.47,13.42,13.42,0,0,0,.53-3.83c-.1-1.43-.19-2.87-.38-4.29q-.93-7.11-1.43-14.25A20.16,20.16,0,0,0,34.12,15.17Zm-32,16.12c.15-.3.19-.73.66-.68A.46.46,0,0,1,3,31a.75.75,0,0,1-.78.56C2.17,31.55,2.13,31.39,2.08,31.29Zm.59,6.59c-.07,0-.15-.11-.29-.22a5.34,5.34,0,0,1,.56-.08c.08,0,.16.12.24.19A3.1,3.1,0,0,1,2.67,37.88Zm3-12.63a.35.35,0,0,1-.32-.07,4.65,4.65,0,0,1-.44-.47A2,2,0,0,1,5,24.47c.07-.12.17-.12.28,0a3.41,3.41,0,0,1,.38.38C5.72,25,6,25.11,5.67,25.25Zm.21-6.65-.12-.13a2.58,2.58,0,0,1,.31-.13s.09.08.13.12Zm5.67,6v0l0,0,0,0c0-.21,0-.57.2-.46S11.77,24.44,11.55,24.56Zm0-10.41c-.08,0-.15-.09-.22-.15s.09-.1.12-.09a1.08,1.08,0,0,1,.29.09C11.68,14.06,11.61,14.16,11.55,14.15ZM10.46,6.06c.13-.14.2-.29.27-.29a.7.7,0,0,1,.72.63c0,.06-.16.21-.19.2C11,6.45,10.59,6.39,10.46,6.06Zm.43,12.31s.11.08.11.12-.09.12-.12.11a1.88,1.88,0,0,1-.3-.12A1.63,1.63,0,0,1,10.89,18.37Zm-.1,12.47c-.21-.07-.23-.19-.07-.26.39-.17.42-.53.5-.87a.31.31,0,0,1,.41-.22c.26.12.06.3,0,.44-.21.49.37.52.47.84A2.15,2.15,0,0,1,10.79,30.84Zm4-9.53c-.06.3-.32.3-.57.29s-.39-.08-.39-.28c0-.55.49,0,.65-.26S14.83,21.12,14.79,21.31Zm.92-7.38s.08.07.12.11a1.11,1.11,0,0,1-.31.09s-.08-.07-.13-.11A2.66,2.66,0,0,1,15.71,13.93Zm-.06,18.23c-.12-.1-.31-.19-.2-.39a.33.33,0,0,1,.31,0,.41.41,0,0,1,.15.29C15.9,32.19,15.78,32.23,15.65,32.16ZM17.22,32c-.09.07-.2.13-.29.19s-.09-.19-.13-.29.21-.26.41-.18S17.33,31.92,17.22,32Zm.31-10.49-.28-.12.14-.1.27.12S17.57,21.55,17.53,21.54Zm1,10.38a.28.28,0,0,1-.31-.34c.05-.15.14-.2.25-.11a.71.71,0,0,1,.23.26S18.64,31.93,18.58,31.92Zm.87-16.05s.1-.12.13-.11a1.66,1.66,0,0,1,.31.12s-.1.12-.13.11A2.85,2.85,0,0,1,19.45,15.87Zm.39,12.57s-.08-.09-.08-.14a.3.3,0,0,1,.35-.3c.15,0,.2.12.12.23S20,28.51,19.84,28.44Zm.38,20.8a2.46,2.46,0,0,1-.09-.29s.08-.07.12-.11a1.71,1.71,0,0,1,.09.3S20.27,49.21,20.22,49.24ZM20.93,60a2.36,2.36,0,0,1-.11-.51c0-.1.11-.19.17-.28a2.1,2.1,0,0,1,.14.47C21.13,59.8,21,59.89,20.93,60Zm1.16-6.69c0-.05-.12-.1-.11-.14a1.2,1.2,0,0,1,.13-.31s.12.1.11.13A2.15,2.15,0,0,1,22.09,53.34Zm1.83-32.66a.51.51,0,0,1-.09-.13c0-.22.11-.31.31-.33l.15.21Zm.75,44.89s-.12-.1-.11-.13a1.92,1.92,0,0,1,.14-.29s.12.1.11.13A1.92,1.92,0,0,1,24.67,65.57ZM25.8,60c-.05-.1-.09-.21-.13-.3l.12-.13a1.94,1.94,0,0,1,.13.3S25.84,60,25.8,60Zm2.81,3c-.09,0-.17-.1-.25-.16s.09-.12.13-.11a1.39,1.39,0,0,1,.31.1C28.73,63,28.66,63.08,28.61,63.07Zm.66-32.61c-.19-.07-.3-.19-.24-.4s.16-.19.28-.06a2.16,2.16,0,0,1,.21.29Zm2.35-14.68s.08.08.11.12a1.71,1.71,0,0,1-.3.09s-.08-.07-.12-.12ZM31.43,39.7s-.09-.08-.13-.12.1-.12.14-.11a2.08,2.08,0,0,1,.32.12A2.13,2.13,0,0,1,31.43,39.7ZM32.88,50s-.13,0-.16-.16-.14-.59.23-.72a.32.32,0,0,1,.29.11C33.44,49.57,33.2,49.75,32.88,50Z" style="fill:#fff"/></g></g></svg>