<svg xmlns="http://www.w3.org/2000/svg" viewBox="0 0 27.5 52.35"><title>indiana</title><g id="Layer_2" data-name="Layer 2"><g id="_ÎÓÈ_1" data-name="—ÎÓÈ 1"><path d="M1.89,4.21c-.5.12-1-.12-1.47.09a1.36,1.36,0,0,0-.34,1,10,10,0,0,0,.11,2A32.06,32.06,0,0,1,.9,11.71c0,1.26.15,2.51.26,3.77C1.53,20,2.09,24.4,2.6,28.86a12.14,12.14,0,0,1-.14,5,5.16,5.16,0,0,0-.19.95A3.22,3.22,0,0,0,2.57,37a2.26,2.26,0,0,1,.3,1.35,4.4,4.4,0,0,0,.47,2.19,1.94,1.94,0,0,1-.2,2.13,9.16,9.16,0,0,0-1.31,2.59A7.64,7.64,0,0,1,.88,47.2c-1.08,1.53-.95,3.24-.73,5,0,0,.11.09.22.18a6.43,6.43,0,0,0,2.46-.81A3.3,3.3,0,0,1,6,51.08c.51.17,1,.28,1.53.42a15.46,15.46,0,0,1,1.85-1.56,1.49,1.49,0,0,1,2.14.07.8.8,0,0,0,.68.29c.66-.9,1.38-1.87,2.08-2.86.31-.44.57-1,1.21-.93s.73.59,1,1c.35.68.9.76,1.49.25a2.12,2.12,0,0,0,.7-1.07c.49-1.9,2-3.21,2.84-4.9a.7.7,0,0,1,.14-.16,2.06,2.06,0,0,0,.57-1.56c0-1.75.75-2.41,2.46-2.33.32,0,.65.08.92-.17a15.78,15.78,0,0,1,1.71-1.06,4.06,4.06,0,0,1,.14-3.24,2.15,2.15,0,0,0,0-1.07L26.92,28c-.32-2.71-.62-5.42-1.09-8.11-.49-2.9-.9-5.82-1.34-8.73-.25-1.63-.23-3.29-.61-4.91a21.51,21.51,0,0,1-.45-3.09A18.42,18.42,0,0,0,23,.77C22.89.11,22.62-.07,22,0c-.85.13-1.7.26-2.54.45A69.39,69.39,0,0,1,7.24,1.94a4,4,0,0,0-2.67,1A6,6,0,0,1,1.89,4.21ZM17,1.8s.11.09.1.13a1.62,1.62,0,0,1-.11.28l-.11-.12Zm-.86,12.13.12.19a1.55,1.55,0,0,1-.29,0s-.08-.07-.11-.11Z" style="fill:#fff"/></g></g></svg>