<svg xmlns="http://www.w3.org/2000/svg" viewBox="0 0 58.5 37.47"><title>iowa</title><g id="Layer_2" data-name="Layer 2"><g id="_ÎÓÈ_1" data-name="—ÎÓÈ 1"><path d="M45.75,0c-2.07.22-4.15.37-6.22.57q-7.72.72-15.48,1c-1.65.06-3.3-.05-4.95-.14a70.32,70.32,0,0,0-8.83,0,34,34,0,0,1-7.2.14,7.26,7.26,0,0,0-1.4-.06c-.72,0-.89.17-1,.87a2.78,2.78,0,0,1-.15,1A1,1,0,0,0,.84,4.68c.28.27.64.56.64,1,0,1.32.1,2.67-.81,3.81S-.2,10.53.53,11.68A16.68,16.68,0,0,1,2.15,15c.51,1.45,1.07,2.9,1.57,4.35a26.57,26.57,0,0,1,1.54,5.6,1.25,1.25,0,0,0,.23.71,9.46,9.46,0,0,1,1.32,2.8,6.69,6.69,0,0,1,.73,2.39c.2-.13.22-.64.62-.38a.68.68,0,0,1,.28.92c-.22.37-.5-.07-.76-.06l-.14,0a3.49,3.49,0,0,1-.11.78,1.37,1.37,0,0,0,.19,1,2.58,2.58,0,0,1,.27,1.77,4.86,4.86,0,0,0,0,1.08c.08,1,.34,1.26,1.33,1.34,1.15.09,2.3.16,3.44.17,3.52,0,7,0,10.57,0a42.92,42.92,0,0,0,7-.44,60.09,60.09,0,0,1,6.42-.75,9.51,9.51,0,0,0,2.76-.35,12.2,12.2,0,0,1,4.69-.52,3.45,3.45,0,0,1,2.59,1.13c.2.23.36.54.76.56a.87.87,0,0,0,.2-.23,3.6,3.6,0,0,1,1.77-2,1,1,0,0,0,.56-1,3.22,3.22,0,0,1,.77-1.85,1.59,1.59,0,0,0,.07-2c-.24-.4-.52-.78-.75-1.18-.9-1.62-.39-3.63,1.91-3.9A10.75,10.75,0,0,0,56,23.34a1.17,1.17,0,0,0,.56-.64A7.11,7.11,0,0,1,58,20.56a2.88,2.88,0,0,0-.57-3.92,2.9,2.9,0,0,1-1-.83,33.73,33.73,0,0,0-2.69-3.49,4.38,4.38,0,0,0-3.22-1.9,3.89,3.89,0,0,1-1.25-.31.92.92,0,0,1-.67-1,4.53,4.53,0,0,0-.26-2.31,2.2,2.2,0,0,1,0-.85c.07-.9,0-1.8,0-2.69a4.91,4.91,0,0,0-.55-2.16A1.69,1.69,0,0,0,45.75,0ZM5,21.51c-.25,0-.4-.19-.44-.5.12-.1.25-.3.38-.31a.4.4,0,0,1,.41.45A.53.53,0,0,1,5,21.51Zm2.09.08a2.88,2.88,0,0,1-.31-.13l.14-.12.3.14S7.12,21.6,7.09,21.59Zm.37,3a1.36,1.36,0,0,1-.28-.11.62.62,0,0,1,.23-.14s.11.11.17.16S7.49,24.57,7.46,24.56Zm1.28-.08a.36.36,0,0,1-.56-.24.56.56,0,0,1,0-.36c.12-.36.34-.15.55-.08s.46.12.91.23Zm5,8.94a.29.29,0,0,1-.36-.27c.06-.06.11-.13.17-.2a2.75,2.75,0,0,1,.26.22C13.93,33.29,13.91,33.39,13.74,33.42Zm2.92-2.19-.21-.2c.13-.1.26-.2.4-.29a.34.34,0,0,1,.11.14C17,31.1,16.87,31.21,16.66,31.23Zm3.73-10.76a1.11,1.11,0,0,1-.29-.1c.08-.05.15-.14.22-.14s.13.1.2.16S20.42,20.48,20.39,20.47Zm1.15-3a1.11,1.11,0,0,1-.3-.12s.1-.11.13-.1a1.88,1.88,0,0,1,.3.12C21.62,17.44,21.57,17.51,21.54,17.5Zm.93-2.2s-.08-.08-.12-.13.09-.12.12-.11a1.66,1.66,0,0,1,.31.12A2.85,2.85,0,0,1,22.47,15.3Zm1.11,6.41a2.71,2.71,0,0,1,.3.13s-.09.12-.13.11a1.78,1.78,0,0,1-.29-.12S23.55,21.71,23.58,21.71Zm0,6.54s-.08-.07-.12-.11a1.66,1.66,0,0,1,.31-.12s.08.08.12.12A1.63,1.63,0,0,1,23.6,28.25Zm.57-11.08c-.1,0-.21-.08-.32-.13a.59.59,0,0,1,.46-.48c.09,0,.3.1.3.1A.64.64,0,0,1,24.17,17.17Zm1-2.23c-.09,0-.17-.11-.26-.16l.34-.38c.1.09.22.15.23.22C25.5,14.84,25.35,14.94,25.16,14.94Zm1,1.47s-.08-.08-.12-.12a1.57,1.57,0,0,1,.3-.12s.08.08.12.12Zm3.47,4.45-.28-.12a2.17,2.17,0,0,1,.31-.36s.23.06.24.12A.3.3,0,0,1,29.65,20.86Z" style="fill:#fff"/></g></g></svg>