<svg xmlns="http://www.w3.org/2000/svg" viewBox="0 0 70.91 38.16"><title>kansas</title><g id="Layer_2" data-name="Layer 2"><g id="_ÎÓÈ_1" data-name="—ÎÓÈ 1"><path d="M0,34.12c0,.54,0,1.08,0,1.62,0,.95.29,1.17,1.25,1.25,2.9.21,5.81.19,8.7.63a19.66,19.66,0,0,0,2,.21c2.91.11,5.82.25,8.73.17,1.4,0,2.81,0,4.2.06A74.94,74.94,0,0,0,34.4,38c.82-.06,1.65-.05,2.48,0a70.63,70.63,0,0,0,8-.16,32.48,32.48,0,0,1,4.52-.08c2.44.11,4.88.34,7.32.32,4,0,8-.21,12.07-.17.21,0,.43,0,.64,0a1.42,1.42,0,0,0,1.36-1.18,4,4,0,0,0,.13-.84c0-.45,0-.89,0-1.34a.84.84,0,0,1-.15-.33.31.31,0,0,1,.16-.33c0-1.1-.06-2.19-.16-3.28a57.48,57.48,0,0,1-.24-6c.07-3.94.58-7.88.17-11.84a2.53,2.53,0,0,0-1-2A2.89,2.89,0,0,1,68.33,9a2.47,2.47,0,0,0-1.17-1.59,5,5,0,0,1-.51-.4c-.79-.69-.87-1.09-.31-1.95A17.43,17.43,0,0,1,67.53,3.5c.28-.34.45-.67,0-1.06-1,.23-1,.25-1.63-.41a2.79,2.79,0,0,0-2.52-.91,6.73,6.73,0,0,1-1.19,0c-4.34,0-8.68-.07-13-.09l-4.71,0c0,.23.07.48-.28.5a.82.82,0,0,1-.76-.43s0,0,0-.07c-2.76,0-5.52,0-8.28,0C32,1.1,28.85.92,25.73.77,23.29.66,20.86.38,18.42.42c-1.37,0-2.74,0-4.1,0C11.08.33,7.83.38,4.6.09c0,.05.1.09.11.15,0,.21-.08.32-.28.36L4.19.42,4.6.09,3.77,0a3.53,3.53,0,0,0-.86,0C2.12.13,1.84.39,1.74,1.2s-.13,1.57-.17,2.36c-.24,4.95-.46,9.9-.71,14.85C.59,23.65.3,28.89,0,34.12ZM64.71,33a.3.3,0,0,1,.35.28c0,.06-.1.14-.16.21l-.25-.23C64.53,33.12,64.55,33,64.71,33ZM63.78,1.47s.09.08.13.12a2,2,0,0,1-.32.11s-.08-.07-.12-.12A1.92,1.92,0,0,1,63.78,1.47ZM57.65,21.73s-.07-.08-.11-.12l.3-.12s.09.08.13.12A1.39,1.39,0,0,1,57.65,21.73ZM58.2,6.84c.12-.15.26-.24.43-.1s0,.2-.07.26a.35.35,0,0,1-.28.14C58.15,7.11,58.13,7,58.2,6.84Zm-.09,2.07c.2,0,.33.11.3.3a.28.28,0,0,1-.36.26.37.37,0,0,1-.22-.22C57.77,9,57.93,9,58.11,8.91Zm-.64-4.83s.08.07.12.11a1.82,1.82,0,0,1-.3.11s-.08-.07-.11-.11A1.45,1.45,0,0,1,57.47,4.08Zm-1.53,1.1.18.19-.37.33c0-.08-.16-.16-.15-.23A.3.3,0,0,1,55.94,5.18Zm-.32,24.47s.08.08.12.12-.2.09-.3.11-.07-.08-.11-.12A1.72,1.72,0,0,1,55.62,29.65ZM54.3,15.91a1.77,1.77,0,0,1,.31.15c-.11,0-.22.08-.33.1s-.07-.09-.11-.13S54.27,15.9,54.3,15.91ZM53.49,2.3c0,.05.11.1.1.13a1.48,1.48,0,0,1-.12.29l-.12-.13Zm-.28,5.84a.33.33,0,0,1-.23.2c-.07,0-.17-.08-.25-.13.11-.12.22-.25.35-.38C53.14,8,53.23,8.07,53.21,8.14Zm-.75-3.33a2.71,2.71,0,0,1,.3.13s-.1.13-.13.12-.2-.09-.3-.13C52.38,4.89,52.43,4.8,52.46,4.81Zm-.83,16.4c0,.1.08.2.1.3s-.08.08-.12.12-.07-.2-.1-.29Zm-.28,5.84a1.76,1.76,0,0,1,.3.1l-.13.12-.3-.12S51.31,27,51.35,27.05Zm-.45-5.84s.12.09.11.12a1.14,1.14,0,0,1-.13.3l-.12-.14A.2.2,0,0,1,50.9,21.21Zm-.56,13.61c.08,0,.16.1.23.16s-.09.11-.12.1a1.31,1.31,0,0,1-.32-.1C50.21,34.92,50.28,34.82,50.34,34.82ZM47.23,5.09c-.26,0-.51-.09-.53-.38A.27.27,0,0,1,47,4.4a.54.54,0,0,1,.51.42C47.59,5.06,47.38,5.07,47.23,5.09Zm1.72-1s.08.08.12.12a2.22,2.22,0,0,1-.31.1s-.08-.08-.12-.12A1.86,1.86,0,0,1,49,4.08Zm-2.44-.72a.52.52,0,0,1,.82.27h.05l0,0a1.38,1.38,0,0,1,.29,0,1.28,1.28,0,0,1,.27.16.27.27,0,0,1-.42.07.57.57,0,0,1-.14-.24h0s0,0,0,0l-.11.05c-.25.12-.47.45-.77.13A.27.27,0,0,1,46.51,3.36Zm-.34,28.17c.19-.06.34,0,.38.28s-.1.23-.18.26a.28.28,0,0,1-.38-.25A.36.36,0,0,1,46.17,31.53ZM45.24,7.79s.08.07.12.11A1.28,1.28,0,0,1,45,8s-.08-.07-.11-.11A1.11,1.11,0,0,1,45.24,7.79Zm-.45,29.08a2.43,2.43,0,0,1,.2.28l-.29.13c-.16-.09-.27-.2-.18-.4S44.68,36.75,44.79,36.87Zm-.33-24.31.14.21a1.22,1.22,0,0,1-.32,0s-.08-.07-.12-.12Zm-.59,7.53a2.33,2.33,0,0,1,.11.31s-.08.07-.13.11a1.63,1.63,0,0,1-.11-.31S43.82,20.13,43.87,20.09Zm-3.81-.62c-.19.06-.33,0-.38-.25s.15-.35.36-.29a.29.29,0,0,1,0,.54Zm3,6.1s.07.07.11.11-.09.11-.12.11a2.52,2.52,0,0,1-.29-.12A1.76,1.76,0,0,1,43,25.57Zm-.33,4.1a.65.65,0,0,1,.51.66c0,.29-.28.38-.54.23s-.52.16-.77.26c-.48.2-.7-.11-.77-.47s0-.76.54-.67a2.24,2.24,0,0,1,.31.11C42.23,29.74,42.49,29.6,42.69,29.67Zm-.95-9.15c-.09-.1-.22-.17-.22-.23A.41.41,0,0,1,41.7,20c.09,0,.21,0,.32.07ZM42,14.26a1.35,1.35,0,0,1-.29,0s-.07-.07-.1-.12l.27-.11ZM41.54,8.5s.08.07.11.11l-.22.16-.17-.17A1.57,1.57,0,0,1,41.54,8.5ZM41,22.74c.12.09.28.18.2.37a.14.14,0,0,1-.14.07c-.19,0-.32-.11-.3-.33S40.92,22.66,41,22.74ZM40.53,15s-.22.13-.31.1a.59.59,0,0,1-.46-.48c.11,0,.24-.13.32-.1A.54.54,0,0,1,40.53,15ZM39.71,8.7c.06-.13.17-.13.27,0a2.43,2.43,0,0,1,.2.28l-.29.12C39.73,9,39.62,8.9,39.71,8.7Zm-.34,3.83c.16,0,.34,0,.37.22,0,0-.19.13-.29.14s-.34,0-.38-.22C39.06,12.65,39.26,12.58,39.37,12.53ZM37.54,6.9c.18-.1.39-.31.5.06,0,.07-.08.22-.16.27a.61.61,0,0,1-.7-.05A2.93,2.93,0,0,1,37.54,6.9Zm-.68,18.22c.16-.19.33-.36.6-.28s.17.15.06.27-.34.35-.61.28S36.73,25.23,36.86,25.12ZM36.35,7.78s.08.08.12.13a1.31,1.31,0,0,1-.32.1s-.07-.08-.11-.12A1.92,1.92,0,0,1,36.35,7.78Zm-1,25.29s.12.09.11.12a1.54,1.54,0,0,1-.11.3l-.12-.12Zm-6.57,4c0,.08-.16.14-.25.2s-.34-.14-.3-.35a.31.31,0,0,1,.26-.19C28.67,36.73,28.84,36.84,28.77,37.07Zm-.19-22.89c.51.22,1.05.16,1.55.33C29.13,15.08,29.13,15.08,28.58,14.18Zm0-2.31c0-.31.17-.43.42-.45s.35,0,.41.22a.58.58,0,0,1-.55.4A.39.39,0,0,1,28.58,11.87Zm1.08,14.28s.07-.07.12-.11a1.45,1.45,0,0,1,.11.29s-.08.08-.12.12A1.82,1.82,0,0,1,29.66,26.15Zm3.93-2.69c.09.13.17.26.26.38s-.09.09-.14.09c-.21,0-.31-.1-.33-.31Zm-1.11,7.15a2.14,2.14,0,0,1-.12.28,1.14,1.14,0,0,1-.09-.3s.07-.08.11-.11S32.49,30.57,32.48,30.61ZM31.93,9.29a.54.54,0,0,1,.44.47.44.44,0,0,1-.3.1.59.59,0,0,1-.45-.48C31.73,9.35,31.85,9.26,31.93,9.29Zm-.65,21.23-.3.09s-.08-.08-.12-.12a1.58,1.58,0,0,1,.31-.09S31.24,30.48,31.28,30.52Zm-.69-20.43c.09.08.19.15.27.23s.1.24-.08.27a.3.3,0,0,1-.37-.28Zm.14,26.06c0,.27-.17.48-.45.44a.53.53,0,0,1,0-1.06A.52.52,0,0,1,30.73,36.15ZM30.21,4.58a1.35,1.35,0,0,1,0,.28s-.07.07-.11.11L30,4.69A1.18,1.18,0,0,0,30.21,4.58ZM28,4.68c.15-.1,0-.85.48-.27.28.36.48,0,.71,0,0,0,0,0,0,0l0,0a1.32,1.32,0,0,1,0-.28,1.43,1.43,0,0,1,.15-.27.25.25,0,0,1,.07.41.57.57,0,0,1-.24.14v0l0,0c0,.81-.58.71-1.09.67A.22.22,0,0,1,28,4.68Zm.12,16.84a.43.43,0,0,1,.26.17c0,.07,0,.19-.07.29l-.41-.27C28,21.63,28.06,21.51,28.12,21.52Zm-.55-11.43a1.18,1.18,0,0,1,.1.3s-.07.07-.11.11-.07-.19-.11-.3Zm0,5.55a1.82,1.82,0,0,1,.11.3s-.08.08-.13.12l-.11-.3ZM26.45,36.79c.05,0,.12.09.12.12a1.92,1.92,0,0,1-.14.29,1.63,1.63,0,0,1-.11-.31S26.41,36.79,26.45,36.79ZM26,11.12s.08.08.12.12a1.82,1.82,0,0,1-.3.11s-.09-.07-.13-.11A2,2,0,0,1,26,11.12Zm-1.85,4.06c.17.12.29.28.2.46s-.36.54-.69.51-.17-.24-.09-.41S23.73,15.14,24.13,15.18Zm-.64-8.43a1.88,1.88,0,0,1,.12.3s-.08.08-.12.12l-.14-.3Zm-3.2,24a.3.3,0,0,1,.34.29l-.19.17-.29-.37C20.2,30.83,20.24,30.77,20.29,30.77ZM19.51,9.62a1.69,1.69,0,0,1,.31.13s-.1.11-.13.11a1.94,1.94,0,0,1-.3-.13S19.48,9.61,19.51,9.62ZM19.06,16s.12.1.11.13a1.73,1.73,0,0,1-.14.31l-.12-.14ZM18.58,5.56s.08.07.12.11a1.82,1.82,0,0,1-.3.11s-.08-.07-.12-.11A1.82,1.82,0,0,1,18.58,5.56ZM18.39,7.4c.17,0,.36,0,.27.24a.52.52,0,0,1-.52.37c-.07-.06-.23-.14-.22-.18A.57.57,0,0,1,18.39,7.4ZM16.56,18.14c.14-.05.25,0,.28.14s-.07.09-.12.12a.2.2,0,0,1-.29-.15S16.51,18.18,16.56,18.14Zm-1.13,7.42a1.92,1.92,0,0,1,.31.11l-.12.13-.32-.13S15.4,25.55,15.43,25.56Zm-3.1,2s-.09-.09-.09-.12a1.53,1.53,0,0,1,.11-.27c.06.07.15.14.15.22S12.39,27.47,12.33,27.53ZM14,5.55a2.36,2.36,0,0,1,.28.12,1.4,1.4,0,0,1-.29.09s-.07-.07-.11-.11S13.93,5.55,14,5.55Zm-.1,5.15c.13,0,.35,0,.3.22,0,.06-.2.08-.31.12s-.35,0-.3-.23C13.56,10.75,13.75,10.69,13.86,10.7Zm-.11,16c.17,0,.16.15.05.29s-.33.37-.6.28-.18-.16,0-.28S13.48,26.6,13.75,26.69ZM12.41,7.76a.51.51,0,0,1,.39-.24c.13,0,.22.24.33.36l-.41.19C12.53,8,12.26,8,12.41,7.76Zm-.27,16.32a.79.79,0,0,1,.26.13c-.05,0-.09.1-.13.1L12,24.25C12,24.18,12.09,24.07,12.14,24.08ZM10.66,26.5c.54-.45,1.23-.16,1.84-.39A3.32,3.32,0,0,1,11,27.33a.47.47,0,0,1-.62-.21C10.3,26.88,10.46,26.67,10.66,26.5ZM6.71,30.25l-.3-.12S6.5,30,6.54,30a1.78,1.78,0,0,1,.29.12Zm.85-18.34c.13.13.25.24.37.34-.07.07-.14.19-.19.18a.36.36,0,0,1-.27-.16C7.43,12.19,7.51,12.06,7.56,11.91ZM7.8,18c-.65-.31-1.15-.34-1.4-.9C7.13,16.76,7.46,17.13,7.8,18Zm-1.7.48c.2-.2.38-.47.71-.24a.35.35,0,0,1,.1.3c-.17.3-.45.28-.74.2S6,18.63,6.1,18.5Zm-1,18.16a1.16,1.16,0,0,1,.27.14s-.08.11-.13.11A2.1,2.1,0,0,1,5,36.85C5,36.78,5.09,36.66,5.14,36.66ZM2.64,21.84s.08.07.12.11l-.24.17-.18-.19A1.71,1.71,0,0,1,2.64,21.84Z" style="fill:#fff"/></g></g></svg>