<svg xmlns="http://www.w3.org/2000/svg" viewBox="0 0 68.55 31.34"><title>kentucky</title><g id="Layer_2" data-name="Layer 2"><g id="_ÎÓÈ_1" data-name="—ÎÓÈ 1"><path d="M42.47,3.92a3.17,3.17,0,0,0-1.79.86,1.27,1.27,0,0,1-1.85.07,1.32,1.32,0,0,0-.34-.2c-.62.2-.55.72-.62,1.17s0,1-.41,1.3a7.82,7.82,0,0,0-2,2.32,1.38,1.38,0,0,1-.4.36,4.09,4.09,0,0,0-1.4,1.74c-.25.53-.6,1-.88,1.48a1.88,1.88,0,0,1-1.38.9,2.8,2.8,0,0,1-2.06-.4c-.27-.17-.45-.47-.79-.51a.94.94,0,0,0-.53.38c-.52.58-1,1.19-1.57,1.77-.74.83-1.08.84-2,.27-.4-.24-.59-.73-1.11-.86a4.76,4.76,0,0,0-1.91,1.33c-.69.75-1,.78-1.7.12a4.35,4.35,0,0,0-1.79-.94,1.17,1.17,0,0,0-1.3.28c-.45.64-1,.61-1.7.69a4.25,4.25,0,0,0-3.4,2,6.23,6.23,0,0,1,.28.59c.34,1,0,1.52-1,1.62a7.8,7.8,0,0,0-1.6.22C8,20.84,7.8,21.08,8,22.28a5.68,5.68,0,0,1,0,2.25,1.38,1.38,0,0,1-1.81,1.2A7.51,7.51,0,0,1,4.24,25,4.35,4.35,0,0,0,3,24.61a1,1,0,0,0-1.09.5,3.86,3.86,0,0,0-.58,1.62,5.49,5.49,0,0,1-.94,2.59,1.36,1.36,0,0,0-.35,1.33c3.25.68,6.55.49,9.79.69a2.36,2.36,0,0,0,.32-.59c.17-.93.84-1.18,1.65-1.24a3.44,3.44,0,0,1,.85,0,38.76,38.76,0,0,0,5.8.45c4.23.27,8.47.15,12.7.14,2.55,0,5.1-.17,7.65-.08,2.15.07,4.3.19,6.46.1a60.33,60.33,0,0,1,6.45.17,10.74,10.74,0,0,0,6.17-1.07,3.5,3.5,0,0,0,1.35-1.18A2.44,2.44,0,0,1,60.56,27a2.21,2.21,0,0,0,1.23-1.13,8.46,8.46,0,0,1,3.47-3.44c.54-.28,1.07-.59,1.58-.92a8.29,8.29,0,0,0,1.22-.89,1.08,1.08,0,0,0,.2-1.63,14.67,14.67,0,0,1-2.53-4.47l-.06-.09a11.51,11.51,0,0,1-1.9-5.65,1.94,1.94,0,0,0-.32-1.13L61.28,5.09a1.37,1.37,0,0,0-.32,0,3.25,3.25,0,0,0-.42.11,6,6,0,0,1-3.79.36,1.36,1.36,0,0,0-1,.23,1.94,1.94,0,0,1-1.95,0,4.56,4.56,0,0,1-.92-.57,2.64,2.64,0,0,0-2.15-.73,3,3,0,0,1-3-1.64,8.66,8.66,0,0,1-.5-1.07C46.56,0,46.55,0,44.7,0a1.14,1.14,0,0,0-1.31,1.32c0,.36.11.71.12,1.07C43.54,3.23,43.18,3.82,42.47,3.92ZM16.29,26.44a.27.27,0,0,1-.19-.38.31.31,0,0,1,.12-.1l.35.36C16.45,26.37,16.35,26.46,16.29,26.44Zm2.91,2.67s-.07-.1-.11-.15a2.15,2.15,0,0,1,.34-.05s.07.09.11.14Zm1.9-11.82L21,17.15c.07-.1.12-.19.18-.29,0,.05.1.11.09.15A1.51,1.51,0,0,1,21.1,17.29Zm1,.88c0-.05,0-.1-.08-.14l.15-.26c0,.05.1.11.08.14A1.1,1.1,0,0,1,22.08,18.17ZM41.27,8.11A1.51,1.51,0,0,1,41,8s.11-.1.14-.09A2.4,2.4,0,0,1,41.4,8S41.3,8.12,41.27,8.11Zm24,8.3a.39.39,0,0,1,.34.35s-.16.19-.21.17a.36.36,0,0,1-.25-.21C65.13,16.63,65.22,16.51,65.27,16.41Zm-7.65,2.26a2.19,2.19,0,0,1,.29.17s-.11.09-.15.08a1.12,1.12,0,0,1-.28-.16C57.53,18.73,57.59,18.66,57.62,18.67Zm-.84-7.57a.3.3,0,0,1,.31.33c0,.06-.13.12-.2.18a1.71,1.71,0,0,1-.22-.25C56.57,11.22,56.62,11.13,56.78,11.1Zm-2.11,8.65s.07.08.1.12l-.24.13-.16-.2A1,1,0,0,1,54.67,19.75Zm0-13a1.77,1.77,0,0,1,0,.32s-.09.06-.14.09a1.67,1.67,0,0,1,0-.31S54.59,6.81,54.64,6.78Zm-.91,4.64.27.15-.14.09-.27-.15S53.69,11.41,53.73,11.42Zm-5.41,8.11a2.09,2.09,0,0,1-.28-.17l.15-.09a2.61,2.61,0,0,1,.28.17S48.36,19.55,48.32,19.53Zm1.33-8.43s-.06-.08-.1-.13a1.91,1.91,0,0,1,.33-.06s.06.09.09.14A1.64,1.64,0,0,1,49.65,11.1ZM50,8.59l.06,0,0,0c.71.08,1.24.69,2,.68a.41.41,0,0,1,.4.5c0,.3,0,.65-.33.81a.49.49,0,0,1-.63-.21c-.43-.64-1.34-.88-1.43-1.78l0,0s0,0,0,0a1.82,1.82,0,0,1-.43-.16c-.09,0,0-.18.15-.17S50,8.42,50,8.59Zm-.45-1.08s.06.08.1.13a1.92,1.92,0,0,1-.32.05s-.07-.08-.1-.13A1.77,1.77,0,0,1,49.58,7.51Zm-2.25-4c.09,0,.18.1.27.15a1.55,1.55,0,0,1-.31.07s-.06-.09-.1-.13S47.3,3.45,47.33,3.46Zm-2.07,14s.07.08.1.13a1.76,1.76,0,0,1-.31,0S45,17.5,45,17.46A1.57,1.57,0,0,1,45.26,17.41Zm-1.12,2.85s.07.08.1.12a1.08,1.08,0,0,1-.31.07s-.07-.07-.11-.12A1.43,1.43,0,0,1,44.14,20.26ZM43.68,3.48c.3-.09.29.14.3.31a.76.76,0,0,1-.76.85C43,4.66,43,4.55,43,4.3,43,3.83,43.15,3.5,43.68,3.48ZM42.55,7.82a1.94,1.94,0,0,1-.33.07s-.06-.1-.1-.15a1.91,1.91,0,0,1,.33-.06S42.52,7.77,42.55,7.82Z" style="fill:#fff"/></g></g></svg>