<svg xmlns="http://www.w3.org/2000/svg" viewBox="0 0 54.59 48.36"><title>louisiana</title><g id="Layer_2" data-name="Layer 2"><g id="_ÎÓÈ_1" data-name="—ÎÓÈ 1"><path d="M52.14,47.78a1.07,1.07,0,0,1,1.42.27c.32-.7.82-1.18,1-1.81a2.74,2.74,0,0,0-2.23-1.54,9.51,9.51,0,0,1-4.69-2c-.66-.56-.74-.87-.25-1.54a3,3,0,0,0,.44-1A1.58,1.58,0,0,1,49.4,38.9c.3,0,.66.1.9-.28.16-.58-.33-.87-.64-1.23s-.11-1-.51-1.38c-.55.34-.57.85-.65,1.34a1,1,0,0,1-1.93.46c-.23-.37-.66-.56-.78-.94s.24-.74,0-1.15a.76.76,0,0,0-1,.13.7.7,0,0,0-.12,1,1.17,1.17,0,0,1,.14.3.54.54,0,0,1-.14.68.56.56,0,0,1-.7,0,2.35,2.35,0,0,1-.76-.59,1.89,1.89,0,0,0-1.88-.78c-.36,0-.71.07-1.07.08a.79.79,0,0,1-.95-.66,2.34,2.34,0,0,1,.2-1.78,21,21,0,0,1,1.55-2.45,3.28,3.28,0,0,1,1.53.59,16,16,0,0,0,3,1.41c.49.15,1,.35,1.47-.18A3.11,3.11,0,0,0,46.57,32c-.62-1.1-1.23-2.2-1.91-3.25a2.47,2.47,0,0,1-.15-2.83c.13-.24.38-.46.2-.83A1.48,1.48,0,0,0,43.8,25c-2.58.18-5.17.27-7.74.59-3.28.41-6.58.46-9.88.66a1,1,0,0,1-1-.48,4.16,4.16,0,0,1-.38-3.33,12.48,12.48,0,0,0,.75-3,8.56,8.56,0,0,1,1.65-3.92,2.34,2.34,0,0,0,.51-.94,3.87,3.87,0,0,1,.87-1.71,5,5,0,0,0,1-2.06c-.18-.57-.74-.88-.75-1.47.24-.73,1-.83,1.63-1.35C29.8,7,29.92,5.69,29,4.85c-.32-.29-.24-.81-.24-1.24,0-.68,0-1.37,0-2C28.7.27,28.38,0,27.12,0H26.9c-2.65.3-5.31.21-8,.36-3.47.2-7,.36-10.44.46A57.89,57.89,0,0,0,2,1.26C.86,1.42.49,1.73.31,2.94.21,3.61.22,4.3.15,5a49.8,49.8,0,0,0,0,7.43,3.37,3.37,0,0,0,1,2.31,14.39,14.39,0,0,1,1.15,1.43,1.76,1.76,0,0,1,.55,1.15,4.15,4.15,0,0,0,.85,2.59A4.55,4.55,0,0,1,4.11,21a6.71,6.71,0,0,0,.77,1.65,8.82,8.82,0,0,1,1.36,4.89l.24-.1.12.22c-.1,0-.21,0-.31,0a.07.07,0,0,1,0,0,9,9,0,0,1-1,3.69,5.76,5.76,0,0,0-.5,5.05,2.72,2.72,0,0,1-.27,2.67,3.23,3.23,0,0,0-.53,1.18,1.14,1.14,0,0,0,1.16,1.52c.5,0,1,0,1.5,0a.71.71,0,0,0,.7-.44c-.45-.56.19-1,.3-1.61s0-1.33.81-1.63a3,3,0,0,1,1.07,1.56c.3.68-.52,1-.61,1.5.23.47.68.52,1.08.63a34.55,34.55,0,0,1,4.72,1.5,7,7,0,0,0,2.4.58,9.11,9.11,0,0,0,3.21-.12c.88-.27,1.06-.72.65-1.55-.11-.22-.32-.4-.26-.72s.48-.47.81-.61l1.39-.58c.92-.38,1-.35,1.44.61a.58.58,0,0,0,.16.15c.34.06.49-.42.88-.37a5,5,0,0,1,1.75,1.29,2.27,2.27,0,0,1,.42-.05c.08,0,.15.11.22.17a2.25,2.25,0,0,1-.49.1h0a2.05,2.05,0,0,1,.22.5,1.19,1.19,0,0,0,1,.86l.85.17a4.83,4.83,0,0,1,2.11,1c.68.57.62,1.06-.15,1.49-.18.1-.41.14-.46.46.21.62.79.59,1.31.63a2.44,2.44,0,0,1,1.55.34,4.16,4.16,0,0,0,2.54.75c.84.08,1.15-.21,1.07-1.05-.09-1,.48-1.31,1.2-1.48a2.35,2.35,0,0,1,1.39,0,9.21,9.21,0,0,0,1.86.5c.49.49.12,1,.29,1.5a.69.69,0,0,0,1,.17c.23-.88.5-1.84.72-2.81a.74.74,0,0,0-.37-.73c-.25-.2-.53-.37-.79-.56a2.35,2.35,0,0,1-.81-.85c-.27-.53,0-.95.57-.92a2.38,2.38,0,0,1,.53.11c1,.31,1.91.64,2.87.94a2,2,0,0,1,1.17.88c.15.25.25.59.56.63.6.08.86.61,1.16.83.69.24,1.27-.25,1.89.17C50.49,46.72,51.46,47.08,52.14,47.78ZM26.23,4.43c.1-.12.2-.28.39-.18a.29.29,0,0,1,0,.29.38.38,0,0,1-.29.13C26.2,4.66,26.16,4.56,26.23,4.43Zm.26,1.91c.05,0,.09.07.13.11l-.33.4c-.08-.11-.19-.2-.18-.27A.29.29,0,0,1,26.49,6.34Zm-.7,9.72c.05.07.16.17.14.23a.28.28,0,0,1-.38.23c-.05,0-.13-.08-.12-.11A.45.45,0,0,1,25.79,16.06ZM5.48,9.26c.1-.13.21-.29.39-.19s.07.22,0,.29a.35.35,0,0,1-.29.13C5.46,9.49,5.42,9.38,5.48,9.26Zm.36,3.9A.71.71,0,0,1,6,13s.11,0,.15,0,.15.18,0,.22S6,13.18,5.84,13.16Zm.83,7.17a.42.42,0,0,1-.46-.2L6.52,20c.18,0,.36,0,.44.2A.6.6,0,0,1,6.67,20.33Zm.55-7.46-.3-.14s.09-.12.12-.11a1.11,1.11,0,0,1,.3.12ZM8.66,5.3c-.12-.1-.31-.19-.2-.38s.23-.07.3,0a.36.36,0,0,1,.15.3C8.9,5.34,8.79,5.37,8.66,5.3Zm1.14.37c-.14-.09-.32-.18-.26-.39,0,0,.23-.09.31,0a.35.35,0,0,1,.17.29C10,5.66,9.92,5.72,9.8,5.67ZM11.87,9.3a1.36,1.36,0,0,1,.28.11s-.09.1-.12.1a1.78,1.78,0,0,1-.29-.12S11.83,9.29,11.87,9.3Zm.35,8.55s-.07,0-.11.08-.07-.19-.11-.28.15-.17.2-.08A.53.53,0,0,1,12.22,17.85Zm-.08-6.22c0-.1-.09-.19-.12-.28l.12-.13c0,.1.09.2.12.3S12.18,11.59,12.14,11.63Zm.45,13.44s-.08-.08-.11-.12a1.6,1.6,0,0,1,.31-.1s.08.08.12.12A1.31,1.31,0,0,1,12.59,25.07Zm.38-6.3s-.08-.07-.13-.11a1.51,1.51,0,0,1,.31-.12s.08.07.12.12A1.54,1.54,0,0,1,13,18.77ZM13.89,8a2.55,2.55,0,0,1-.29-.13,1.6,1.6,0,0,1,.31-.1s.08.08.12.12S13.93,8.05,13.89,8Zm6.32,1.71c.06.07.19.14.19.21a.39.39,0,0,1-.18.28c-.08,0-.21-.05-.37-.1C20,10,20.09,9.87,20.21,9.75ZM19.8,39.8c.49-.19.73-.61,1.32-.42C20.83,39.9,20.46,40,19.8,39.8ZM21.47,24a.52.52,0,0,1-.44-.49.44.44,0,0,1,.3-.1.63.63,0,0,1,.46.49C21.68,23.89,21.56,24,21.47,24Zm.34-12.26c-.06.14-.26.22-.4.33l-.19-.42c.07-.21.06-.45.34-.31S21.9,11.51,21.81,11.69ZM24.17,34,24,33.81c.1,0,.2-.08.3-.1s.07.08.11.12Zm-.08-14.14a.33.33,0,0,1-.12-.11l.32-.4c.08.12.18.21.17.28A.28.28,0,0,1,24.09,19.86Zm1.68,14.52c-.23,0-.44-.15-.45-.5s.06-.49.36-.48a.67.67,0,0,1,.62.54C26.37,34.19,26.17,34.36,25.77,34.38Zm1.66-7.08s-.08-.08-.12-.13a2,2,0,0,1,.32-.11s.08.09.12.13A2,2,0,0,1,27.43,27.3Zm7.94,12.37s.08.08.11.12a1.71,1.71,0,0,1-.3.09s-.08-.08-.11-.12A1.71,1.71,0,0,1,35.37,39.67ZM34,45.46c.9-.6.9-.6,1.84,0A3.29,3.29,0,0,1,34,45.46Zm1.55-18.88s-.08-.08-.12-.12a1.88,1.88,0,0,1,.3-.12s.08.08.12.12A1.88,1.88,0,0,1,35.56,26.58Z" style="fill:#fff"/></g></g></svg>