<svg xmlns="http://www.w3.org/2000/svg" viewBox="0 0 32.54 55.62"><title>maine</title><g id="Layer_2" data-name="Layer 2"><g id="_ÎÓÈ_1" data-name="—ÎÓÈ 1"><path d="M32.49,32.4l0-.21c-.24-.31,0-.87-.47-1-.91-.38-.93-1-.52-1.72.05-.08,0-.21,0-.35a1.88,1.88,0,0,0-.27-.3,3.47,3.47,0,0,0-.67-.33,1.42,1.42,0,0,1-.73-.45c-.93-1.31-2.06-2.56-1.43-4.38a1.65,1.65,0,0,0,.06-.32.85.85,0,0,0-.68-1.06c-.4-.14-.83-.22-1.23-.36a2.84,2.84,0,0,1-1.75-2.4,27.86,27.86,0,0,1-.15-3.43A3.36,3.36,0,0,0,24.56,15a3.48,3.48,0,0,1-.19-1.69,6.64,6.64,0,0,0,0-1.18c-.19-2-.38-3.93-.59-5.89C23.51,3.79,22,2.12,20.22.68a1,1,0,0,0-.28-.1.7.7,0,0,0-.23.06,2.12,2.12,0,0,0-.35.23,7.67,7.67,0,0,1-4,1.84C14,3,13.55,2.73,13,1.38c-.19-.48-.25-1-.65-1.38a.58.58,0,0,0-.53.23,8.62,8.62,0,0,0-1.24,1.88C9.6,4,8.66,6,7.47,7.76A7.39,7.39,0,0,0,6.3,11.52c0,1,0,1.91,0,2.87l0,0a.52.52,0,0,0,0,.51.36.36,0,0,1,0,.09c0,.24,0,.47.05.7a1.22,1.22,0,0,1-.41.54.65.65,0,0,0-.26.49,3.73,3.73,0,0,0,.46,1,2.83,2.83,0,0,1-1,3.4,4.59,4.59,0,0,0-2.45,4,2.2,2.2,0,0,1-2.12,2.4c-.07,0-.13.07-.19.1a8.22,8.22,0,0,0-.23,3.81,44.87,44.87,0,0,1,.7,5.66q.41,5.91.8,11.83a7.52,7.52,0,0,0,.92,3.4,3.15,3.15,0,0,1,.39,1.76,2,2,0,0,0,.23,1.43A7.05,7.05,0,0,0,4.47,53.3a3,3,0,0,1,1.25-2.39,3.87,3.87,0,0,0,1.2-3.3,1.75,1.75,0,0,1,.77-1.74,3.36,3.36,0,0,0,.67-.63,3.3,3.3,0,0,0,.08.64.5.5,0,0,0,.85.25,1.12,1.12,0,0,0,.36-.52,5.41,5.41,0,0,1,.25-.71c.36-.72.76-.77,1.28-.15.13.15.17.42.47.33s.14-.47.16-.72c.08-.85.4-1.07,1.2-.83.17,0,.32.16.49.22.85.32,1.34,0,1.37-.88a12.19,12.19,0,0,1,.39-2.55A2.36,2.36,0,0,1,16,39a5.15,5.15,0,0,0,1.22-1.49c.14-.27.32-.49.68-.39a1,1,0,0,1,.43.82c.14.93.75,1.27,1.65,1.41,0-.58-.31-1.18.3-1.53s.94.38,1.34.68c.28-.08.54-.11.61-.4.06-.73-.65-.77-1-1.06a.59.59,0,0,1,.21-.82,5,5,0,0,1,.94-.5c.86-.33,1.25-.12,1.5.78.09.33,0,.75.53.79a6.21,6.21,0,0,0,1.93-2.27c.06-.16.28-.21.71-.17.1,0,.23.45.67.4a8.63,8.63,0,0,0,1.75-1.63,1.06,1.06,0,0,1,1-.53A3,3,0,0,0,32.49,32.4ZM7.71,13.09c-.22.05-.32-.13-.33-.3s.17-.29.4-.28a.25.25,0,0,1,.19.37A.42.42,0,0,1,7.71,13.09ZM2.85,42a1.71,1.71,0,0,1-.27-.2s.12-.09.15-.08A2.43,2.43,0,0,1,3,42C3,42,2.88,42,2.85,42Zm9.09-22.61a2.35,2.35,0,0,1-.25-.19l.15-.08.25.19C12,19.37,12,19.43,11.94,19.42Zm13,12.16s-.06-.08-.1-.14a2.11,2.11,0,0,1,.33,0s.07.09.1.14A1.24,1.24,0,0,1,24.89,31.58Z" style="fill:#fff"/></g></g></svg>