<svg xmlns="http://www.w3.org/2000/svg" viewBox="0 0 89.11 63.46"><title>maryland</title><g id="Layer_2" data-name="Layer 2"><g id="_ÎÓÈ_1" data-name="—ÎÓÈ 1"><path d="M88.53,34.48c.3-.39.72-.76.52-1.48a5.75,5.75,0,0,0-3.48-.77,32.06,32.06,0,0,1-7.17-1c-2.43-.53-4.18-1.79-4.21-4.58a5.27,5.27,0,0,0-.18-.86c-1.25-6.4-3.09-12.66-4.41-19A51.6,51.6,0,0,0,67.21,0c-2,.51-3.7,1-5.42,1.36-3.74.71-7.51,1.25-11.25,2C41.34,5.17,32.15,7.06,23,8.92Q12.51,11,2.06,13.17c-1.93.4-2.21.74-2,2.63a3.44,3.44,0,0,1,.27-.27c.06,0,.47.15.48.26a.7.7,0,0,1-.57.75l-.08,0c.26,2,.61,4.06.94,6.08.07.41.19.88.82.9A5.32,5.32,0,0,0,3.7,21.35c.57-.94,1.09-1.91,1.65-2.85,1-1.71,2.38-2.77,4.52-2.34.12,0,.27-.1.41-.16,1.05-1.06.89-3,2.64-3.7,1.13.61,2.33,1.29,3.63.38,1.76-1.22,3.84-1.81,5.67-2.87A7.64,7.64,0,0,1,27.75,9c2.09.43,4,1.21,5.11,3.39A18.84,18.84,0,0,0,35,15.34c2.9-.19,4.75,1,4.87,4.16a1.38,1.38,0,0,0,.17.4,1.42,1.42,0,0,0,1.32,1c2.53,0,4.4,1.42,6.39,2.66,2.52,1.58,3.09,3.94,2.72,6.67a9.68,9.68,0,0,1-.94,2.69c-.5,1.14-.94,2.31-1.35,3.48a1.52,1.52,0,0,0,.27,1.74,1.92,1.92,0,0,0,.74.13c.79-.16,1.56-.41,2.34-.6,2-.46,2.81-.11,3.79,1.57.23.38.4.8.82,1A11.39,11.39,0,0,0,63,41.45c1.29-.2,1.68-.85,1.43-2.23a22.58,22.58,0,0,1-.36-2.6A5,5,0,0,0,63,34a18.2,18.2,0,0,1-3.66-10.4c0-1.31-.09-2.64,0-3.95a5.37,5.37,0,0,0-1.53-4.39c-.85-.85-1.61-2-.9-3.44A3.39,3.39,0,0,0,59.61,10a5.9,5.9,0,0,1,2.27-2c1.23-.67,2.46-1.31,2.93-2.79a.93.93,0,0,1,1-.63,1,1,0,0,1,.9.84c.07,1.19,1,2.1,1.09,3.14A2.44,2.44,0,0,1,66.2,9.76C62.86,11,62.86,11,63.51,14.44a3.13,3.13,0,0,0,.24.6,6.57,6.57,0,0,0,.52.43c1.66,1.07,1.79,1.85.52,3.27a4,4,0,0,0-1.18,1.47,2,2,0,0,1,2.63.87c1,1.59-.82,2.24-1.34,3.56,2,.1,3.56.67,3.83,2.62-.36,1.33-2.09,1.14-2.21,2.38a1.4,1.4,0,0,0,.11.3c.09.11.19.26.31.3,1.6.57,2,1.81,1.85,3.34a13.19,13.19,0,0,0,0,1.54,1,1,0,0,0,.84,1.11,2.05,2.05,0,0,0,.43-.09c.63-.3.91-.94,1.36-1.41.91-.95,1.82-1.08,2.63-.09,1.71,2.07,3.7,4.08,3.16,7.17,0,.11.12.26.18.39a1.65,1.65,0,0,0,.94.53c2.25.65,2.71,1.29,2.51,3.56A17.39,17.39,0,0,1,80,49.92a35.91,35.91,0,0,0-1.15,12c0,.64.07,1.29,1,1.55A15.51,15.51,0,0,0,80,59.64,8,8,0,0,1,83.3,52.9a6.09,6.09,0,0,0,.18-2.17c.14-3.46.63-6.75,3.9-8.68,0-.8-.51-1.19-.81-1.67-1.15-1.83-1.13-2.16.28-3.87C87.41,35.83,88,35.18,88.53,34.48ZM37.82,15c-.06,0-.16-.14-.24-.21a2.75,2.75,0,0,1,.61-.21c.07,0,.16.14.25.21A3,3,0,0,1,37.82,15ZM49.29,9.67a.6.6,0,0,0-.14-.36.4.4,0,0,0,.12-.43c.16.16.3.39.45.56Zm11.21-6a.85.85,0,0,0-.17-.08c.08,0,.15-.08.17-.06a2.51,2.51,0,0,1,.42.44Zm1.09-1.45c.06-.21.23-.28.32-.16A3.18,3.18,0,0,0,61.59,2.18Zm8,21.2c-.07,0-.17-.16-.26-.25a4.1,4.1,0,0,1,.64-.23c.07,0,.17.15.26.23A4.23,4.23,0,0,1,69.54,23.38Zm2.23-2.7a.63.63,0,0,1-.88.39A1.47,1.47,0,0,1,70,19.92a3.1,3.1,0,0,1,1-.24A.8.8,0,0,1,71.77,20.68Zm5.41,13.16c-.16,0-.33-.28-.5-.44A1.6,1.6,0,0,1,78,32c.12,0,.46.34.44.37C78.12,32.91,78.11,33.8,77.18,33.84Z" style="fill:#fff"/></g></g></svg>