<svg xmlns="http://www.w3.org/2000/svg" viewBox="0 0 74.77 41.45"><title>massachusetts</title><g id="Layer_2" data-name="Layer 2"><g id="_ÎÓÈ_1" data-name="—ÎÓÈ 1"><path d="M67.8,33.34c-.49,0-.87,0-1.19,0a.8.8,0,0,1-.92.06.91.91,0,0,1-.48-1A11.32,11.32,0,0,1,64.82,31c-.4-1.67-1-3-2.85-3.35a1.64,1.64,0,0,1-1.33-1c-.34-1.45,1.41-1.84,1.35-3a2.87,2.87,0,0,0-1-1.58A22.09,22.09,0,0,0,55.87,18c-2.45-1.41-2.5-1.72-1.2-4.09A16.83,16.83,0,0,0,56,11c.66-2.12,1.81-3.57,4.15-3.88.57-.07,1.26-.29,1-1.17a1.62,1.62,0,0,0-.46-.25c-3.15-.33-3.24-.41-4-3.48-.2-.82-.18-1.78-1.12-2.2-.87-.17-1.28.48-1.81.92C50,4.07,46,6.76,40.7,5.76h-.26c-11.17-.1-22.33,0-33.47.69-2.64.18-2.85.36-3.41,3.06a72.64,72.64,0,0,1-2.49,9.7,16.42,16.42,0,0,0-1,6.71,13.83,13.83,0,0,0,1.79.22c9.58-.2,19.17-.15,28.72-1a11.15,11.15,0,0,1,3.41,0,13.7,13.7,0,0,0,6-.24,11.47,11.47,0,0,1,3.92-.3c3.15.38,4.07,1.18,4.79,4.31a17.38,17.38,0,0,1,.51,2.85,3.39,3.39,0,0,0,1.25,2.76,3.54,3.54,0,0,1,1.1,3.82c-.16.84-.73,1.64-.39,2.48a1.36,1.36,0,0,0,1.91.47,7,7,0,0,0,3.84-3.43A11.86,11.86,0,0,1,58,35.75a3.53,3.53,0,0,1,3.58-1.14A2.84,2.84,0,0,1,64.06,37c.16.64-.06,1.47.93,1.89,1.2-.22,1.87-1.36,2.74-2.16s2.41-.8,3.65-1.67C70.18,34.15,69.28,33.29,67.8,33.34ZM38.17,21.56c-1.49,1-2.62-.06-4-.5.3-.21.49-.4.53-.37,1.12.79,2.61-1.3,3.57.46A.43.43,0,0,1,38.17,21.56Zm6.93,3c0-.26-.07-.53-.11-.79l.38-.21a4.27,4.27,0,0,1,.1.8C45.47,24.46,45.23,24.52,45.1,24.59Z" style="fill:#fff"/><path d="M72.06,33.81c.53.57,1.06.82,1.61.39s1.32-.59,1-1.53C73,33,72.91,33,72.06,33.81Z" style="fill:#fff"/></g></g></svg>