<svg xmlns="http://www.w3.org/2000/svg" viewBox="0 0 73.11 70.44"><title>michigan</title><g id="Layer_2" data-name="Layer 2"><g id="_ÎÓÈ_1" data-name="—ÎÓÈ 1"><path d="M59.16,22.34a38.55,38.55,0,0,0-4.72-1.48,1.24,1.24,0,0,1-.92-.48,1.83,1.83,0,0,0-1.76-.82,3.38,3.38,0,0,1-1.86-.43c-1.65-1.05-2-1-3.22.53l-.06.09c-.28.42-.73.72-.83,1.24s.46.83.75,1.22A.91.91,0,0,1,46,23.75c-.28.07-.57.11-.84.2a1.82,1.82,0,0,0-1.36,2.23c.08.68.18,1.36.25,2a5.19,5.19,0,0,1-.14,2.25,1.28,1.28,0,0,1-1.22.87c-.55,0-.71-.39-.89-.8a4.07,4.07,0,0,1-.19-1.59,4.67,4.67,0,0,0-.1-1.49,12.09,12.09,0,0,0-1,2.11.93.93,0,0,1-1,.76.72.72,0,0,0-.59.13,5.73,5.73,0,0,0-.6,1.63c-.21.65-1,.7-1.28,1.38a5.13,5.13,0,0,1,.57,3,1.9,1.9,0,0,0,0,.53A2.86,2.86,0,0,1,37,39.47c-.56.78-1.05,1.6-1.57,2.4a2.47,2.47,0,0,0,.23.44,2.72,2.72,0,0,1,.69,2,4.85,4.85,0,0,0,.13.85,1.82,1.82,0,0,1-.06,1.06,2.74,2.74,0,0,0,.39,3,19.05,19.05,0,0,1,3,7.55,11.47,11.47,0,0,1-.28,6.69c-.73,1.88-.9,3.91-1.57,5.81a.9.9,0,0,0,.1,1,1.33,1.33,0,0,0,.82.1,80.49,80.49,0,0,0,9.4-1.19,39.88,39.88,0,0,1,4.34-.79,2.13,2.13,0,0,1,1.64.36,1.39,1.39,0,0,0,1.12.25,17.14,17.14,0,0,0,2.45-.49,2.39,2.39,0,0,1-.28-.13l.14-.11.29.13s-.07.08-.11.1l.14,0c2.24-.67,4.43-1.46,6.67-2.12A6,6,0,0,0,68,64.14a1.58,1.58,0,0,0,.4-1.67A2.3,2.3,0,0,1,69,59.91a9,9,0,0,1,.64-.73,1.13,1.13,0,0,0,.32-1.36A3,3,0,0,1,70,55.61c.28-.75.46-.87,1.26-.91.46,0,.92.21,1.55-.08.08-1.1.16-2.21.25-3.31a4,4,0,0,0-.48-2.49,4.8,4.8,0,0,1-.45-1.1C71.38,45,70,42.54,69.28,39.83a2.38,2.38,0,0,0-3.57-1.34c-1.08.65-2.11,1.39-2.24,2.83a1.7,1.7,0,0,1-.42.86c-.36.49-.72,1-1.09,1.47a1.75,1.75,0,0,1-2.62.44,3.34,3.34,0,0,1-1.09-3.76,1.15,1.15,0,0,1,.85-.75c1-.14,1.26-.83,1.47-1.63a5.79,5.79,0,0,0,.23-1.49,1.76,1.76,0,0,1,.7-1.39,2.09,2.09,0,0,0,.85-2.7A5.48,5.48,0,0,1,62.09,30a3.29,3.29,0,0,0-.87-2.57c-.14-.17-.3-.31-.43-.48a1.16,1.16,0,0,1-.1-1.73c.16-.24.42-.42.31-.85A6,6,0,0,1,60,23,1.31,1.31,0,0,0,59.16,22.34ZM40.7,37.19a.75.75,0,0,1,.25.13s-.08.09-.12.09a2,2,0,0,1-.3-.06C40.59,37.29,40.65,37.18,40.7,37.19ZM39,51.51a1.88,1.88,0,0,1-.31-.06c.06-.07.12-.19.16-.19a1,1,0,0,1,.28.14S39,51.51,39,51.51Zm.3-5.38a4,4,0,0,1,2,0C40.62,46.73,40.07,46.76,39.28,46.13Zm2.1,16.5a.3.3,0,0,1-.25-.36c.08-.05.22-.15.24-.13a2.18,2.18,0,0,1,.3.38C41.58,62.56,41.47,62.65,41.38,62.63Zm.9-1.48c-.1,0-.19-.09-.29-.13s.09-.11.13-.11.19.08.29.12S42.31,61.15,42.28,61.15Zm.37-8.53a1.94,1.94,0,0,1-.3-.13s.09-.11.13-.11a1.69,1.69,0,0,1,.31.13S42.69,52.62,42.65,52.62ZM44.5,40.37a.4.4,0,0,1,.24-.22c.22-.06.34.08.36.27s-.11.31-.32.32S44.44,40.58,44.5,40.37Zm.55,26.7S45,67,44.94,67a1.32,1.32,0,0,1,.3-.1s.08.07.12.12A2.81,2.81,0,0,1,45.05,67.07Zm.68,2.15L45.56,69l.19-.18a1.76,1.76,0,0,1,.1.3S45.77,69.18,45.73,69.22Zm.09-12.52s-.08-.09-.12-.13l.31-.15.12.24C46,56.67,45.92,56.7,45.82,56.7Zm1.74-4.94.3-.12s.09.08.13.13a2,2,0,0,1-.32.11S47.6,51.81,47.56,51.76ZM47.94,57l-.13-.11.13-.3s.11.09.1.12S48,56.87,47.94,57Zm2.12,1.94a1.39,1.39,0,0,1-.28-.12s.09-.11.12-.1a2.14,2.14,0,0,1,.28.12S50.09,58.92,50.06,58.91Zm6.86-17.28a2.71,2.71,0,0,1,.3.13s-.09.12-.12.12a2.88,2.88,0,0,1-.31-.13C56.84,41.71,56.89,41.62,56.92,41.63ZM54.79,57.07a.55.55,0,0,1-.53-.38c-.09-.24.09-.3.28-.26a.76.76,0,0,1,.48.46C54.94,57,54.87,57.07,54.79,57.07Zm0-1.84c0-.08-.13-.21-.11-.24a2.67,2.67,0,0,1,.36-.31c0,.1.12.2.11.29A.31.31,0,0,1,54.74,55.23Zm.87,1.11a.2.2,0,0,1-.29-.15s.09-.08.13-.12l.3.15S55.66,56.32,55.61,56.34Zm0-21.87a1.21,1.21,0,0,1-.3-.11c.07,0,.14-.16.2-.15s.15.1.22.16S55.68,34.48,55.65,34.47Zm.62,9.67a.27.27,0,0,1-.34-.29c0-.09.11-.18.17-.27l.37.35Zm.82,12.91a1.25,1.25,0,0,1-.3-.12c.05,0,.1-.11.13-.1a1.57,1.57,0,0,1,.3.12S57.12,57.06,57.09,57.05ZM57,43.37c-.14,0-.18-.13-.09-.31l.34-.21c0,.1.13.2.12.29A.29.29,0,0,1,57,43.37ZM69.85,50.7a1.4,1.4,0,0,1,.1.46s0,0,0,0,0,0,0,0a1.71,1.71,0,0,1,.46.09c.09,0,0,.18-.13.19s-.28-.11-.33-.28l0,0s0,0,0-.05c-.16,0-.29-.14-.29-.33S69.8,50.61,69.85,50.7Zm-9.6,15.39.3.12-.12.13-.31-.13S60.21,66.09,60.25,66.09ZM58.42,30a.57.57,0,0,1-.48-.47s.29-.13.46-.15a.3.3,0,0,1,.36.31A.28.28,0,0,1,58.42,30Z" style="fill:#fff"/><path d="M5.23,9.5a3.09,3.09,0,0,0-1.83.56A14,14,0,0,0,0,13.32c.16.51.64.79.85,1.24a3.13,3.13,0,0,0,2.89,1.72c.28,0,.57,0,.86,0a34.92,34.92,0,0,1,5.75.81,3.62,3.62,0,0,1,1.82.88,1.73,1.73,0,0,0,1.78.45c.46-.11.9-.27,1.34-.41a1.17,1.17,0,0,1,.95,0,4.77,4.77,0,0,0,2,.49,1.38,1.38,0,0,1,1.39,1.26,1.23,1.23,0,0,0,.86,1,3.16,3.16,0,0,1,1.75,2.32,3.84,3.84,0,0,1,0,1.72,1.06,1.06,0,0,0,.6,1.33,1.75,1.75,0,0,1,1,1.2.69.69,0,0,0,.66.55,3.34,3.34,0,0,0,1.28-1.72c.27-.71.52-1.42.8-2.12a15.22,15.22,0,0,0,1.14-3.35c.06-.39.2-.78.61-.87s.56.6,1,.64.44-.25.61-.43c.33-.38.64-.79,1-1.14.58-.56,1-.55,1.56,0a8.78,8.78,0,0,1,.6.86.71.71,0,0,0,.73-.56c.05-.14.1-.29.14-.43a.37.37,0,0,1-.16-.23c.06-.09.1-.24.18-.27a.27.27,0,0,1,.15,0,2.1,2.1,0,0,1,1.8-1.46c1-.13,1.91-.41,2.87-.49a1.35,1.35,0,0,0,1.39-1.06,1.14,1.14,0,0,1,1.31-.89c.75.12,1.51.1,2.25.22a5.23,5.23,0,0,1,3.16,1.47.44.44,0,0,0,.56.16c.18-.12.19-.31.25-.48.45-1.16.75-1.31,2-1.26,1.44.06,2.88,0,4.31,0,.29,0,.6,0,.6-.5a22.35,22.35,0,0,1-2.3-1.67,2.48,2.48,0,0,1-.86-1.45c-.08-.45-.06-.95-.41-1.28a.72.72,0,0,0-.64-.14c-1.41.52-2.82.18-4.23,0a1.14,1.14,0,0,0-.32,0c-1.1.08-1.68-.42-1.81-1.66,0-.35,0-.71,0-1.07a.68.68,0,0,0-.36-.68,1.79,1.79,0,0,0-1,.33L41,7.37a4.42,4.42,0,0,1-2.39.5,7.66,7.66,0,0,0-4.78,1.36,3.26,3.26,0,0,0-1.07,1,3.12,3.12,0,0,1-3.07,1.56,2.89,2.89,0,0,1-1.88-.77,1.49,1.49,0,0,0-.85.34,2.12,2.12,0,0,1-2.76-.14,3.25,3.25,0,0,1-1-1.08,7.55,7.55,0,0,0-3.43-2.85,3.2,3.2,0,0,0-4,1.31c-.14.25-.26.52-.62.48a2.35,2.35,0,0,1-.4-2.84,21.24,21.24,0,0,1,2.68-4c.63-.72,1-1.73,2.15-1.92A1.69,1.69,0,0,0,18.07.06a5.69,5.69,0,0,0-4.4,3.55c-.14.4-.16.86-.6,1.05s-.61-.32-1.05,0a3.29,3.29,0,0,0-.85,1.22A2.16,2.16,0,0,1,10,7.06,14,14,0,0,0,7.38,8.71,2.86,2.86,0,0,1,5.23,9.5Zm29,4.81a1.57,1.57,0,0,1,.08.29s-.07.08-.11.12a1.71,1.71,0,0,1-.09-.3S34.22,14.35,34.26,14.31Zm-6.72-.4a4.69,4.69,0,0,0,1.73.78,2.78,2.78,0,0,1-.69.21c-.48,0-.42,1.11-1,.57C27.06,15.07,27.34,14.47,27.54,13.91Zm-6.36,2.17s.08.07.11.11a1,1,0,0,1-.3.09s-.07-.07-.1-.11A1,1,0,0,1,21.18,16.08Z" style="fill:#fff"/></g></g></svg>