<svg xmlns="http://www.w3.org/2000/svg" viewBox="0 0 60.03 71.96"><title>minnesota</title><g id="Layer_2" data-name="Layer 2"><g id="_ÎÓÈ_1" data-name="—ÎÓÈ 1"><path d="M.34,13.84a22.81,22.81,0,0,0,1.71,3.6,8.71,8.71,0,0,1,1.09,5.8A21.83,21.83,0,0,0,3.34,32a11.19,11.19,0,0,1,.18,1.16A4.81,4.81,0,0,0,4.72,36a1.77,1.77,0,0,1,.47,1.6,13.56,13.56,0,0,0,.07,4.17,2.88,2.88,0,0,1-.6,2.13c-.26.34-.52.69-.8,1a1.92,1.92,0,0,0,1,3.21c.24.07.5.09.74.16.77.2,1,.51.68,1.23a3.22,3.22,0,0,0-.19,1.26q0,9.81,0,19.62c0,1.19.12,1.3,1.26,1.4a27.3,27.3,0,0,0,5.27,0c1.32-.14,2.65-.21,4-.25,3-.07,6,0,8.94.15a106.79,106.79,0,0,0,13-.48c2.23-.14,4.44-.39,6.66-.56a14.49,14.49,0,0,0,4.95-.86c1.05-.46,1.48-1.25.87-2.26a10.85,10.85,0,0,0-1.66-2.24c-1.1-1-2.12-2.15-3.24-3.16-.85-.79-1.63-1.76-2.94-1.84a.76.76,0,0,1-.38-.19,12.42,12.42,0,0,0-3.34-1.71A4.8,4.8,0,0,1,37,56.58a4.35,4.35,0,0,1-.45-3.73,5.83,5.83,0,0,0,.25-3.07,3,3,0,0,1,.14-1.6c.37-1.12.35-1.17-.69-1.8a1.76,1.76,0,0,1-.9-1.9,8.53,8.53,0,0,1,1.35-3.6A3.85,3.85,0,0,1,39.21,39c.89-.2,1-.46,1-1.38a3.45,3.45,0,0,0-.08-.85A15.52,15.52,0,0,1,40,32.34a2.07,2.07,0,0,1,.52-1.27,35.69,35.69,0,0,1,2.67-2.95c2.43-2.24,4.81-4.54,7.18-6.84a12.39,12.39,0,0,0,2.17-2.67A6.12,6.12,0,0,1,55.48,16c.79-.34,1.6-.64,2.4-1,.5-.2,1-.4,1.49-.64s.75-.44.65-1c-.36-.43-1-.51-1.33-1a1.65,1.65,0,0,0-2.06-.71c-1,.28-2,.52-3,.77-.76.18-.94.09-1.27-.6-.06-.13-.1-.27-.16-.4-.62-1.26-1.1-1.35-2-.34-.65.72-1.25,1.49-1.89,2.21a1.73,1.73,0,0,1-2.32.5,4.26,4.26,0,0,1-1.53-1.17c-.25-.3-.48-.63-.74-.92a7.39,7.39,0,0,0-2.32-1.91c-.44.19-.55.51-.73.77a1.2,1.2,0,0,1-2.12,0,3.22,3.22,0,0,1-.39-.64,6.15,6.15,0,0,0-3-3,3.9,3.9,0,0,0-4.45.22c-.65.44-1.31.88-2,1.27a1.32,1.32,0,0,1-2-.28A2.29,2.29,0,0,0,25,7.45a3,3,0,0,1-2.14-.83c-.35.08-.66.15-1,.24a1.51,1.51,0,0,1-1.05-.1,2.68,2.68,0,0,1-1.83-3,4.93,4.93,0,0,1,.05-.54A4.67,4.67,0,0,0,18.84,1,1.22,1.22,0,0,0,17.67,0a1.12,1.12,0,0,0-1.31.71,1.84,1.84,0,0,1-1.95,1.2c-3.69.16-7.38.53-11.08.57-.79,0-1.58.07-2.36.15S0,2.87,0,3.74a8.62,8.62,0,0,0,.26,2A9.66,9.66,0,0,1,.2,10.46,5.49,5.49,0,0,0,.34,13.84ZM35.93,54.26a1.37,1.37,0,0,1-.13.31s-.12-.1-.11-.13a1,1,0,0,1,.13-.3S35.94,54.23,35.93,54.26Zm-.39-3.92.29.13s-.1.11-.13.1a1.85,1.85,0,0,1-.29-.13ZM52,14.39s.09.08.13.13a3,3,0,0,1-.32.12s-.08-.08-.12-.13ZM44.45,14a.43.43,0,0,1,.22.19c-.11.2-.31.17-.49.13s-.15-.13-.23-.2A.44.44,0,0,1,44.45,14Zm-7.14-3c.17,0,.41,0,.33.26a.52.52,0,0,1-.58.36.38.38,0,0,1-.22-.23C36.79,11,37.08,11.05,37.31,11Zm-1.19,7.5a.37.37,0,0,1,.15.28c0,.05-.12.11-.22.2-.08-.16-.16-.29-.24-.43C35.92,18.54,36.05,18.47,36.12,18.51ZM34.37,32.18a.38.38,0,0,1,.32,0,1,1,0,0,1,.07,1.15.82.82,0,0,1-1.06.34c-.09-.05-.14-.18-.23-.29C33.77,33,33.8,32.4,34.37,32.18Zm-2,1,.15-.14a.88.88,0,0,1,.35.71.36.36,0,0,1-.29.07A.5.5,0,0,1,32.34,33.23Zm-.52-14.39a1.66,1.66,0,0,1,.31.12,1.63,1.63,0,0,1-.31.11S31.74,19,31.7,19,31.79,18.83,31.82,18.84Zm-.51,35.55s.08.08.12.13l-.23.18L31,54.51A2.08,2.08,0,0,1,31.31,54.39ZM27.38,44.05a1.78,1.78,0,0,1,.29.12s-.09.12-.12.11a1.57,1.57,0,0,1-.3-.12S27.34,44,27.38,44.05ZM26.22,24.84c.25-.12.42.08.51.32a6.18,6.18,0,0,1,.28.64c0,.07-.1.18-.16.28-.5.07-.5-.41-.71-.65A.35.35,0,0,1,26.22,24.84ZM24.27,41,24,40.86a1.47,1.47,0,0,1,.41-.18c.09,0,.2.07.31.11C24.6,41,24.43,41,24.27,41Zm.16-14,.29.14s-.1.11-.13.1a1.48,1.48,0,0,1-.29-.12Zm-.64.75c.05,0,.11.1.17.15s-.09.09-.12.09a1.36,1.36,0,0,1-.28-.11C23.63,27.82,23.71,27.74,23.79,27.74Zm-.55-12.48s.11.08.1.11a1.61,1.61,0,0,1-.09.29c-.06-.06-.17-.13-.16-.18S23.19,15.33,23.24,15.26Zm-.87-7.33c.05-.15.17-.17.29,0a3.15,3.15,0,0,1,.22.29l-.27.16C22.44,8.26,22.31,8.15,22.37,7.93Zm-5.3,25.34a.55.55,0,0,1,.59.16s-.07.1-.12.11c-.22,0-.44.12-.65-.07C17,33.4,17,33.28,17.07,33.27Zm-.16,27.08c.06.09.15.18.15.27s-.1.17-.16.26c0-.09-.15-.18-.15-.28S16.86,60.43,16.91,60.35ZM14.74,27.81a.29.29,0,0,1,.42.16c.09.17,0,.31-.19.4a.32.32,0,0,1-.36-.28A.33.33,0,0,1,14.74,27.81ZM13.06,41.07l.12.19a2.7,2.7,0,0,1-.28,0s-.08-.07-.11-.11Zm-6.88-6.2s.13.09.13.12-.1.2-.15.3L6,35.15A.2.2,0,0,1,6.18,34.87ZM4.6,2.55s.08.08.12.12a1.82,1.82,0,0,1-.3.11s-.08-.07-.12-.11A1.88,1.88,0,0,1,4.6,2.55Z" style="fill:#fff"/></g></g></svg>