<svg xmlns="http://www.w3.org/2000/svg" viewBox="0 0 41.97 79.5"><title>mississippi</title><g id="Layer_2" data-name="Layer 2"><g id="_ÎÓÈ_1" data-name="—ÎÓÈ 1"><path d="M40.34,60.44c-.17-2-.54-3.93-.61-5.89,0-.06,0-.12,0-.18l-.08,0s-.1-.1-.15-.15l.23-.08c-.09-2.53-.06-5.07,0-7.61.2-6.71.48-13.42.15-20.13-.16-3.4-.08-6.8.07-10.19s.27-6.79.36-10.19a31.27,31.27,0,0,0-.2-4,2.08,2.08,0,0,0-2.06-2,3.86,3.86,0,0,0-.83,0c-1.83.15-3.67.27-5.49.46-5.07.55-10.15,1-15.25,1.26a2.13,2.13,0,0,0-2.25,1.6A2.25,2.25,0,0,1,12.88,5a2.35,2.35,0,0,0-1.51,1.66,24.42,24.42,0,0,0-1.46,4.58A3.19,3.19,0,0,1,8.12,14,2.71,2.71,0,0,0,6.5,16.65c0,1.49-.4,2.73-1.84,3.23a3,3,0,0,0-.15,1.51,3.18,3.18,0,0,1-.3,1.6A8.07,8.07,0,0,0,4,29.18a13.07,13.07,0,0,1,.75,4.39,3.86,3.86,0,0,0,.09,1,25.17,25.17,0,0,1,.48,6.3A2.16,2.16,0,0,0,6,42.68a2,2,0,0,1,.69,1.6,2.38,2.38,0,0,0,.52,1.39c1.24,1.89,1.18,2.1-.77,3.07,0,0-.06.07-.23.26.57,1.26.08,2.39-.51,3.5a8.56,8.56,0,0,1-1.14,1.72A2.28,2.28,0,0,0,4,55.42a7.49,7.49,0,0,1-1.58,3.16,7.59,7.59,0,0,0-1.2,3,20.44,20.44,0,0,1-1,4.14A2,2,0,0,0,.6,68c.21,0,.39.08.57.09a55.07,55.07,0,0,0,8.8-.4c4.2-.58,8.44-.64,12.65-1a9,9,0,0,1,2.2.06,1.6,1.6,0,0,1,1.3,2.44,7.77,7.77,0,0,1-.66,1.2,1.9,1.9,0,0,0,0,2.18,43.63,43.63,0,0,1,3.26,6.06,1.24,1.24,0,0,0,.74.85c.67-.3,1-1,1.47-1.54a2.29,2.29,0,0,1,1.6-1,4.18,4.18,0,0,0,2.63-1,3.13,3.13,0,0,1,2.87-.54c.36.09.71.21,1.06.29A2.55,2.55,0,0,0,42,73.28c0-1-.15-2.11-.25-3.16C41.39,66.88,40.62,63.69,40.34,60.44ZM.65,66.14.53,66c0-.11.1-.23.16-.35,0,.06.12.12.11.17A1.38,1.38,0,0,1,.65,66.14Zm3.71-7c.1-.34.38-.4.69-.37s.58.28.45.6a.58.58,0,0,1-.78.25C4.53,59.56,4.27,59.48,4.36,59.16ZM6.15,67c-.42.29-.68-.2-1.05-.25,0,0-.09-.11-.17-.22a3.21,3.21,0,0,1,.66-.13c.28,0,.63-.11.79.23C6.41,66.7,6.27,66.91,6.15,67Zm.37-7.83a.35.35,0,0,1-.32-.47c.08,0,.25-.18.28-.15A3.14,3.14,0,0,1,6.9,59C6.78,59.07,6.63,59.19,6.52,59.16Zm2.64-2.07A.22.22,0,0,1,9,56.91c0-.28.14-.41.45-.42.15,0,.24.13.17.27S9.42,57.14,9.16,57.09Zm6.06-1.76a2,2,0,0,1-.38-.15c.06,0,.12-.14.17-.13a2.39,2.39,0,0,1,.37.15C15.33,55.25,15.26,55.34,15.22,55.33Zm2.65-1.68a1.86,1.86,0,0,1,.37.14l-.16.14-.37-.15C17.76,53.74,17.82,53.64,17.87,53.65Zm0,5.49s-.1-.1-.15-.16a2.84,2.84,0,0,1,.38-.13c.05,0,.11.09.16.15A3,3,0,0,1,17.86,59.14Zm1.75-6.75-.13-.17c.06-.12.11-.24.16-.35.05.05.14.12.13.16A1.65,1.65,0,0,1,19.61,52.39ZM24.37,6.57c-.29,0-.58,0-1.17,0a1.1,1.1,0,0,1,1.1-.42c.21,0,.43,0,.46.27C24.77,6.46,24.51,6.56,24.37,6.57Zm1.54,46.37c-.07,0-.16-.13-.16-.13.13-.17.27-.33.42-.51.09.15.22.27.2.35A.35.35,0,0,1,25.91,52.94ZM27.1,39.72a1.92,1.92,0,0,1-.39-.17l.18-.15a.26.26,0,0,1,.37.18S27.14,39.73,27.1,39.72Zm.44-20.42-.37-.14c0-.05.11-.14.16-.13a1.74,1.74,0,0,1,.36.13ZM29.68,5.08s-.1-.09-.15-.14a1.71,1.71,0,0,1,.38-.13s.1.09.16.15A2.91,2.91,0,0,1,29.68,5.08ZM30.76,20a.48.48,0,0,1,.35.22c.05.1-.05.26-.09.4l-.55-.35C30.59,20.15,30.69,20,30.76,20Zm.4,15.43a.37.37,0,0,1-.31-.47c.08,0,.24-.16.28-.13a3,3,0,0,1,.39.48C31.4,35.35,31.26,35.46,31.16,35.43Zm.44,39.85c-.05,0-.11-.1-.15-.14s.11-.16.15-.16a3,3,0,0,1,.38.15A3,3,0,0,1,31.6,75.28Zm1.28-6.79c0-.13-.09-.26-.13-.38L32.9,68a2,2,0,0,1,.13.39S32.94,68.44,32.88,68.49ZM39,11.11a2.16,2.16,0,0,1,.41-.13s.1.1.15.15-.12.16-.16.15A2.83,2.83,0,0,1,39,11.11Z" style="fill:#fff"/></g></g></svg>