<svg xmlns="http://www.w3.org/2000/svg" viewBox="0 0 63.61 57.47"><title>missouri</title><g id="Layer_2" data-name="Layer 2"><g id="_ÎÓÈ_1" data-name="—ÎÓÈ 1"><path d="M60.78,49.73A2.22,2.22,0,0,0,63,48.06c.16-.4.35-.79.48-1.2.33-1,.07-1.73-1-2a4.59,4.59,0,0,1-2.22-1.61,2.67,2.67,0,0,1-.2-3.74A4.89,4.89,0,0,0,59,37.12L57.92,36a.35.35,0,0,1,0,.08s-.1.18-.15.18a.28.28,0,0,1-.31-.32c.05-.15.13-.19.23-.11a26.39,26.39,0,0,0-3.91-3.24A10.59,10.59,0,0,1,51,29.55a2.63,2.63,0,0,1-.31-2.37,7.74,7.74,0,0,1,.6-1.27,9.75,9.75,0,0,0,1.15-3.23,1.25,1.25,0,0,0-.75-1.39,2.37,2.37,0,0,0-1.88-.06A2.26,2.26,0,0,1,46.93,20a18.7,18.7,0,0,1-.74-1.79,3.05,3.05,0,0,0-.8-1.26,32.82,32.82,0,0,1-6.21-7.67A3.47,3.47,0,0,1,38.57,7a8.08,8.08,0,0,0-.89-5.1c0-.09-.07-.2-.12-.29C36.9.21,36.07-.2,34.74.09a44.62,44.62,0,0,1-6.32.6C26.78.81,25.13.9,23.48,1c-2,.18-4,.68-6,.68L3.9,1.77l-3.23,0c-.25,0-.51,0-.67.32A3.68,3.68,0,0,0,1.33,4.29,4.78,4.78,0,0,1,2.89,7.5c0,.26,0,.55.27.68A6.07,6.07,0,0,0,5.59,9.26a2.33,2.33,0,0,1,1.84,1.11c.83,1.05.8,1.57-.07,2.54-.42.48-1,.88-1.08,1.55.21.48.66.68,1,1s.81.6.86,1.07a2.89,2.89,0,0,0,1.41,2.05,2.28,2.28,0,0,1,1,1.7c0,1.26.33,2.49.27,3.76-.11,2.19-.18,4.38-.24,6.57a70.11,70.11,0,0,0,.16,9,24.36,24.36,0,0,1,.11,5.05c-.21,2.17.23,4.31.24,6.46a3.69,3.69,0,0,0,.1.64c.23,1.2.49,1.41,1.67,1.58a24.19,24.19,0,0,0,5.38-.07c2-.16,4.08-.41,6.12-.5,5-.24,10-.17,15-.67,3.11-.31,6.23-.54,9.35-.77a30.71,30.71,0,0,1,5.59-.14c1.9.19,2.63,1.37,1.93,3.16-.25.65-.55,1.27-.81,1.92a.26.26,0,0,1,.07.14.29.29,0,0,1-.23.24.76.76,0,0,0,.1.78,8.94,8.94,0,0,0,1.85-.07,1.9,1.9,0,0,0,2.06-1.78,13.21,13.21,0,0,1,.54-1.86A4.14,4.14,0,0,0,60,50.89C59.75,50.15,60,49.72,60.78,49.73Zm-8.7-26.54a1.66,1.66,0,0,1,.12.31s-.08.08-.13.12a1.92,1.92,0,0,1-.11-.31S52,23.23,52.08,23.19ZM.64,3.3S.57,3.23.53,3.19L.8,3.08l.12.19A1.33,1.33,0,0,1,.64,3.3Zm1.29,0c-.09,0-.24,0-.3-.13a.27.27,0,0,1,.17-.41.35.35,0,0,1,.31.13C2.22,3.06,2.13,3.21,1.93,3.29ZM16.51,42.5l-.12-.29.12-.12a2.68,2.68,0,0,1,.12.3S16.55,42.46,16.51,42.5Zm3-.64s-.07-.08-.11-.12l.3-.12.12.13A1.63,1.63,0,0,1,19.56,41.86Zm5.37,3.7a1.23,1.23,0,0,1-.29-.13l.14-.1.28.13S25,45.57,24.93,45.56ZM26.59,43s-.08-.08-.12-.12a1.86,1.86,0,0,1,.31-.1s.08.08.12.12A1.86,1.86,0,0,1,26.59,43ZM27.72,50c-.25,0-.48,0-.58-.3a.69.69,0,0,1,.65-.71c.21,0,.32.15.34.34S28.12,50,27.72,50Zm.16-7a.53.53,0,0,1,0-.49c.37-.26.6.09.88.26C28.48,43,28.25,43.42,27.88,43.08Zm1.49.63a1.23,1.23,0,0,1-.29-.13l.14-.11.29.14C29.46,43.65,29.41,43.72,29.37,43.71Zm2,6c-.27,0-.51,0-.56-.31a.52.52,0,0,1,.37-.56c.46-.11.35.36.47.58S31.54,49.68,31.39,49.71Zm.91-7.11c0-.16.15-.2.35-.09l.25.36c-.1,0-.21.14-.3.12A.34.34,0,0,1,32.3,42.6Zm1.25,5.8c0,.08-.19.16-.29.17-.79,0-.58-.82-.85-1.28.05,0,.14,0,.16,0C32.86,47.72,33.69,47.63,33.55,48.4ZM34.7,1.82s-.07-.08-.11-.12l.28-.13a2.39,2.39,0,0,1,.13.21A1.54,1.54,0,0,1,34.7,1.82Zm1.06,5.85-.12-.14c0-.1.09-.2.14-.29s.13.1.12.13A2,2,0,0,1,35.76,7.67Zm.62-1.38c-.09,0-.16-.1-.24-.15s.08-.11.12-.1a1.27,1.27,0,0,1,.3.09C36.5,6.19,36.43,6.3,36.38,6.29Zm.47,6.44.42-.26c0,.11.09.23,0,.31a.41.41,0,0,1-.27.16S36.94,12.82,36.85,12.73Zm.39,32.39-.1-.31.12-.12a1.63,1.63,0,0,1,.11.31S37.29,45.08,37.24,45.12Zm2.42-28.07c-.18,0-.33-.12-.31-.32s.18-.19.2-.18.24.22.36.33Zm.83,25.55a1.69,1.69,0,0,1-.31-.13,1.73,1.73,0,0,1,.32-.11s.08.08.12.13S40.52,42.61,40.49,42.6Zm.46-.84s-.12-.09-.11-.12a2.36,2.36,0,0,1,.12-.28s.12.09.11.12A1.39,1.39,0,0,1,41,41.76Zm5.44-21.39-.3-.13s.09-.12.13-.11a1.82,1.82,0,0,1,.3.11Zm2.24,10.89s.08.07.12.11a1.54,1.54,0,0,1-.3.11s-.07-.08-.11-.12A1.66,1.66,0,0,1,48.63,31.26Zm-.56,10.86c.1.12.2.25.29.38s-.09.09-.14.09a.3.3,0,0,1-.34-.29Zm.42,3.56a.28.28,0,0,1-.25.11.36.36,0,0,1-.28-.36c.09,0,.2-.12.28-.11A.29.29,0,0,1,48.49,45.68Zm.41-4.34c-.13.12-.23.09-.27-.08a.31.31,0,0,1,.28-.37c.06,0,.22.15.21.18A1.13,1.13,0,0,1,48.9,41.34Zm7.75.91c0-.09-.14-.22-.12-.25a3,3,0,0,1,.37-.33c0,.1.13.21.11.3A.3.3,0,0,1,56.65,42.25Zm.86,14.8-.29-.11s.09-.1.13-.1.19.07.29.1ZM58.67,41c-.16,0-.38.18-.41-.09s.24-.36.48-.38.54,0,.49.35S58.86,40.92,58.67,41Zm.8,9.33-.11-.11.12-.29s.11.09.1.12A1.36,1.36,0,0,1,59.47,50.28Z" style="fill:#fff"/></g></g></svg>