<svg xmlns="http://www.w3.org/2000/svg" viewBox="0 0 101.58 58.32"><title>montana</title><g id="Layer_2" data-name="Layer 2"><g id="_ÎÓÈ_1" data-name="—ÎÓÈ 1"><path d="M96.46.09c-1.59.17-3.18.26-4.78.34a.71.71,0,0,1-.16.18.74.74,0,0,1-.43.14,1,1,0,0,1-.63-.26l-.31,0a2,2,0,0,0-.49.08c-.23.06-.42.19-.65.27A1.47,1.47,0,0,1,87.86.63l-.41,0a.49.49,0,0,1-.16.1,1.44,1.44,0,0,1-1,.05.55.55,0,0,1-.14-.09L84.93.77a1.59,1.59,0,0,1-.37.18A.52.52,0,0,1,84,.81l-1.14,0a.25.25,0,0,1-.11,0A6.39,6.39,0,0,1,82,1a.51.51,0,0,1-.28-.08l-4.55.2q-5.81.25-11.63.38c-5.13.13-10.26.16-15.4.17-6,0-12.06,0-18.09-.12C22.2,1.32,12.33,1,2.47.44A5.58,5.58,0,0,0,.28.47C.35,1.34,0,2.18.08,3,.21,4.6.05,6.18.24,7.76A9.11,9.11,0,0,1,.1,11.09a3,3,0,0,0,1.18,3.23,4,4,0,0,1,1.45,2.55A14.15,14.15,0,0,1,3,18.69a2.24,2.24,0,0,0,1,1.82,6.25,6.25,0,0,1,2.13,2.66,4.8,4.8,0,0,0,1.12,1.7,6.72,6.72,0,0,1,2.05,3,2.65,2.65,0,0,0,1.3,1.38c.39.26.76.08,1.15,0a1.72,1.72,0,0,1,1.94,2.37c-.2.65-.46,1.29-.62,1.95-.48,1.91-1,3.82-.34,5.81a2.79,2.79,0,0,1,.06.43,2.26,2.26,0,0,1-.55,2,1.7,1.7,0,0,0,.33,2.5.75.75,0,0,0,.5-.16,27.65,27.65,0,0,1,3-1.39c1.18-.54,1.91,0,1.77,1.32a3.21,3.21,0,0,0,.52,2.14c.64,1,1.23,2,1.89,3a3.23,3.23,0,0,1,.59,2.84,1.12,1.12,0,0,0,.45,1.24,3.55,3.55,0,0,0,.79.56,4.81,4.81,0,0,1,2.64,3c.09.23.19.46.29.69a1.21,1.21,0,0,0,.76.8,4,4,0,0,1,2.37-.1,1.65,1.65,0,0,0,1.5-.39A2.42,2.42,0,0,1,32,57.32a7,7,0,0,0,3.61,0,1,1,0,0,0,.19-.27,1.55,1.55,0,0,1-.36-.3c-.16-.22,0-.29.2-.3a.29.29,0,0,1,.31.26l.12-.34c.49-1.19,1.07-1.44,2.3-1.05a3.4,3.4,0,0,1,2,1.66,10.3,10.3,0,0,0,.25-2.69c0-.61,0-1.23,0-1.83.09-.91.44-1.24,1.33-1.45a8.94,8.94,0,0,1,2.78-.15A62.88,62.88,0,0,0,55.3,51c2.37-.21,4.72-.47,7.09-.66,1.57-.12,3.14-.29,4.73-.28s3.23,0,4.85,0l9.69-.16c2.69,0,5.38-.14,8.07-.23,3.59-.11,7.17-.48,10.76-.63.81,0,1.05-.26,1.06-1,0-1.55,0-3.09,0-4.63-.1-2.26-.27-4.52-.42-6.78-.16-2.47-.31-4.94-.5-7.41-.12-1.61-.36-3.22-.41-4.83-.09-2.84-.3-5.67-.51-8.49-.35-4.62-.66-9.25-1-13.87C98.56-.08,98.51-.14,96.46.09ZM26.25,36.65c-.06-.07-.18-.14-.19-.22a.29.29,0,0,1,.3-.34l.21.18Zm8.92-20.8c-.23.15-.44.2-.53-.09s0-.56.2-.66a.58.58,0,0,1,.75.31C35.69,15.67,35.35,15.74,35.17,15.85ZM63.88,43.68a.22.22,0,0,1-.16-.29c.08-.18.21-.29.4-.2a.31.31,0,0,1,.16.27A.29.29,0,0,1,63.88,43.68Zm-3.5-30c-.37.82-.68,1.68-1,2.51a.28.28,0,0,1-.45.13c-.21-.2.06-.43.06-.65l0,0s0,0,0,0a2.32,2.32,0,0,1-.46,0c-.1,0,0-.18.1-.2s.29.08.36.24H59c.36-.26.29-.61.21-1a1.22,1.22,0,0,1,.74-1.48c.22-.11.4-.3.63-.07S60.46,13.51,60.38,13.69Zm6,29.67c-.08,0-.21,0-.37,0a4.85,4.85,0,0,1,.3-.41s.21.1.2.15A.36.36,0,0,1,66.36,43.36ZM64.79,6.54c-.22,0-.34-.06-.4-.26l.19-.2.34.35S64.84,6.53,64.79,6.54Zm3.71,11.4c-1-.15-.33-1.27-1-1.54a1.55,1.55,0,0,1,.23-.27.34.34,0,0,1,.47.13A2,2,0,0,1,68.5,17.94Zm4.93,27.85c-.09,0-.2-.07-.36-.14a2.76,2.76,0,0,1,.51-.17c.09,0,.2.07.3.11A2.22,2.22,0,0,1,73.43,45.79Zm-2.3-21.72c-.07.09-.16.17-.24.26-.07-.08-.13-.16-.2-.23s.12-.33.35-.3S71.24,23.93,71.13,24.07Zm-1.65-21c0,.25-.26.56-.43.5s-.41-.42-.59-.63c.08-.28.2-.53.48-.49A.55.55,0,0,1,69.48,3.09ZM80.71,30.15a.43.43,0,0,1-.49-.08l.34-.22L81,30A1.33,1.33,0,0,1,80.71,30.15ZM96.89,36.3a.39.39,0,0,1-.29.14c-.18,0-.21-.12-.1-.28s.17-.32.38-.16A.32.32,0,0,1,96.89,36.3Zm-.13-16c-.08,0-.21,0-.37,0l.29-.42c.08.06.21.11.21.17A.34.34,0,0,1,96.76,20.31Z" style="fill:#fff"/></g></g></svg>