<svg xmlns="http://www.w3.org/2000/svg" viewBox="0 0 78.31 39.6"><title>nebraska</title><g id="Layer_2" data-name="Layer 2"><g id="_ÎÓÈ_1" data-name="—ÎÓÈ 1"><path d="M1.5,1.26c-.14,2.79-.26,5.59-.43,8.39a68.86,68.86,0,0,1-.55,6.87c-.08.5-.15,1-.22,1.5a1,1,0,0,1,.12.15l-.15,0a29.46,29.46,0,0,0-.25,5c.05,1,.15,1.17,1.16,1.29,1.64.19,3.28.37,4.92.58,3.16.41,6.31,1,9.53.54a1.85,1.85,0,0,1,2.11,1.92c-.09,2.16.05,4.31-.2,6.46a23.32,23.32,0,0,0,0,3.13c0,.76.28,1.07,1,1.12s1.57.22,2.35.23c2.37,0,4.73.31,7.11.3,3.52,0,7,0,10.56.13,2.65.08,5.3.37,8,.46,1.91.07,3.82.13,5.74.17h0c3,.07,6,.09,9,0,1,0,1.94,0,2.91,0l13,.08c.34,0,.72.08,1-.28a2.72,2.72,0,0,0-.84-2.59c-.12-.11-.21-.23-.32-.34a.39.39,0,0,1,0,.13,1.32,1.32,0,0,1-.29.15l-.09-.32a.43.43,0,0,1,.24-.17,8.12,8.12,0,0,1-1.62-2.9,2.12,2.12,0,0,0-.55-1,1.67,1.67,0,0,1-.49-1.77c.1-.49.19-1,.27-1.48a1.85,1.85,0,0,0-.18-1.36,2.26,2.26,0,0,1-.24-1.76,3.43,3.43,0,0,0-.27-2.2A10,10,0,0,1,73,21.56,1.1,1.1,0,0,0,72.7,21,2.74,2.74,0,0,1,72,19.27c-.44-3.17-1.75-6.06-2.77-9a1.27,1.27,0,0,0-1-1,2.46,2.46,0,0,1-1.6-1.17,6.85,6.85,0,0,0-3.87-2.91,2.91,2.91,0,0,1-1.05-.54,2.38,2.38,0,0,0-1.07-.49,12.49,12.49,0,0,0-3-.29,1.52,1.52,0,0,0-1.44.77,1.09,1.09,0,0,1-.87.66c-.65-.24-1.19-.83-2-1a2.68,2.68,0,0,1-1.77-1.14,1.31,1.31,0,0,0-1-.63c-.57-.07-1.14-.18-1.71-.22C44.92,2.06,41,2,37,2.1A8.2,8.2,0,0,1,35.63,2a35,35,0,0,0-4-.33c-3.66-.13-7.33-.17-11-.46C17.25,1,13.81.67,10.37.6A55.48,55.48,0,0,1,2.75,0a1.67,1.67,0,0,0-.32,0c-.58,0-.78.17-.88.72A3.29,3.29,0,0,0,1.5,1.26ZM75.67,36.62s.12.1.11.13a1.66,1.66,0,0,1-.12.31s-.12-.1-.12-.13A2.88,2.88,0,0,1,75.67,36.62Zm-8.91,1.9c0-.1-.08-.2-.1-.3s.08-.07.13-.11a1.71,1.71,0,0,1,.09.3S66.81,38.49,66.76,38.52Zm6.13-5.73,0,0s0,0,0,0a1.7,1.7,0,0,1,.08-.45c0-.09.18,0,.19.13s-.12.26-.27.32,0,0,0,.08h0c0,.05,0,.09,0,.13.19.29.92.31.47.92-.15.2-.38.35-.59.12C72.47,33.57,72.34,33.15,72.89,32.79ZM71.81,25.4a2,2,0,0,1,.11.2,2.7,2.7,0,0,1-.28,0s-.08-.08-.11-.12Zm-.18,8.49c.24,0,.49.1.44.41a.33.33,0,0,1-.41.23.68.68,0,0,1-.5-.51A1.65,1.65,0,0,1,71.63,33.89Zm-1.44-1.06a1.88,1.88,0,0,1,.3.12l-.12.13L70.06,33S70.16,32.82,70.19,32.83ZM69.11,18l.29.13c-.05,0-.1.11-.14.1a1.78,1.78,0,0,1-.29-.12Zm-.37,20,.29.12s-.1.11-.14.1a1.78,1.78,0,0,1-.29-.12Zm-.66-11.5c.07,0,.14.09.21.14s-.09.11-.12.1a1.9,1.9,0,0,1-.29-.09C68,26.62,68,26.52,68.08,26.53Zm.15,3.74c.06.14.15.25.13.33a.36.36,0,0,1-.23.22c-.07,0-.17-.09-.25-.14Zm-.8-6s.08.07.12.11a1.82,1.82,0,0,1-.3.11s-.07-.08-.11-.11A1.25,1.25,0,0,1,67.43,24.31Zm-.65.84a1.12,1.12,0,0,1,.1.31s-.08.07-.12.1a1.82,1.82,0,0,1-.11-.3S66.74,25.19,66.78,25.15Zm-.52-6.78c.15.05.2.14.12.25a.68.68,0,0,1-.26.22s-.2-.11-.2-.17A.28.28,0,0,1,66.26,18.37Zm-1.43,5.05a1.83,1.83,0,0,1-.28-.1s.08-.12.11-.12a1.72,1.72,0,0,1,.29.11S64.86,23.43,64.83,23.42Zm-.17-9.11a1.66,1.66,0,0,1,.31.12l-.12.13-.31-.13S64.63,14.31,64.66,14.31ZM63.58,21.7c.08,0,.16.1.23.15s-.08.11-.12.1a1.27,1.27,0,0,1-.3-.09C63.46,21.8,63.52,21.69,63.58,21.7ZM63,31.21a1.66,1.66,0,0,1-.31-.12s.1-.12.13-.11a1.57,1.57,0,0,1,.3.12S63,31.22,63,31.21ZM62.07,8.74a2.68,2.68,0,0,1,.3.12s-.09.12-.12.11a1.57,1.57,0,0,1-.3-.12S62,8.74,62.07,8.74ZM61.85,30.1c.07-.29.29-.07.44-.06s.46-.23.53.17-.32.31-.55.32S61.79,30.38,61.85,30.1Zm-.3-5.69s-.09-.09-.09-.12a1.48,1.48,0,0,1,.1-.27c0,.07.14.14.14.21S61.6,24.35,61.55,24.41Zm-.44-13.62c0-.08.15-.17.24-.2s.32.09.34.27-.12.29-.31.29S61.07,11,61.11,10.79Zm-4.8,16.33A1.54,1.54,0,0,1,56,27c.05,0,.1-.11.13-.11s.19.08.29.12S56.34,27.13,56.31,27.12ZM58,23.93s.1,0,.15,0,.15.17,0,.21a1.25,1.25,0,0,1-.29-.06A.66.66,0,0,1,58,23.93Zm-.38,13.35c.46-.09.93-.15,1.7-.26l-.72,1.13c-.23-.5-.68-.28-1-.33-.06,0-.15-.2-.14-.29A.35.35,0,0,1,57.66,37.28Zm-.35-32.6c.07,0,.15.11.22.17a2.61,2.61,0,0,1-.23.25c-.12.12-.21.09-.26-.07A.29.29,0,0,1,57.31,4.68Zm-1.09,20c.08,0,.15.1.23.16s-.09.11-.13.1a1.39,1.39,0,0,1-.31-.1C56.08,24.76,56.15,24.66,56.22,24.66Zm-2.7,7.65s-.08-.08-.12-.12a1.31,1.31,0,0,1,.32-.1s.08.08.12.12A1.31,1.31,0,0,1,53.52,32.31Zm0-.78c-.1-.11-.21-.19-.2-.25a.39.39,0,0,1,.17-.28c.09,0,.21.05.32.08ZM55.19,18a2,2,0,0,0,.11.2,2.89,2.89,0,0,1-.29,0s-.07-.08-.1-.12ZM54.3,8.45s-.08.08-.12.12L54,8.27l.22-.14A1.17,1.17,0,0,1,54.3,8.45ZM53.52,7c.22.13.57.1.6.45a.63.63,0,0,1-.31.09c-.23,0-.47,0-.51-.33C53.38,7.13,53.49,7,53.52,7Zm-.21,7.69a.29.29,0,0,1,.23.39,8.85,8.85,0,0,1-.5.84l-.39-.76C52.79,14.88,53,14.63,53.31,14.69Zm-.14,8a1.39,1.39,0,0,1-.12.28l-.1-.13.13-.28C53.11,22.59,53.18,22.64,53.17,22.67Zm0,11.88c-.29.36-.55.81-1.09.48a.21.21,0,0,1-.08-.14C52.26,34.5,52.73,34.62,53.14,34.55Zm-3.31-6.17a1.63,1.63,0,0,1,.31.11l-.12.13-.32-.13S49.8,28.37,49.83,28.38Zm-.18,3s.08.07.12.11-.1.11-.13.1a1.78,1.78,0,0,1-.29-.12A1.71,1.71,0,0,1,49.65,31.37ZM49,19.57s0,.2-.06.27a1.57,1.57,0,0,1-.29.16c0-.11-.05-.22-.08-.33S48.78,19.43,49,19.57Zm-.83-7.16a3,3,0,0,1,.5.12c-.08.07-.14.16-.23.19a.45.45,0,0,1-.5-.12C48,12.53,48.05,12.41,48.12,12.41Zm-1.42,5.8c.06-.14.17-.14.28,0s.14.19.21.28l-.29.14C46.73,18.53,46.61,18.41,46.7,18.21Zm-.59,20.57a.44.44,0,0,1,.31.08.43.43,0,0,1-.33.4c-.05,0-.17-.14-.16-.2A.39.39,0,0,1,46.11,38.78ZM45.3,7.72a1.82,1.82,0,0,1,.11.3s-.08.07-.12.11-.08-.2-.11-.29Zm-.9,23.46c-.17.38.33.76-.16,1.32-.09-.88-.72-1.21-1.36-1.73a6.21,6.21,0,0,1,2.1-.92C45.21,30.59,44.57,30.76,44.4,31.18ZM44.11,5s.08.08.13.12a2,2,0,0,1-.32.11s-.09-.07-.13-.11A2.08,2.08,0,0,1,44.11,5Zm-.2,16.68a1.88,1.88,0,0,1,.3.12l-.12.12-.31-.13S43.87,21.71,43.91,21.71Zm-.74,1.5a.33.33,0,0,1-.11.12L42.65,23c.12-.07.22-.18.29-.16S43.24,23,43.17,23.21ZM43,7.24c.06,0,.15.21.13.23a3.79,3.79,0,0,1-.39.31l-.12-.3A.33.33,0,0,1,43,7.24Zm-.61,24.91a4.12,4.12,0,0,1,.37.35s-.11.2-.18.21-.33-.08-.35-.29ZM40.86,9.52c.07.05.1.16.15.25h.07a4.26,4.26,0,0,0,.62-.13c.18-.07.34-.07.38.13s-.16.29-.34.33a.53.53,0,0,1-.66-.33l0,0,0,0a.65.65,0,0,1-.58-.17A.27.27,0,0,1,40.86,9.52ZM40.5,25c.23,0,.51.06.46.39s-.3.33-.55.32a.36.36,0,0,1-.38-.3C40,25.05,40.27,25,40.5,25ZM37.74,11.3a3.84,3.84,0,0,1,.68,0s0,0,0,0l0,0c.16-.45.56-.36.89-.35s.52.08.44.4a.43.43,0,0,1-.57.29,5.7,5.7,0,0,1-.76-.34h0c0,.68-.33.58-.74.34C37.49,11.51,37.51,11.34,37.74,11.3Zm-.12,1.12a.64.64,0,0,1,.65.48c0,.15-.21.21-.41.21s-.66-.15-.7-.57A1,1,0,0,1,37.62,12.42Zm-3.69,1.89c.1,0,.19.08.29.12a1.76,1.76,0,0,1-.3.1s-.08-.07-.11-.11S33.9,14.31,33.93,14.31Zm-.1,10.07a2.81,2.81,0,0,1,.1.31s-.08.08-.12.12a1.39,1.39,0,0,1-.1-.31S33.79,24.42,33.83,24.38ZM33,20.6c.14,0,.19.14.11.23a3.63,3.63,0,0,1-.34.34c-.06-.13-.15-.24-.13-.32A.3.3,0,0,1,33,20.6ZM30.51,35.55c-.06-.07-.16-.14-.16-.21s.1-.15.16-.22.1.09.1.13S30.54,35.44,30.51,35.55Zm.16-23.06c.31,0,.4.24.39.47s-.13.42-.24.44a.38.38,0,0,1-.48-.38C30.32,12.76,30.38,12.51,30.67,12.49Zm-.32,5.07a1.57,1.57,0,0,1,.47.13c-.07.14-.1.32-.21.4-.29.22-.35-.14-.5-.18C30,17.6,30.2,17.56,30.35,17.56Zm-.68,5.08c.06-.13.18-.14.29,0a2,2,0,0,1,.2.3l-.29.13C29.7,23,29.58,22.84,29.67,22.64Zm-2.6-2.82c.06,0,.1.13.15.2s-.19.11-.27.1-.11-.12-.17-.19A1.06,1.06,0,0,1,27.07,19.82Zm-1.4,5.69s.13.09.12.12a1.88,1.88,0,0,1-.12.3l-.13-.12C25.59,25.71,25.63,25.61,25.67,25.51Zm-1.92,4.11a.24.24,0,0,1,.32-.09.28.28,0,0,1,.15.4.31.31,0,0,1-.26.14C23.8,30,23.63,30,23.75,29.62Zm-1.32,6.17a1.2,1.2,0,0,1,.31.13s-.1.12-.13.11a1.6,1.6,0,0,1-.3-.13S22.4,35.78,22.43,35.79ZM21.1,11.47c.21-.07.33.1.3.3s-.33.43-.6.56c-.15-.18-.35-.32-.35-.44C20.47,11.5,20.86,11.55,21.1,11.47Zm-.23,13.71a1.14,1.14,0,0,1-.3.09s-.07-.07-.11-.11a1.71,1.71,0,0,1,.3-.09S20.83,25.14,20.87,25.18Zm-.48,5.28a.54.54,0,0,1,.11-.13l.4.33c-.11.07-.2.16-.27.15A.27.27,0,0,1,20.39,30.46Zm-2-6.77.27.38a.6.6,0,0,1-.15.09c-.21,0-.31-.11-.34-.31ZM1.69,16.89c.1,0,.19.08.29.12s-.09.11-.12.1a1.54,1.54,0,0,1-.3-.11C1.61,17,1.66,16.89,1.69,16.89Z" style="fill:#fff"/></g></g></svg>