<svg xmlns="http://www.w3.org/2000/svg" viewBox="0 0 59.08 85.1"><title>nevada</title><g id="Layer_2" data-name="Layer 2"><g id="_ÎÓÈ_1" data-name="—ÎÓÈ 1"><path d="M53.31,74.74a6.77,6.77,0,0,1,2-.4,2.22,2.22,0,0,1,1.81.49,1.64,1.64,0,0,0,1.06.53,1.74,1.74,0,0,0,.66-1.49c0-.27.05-.54.07-.82-.13-.06-.3-.1-.25-.31a.34.34,0,0,1,.29-.09,25.7,25.7,0,0,0,0-3.51A25,25,0,0,1,59,65.27a21,21,0,0,0,0-3.63l0,0c0-.09-.18-.22-.15-.28a.47.47,0,0,1,.15-.21c0-.43-.1-.86-.18-1.28a103.31,103.31,0,0,1-1.17-10.38c-.19-2.72-.26-5.45-.44-8.17s-.33-5.3-.54-8a.45.45,0,0,1-.21-.42.21.21,0,0,1,.09-.14l.08,0c-.11-1.25-.23-2.5-.4-3.75-.24-1.93,0-3.88-.16-5.81-.16-2.69-.35-5.37-.63-8S55,9.59,54.86,6.76a51.48,51.48,0,0,0-.49-5.25C54.17.34,53.69,0,52.52,0s-2.44.08-3.66.17c-2.93.24-5.86.54-8.8.74a51.19,51.19,0,0,1-6.67,0c-1.91-.13-3.8.06-5.7.09-2.15,0-4.3.24-6.46.22C15.38,1.12,9.53.91,3.68,1.09a9.19,9.19,0,0,0-2.62.54,1.3,1.3,0,0,0-.84.92A6.91,6.91,0,0,0,0,4.47c0,8,0,15.94,0,23.91A50.69,50.69,0,0,0,.9,38.45a2.62,2.62,0,0,0,.7,1.65c1,.89,2,1.9,3.06,2.72a42.72,42.72,0,0,1,4.72,4.09c1.22,1.22,2.42,2.46,3.68,3.63,1.69,1.56,3.41,3.09,5,4.75,1.07,1.12,2.22,2.15,3.39,3.16,1.53,1.31,3.07,2.6,4.49,4,1.87,1.86,3.85,3.57,5.79,5.34h0A.4.4,0,0,1,32,68s0,0,0,.08l1.31,1.22c1.14,1.09,2.48,2,3.53,3.16a14.33,14.33,0,0,0,2.76,2.39,54.31,54.31,0,0,1,5.13,3.92l4.78,4.19h0a.69.69,0,0,1,.38.31.64.64,0,0,0,0,.07l1.18,1a2.18,2.18,0,0,0,1.9.7c.27-.21.22-.46.23-.72,0-.75,0-1.5.05-2.26a10.4,10.4,0,0,0-.37-3.51c-.21-.69-.37-1.4-.51-2.1A1.33,1.33,0,0,1,53.31,74.74Zm.07-59.14s.1.05.16.08a1.6,1.6,0,0,1-.29.19s-.1,0-.15-.08A1.73,1.73,0,0,1,53.38,15.6Zm3.23,32.25-.31-.05s.06-.13.1-.13a1.65,1.65,0,0,1,.31,0Zm-.33-1a.39.39,0,0,1-.22-.15,4.77,4.77,0,0,1,.24-.44c.1.1.22.16.23.24S56.49,46.81,56.28,46.82ZM50.46,22.06c.09,0,.15.14.22.21h0v0a1.11,1.11,0,0,1,.29-.07,1.18,1.18,0,0,1,.3.1.27.27,0,0,1-.39.17c-.08,0-.13-.13-.2-.2h0s0,0,0,0a1.16,1.16,0,0,1-.31.07,1.21,1.21,0,0,1-.31-.09A.27.27,0,0,1,50.46,22.06Zm3.66,17.75a.2.2,0,0,1,.31.07s0,.13-.08.13A1.88,1.88,0,0,1,54,40C54.06,39.91,54.08,39.84,54.12,39.81Zm.41,4.88c.1,0,.21,0,.31,0l-.09.15-.32-.05S54.49,44.69,54.53,44.69ZM56,51.26a2.61,2.61,0,0,1,.19.27s-.06.1-.09.15a2.61,2.61,0,0,1-.19-.27S56,51.31,56,51.26ZM50.92,34.11c.08,0,.16.06.24.1s0,.12-.09.12a1.62,1.62,0,0,1-.3,0C50.82,34.24,50.86,34.12,50.92,34.11Zm3.72,16.46c0-.09.16-.16.24-.24s.35.1.32.31a.3.3,0,0,1-.22.23A.28.28,0,0,1,54.64,50.57Zm3.88,19c-.52.23-.58-.3-.83-.51s-.33-.42-.08-.62a.31.31,0,0,1,.52.23C58.16,69,58.79,69.09,58.52,69.55ZM43.43,7.71s.09,0,.14.08l-.19.2-.21-.13A1.35,1.35,0,0,1,43.43,7.71ZM54,50.65c.13.7.11,1.08-.21,1.38a.49.49,0,0,0-.06.77c.18.21,0,.32-.14.37a.32.32,0,0,1-.3-.11c-.16-.34-.7-.65-.19-1.07A6.82,6.82,0,0,0,54,50.65Zm-2.33-3.73A1.76,1.76,0,0,1,52,47s-.07.13-.1.13a1.06,1.06,0,0,1-.31,0S51.63,46.92,51.67,46.92ZM46.92,29.77s.1.05.15.08S47,30,47,30a1.22,1.22,0,0,1-.32,0A2.09,2.09,0,0,1,46.92,29.77Zm4,20.84c.05,0,.15.06.15.09s0,.22-.06.34c-.05,0-.15-.07-.15-.1A1.91,1.91,0,0,1,50.94,50.61Zm0,4.61c0,.05-.07.14-.1.14a1.8,1.8,0,0,1-.32-.06l.11-.14ZM45.35,35.1l.32.06a.83.83,0,0,1-.11.15.21.21,0,0,1-.32-.07S45.31,35.15,45.35,35.1Zm3,13s.1.06.15.09a1.41,1.41,0,0,1-.29.18s-.09-.06-.14-.09A1.67,1.67,0,0,1,48.33,48.11Zm.13,2.62c.08,0,.18.06.26.09s0,.13-.09.14l-.32,0C48.36,50.85,48.41,50.73,48.46,50.73ZM1.62,39.51a1,1,0,0,1-.3,0c.06-.07.11-.17.19-.2s.14.08.21.13S1.66,39.51,1.62,39.51Zm.88.55L2.19,40a.78.78,0,0,1,.1-.15.19.19,0,0,1,.31,0S2.54,40,2.5,40.06Zm-.4-1.81a.31.31,0,0,1-.43-.18.37.37,0,0,1,.09-.31.28.28,0,0,1,.45,0C2.33,38,2.25,38.12,2.1,38.25Zm1-1S3,37.15,3,37.12a1.73,1.73,0,0,1,.28-.19s.1.07.15.11A2.19,2.19,0,0,1,3.14,37.21Zm.71,1.63-.15-.08c0-.12,0-.22.06-.32s.13.06.13.09A1.1,1.1,0,0,1,3.85,38.84Zm-2.19-9s-.1-.06-.14-.1l.06-.31a.78.78,0,0,1,.15.1A.2.2,0,0,1,1.66,29.85ZM2.85,18.22c-.08,0-.17-.06-.26-.09s.06-.13.1-.13A1.83,1.83,0,0,1,3,18C3,18.09,2.91,18.21,2.85,18.22ZM7.3,31.31a1.86,1.86,0,0,1-.22.27l-.21-.2c0-.18.11-.33.32-.32S7.4,31.17,7.3,31.31ZM5.46,16.07,5.13,16l.11-.15.32.07C5.53,16,5.49,16.07,5.46,16.07Zm22,20s.1.06.15.09c-.1.06-.19.13-.29.18s-.09-.06-.14-.1A2.09,2.09,0,0,1,27.47,36ZM10.72,26.56c-.06-.09-.16-.17-.17-.26s.09-.14.14-.22c.06.09.16.17.17.26S10.77,26.48,10.72,26.56Zm-1-6.37a.41.41,0,0,1-.25.21s-.14-.09-.21-.14.12-.35.32-.34S9.71,20.11,9.7,20.19ZM20,53.69a2.81,2.81,0,0,1-.5.22c-.24.11-.5.13-.65-.11s0-.47.1-.68a1,1,0,0,1,.81-.4.7.7,0,0,1,.58.38C20.39,53.33,20.18,53.56,20,53.69Zm-6-30.54c-.19,0-.34-.1-.33-.31s.1-.21.25-.12.18.14.28.21A2.09,2.09,0,0,0,13.93,23.15Zm1.19,1.27a1.84,1.84,0,0,1-.33,0c.05-.08.09-.21.15-.22s.18.07.27.1S15.15,24.41,15.12,24.42Zm2.21,5.39c-.2,0-.25-.19-.3-.34s-.07-.33.11-.42a.49.49,0,0,1,.19.25A2.89,2.89,0,0,1,17.33,29.81Zm7.6,28.35-.15-.11c0-.11,0-.21.07-.32s.13.07.13.11A1.92,1.92,0,0,1,24.93,58.16ZM27,63.33c-.07-.06-.18-.11-.19-.17s.06-.16.1-.24S27,63,27,63A2,2,0,0,1,27,63.33ZM16,10.85a2.18,2.18,0,0,1-.34,0c.06-.08.11-.2.17-.21s.17.06.26.1S16,10.84,16,10.85ZM26.83,54c0-.05,0-.13.06-.16.5-.46,1,0,1.54,0s.38.55.23.92a.48.48,0,0,1-.23.27A2.28,2.28,0,0,1,26.83,54Zm2.27,2.39a2.68,2.68,0,0,1-.28.18s-.09-.07-.13-.1a1.53,1.53,0,0,1,.27-.17S29.05,56.32,29.1,56.35Zm.24,4.3c.32-.7.88-.58,1.79-.56C30.3,60.29,30,61,29.34,60.65Zm3.1-4.31c-.23.24-.59,0-.79-.18-.42-.46-.83-.89-1.54-.66.08.21.15.42.22.62,0,0,0,.08.06.09l0,.06c.16,0,.32,0,.35.23s-.09.25-.15.18a1.56,1.56,0,0,1-.2-.41s0,0-.05,0,0-.07,0-.11c-.3-.07-.39-.3-.41-.58l-.05,0c-.36,0-.74,0-.71-.48a.48.48,0,0,1,.45-.46c.38,0,.46.27.52.56a6.55,6.55,0,0,1,.78-.42,1.42,1.42,0,0,1,.83-.15c.32.12.26.5.2.8s0,.37.18.42S32.76,56,32.44,56.34Zm3-9.92s-.06.11-.1.14a.2.2,0,0,1-.32-.07s.07-.09.1-.14A.2.2,0,0,1,35.46,46.42ZM27.57,15.24a.33.33,0,0,1-.17.43c-.09,0-.25-.09-.24-.12a.83.83,0,0,1,.14-.32C27.39,15.08,27.5,15.08,27.57,15.24Zm-.83-2.34c.15,0,.24.09.17.17a.56.56,0,0,1-.29.14s-.09-.07-.14-.1ZM29.44,25a1.65,1.65,0,0,1,.19.27s-.05.09-.08.14a2.48,2.48,0,0,1-.19-.26A1.09,1.09,0,0,0,29.44,25ZM40,68.82c.16,0,.21.13.11.27a1.94,1.94,0,0,1-.23.27l-.21-.22C39.75,69,39.82,68.81,40,68.82Zm.54,1.41s-.06.09-.09.13-.14,0-.14-.08a1.67,1.67,0,0,1,0-.31C40.46,70.06,40.53,70.14,40.58,70.23ZM39,67.57s.1.05.15.07-.07.13-.11.13a1.65,1.65,0,0,1-.31,0A1.28,1.28,0,0,1,39,67.57ZM31.54,43.43a.63.63,0,0,1,.15.08,5.11,5.11,0,0,1-.22.48c-.1-.09-.23-.16-.24-.23A.29.29,0,0,1,31.54,43.43ZM32.18,48c.19-.22.32-.06.36.12a.57.57,0,0,1-.26.63c-.05,0-.19-.06-.28-.09A.62.62,0,0,1,32.18,48ZM21,5.54l.31.07s-.07.13-.1.13a1.55,1.55,0,0,1-.31-.06ZM34,55.37h0l0,0,0,0,0,0c-.16,0-.31.09-.47.12s-.47.09-.57-.19A.35.35,0,0,1,33,55a.5.5,0,0,1,.63,0,2.13,2.13,0,0,1,.33.34h0s0,0,0,0l1.17.71C33.87,56.38,33.85,56.35,34,55.37ZM38.56,72c-.13,0-.3-.13-.49-.23.1-.18.15-.39.28-.45s.25.12.3.27S38.76,71.93,38.56,72Zm1.69,1.27c-.32.13-.69.33-1,.11a.3.3,0,0,1,0-.47c.19-.2.54-.29.21-.69-.14-.18,0-.49.3-.54.09,0,.24.24.37.36a.58.58,0,0,1,.17.65C40.31,72.87,40.59,73.11,40.25,73.24Zm1,1.21a.31.31,0,0,1-.36-.29c-.07-.24-.1-.49.17-.6s.42.13.48.36S41.58,74.42,41.24,74.45ZM41,66.66c-.21.33-.46.5-.78.12l0,0s0,0,0,0c-.21,0-.43.16-.56-.06-.05-.07.16-.41.24-.4.25,0,.26.26.32.46h.06c.16-.13.32-.28.5-.4s.21,0,.31,0S41.05,66.59,41,66.66Zm-3-16.43c.07,0,.16.05.25.08s-.06.12-.1.12-.19,0-.3,0C38,50.34,38,50.23,38.05,50.23Zm.5,1.18s-.15-.06-.15-.08a1.91,1.91,0,0,1,.06-.33s.14.06.14.09A1.64,1.64,0,0,1,38.55,51.41ZM45.8,76.27a.4.4,0,0,1-.26.21c-.15,0-.22-.06-.17-.2s.13-.34.34-.3C45.76,76,45.83,76.19,45.8,76.27ZM44,65.8a1.91,1.91,0,0,1-.47,0l.31-.23.43.08C44.22,65.67,44.14,65.79,44,65.8ZM35.32,26a1.65,1.65,0,0,1-.32-.06,1.71,1.71,0,0,1,.11-.14l.3.06C35.38,25.88,35.35,26,35.32,26Zm2,6.21a.37.37,0,0,1-.25.19c-.16,0-.22-.06-.19-.2s.13-.34.34-.27A.3.3,0,0,1,37.37,32.18Zm5.51,20.69a.57.57,0,0,1,.62.18c.24.2,0,.3-.13.34s-.43-.08-.58-.26C42.82,53,42.82,52.89,42.88,52.87Zm1.48,3.58a2.54,2.54,0,0,1-.28.16s-.08-.06-.13-.09a2,2,0,0,1,.27-.17S44.31,56.41,44.36,56.45Zm.15,4.34c.05-.26.2-.25.38-.22s.64.06.66.44a.31.31,0,0,1-.38.27A.81.81,0,0,1,44.51,60.79ZM50,82.51l1.53-.78C51.27,82.6,50.77,82.54,50,82.51ZM43.81,50.25a.06.06,0,0,0,0,0l-.07,0c0,.17-.08.31-.26.34s-.25-.09-.16-.16a2.31,2.31,0,0,1,.42-.18s0,0,0,0,0,0,0,0a.33.33,0,0,1,0-.13c0-.31-.48-.47-.29-.76s.47-.09.61.08C44.44,49.84,44.08,50,43.81,50.25ZM35.05,12.13a3.34,3.34,0,0,1-.5-2.23C35.52,10.39,35.48,11.06,35.05,12.13Zm1,1.07a1.77,1.77,0,0,1-.32,0c0-.05.06-.14.1-.14a1.67,1.67,0,0,1,.31.05S36,13.2,36,13.2ZM48.12,56.31a1.72,1.72,0,0,1,.36-.26.79.79,0,0,1,.33,0l-.32.27Zm1,.9a2.48,2.48,0,0,1-.19-.26l.1-.14a1.59,1.59,0,0,1,.18.27S49.14,57.17,49.11,57.21Zm-1.74-7.54c.05.07,0,.21,0,.32l-.49-.16c.08-.12.12-.26.18-.26A.4.4,0,0,1,47.37,49.67Zm-2.12-8c.23.19,0,.43-.2.56s-.68.23-.81,0a.33.33,0,0,1,.15-.47C44.65,41.66,45,41.47,45.25,41.67Zm-10-34.9s.07-.14.1-.14a1.3,1.3,0,0,1,.33.07s-.07.14-.1.14A1.3,1.3,0,0,1,35.25,6.77Z" style="fill:#fff"/></g></g></svg>