<svg xmlns="http://www.w3.org/2000/svg" viewBox="0 0 28.72 68.57"><title>new_jersey</title><g id="Layer_2" data-name="Layer 2"><g id="_ÎÓÈ_1" data-name="—ÎÓÈ 1"><path d="M11.3,68.42c.36.08.58.2.67.13,2-1.48,3.93-3.08,4.26-5.8a10.14,10.14,0,0,1,2.75-6,9.09,9.09,0,0,0,2.3-4.62,4.42,4.42,0,0,1,1.33-2.89c1.94-1.49,2.39-3.67,3.08-5.8,1.63-5.1,1.88-10.44,2.88-15.66.5-2.56-.16-3.26-2.81-3.46-1.07-.08-2.16,0-3.22-.13s-1.78-.9-1.47-1.88c.58-1.8.68-3.86,2-5.3,1.81-2,2-4.5,2.77-6.83a1.9,1.9,0,0,0-.92-2.35c-.49-.31-1-.62-1.48-.9-3.4-1.9-7-3.41-10.23-5.65A5.45,5.45,0,0,0,9.87,0,4,4,0,0,0,8.09,3.24a5.14,5.14,0,0,1-2,3.57,23.54,23.54,0,0,0-2,1.9,1.94,1.94,0,0,0-.53,2.09,6.55,6.55,0,0,0,.44.54c1.63,1.66,1.73,2.47.5,4.3-.24.34-.53.64-.79,1-1.59,1.95-1.63,2.57,0,4.53,2.44,2.94,5,5.82,7.42,8.73,1.84,2.17,1.81,2.36.26,4.72s-4,4.25-5.14,7a5.47,5.47,0,0,1-2.92,2.91A5.48,5.48,0,0,0,.17,48.93c-.59,3.36.42,6.42,1.61,9.43a5.36,5.36,0,0,0,5.93,3.49c.73-.07,1.44-.47,2.25,0,.65,1,1.4,1.94,2,3C12.75,66.13,11,67,11.3,68.42Zm8.06-27.57c.07,0,.15.21.23.33a5,5,0,0,1-.75.15c-.08,0-.16-.22-.23-.33A3.32,3.32,0,0,1,19.36,40.85Zm-4.88,20c.08,0,.15.22.23.34a4.21,4.21,0,0,1-.78.12c-.07,0-.14-.22-.21-.34A5,5,0,0,1,14.48,60.89Z" style="fill:#fff"/></g></g></svg>