<svg xmlns="http://www.w3.org/2000/svg" viewBox="0 0 69.8 56.05"><title>new_york</title><g id="Layer_2" data-name="Layer 2"><g id="_ÎÓÈ_1" data-name="—ÎÓÈ 1"><path d="M68.63,49.74c-.15.18-.33.41-.52.62a5.12,5.12,0,0,1-1.32,1.09c-.6.32-.81.22-1.1-.47a.32.32,0,0,0-.28-.22A6.82,6.82,0,0,1,63,51.2s.08.1.06.13a1.5,1.5,0,0,1-.19.25,1.09,1.09,0,0,0-.08-.15l.18-.23a6.19,6.19,0,0,1-1.05-.08,2.26,2.26,0,0,0-2,.53,2,2,0,0,1-1.39.5,6,6,0,0,0-2.81.62,2.09,2.09,0,0,1-1,.24c-.55,0-.78-.39-.57-.88a2.1,2.1,0,0,0,.34-1,4.47,4.47,0,0,1,.89-2.93A1.9,1.9,0,0,0,55.64,47c-.08-1-.16-2-.17-3,0-2.49-.52-5,.18-7.47.27-.93.34-1.93.67-2.83a20.07,20.07,0,0,0,1-6.68c0-2.4-.31-4.8-.2-7.21a1.18,1.18,0,0,0-.5-1.12,1.57,1.57,0,0,1-.62-1.32c-.09-2.26-.24-4.52-.11-6.78a13.93,13.93,0,0,0,.07-4,15,15,0,0,1-.33-3.95A5.52,5.52,0,0,0,55.41.17,1.28,1.28,0,0,0,54.5,0c-3.33.08-6.67.19-10,.27A3.25,3.25,0,0,0,42.7.93a48.06,48.06,0,0,0-5.9,5,6.81,6.81,0,0,0-1.32,1.7,3.34,3.34,0,0,1-1.32,1.39c-1,.58-1.78,1.55-2.79,2.18a.44.44,0,0,0-.19.61h.13a.65.65,0,0,1,0-.31.27.27,0,0,1,.39-.23c.27.11.29.36.22.61v0a2.67,2.67,0,0,1,1.49,1.32c-.06.46-.38.59-.61.81A2.28,2.28,0,0,0,32,16.21a8.45,8.45,0,0,0,.19.84,2.74,2.74,0,0,1-.29,2,1.07,1.07,0,0,1-1.1.69c-.25,0-.57-.14-.73.05-.54.61-1.39.76-1.92,1.35a3.85,3.85,0,0,1-1.47,1.06,2,2,0,0,0-.88.59.88.88,0,0,1-1.15.25,5.65,5.65,0,0,0-4.4.16c-1,.43-1.13.4-1.85-.42a2.43,2.43,0,0,0-1.78-.87c-.5,0-1-.13-1.49-.21a16.3,16.3,0,0,0-4.73-.1,9.05,9.05,0,0,0-3.17,1,1,1,0,0,0-.64.92,10,10,0,0,0,.21,2.67,2.12,2.12,0,0,0,.57,1c.83.77.84.92.31,1.9a2.68,2.68,0,0,1-.81,1c-2.21,1.55-4,3.61-6.33,5a.88.88,0,0,0-.51.66,3.51,3.51,0,0,0,.17,2c.8,0,1.62.1,2.44.13,4.37.12,8.75-.12,13.14,0,4.2.12,8.4,0,12.6.15a60.42,60.42,0,0,0,8.72,0,5.48,5.48,0,0,1,1.07,0,1.8,1.8,0,0,1,1.41.68A4.29,4.29,0,0,0,41.32,40a2.82,2.82,0,0,1,1.61,1.78,10.24,10.24,0,0,1,.57,2,1.6,1.6,0,0,0,1,1.33,4.54,4.54,0,0,1,1.16.78,25.77,25.77,0,0,0,4.55,3.21c.78.46,1.53.94,2.29,1.43a1.84,1.84,0,0,1,.85,2.32l-.45,1.32a4.07,4.07,0,0,0-.41,1.73c.48.34,1,.14,1.39,0A45.12,45.12,0,0,0,63.39,53a3.82,3.82,0,0,1,.91-.33,16.22,16.22,0,0,0,5-2.14c.19-.12.5-.15.47-.57C69.44,49.87,69.12,49.61,68.63,49.74ZM54.5,10.53c.2,0,.31.11.33.32l-.21.28a3.89,3.89,0,0,1-.32-.39S54.42,10.53,54.5,10.53ZM10.36,25.84a.23.23,0,0,1-.28-.19c.05,0,.12-.12.15-.1a2.75,2.75,0,0,1,.28.19A.44.44,0,0,1,10.36,25.84Zm7.09,2.28a1.17,1.17,0,0,1-.26-.17s.11-.1.14-.09.18.12.27.18S17.48,28.14,17.45,28.12Zm1.85,4.42a.33.33,0,0,1-.3.08c-.16-.07-.31-.19-.16-.49a.24.24,0,0,1,.37,0A.31.31,0,0,1,19.3,32.54Zm6.21.67c0-.06-.06-.11-.08-.16s.13-.17.2-.26c0,.06.1.13.08.16A2.26,2.26,0,0,1,25.51,33.21Zm5.25-10.88c-.05,0-.07-.14-.1-.22a2.68,2.68,0,0,1,.49,0c.05,0,.08.14.14.27A5.33,5.33,0,0,1,30.76,22.33Zm7.73-1.76a.71.71,0,0,0-.34.24A.43.43,0,0,0,38,20.7a.66.66,0,0,0-.47-.07c.09-.21.2-.41.49-.4a1,1,0,0,1,.35.06C38.55,20.36,38.59,20.53,38.49,20.57Zm-3-.66,0-.07a.24.24,0,0,0,0,.08Zm-.66,2.16a2.81,2.81,0,0,0,0-.91.39.39,0,0,0-.18-.28,1.85,1.85,0,0,1-.05-.66c.11.24.21.49.31.73a.2.2,0,0,0,.11.23c.08.2.18.41.27.61Zm1.23-.92c-.1-.21-.2-.43-.29-.64a.41.41,0,0,0,.46,0c.05,0,.11,0,.16-.09,0,.24.1.47.14.7A1.61,1.61,0,0,0,36.06,21.15Zm-.41,1.57a.69.69,0,0,0,.07.15l-.25,0ZM38,21.57a1.27,1.27,0,0,1,0,.2.75.75,0,0,1-.07-.12v0S38,21.58,38,21.57Zm-1.4-9.5c0-.15,0-.29,0-.44l0,.09A.32.32,0,0,1,36.64,12.07Zm-.92-.59s0,0,0,0a7.54,7.54,0,0,1-.12.83,1.39,1.39,0,0,1-.84-.71A6.14,6.14,0,0,0,35.72,11.48Zm-3,4.3.31,0s.06.09.09.14-.21,0-.32,0S32.74,15.83,32.72,15.78Zm.52,6.44a.77.77,0,0,0,.43-.51c0,.22.09.43.13.64a1.77,1.77,0,0,1-.18.45h0C33.32,22.85,32.9,22.41,33.24,22.22Zm1,1.65a.31.31,0,0,1,.43-.16.55.55,0,0,1,.12.14l-.43.32C34.36,24.05,34.26,23.93,34.29,23.87Zm1.09,3a.16.16,0,0,1-.27.08c-.18-.18-.35-.37-.24-.64a.16.16,0,0,1,.27-.08C35.31,26.38,35.49,26.56,35.38,26.84Zm1.83-4.2a.76.76,0,0,1-.48-1.13.56.56,0,0,0,.2.11,2.49,2.49,0,0,0,.52,1.07A.57.57,0,0,1,37.21,22.64ZM47.52,9.14a2.69,2.69,0,0,1,.22.28c.09.15,0,.25-.14.26s-.29-.15-.3-.34Zm-3,6.56c0,.11.1.23.07.32a2.33,2.33,0,0,1-.26.41l-.07-.38ZM43.1,12.62a.53.53,0,0,1,.44.65c0,.12-.28.18-.42.27l-.33-.78C42.92,12.7,43,12.6,43.1,12.62Zm-.56,5.77s0,.09,0,.11v0l.31,0H43c-.1.13-.18.27-.27.4a.94.94,0,0,1-.12-.3.77.77,0,0,1,0-.15h0a.62.62,0,0,0,0-.13c-.13-.11-.25-.22-.15-.41,0,0,.09-.06.13-.09C42.53,18.06,42.54,18.23,42.54,18.39Zm-.33-9,.25.18c-.05,0-.12.09-.15.07a1.44,1.44,0,0,1-.25-.18ZM39.33,19.72c0-.08.13-.13.2-.19s.08.11.07.14a1.28,1.28,0,0,1-.16.27C39.4,19.86,39.31,19.77,39.33,19.72Zm.36,9.82s-.1-.11-.09-.14a.43.43,0,0,1,.41-.27c0,.08.12.2.09.26A.27.27,0,0,1,39.69,29.54ZM41,25l-.45.15a1.67,1.67,0,0,1,0-.49c0-.15.12-.38.35-.17A.41.41,0,0,1,41,25Zm.26-6.52s-.11-.11-.1-.13a2.61,2.61,0,0,1,.19-.27s.1.12.09.14A2.93,2.93,0,0,1,41.26,18.43ZM42,28.69s.07.09.1.14a1.88,1.88,0,0,1-.33.05s-.06-.1-.09-.15A3.11,3.11,0,0,1,42,28.69Zm.12,2.91a1.65,1.65,0,0,1-.27-.19c.05,0,.12-.09.15-.07a1.59,1.59,0,0,1,.27.18S42.1,31.61,42.07,31.6Zm-.2-1.16a.45.45,0,0,1-.22-.27c0-.09.09-.2.14-.3a.59.59,0,0,0,.56,0c0,.23,0,.47.07.7A1.17,1.17,0,0,1,41.87,30.44Zm1.52-.11a5.26,5.26,0,0,1,0-.89h.06a3.88,3.88,0,0,1,.79.56A5.8,5.8,0,0,0,43.39,30.33Zm1.24-1.51a3.31,3.31,0,0,1-.33.15c0-.1-.07-.2-.1-.29s.24-.26.43-.15S44.77,28.73,44.63,28.82Zm-.35-4.28c-.06,0-.08-.16-.15-.29a4,4,0,0,1,.56.06c.06,0,.08.16.11.24A3,3,0,0,1,44.28,24.54Zm1.08-.65s-.11.08-.16.07c-.23,0-.3-.17-.26-.39.07,0,.2-.14.24-.11A.36.36,0,0,1,45.36,23.89Zm-.06-8.6A3,3,0,0,1,45,15.1c.1-.18.27-.15.42-.1a1.2,1.2,0,0,1,.27.19C45.62,15.35,45.46,15.32,45.3,15.29Zm1.12-2.94a1.21,1.21,0,0,1-.14-.2s0-.1.06-.14.21-.11.21.06S46.47,12.25,46.42,12.35ZM46.83,17c0-.05-.08-.11-.06-.14a1.38,1.38,0,0,1,.17-.25.58.58,0,0,1,.09.27S46.9,17,46.83,17Zm.68,9a2.39,2.39,0,0,1-.25-.19c.09-.18.26-.16.41-.11s.27.17.26.19C47.84,26.08,47.68,26.05,47.51,26Zm.81-16.19s.09-.06.14-.09a1.88,1.88,0,0,1,0,.33s-.09.06-.15.09S48.32,9.93,48.32,9.82ZM49,25.92a2.48,2.48,0,0,1-.26-.19s.11-.09.14-.08a1.2,1.2,0,0,1,.26.18Zm-.42-8.79c-.08,0-.2-.17-.18-.21.08-.24.29-.3.57-.3.07.15.23.34.18.43C49,17.31,48.77,17.19,48.57,17.13Zm2.19,3.35s-.09,0-.14,0,0-.21,0-.31.2-.14.23,0A.49.49,0,0,1,50.76,20.48ZM51,24c0-.1,0-.21,0-.3l.15-.1a1.71,1.71,0,0,1,0,.31S51.08,23.94,51,24Zm.73-12.63c-.19,0-.33-.13-.29-.37l.24-.13.22.44C51.88,11.3,51.82,11.35,51.77,11.34Zm1.87,24-.12-.21a1.51,1.51,0,0,1,.3,0s.06.08.09.13ZM66,52c-.08,0-.14-.13-.2-.2s.11-.09.14-.08a1.33,1.33,0,0,1,.28.16C66.13,51.93,66,52,66,52Z" style="fill:#fff"/></g></g></svg>