<svg xmlns="http://www.w3.org/2000/svg" viewBox="0 0 25.27 56.73"><title>new_hampshire</title><g id="Layer_2" data-name="Layer 2"><g id="_ÎÓÈ_1" data-name="—ÎÓÈ 1"><path d="M14.42,14.83a2.1,2.1,0,0,1-.87,2.72c-1.57,1-3.11,2.13-4.73,3.1-2.68,1.6-2.79,1.83-1,4.46a3.33,3.33,0,0,1,.19,4c-1.12,1.83-2.2,3.68-3.2,5.58A22.89,22.89,0,0,0,2.18,44.79a20.53,20.53,0,0,1-1.67,8,3.94,3.94,0,0,0-.16,3.52,2.7,2.7,0,0,0,2.09.44c2.67-.06,5.34-.12,8-.16,2.15,0,4.31.09,6.44-.07,4.84-.37,8.7-3.85,8.37-9.56a3.69,3.69,0,0,0-.49-1.67,16.29,16.29,0,0,1-1.87-6.92c-.24-3.17-.39-6.36-.64-9.54-.49-6.35-.64-12.74-1.55-19a50.74,50.74,0,0,1-1-8.33A1.52,1.52,0,0,0,19.37.33c-1.66-.54-1.8-.5-2.55.73a9,9,0,0,0-1.28,4.06,8.47,8.47,0,0,1-1.07,3.72,5.53,5.53,0,0,0-.41,4.88C14.19,14.09,14.29,14.46,14.42,14.83ZM13.28,37.61c.42,1.55.42,1.55-2.34,2.18Z" style="fill:#fff"/></g></g></svg>