<svg xmlns="http://www.w3.org/2000/svg" viewBox="0 0 61.58 72.3"><title>new_mexico</title><g id="Layer_2" data-name="Layer 2"><g id="_ÎÓÈ_1" data-name="—ÎÓÈ 1"><path d="M24.76,64.05a8.52,8.52,0,0,0,1.6-.18,8.19,8.19,0,0,1,2.46-.27c2.08,0,4.16,0,6.24.12a60.62,60.62,0,0,0,7.86-.1,25,25,0,0,1,3.12,0,134.27,134.27,0,0,0,13.46-.1c1.27-.09,1.64-.41,1.78-1.67,0-.25,0-.5,0-.75,0-1.62,0-3.24.1-4.85.15-2.91.23-5.81.17-8.72-.08-4-.25-7.95-.39-11.93l0,0,0-.1,0-.75c-.07-2.41-.19-4.81-.14-7.22.06-3.13,0-6.25-.24-9.36-.09-1.11-.15-2.22-.14-3.34a43.05,43.05,0,0,0-.11-4.95A52.84,52.84,0,0,1,60.06,3,7.87,7.87,0,0,0,60,2C59.81.87,59.45.52,58.37.44a23.77,23.77,0,0,0-2.8,0C54,.49,52.41.51,50.83.51s-3.06,0-4.6,0c0,.14-.2.16-.34.18s-.3-.09-.3-.1a.15.15,0,0,1,0-.08c-.92,0-1.84,0-2.76,0-3.8.09-7.61.21-11.41.11C28.75.56,26.06.56,23.37.46,21.68.4,20,.24,18.31.26,15.15.3,12,.14,8.84.1,7.26.07,5.68,0,4.1,0c-1,0-1.33.3-1.53,1.29a2,2,0,0,0-.06.42l-.06,4.1c-.07,3.94.25,7.9-.53,11.81a34.05,34.05,0,0,0-.27,5.05c-.17,3.59-.26,7.18-.22,10.77,0,4-.39,7.88-.47,11.83,0,1.61-.21,3.22-.29,4.84-.14,2.65-.07,5.3-.36,8-.17,1.5-.09,3-.21,4.52-.21,2.65,0,5.3,0,8C.14,71.9.33,72,1.66,72a40.44,40.44,0,0,1,5.16.26c1.38.17,1.57,0,1.6-1.36,0-.26,0-.51,0-.76a11.35,11.35,0,0,1,.21-2.25,1.29,1.29,0,0,1,1.44-1.16c.47,0,.93.07,1.4.09L19,67l4.09.14c.32,0,.66.1,1-.25a4.14,4.14,0,0,0-.23-1.61C23.69,64.48,24,64.13,24.76,64.05ZM59,10.16c.06.07.15.14.16.22s-.09.12-.15.17-.1-.08-.09-.11A1.29,1.29,0,0,1,59,10.16ZM51.45,31a1.61,1.61,0,0,1-.29-.09s.08-.11.12-.11l.28.09S51.48,31,51.45,31Zm2.6,7.46c.06.08.15.15.17.23s-.1.12-.16.18-.1-.08-.1-.12S54,38.58,54.05,38.48ZM50.7,25.58l.43.16c-.1.06-.2.16-.29.16a2.07,2.07,0,0,1-.49-.12Zm2.14,25.19s.08.07.13.11a1.82,1.82,0,0,1-.3.11s-.09-.06-.13-.1A1.88,1.88,0,0,1,52.84,50.77Zm-1.5-4.34c.17.06.31.19.25.37a.28.28,0,0,1-.39.19.34.34,0,0,1-.18-.25A.28.28,0,0,1,51.34,46.43Zm-.77-1.32s.13.08.12.11a1.12,1.12,0,0,1-.1.31s-.12-.09-.12-.12S50.54,45.21,50.57,45.11Zm-.29,9.32a1.73,1.73,0,0,1,.14.31s-.08.08-.12.13-.09-.2-.14-.31ZM49.1,45.24s.12.07.12.11a1.82,1.82,0,0,1-.08.29L49,45.53ZM47.51,34.48a2.81,2.81,0,0,1,.31.1c0,.05-.09.13-.12.13s-.21-.07-.31-.1S47.48,34.48,47.51,34.48Zm-2-8.65c.05,0,.13.08.12.12a1.18,1.18,0,0,1-.1.3l-.12-.13C45.47,26,45.51,25.93,45.54,25.83Zm1,10.71a1.48,1.48,0,0,1,.12.29s-.07.08-.1.12l-.19-.21C46.41,36.67,46.46,36.6,46.52,36.54Zm-.77,3.3a3,3,0,0,1,.32.1c0,.05-.09.13-.12.12a1.31,1.31,0,0,1-.32-.1S45.72,39.83,45.75,39.84Zm-3.38-8.1a.77.77,0,0,1,.14.29c0,.15,0,.33-.15.39a1.74,1.74,0,0,1-.15-.29C42.2,32,42.17,31.8,42.37,31.74Zm-.16,8.4a.32.32,0,0,1,.3.36.16.16,0,0,1-.25.14,3.73,3.73,0,0,1-.38-.33C42,40.23,42.11,40.13,42.21,40.14Zm-1.59-5.78s.12.07.12.11-.08.13-.11.12a1.12,1.12,0,0,1-.31-.1A1.14,1.14,0,0,1,40.62,34.36Zm1.5,23.82a2,2,0,0,1,.08.31s-.07.09-.11.13l-.17-.28A1.56,1.56,0,0,0,42.12,58.18Zm-3.8-25.09c.08.14.18.24.17.32a.38.38,0,0,1-.22.24c-.07,0-.18-.08-.27-.13C38.11,33.38,38.21,33.25,38.32,33.09Zm-.45,1.69c.07.18,0,.35-.29.41s-.34-.24-.35-.49.06-.32.1-.32A.55.55,0,0,1,37.87,34.78Zm-1.2-7.15s.08.07.12.11a1.39,1.39,0,0,1-.28.12s-.09-.06-.13-.1A1.51,1.51,0,0,1,36.67,27.63Zm.51,13.1-.14-.1c0-.12.07-.22.11-.32s.13.08.12.11A1.58,1.58,0,0,1,37.18,40.73Zm-.8-7.13a.36.36,0,0,1,.29.17.33.33,0,0,1-.19.43.31.31,0,0,1-.39-.26A.27.27,0,0,1,36.38,33.6Zm-1.19-1.77s.08.07.12.1l-.22.18L34.9,32A1.78,1.78,0,0,1,35.19,31.83Zm-2.54-1.12a.36.36,0,0,1,.32.35s-.08.11-.13.12a.29.29,0,0,1-.38-.24C32.53,30.86,32.6,30.71,32.65,30.71Zm-.29,3.6c.24,0,.49-.06.63.19,0,.06-.06.2-.09.3l-.64-.24C32.15,34.43,32.19,34.35,32.36,34.31Zm2,25.3c0-.08.19-.11.28-.16s.27.22.17.39a.32.32,0,0,1-.27.16A.26.26,0,0,1,34.35,59.61ZM29.84,36.4a1.19,1.19,0,0,1,.32.1s-.08.14-.11.13a1.81,1.81,0,0,1-.34-.1C29.76,36.48,29.81,36.39,29.84,36.4Zm-1.57-7.09c0-.16.14-.19.27-.08a2.2,2.2,0,0,1,.24.28l-.24.17C28.36,29.63,28.22,29.53,28.27,29.31Zm-.63,4.4a2,2,0,0,1,.14.3s-.08.08-.13.12a2.71,2.71,0,0,1-.13-.3S27.6,33.75,27.64,33.71ZM30,62.8a.91.91,0,0,1,.3.11c0,.05-.08.13-.12.13a1.35,1.35,0,0,1-.33,0C29.92,62.93,30,62.8,30,62.8ZM25.62,26.74a1.92,1.92,0,0,1,.32.09c0,.05-.09.13-.12.12a2,2,0,0,1-.33-.09C25.54,26.82,25.58,26.73,25.62,26.74Zm.5,7.77s.08.07.13.12c-.11,0-.21.1-.32.13s-.08-.08-.13-.12A1.44,1.44,0,0,1,26.12,34.51Zm-4,7.06a1.87,1.87,0,0,1,.32.08l-.11.14-.32-.1S22.08,41.57,22.11,41.57ZM8.61,38.5a1.86,1.86,0,0,1-.31-.1s.09-.12.12-.12.2.07.31.1C8.69,38.42,8.64,38.5,8.61,38.5Zm1,5.11s-.08-.06-.12-.1.08-.12.11-.12a1.66,1.66,0,0,1,.29.1A1.39,1.39,0,0,1,9.64,43.61Zm2.51.08A1.48,1.48,0,0,1,12,43.4s.07-.08.11-.12a1.72,1.72,0,0,1,.11.29S12.19,43.65,12.15,43.69Zm-.29-6.21c-.47.13-.64-.23-.79-.56,0-.07.08-.2.12-.3.3.17.76.11.86.57C12,37.3,11.94,37.46,11.86,37.48Zm.9,1.3c-.11,0-.26-.19-.38-.29.1-.33.26-.55.59-.57.06,0,.19.16.18.19C13,38.33,13.12,38.73,12.76,38.78Zm2.29,14.09a2.15,2.15,0,0,1-.33-.21l.79-.36c0,.1.12.22.09.29A.46.46,0,0,1,15.05,52.87ZM15.16,45a1.63,1.63,0,0,1-.31-.11l.13-.12.3.11S15.19,45,15.16,45ZM16.7,28.88c-.1,0-.21-.07-.31-.1s.09-.13.12-.12a1.92,1.92,0,0,1,.32.09C16.78,28.8,16.74,28.88,16.7,28.88Zm2.1,1.42c.1-.14.18-.33.38-.24s.09.23.05.3a.35.35,0,0,1-.29.17C18.79,30.54,18.74,30.43,18.8,30.3Zm2,19.67a2.84,2.84,0,0,1-.09-.52c0-.05.11-.11.17-.17a4.21,4.21,0,0,1,.12.48C21,49.81,20.89,49.87,20.79,50Zm0-19.4s-.07.06-.11.08-.09-.17-.13-.26.13-.18.2-.09A.59.59,0,0,1,20.76,30.57Z" style="fill:#fff"/></g></g></svg>