<svg xmlns="http://www.w3.org/2000/svg" viewBox="0 0 85.45 34.13"><title>north_carolina</title><g id="Layer_2" data-name="Layer 2"><g id="_ÎÓÈ_1" data-name="—ÎÓÈ 1"><path d="M79.19,21.39a1.09,1.09,0,0,0-1.06-.9,2,2,0,0,0-.85.11,4.91,4.91,0,0,1-.83.24,2.62,2.62,0,0,1-2.21-.52.82.82,0,0,1,1-.57,1.28,1.28,0,0,0,1.12-.54L78,16.89c-.11-.58-.59-.74-1-1s-1.1-.53-1.65-.81c-.34-.18-.72-.36-.66-.87a.88.88,0,0,1,1-.28,1.57,1.57,0,0,0,1.39-.39,4.14,4.14,0,0,1,.55-.31,14.59,14.59,0,0,0,2.89,1.33,1.67,1.67,0,0,0,1.88-.35,3,3,0,0,0,1.07-1.58c.19-.95.65-1.49,1.65-1.35a1.29,1.29,0,0,0,.32-.84c0-.48,0-1-.48-1.22-.32-.17-.68.08-1,.72a1.9,1.9,0,0,1-.9.89.76.76,0,0,1-.82,0A.77.77,0,0,1,82,10a3.79,3.79,0,0,1,.58-1.26.93.93,0,0,0,0-1.27c-.35-.42-.77-.26-1.18-.14s-.71.61-1.16.68-.76-.49-1.21-.48c-1.61.82-2,.81-2.9-.06S75,6,75.41,5.23c.42,0,.66.38,1,.58a2.13,2.13,0,0,0,2.53,0,4.41,4.41,0,0,1,2.63-1.07c.08,0,.17-.11.23-.16.12-.33-.09-.58-.11-.86a.62.62,0,0,1,.23-.57.56.56,0,0,1,.7,0l.59.47c.24.19.45.49.88.29a1.82,1.82,0,0,0-.42-1.76c-.22-.32-.58-.59-.7-1C82.61.13,81.8,0,80.83,0L76.2.2C74.13.3,72.05.42,70,.5c-1.11,0-2.22,0-3.33,0-9.48.22-19,.21-28.44,0C35.08.48,32,.16,28.84.09a1.34,1.34,0,0,0-1.53,1,5,5,0,0,1-.88,1.72c-.91,1-1.82,2-2.78,3s-1.26.9-2.37.27c-.82-.47-1-.44-1.48.32-1,1.41-1.4,1.54-3,.87a.67.67,0,0,0-.2,0A3.16,3.16,0,0,0,14.28,9a1.21,1.21,0,0,1-1,.69,5.1,5.1,0,0,0-2.48,1.2c-.64.48-1.27.94-1.86,1.47a2.63,2.63,0,0,1-2.46.77,1.54,1.54,0,0,0-.64,0c-1.1.21-2.15.36-2.38,1.85-.17,1.08-.89,1.44-2,1.36S.07,16.4,0,17.68A1.82,1.82,0,0,0,1.11,18a14.66,14.66,0,0,0,1.62.09c2.55.05,5.09.3,7.63.44a5,5,0,0,0,2.13-.08,32,32,0,0,1,9.84-2.13,42.06,42.06,0,0,1,9.84.85,2.6,2.6,0,0,1,1.43.71,3.13,3.13,0,0,0,.8.54,2.21,2.21,0,0,1,1,1.19c.16.39.34.79.47,1.2a1.12,1.12,0,0,0,1.22.84c1,0,1.93.06,2.9.09,1.76.05,3.52.13,5.27.2a4.47,4.47,0,0,1,3.16,1.62c.24.26.44.56.66.84.75,1,1.51,1.92,2.32,2.84.3.35.62.69.93,1l.07-.1c0,.05.09.11.08.14a.18.18,0,0,1-.05.07c.59.64,1.19,1.28,1.77,1.93a2.17,2.17,0,0,1,1.15.31c-.14.18-.25.39-.38.59a25.92,25.92,0,0,1,1.83,2.32,1.32,1.32,0,0,0,1.48.6A9.87,9.87,0,0,1,61.75,34c.87.15,1.08,0,1.43-.9a7.9,7.9,0,0,1,1.07-2,21.93,21.93,0,0,1,4.27-4.39,1.33,1.33,0,0,0,.55-.53c.11-.66-.42-1.59.59-1.91.49.14.34.74.8.77.08,0,.17,0,.2-.08.22-.29.43-.57.64-.87.59-.84.69-.89,1.63-.37.69.39,1.33.05,2,0a1,1,0,0,0,.83-.74.76.76,0,0,1,1-.42,3.1,3.1,0,0,0,1.6-.08A1.2,1.2,0,0,0,79.19,21.39Zm.74-10.94c.07,0,.13.13.19.19s-.11.09-.14.08a1.33,1.33,0,0,1-.28-.16C79.78,10.52,79.87,10.44,79.93,10.45Zm-.87,1.41c0,.08.12.17.11.24s-.13.11-.2.16a.64.64,0,0,1-.08-.14A.2.2,0,0,1,79.06,11.86ZM13.26,13s-.06-.09-.09-.14a1.54,1.54,0,0,1,.31-.05s.06.08.09.13Zm1.16,1.56a.35.35,0,0,1-.29.09c-.15-.07-.3-.18-.13-.49a.25.25,0,0,1,.35,0A.29.29,0,0,1,14.42,14.51Zm7.47.64a.42.42,0,0,1-.28.19c-.23,0-.3-.15-.31-.35a.28.28,0,0,1,.39-.24C21.86,14.8,22,14.94,21.89,15.15Zm1-4.86s-.05-.09-.08-.13a1.45,1.45,0,0,1,.3,0s.06.08.1.13A1.75,1.75,0,0,1,22.85,10.29Zm9.53-.85a.77.77,0,0,1,.09.32c0,.25-.11.47-.4.48-.09,0-.18-.11-.28-.17C32,9.84,32.07,9.54,32.38,9.44ZM30.63,4.3a3,3,0,0,1-.26-.19.62.62,0,0,1,.6-.35c.09,0,.18.12.27.19A.87.87,0,0,1,30.63,4.3Zm-.37,8.61s-.06-.09-.09-.14.21,0,.31,0,.06.09.09.14S30.36,12.91,30.26,12.91Zm.44,2.37-.27-.19c.05,0,.12-.1.15-.09a1.67,1.67,0,0,1,.28.18Zm.46-1.58.33,0c.15,0,.32.06.33.26a.66.66,0,0,1-.31.06C31.35,14,31.19,13.9,31.16,13.7Zm.39,3.21c-.56-.06-.34-.49-.3-.84.1-.15.07-.54.42-.3s.58.28.53.64A.59.59,0,0,1,31.55,16.91Zm2.31-7.2c-.18,0-.17-.26-.13-.42s.08-.36.38-.24c0,.12.21.3.17.41A.48.48,0,0,1,33.86,9.71Zm2.51,8.58-.09-.15a1.8,1.8,0,0,1,.32-.06s.06.09.1.14ZM41.31,9.7a.54.54,0,0,1-.3-.61c0-.19.22-.34.4-.2a.66.66,0,0,1,.18.46A.3.3,0,0,1,41.31,9.7Zm2.24-5.21-.09-.15.17-.24c0,.05.09.11.08.13A2.26,2.26,0,0,1,43.55,4.49Zm.91,9.36c-.13-.1-.28-.21-.16-.4a.4.4,0,0,1,.26-.16c.22,0,.3.15.27.32S44.65,13.87,44.46,13.85ZM46.63,15c-.09,0-.17-.12-.26-.18s.11-.09.14-.08a2.53,2.53,0,0,1,.27.18C46.73,15,46.67,15.05,46.63,15ZM63.06,6.58c-.06.07-.34,0-.49,0a.34.34,0,0,1-.21-.42c.16-.19.32-.09.43,0S63.32,6.26,63.06,6.58Zm-1.48,23s-.06-.09-.1-.14l.19-.27a.75.75,0,0,1,.09.15A.19.19,0,0,1,61.58,29.63Zm3.55-17a.28.28,0,0,1-.19-.41.32.32,0,0,1,.13-.1l.36.39C65.3,12.59,65.19,12.68,65.13,12.65Zm8.61-4.41c0-.05-.09-.11-.08-.14a1.51,1.51,0,0,1,.18-.26s.09.11.08.14A2,2,0,0,1,73.74,8.24ZM75,11.48a1.12,1.12,0,0,1,.32,0s.06.09.09.14a1.77,1.77,0,0,1-.32,0S75,11.53,75,11.48Z" style="fill:#fff"/></g></g></svg>