<svg xmlns="http://www.w3.org/2000/svg" viewBox="0 0 62.45 38.5"><title>north_dakota</title><g id="Layer_2" data-name="Layer 2"><g id="_ÎÓÈ_1" data-name="—ÎÓÈ 1"><path d="M.38,37.13a1.44,1.44,0,0,0,1.14.4c3.77.12,7.54.28,11.31.34s7.47-.17,11.2,0,7.18.19,10.77.27c2.91.06,5.82.07,8.73.19,5.89.27,11.78.05,17.67.06.38,0,.8,0,1-.23a1,1,0,0,0,.1-.81,6.08,6.08,0,0,1,0-2,1.73,1.73,0,0,0-.51-1.76,4.23,4.23,0,0,1-1.21-2.7,19.59,19.59,0,0,0-.43-2.43,15.22,15.22,0,0,1-.36-2.78,39,39,0,0,1,.18-6,6.06,6.06,0,0,0-.47-3.05c-.49-1.2-1.19-2.29-1.76-3.45a8.31,8.31,0,0,1-.9-6.23,5.42,5.42,0,0,0-.11-3.4,14.29,14.29,0,0,1-1-3.15A2.6,2.6,0,0,0,54.15,0c-1.25.08-2.51.22-3.76.26-9.91.32-19.82.48-29.74.3C17.38.51,14.12.41,10.85.35L9.24.31C7.3.23,5.37.12,3.43.07,2.27,0,2.09.2,2,1.32,1.85,2.6,1.79,3.9,1.71,5.19c-.14,2.54-.24,5.09-.4,7.64-.22,3.54-.48,7.09-.7,10.64C.41,26.58.24,29.7,0,32.82A12.9,12.9,0,0,0,.38,37.13ZM58.82,22.34c.08,0,.15.09.23.14s-.09.11-.12.1a1.08,1.08,0,0,1-.29-.09C58.7,22.44,58.77,22.34,58.82,22.34Zm-46,5.24s.11.07.13.12,0,.24-.14.31-.12-.09-.11-.12A2.85,2.85,0,0,1,12.82,27.58ZM6.68,23.86s.09.08.13.12l-.26.18L6.38,24A1.18,1.18,0,0,1,6.68,23.86ZM5.49,3.51s.09.07.13.11l-.25.18-.18-.2A1.71,1.71,0,0,1,5.49,3.51Z" style="fill:#fff"/></g></g></svg>