<svg xmlns="http://www.w3.org/2000/svg" viewBox="0 0 38.55 46.04"><title>ohio</title><g id="Layer_2" data-name="Layer 2"><g id="_ÎÓÈ_1" data-name="—ÎÓÈ 1"><path d="M17.34,7.86c-.8.24-1,.1-1.27-.69a1.69,1.69,0,0,0-.94-1.11L11.92,4.53a2.1,2.1,0,0,0-1.26-.19c-3.15.48-6.3,1-9.49,1.3-.72.06-.9.26-1,1A8.32,8.32,0,0,0,0,8.57C.1,10.26.27,12,.2,13.63c-.13,3.56.25,7.1.4,10.65.14,3.19.5,6.37.42,9.57a10.5,10.5,0,0,0,.19,2.68c.24,1.06.47,1.22,1.55,1.15A1.87,1.87,0,0,1,4.88,39c.31.77.75,1.47,1.12,2.2A1.39,1.39,0,0,0,7.38,42c.25,0,.51,0,.75,0a2.59,2.59,0,0,1,2,.57l.51.39a1.46,1.46,0,0,0,1.8.16,1.73,1.73,0,0,1,1.35-.2,4.92,4.92,0,0,0,3.64-.58,1.37,1.37,0,0,1,1.9.39l2.59,3c.14.16.24.37.52.35s.39-.27.51-.49a3.23,3.23,0,0,1,1-1.11,1.2,1.2,0,0,0,.51-1.21,8.21,8.21,0,0,1,.2-2.47c.34-1.47.83-2.85,2.49-3.21a3.18,3.18,0,0,0,.38-1.41,2.13,2.13,0,0,1,.95-1.62,5.14,5.14,0,0,0,2.09-1.94c.46-.69.87-.76,1.68-.5l.95.31a5.23,5.23,0,0,0,2.47-3.49c.16-.85.32-1.7.47-2.55a2.34,2.34,0,0,1,.63-1.45,2.48,2.48,0,0,0,.72-1.85,6.73,6.73,0,0,1,.78-3,2,2,0,0,0,.24-.73.23.23,0,0,1-.12.06.3.3,0,0,1-.33-.33l.22-.16.24.38a2.11,2.11,0,0,0,0-.56,24,24,0,0,1-.12-4,25.09,25.09,0,0,0-.33-6.53,12.72,12.72,0,0,1-.24-2.9c0-1.54-.07-3.08-.11-4.62,0-.24.05-.52-.26-.68a1,1,0,0,0-.29,0c-.23.09-.46.2-.69.31A21.68,21.68,0,0,0,29.91,5a12.41,12.41,0,0,1-1.39,1.19,2.61,2.61,0,0,1-2.08.66,5,5,0,0,0-3.21.66,6.07,6.07,0,0,1-2.37.69,1.32,1.32,0,0,1-.94-.09A2.87,2.87,0,0,0,17.34,7.86Zm-15.78-1s-.08,0-.12.07-.05-.2-.08-.3.17-.16.22-.06A.49.49,0,0,1,1.56,6.89Zm1.35,8.82a2.28,2.28,0,0,1,1.73.06C4.12,16.13,3.68,15.89,2.91,15.71ZM8,15.44a.71.71,0,0,1-.1-.14c.06-.09.11-.18.16-.27s.1.11.09.14A2.34,2.34,0,0,1,8,15.44Zm3.33,8.78a.3.3,0,0,1,.34.3c0,.07-.16.21-.19.19a.68.68,0,0,1-.25-.23C11.15,24.35,11.2,24.26,11.36,24.22ZM10.5,35.08s-.11-.11-.1-.14a2.54,2.54,0,0,1,.16-.28s.11.1.1.13S10.55,35,10.5,35.08Zm.27,3.84a1.34,1.34,0,0,1-.29-.15,1.3,1.3,0,0,1,.33-.07s.07.08.1.13S10.8,38.94,10.77,38.92Zm1.28-.68c-.05-.06-.12-.12-.11-.15a1.56,1.56,0,0,1,.16-.28,2.82,2.82,0,0,1,.07.31S12.09,38.2,12.05,38.24Zm.61.78c0-.05-.08-.1-.07-.13a1.38,1.38,0,0,1,.14-.27c0,.08.12.17.12.25S12.73,39,12.66,39ZM37.25,17.64s.09.09.08.13a1.13,1.13,0,0,1-.09.28c-.06-.06-.16-.13-.15-.17A.72.72,0,0,1,37.25,17.64ZM36.92,6.36a.46.46,0,0,1,.4-.24c.12,0,.2.24.31.37l-.38.16C37.05,6.59,36.8,6.6,36.92,6.36ZM22,33.12c.08,0,.14.11.21.17s-.09.1-.13.09a2.14,2.14,0,0,1-.28-.12C21.91,33.21,22,33.11,22,33.12Zm-.92,9.8c.07.08.13.25.09.3s-.33.11-.46,0a4.33,4.33,0,0,1-.37-.54l.25-.23A3.37,3.37,0,0,1,21.12,42.92Zm-.35-3.57s.07.08.1.12-.19.06-.29.07-.07-.08-.1-.12A2.46,2.46,0,0,1,20.77,39.35ZM18,28.82a1.8,1.8,0,0,1-.09.28c-.06-.06-.17-.13-.16-.17s.11-.16.16-.24S18,28.78,18,28.82Z" style="fill:#fff"/></g></g></svg>