<svg xmlns="http://www.w3.org/2000/svg" viewBox="0 0 84.07 42.8"><title>oklahoma</title><g id="Layer_2" data-name="Layer 2"><g id="_ÎÓÈ_1" data-name="—ÎÓÈ 1"><path d="M57.81,42.33A7,7,0,0,0,58,40.75c.22-1.49,1.14-1.88,2.34-1,.34.26.58.65,1,.77,1.09-.51,1.07-.5,1.94.3.61.56,1.24,1.1,1.89,1.61s1.08.49,1.55-.16a6.44,6.44,0,0,1,2.12-1.64,1.21,1.21,0,0,1,1.58.09.51.51,0,0,0,.5.18c.33-.15.47-.51.73-.75a1.78,1.78,0,0,1,2.74,0,1,1,0,0,0,.83.47c.36-.1.64-.52,1-.79a1.73,1.73,0,0,1,2.6.06c.67.53,1.35,1.07,2,1.58a5.25,5.25,0,0,0,2,1c.81.17,1.17-.09,1.2-.9a9.22,9.22,0,0,0,0-1.29,47.14,47.14,0,0,1-.06-8,23.73,23.73,0,0,0,0-3.77,28.23,28.23,0,0,1,0-4.41,13.47,13.47,0,0,0-.14-3.75c-.64-3.09-1.23-6.2-1.77-9.31-.29-1.63-.71-3.22-.85-4.88-.13-1.46-.46-2.9-.72-4.35-.13-.71-.28-.83-1-.89-.39,0-.79,0-1.18,0-9.71.11-19.41.12-29.11.11-2.27,0-4.53-.17-6.79,0-.79.07-1.58.1-2.37.1-3.89,0-7.77-.14-11.66-.17a.51.51,0,0,1,.26.31c0,.2-.23.2-.4.21s-.4,0-.32-.27A.47.47,0,0,1,28.11,1C27.4,1,26.68,1,26,1A43.46,43.46,0,0,1,19.84.68a49.36,49.36,0,0,0-6.76-.5A29.67,29.67,0,0,1,10,.16C7.4-.12,4.85.09,2.31,0A5.76,5.76,0,0,0,1.13.1a1.18,1.18,0,0,0-1,1.1,20.19,20.19,0,0,0,0,3.64,1,1,0,0,0,.75.4c1,.09,2,.2,3,.25,3,.16,6.09.15,9.14.35l0,0,.28-.13.11.17.29,0a47.19,47.19,0,0,0,5.7.17c3.1-.14,6.17.39,9.27.25h.1a1.13,1.13,0,0,1,1.1,1,5.7,5.7,0,0,1,.1,1.3c.28-.1.51-.45.87-.21a.32.32,0,0,1,.1.3c-.21.42-.6.25-.94.26l-.05,0c0,.1,0,.2,0,.3a66.31,66.31,0,0,0-.53,7.84c-.13,4.24.11,8.47.21,12.7a5,5,0,0,0,2.19,3.77,2.08,2.08,0,0,0,2.63-.17.88.88,0,0,1,1.4,0,3.42,3.42,0,0,1,.81,1.51,2,2,0,0,0,1.55,1.48,11.33,11.33,0,0,0,1.26.27,1.89,1.89,0,0,1,1.09.43,1.43,1.43,0,0,0,1.57.35,1.94,1.94,0,0,1,2.09.49,1.43,1.43,0,0,0,.41.19,3.18,3.18,0,0,1,2.78-.84c.56.07,1,.3,1,.91a.94.94,0,0,0,.2.6,3.11,3.11,0,0,1,1.05,1.72c.83-.23,1.4-.93,2.32-.84s1.43.76,2,1.14a.8.8,0,0,0,.61-.12,3.22,3.22,0,0,1,2.08-.39c.83.06,1,.26,1,1.08C57.6,41.7,57.44,42,57.81,42.33ZM81.55,12.85a1.92,1.92,0,0,1,.09.32s-.08.08-.12.12a1.31,1.31,0,0,1-.1-.32S81.5,12.89,81.55,12.85ZM80.69,11a.36.36,0,0,1,.25.13c.06.2-.06.33-.25.39l-.3-.14A2.18,2.18,0,0,1,80.69,11Zm-1,1a1.31,1.31,0,0,1,.1.32s-.08.08-.12.12a1.19,1.19,0,0,1-.1-.32S79.66,12.12,79.7,12.08ZM19.76,2.67c-.17,0-.34,0-.4-.21,0,0,.2-.09.3-.14s.35,0,.4.22A.71.71,0,0,1,19.76,2.67ZM31.9,8.86a.47.47,0,0,1-.29,0s-.06-.08-.09-.12l.3-.12C32,8.71,32,8.81,31.9,8.86Z" style="fill:#fff"/></g></g></svg>