<svg xmlns="http://www.w3.org/2000/svg" viewBox="0 0 66.96 53"><title>oregon</title><g id="Layer_2" data-name="Layer 2"><g id="_ÎÓÈ_1" data-name="—ÎÓÈ 1"><path d="M4.16,52.78c4.92.06,9.84.27,14.76.15a45.48,45.48,0,0,0,5.6-.06,57.19,57.19,0,0,1,7.4-.33c1.59,0,3.16.07,4.74.11,2.67.06,5.29-.41,7.93-.55,5.49-.27,11-.72,16.47-.74a27.07,27.07,0,0,0,3.11-.21c1-.14,1.41-.61,1.46-1.66a4.66,4.66,0,0,0,0-.65c-.46-4.61-.7-9.24-.78-13.87-.06-3.21-.56-6.45.29-9.64A1.1,1.1,0,0,0,64.58,24a13.52,13.52,0,0,1-1.22-.88,3.33,3.33,0,0,1-.79-4c.45-.89.89-1.8,1.32-2.71a2.25,2.25,0,0,0,.33-1.13,5.47,5.47,0,0,1,.64-2.47,13.12,13.12,0,0,0,1.23-3.55,7.94,7.94,0,0,1,.61-2.07A2.48,2.48,0,0,0,65.78,4a7.38,7.38,0,0,1-1.84-1.63,1.09,1.09,0,0,0-1.22-.48,10.08,10.08,0,0,1-3,.11,21.64,21.64,0,0,0-2.79.15,37,37,0,0,1-5.37.27,13.61,13.61,0,0,0-6.16.67c-.79.33-1.63.52-2.43.85-1.07.44-2.14.84-3.23,1.2a20.17,20.17,0,0,0-4,1.53,2.58,2.58,0,0,1-2.67.16,1.61,1.61,0,0,0-1.65.13c-.28.16-.56.33-.85.46a12.19,12.19,0,0,1-4,.58,1.45,1.45,0,0,1-.78-.33,2.67,2.67,0,0,0-1.87-.35l-2.24.32a2.42,2.42,0,0,0-1.19.46,6,6,0,0,1-4.72,1c-.64-.08-1.27-.24-1.91-.36a1.42,1.42,0,0,1-1.24-1.3c-.09-.6-.17-1.21-.25-1.81-.13-.93-.22-1.86-.37-2.78s-.45-1.08-1.31-1.11c-.54,0-1.07,0-1.61,0a1.06,1.06,0,0,1-1-.51C7.69.34,7,.25,6.28.09,5.19-.17,4.84.12,4.77,1.23c-.19,3.08-.16,6.17-.22,9.26a10.38,10.38,0,0,1-.31,2.89,43.1,43.1,0,0,0-.7,4.67,1.8,1.8,0,0,0,.26,1.24,1.58,1.58,0,0,1,.15,1c-.21,1.2,0,2.44-.41,3.61a2.77,2.77,0,0,0,0,.65c0,.68-.08,1.36-.16,2A33,33,0,0,0,3,31.89a2.64,2.64,0,0,1-.42,1.75c-.76,1-.79,2.29-1.09,3.44a12.89,12.89,0,0,1-.88,2.85A4.9,4.9,0,0,0,0,41.78a3.77,3.77,0,0,0,.69,2.54,2.06,2.06,0,0,1,.21,2.23,3,3,0,0,0-.19,2c.11.49.22,1,.29,1.32l.2.67A2.62,2.62,0,0,0,4.16,52.78Zm58.28-23.4c.05,0,.12.06.14.11a.31.31,0,0,1-.16.44l-.27-.12Zm-14-25.65s0,.19,0,.27-.16.15-.24.23l-.16-.29C48.12,3.76,48.23,3.64,48.43,3.73ZM46.31,25.58s.14.06.14.09,0,.22,0,.33l-.16-.1Zm-.37,1.1c1,.95,1,.95.29,3A3.89,3.89,0,0,1,45.94,26.68Zm-5.25-1.93c.05-.15.11-.33.31-.31s.17.18.16.26a.31.31,0,0,1-.34.29C40.65,25,40.61,24.9,40.69,24.75ZM32.56,31a1.55,1.55,0,0,1,.3,0c0,.07-.08.19-.13.2a.66.66,0,0,1-.25-.08S32.53,31,32.56,31Zm-3.31,9.47c.44.06.1.42.15.64h0v0c.46,0,.59-.57,1-.69a.62.62,0,0,1,.67.13.66.66,0,0,1,.14.68A1.11,1.11,0,0,1,30.1,42c-.6,0-.54-.53-.68-.9,0,0,0,0,0,0v0c-.22.06-.53.18-.59,0S28.92,40.41,29.25,40.46Zm-13.7-19.4a1.44,1.44,0,0,1,1.09,1.34s0,0,0,0l0,.06c.16,0,.31.07.35.24s-.07.24-.14.16a1.53,1.53,0,0,1-.21-.4s0,0,0,0a.05.05,0,0,1,0,0C15.8,22.36,15.62,21.79,15.55,21.06Zm-2.18-3c.26-.11.46,0,.67.18s.18.21,0,.29a.66.66,0,0,1-.81-.2C13.29,18.19,13.31,18.05,13.37,18ZM22,49.1c.08,0,.17.07.26.1a2,2,0,0,1-.43.24c-.07,0-.17-.06-.31-.12A2.81,2.81,0,0,1,22,49.1Zm-.62,2.23c.05,0,.13.06.13.09a1.1,1.1,0,0,1,0,.31l-.14-.1ZM4.71,33.42a3.31,3.31,0,0,1,.47.22L5,33.88c-.2,0-.37,0-.43-.23S4.69,33.41,4.71,33.42ZM3.57,34.78c.11,0,.23,0,.34,0s-.06.15-.09.15a1.86,1.86,0,0,1-.34,0S3.54,34.79,3.57,34.78Z" style="fill:#fff"/></g></g></svg>