<svg xmlns="http://www.w3.org/2000/svg" viewBox="0 0 54.26 31.68"><title>pennsylvania</title><g id="Layer_2" data-name="Layer 2"><g id="_ÎÓÈ_1" data-name="—ÎÓÈ 1"><path d="M1.15,3A5.8,5.8,0,0,0,.84,4.44C.76,5.4.65,6.37.57,7.34a28,28,0,0,0-.08,5.49,13.9,13.9,0,0,1-.13,4,30,30,0,0,0-.34,4,46.35,46.35,0,0,0,.25,5.89l.14,0c.15.07.33.21.36.34s-.14.3-.35.3l-.1-.05c.08,1,.16,2.07.2,3.11a1.1,1.1,0,0,0,.28.71,5,5,0,0,0,2,.34c2.17-.05,4.34.1,6.51-.08a107.39,107.39,0,0,1,11.2-.4c4.41.09,8.82.11,13.24.21,1.71,0,3.43.12,5.15.26a19.87,19.87,0,0,0,5.81-.15,2,2,0,0,0,1.16-.59,3.42,3.42,0,0,1,3.25-1.14,3.35,3.35,0,0,0,3.27-1.51c.47-.59.92-1.18,1.38-1.77a1,1,0,0,0,.1-1.42,6.79,6.79,0,0,0-.65-.77,16.25,16.25,0,0,1-2.48-3.45A2.57,2.57,0,0,1,51,17.8a1.42,1.42,0,0,0,.39-.67.87.87,0,0,0-.19-.51,1.93,1.93,0,0,1,.34-2.56,7.12,7.12,0,0,0,2.22-3.26c.1-.38.53-.64.5-1.07a.7.7,0,0,0-.41-.4,2.6,2.6,0,0,1-1.5-2.09A11.6,11.6,0,0,0,52,5.84,2.64,2.64,0,0,0,50.3,4a2.5,2.5,0,0,1-1.22-.78,2.36,2.36,0,0,0-2.52-.78,19.28,19.28,0,0,1-3.13.19C40.7,2.56,38,2.48,35.24,2.5c-8.89.07-17.79.19-26.69.29C7.45,2.8,7,2.38,6.9,1.28V1.17l-.1,0A1.3,1.3,0,0,0,6.7,1l.2,0a1.31,1.31,0,0,0-.23-1,1.1,1.1,0,0,0-.35.06A39.64,39.64,0,0,1,1.78,2.27,1.12,1.12,0,0,0,1.15,3Zm50,19.56c0,.05.1.12.09.15a2.53,2.53,0,0,1-.18.27s-.11-.12-.09-.15A2.11,2.11,0,0,1,51.19,22.57Zm-3.77,5.48a.28.28,0,0,1,.32.34.33.33,0,0,1-.23.24c-.21,0-.31-.12-.32-.33S47.33,28.07,47.42,28.05Zm.9-15.21s.08.09.12.15a2.52,2.52,0,0,1-.37,0s-.06-.1-.1-.16A1.45,1.45,0,0,1,48.32,12.84Zm-9.21,6.44a.44.44,0,0,1,.22.26c.05.23-.13.33-.31.34s-.31-.16-.3-.39S38.91,19.2,39.11,19.28Zm-4.93,2.17a.42.42,0,0,1,.47.16c.22.26.7.36.51.84,0,.08-.21.13-.32.14a.65.65,0,0,1-.7-.67C34.12,21.76,34,21.58,34.18,21.45Zm-1.09.15a.55.55,0,0,1,.26.24c.07.13,0,.32-.14.28s-.26-.21-.42-.36C32.92,21.69,33,21.58,33.09,21.6Zm-.72,1.8c0,.07.05.15.08.22a1.37,1.37,0,0,1-.29,0s-.06-.09-.09-.14Zm-6.69,2.33c.22,0,.22.26.11.37a2.76,2.76,0,0,1-.56.38c0-.11-.05-.21-.07-.32A.63.63,0,0,1,25.68,25.73Zm-1-1.9L25,24c-.05,0-.12.1-.15.09a1.79,1.79,0,0,1-.28-.2ZM23,27.53a.71.71,0,0,1,.28-.1v0h0a2,2,0,0,1,.19-.48.35.35,0,0,1,.32-.09c.25.13.13.3,0,.4a1.82,1.82,0,0,1-.48.17s0,0,0,0h0a1.46,1.46,0,0,1-.07.3A.81.81,0,0,1,23,28C22.79,27.83,22.82,27.66,23,27.53Zm-1.53-5.84c0,.1.13.22.1.3a.28.28,0,0,1-.4.22c-.08,0-.11-.16-.18-.28ZM16.78,9.75a1.92,1.92,0,0,1,0,.32s-.09.07-.14.1,0-.22-.05-.33Zm-1,.49s.06.1.1.15a2.2,2.2,0,0,1-.36,0s-.06-.1-.09-.16A2,2,0,0,1,15.81,10.24ZM7,31.52s0-.09-.08-.14a1.73,1.73,0,0,1,.32,0s.06.09.08.14A1.66,1.66,0,0,1,7,31.52ZM9.17,20.7a2.68,2.68,0,0,1,.28.18L9.3,21,9,20.79C9.08,20.76,9.14,20.69,9.17,20.7Zm-1.05-.22c.08,0,.14.14.21.21s-.12.1-.15.08a1.4,1.4,0,0,1-.29-.16C8,20.56,8.06,20.47,8.12,20.48Zm-2-1.13a.33.33,0,0,1,.14.29.36.36,0,0,1-.23.25c-.21,0-.32-.11-.33-.32S5.88,19.25,6.08,19.35Zm-2,4.77c-.3.14-.72.49-.88.1s.31-.36.59-.29C3.9,24,4,24.05,4.08,24.12Zm.37-8.33c.33.08.77,0,.88.45a.32.32,0,0,1-.18.27c-.44.16-.59-.32-.9-.45,0,0-.06-.1-.12-.22A2,2,0,0,1,4.45,15.79ZM5.6,8.67c0,.05.1.12.09.16a1.79,1.79,0,0,1-.2.28L5.4,8.94ZM2.65,23.42c0,.11.09.24.06.33a.31.31,0,0,1-.43.17c0-.09-.11-.25-.09-.26A3.33,3.33,0,0,1,2.65,23.42Zm.64-6.27c.08,0,.13.13.19.2s-.11.1-.14.08a1.28,1.28,0,0,1-.27-.16C3.15,17.23,3.23,17.14,3.29,17.15Z" style="fill:#fff"/></g></g></svg>