<svg xmlns="http://www.w3.org/2000/svg" viewBox="0 0 46.08 39.27"><title>south_carolina</title><g id="Layer_2" data-name="Layer 2"><g id="_ÎÓÈ_1" data-name="—ÎÓÈ 1"><path d="M45.17,14.58,45,14.42l-.67-.72a2,2,0,0,1-.54.19,1.34,1.34,0,0,1,.22-.54c-2.16-2.33-4.46-4.53-6.4-7.06A3.05,3.05,0,0,0,35.3,5.11C33.19,5,31.07,5.06,29,5.05a14.73,14.73,0,0,1-3.11-.17c-.79-.18-1.3-.53-1.35-1.41a4.26,4.26,0,0,0-.28-1,1.26,1.26,0,0,0-.8-.82,5,5,0,0,1-2.12-1C21.2.55,21,.55,20.88.53A31.77,31.77,0,0,0,15.74,0,30.86,30.86,0,0,0,6.58,1.13,11.9,11.9,0,0,0,3.3,2.46a20.86,20.86,0,0,1-2,1.28A2.48,2.48,0,0,0,.12,5.07a1,1,0,0,0,.05,1C.94,7,1.6,8,2.85,8.33A2.24,2.24,0,0,1,4.24,9.44c.68,1.18,1.44,2.33,2.05,3.54a18.07,18.07,0,0,0,1.88,2.93h0c.55.71,1.14,1.4,1.74,2.07L10,18a.23.23,0,0,1,.06.12l1.32,1.45a19.25,19.25,0,0,1,1.77,1.72,43.9,43.9,0,0,1,2.87,4,11.84,11.84,0,0,0,1.37,1.93,7.64,7.64,0,0,1,2,4.32,2.77,2.77,0,0,0,.73,1.63,6.69,6.69,0,0,1,1.2,2.4c.21.61.37,1.24.62,1.83a2.59,2.59,0,0,0,2.08,1.8c.23-.79,1.14-.54,1.64-1,0-.55-.39-.86-.6-1.27-.34-.67-.11-1.11.64-1.19a1.08,1.08,0,0,1,1,.31,1.46,1.46,0,0,0,.7.55.89.89,0,0,0,.77-1,1,1,0,0,0-.61-.48c-.35-.15-.66-.34-.63-.78a1,1,0,0,1,.74-.84,1.13,1.13,0,0,1,1,0,1.86,1.86,0,0,0,1.85-.14,8.32,8.32,0,0,1,2.2-.86A1.3,1.3,0,0,0,34,31.3c.06-.46.29-.92.76-.93.92,0,1.34-.77,2-1.2a1.24,1.24,0,0,0,.44-.84c.29-1.36.31-1.37,1.7-1.08.07,0,.14,0,.26,0,.46-.55.94-1.12,1.41-1.7a1.13,1.13,0,0,0,.2-1,1.29,1.29,0,0,1-.12-.8l.42-.33L41,23.3h.14a2.37,2.37,0,0,0,.56-.68,29.5,29.5,0,0,1,3.52-5.15C46.37,16.08,46.37,15.94,45.17,14.58ZM7.26,10.16a2,2,0,0,1-.06-.32s.09-.06.14-.09a1.54,1.54,0,0,1,0,.31S7.31,10.13,7.26,10.16Zm2.07-.69s-.06-.09-.09-.14a1.65,1.65,0,0,1,.32-.06s.07.09.1.14A1.28,1.28,0,0,1,9.33,9.47Zm.58,3.39c-.06-.12-.16-.23-.13-.29a.3.3,0,0,1,.42-.18c.05,0,.08.09.12.13Zm1.58,6.74c-.07,0-.16-.2-.14-.22a4.09,4.09,0,0,1,.38-.33c0,.12.14.22.12.3S11.68,19.66,11.49,19.6Zm.12-8.22c-.16,0-.32-.05-.34-.25,0,0,.2,0,.31-.07s.33.06.34.26A.78.78,0,0,1,11.61,11.38Zm6.16,1.83a1,1,0,0,0-.17-.1A.42.42,0,0,1,17.77,13.21Zm2.29-1a1.94,1.94,0,0,1,.07.33s-.1.06-.15.09-.05-.22-.07-.32Zm-1.18-1.43c.1,0,.17.13.25.19a2,2,0,0,1-.48,0c-.08,0-.16-.12-.29-.23A2.24,2.24,0,0,1,18.88,10.82Zm-4.8-.17c-.06,0-.06-.17-.1-.29l.43-.21c0,.11.08.22.05.31A.27.27,0,0,1,14.08,10.65Zm1.15,5c-.08,0-.22-.09-.26-.18s0-.33.22-.37a.37.37,0,0,1,.28.17C15.54,15.49,15.43,15.62,15.23,15.68ZM28.48,17.3a1.25,1.25,0,0,1-.29.11,3,3,0,0,0,0-.31c.13-.13.28-.19.42,0S28.54,17.25,28.48,17.3ZM29,25.84s-.06-.1-.09-.15,0-.25.18-.26.08.09.09.15A.19.19,0,0,1,29,25.84Zm3.33.53c-.35,0-.39-.32-.46-.57l.23-.25a6.65,6.65,0,0,1,.36.56C32.52,26.16,32.4,26.37,32.36,26.37Zm2.56-4.62a2,2,0,0,1-.33.16c0-.11-.05-.21-.08-.32.12-.15.26-.24.44-.12S35.06,21.66,34.92,21.75Zm.86,3.57a.94.94,0,0,1-.31.09l0-.33c.14-.13.3-.18.44,0S35.85,25.27,35.78,25.32Zm3.61-8.54-.15-.23.42-.22c0,.05.08.11.08.16A.3.3,0,0,1,39.39,16.78ZM42.87,15a2,2,0,0,1-.06-.34s.1-.06.15-.1a2.21,2.21,0,0,1,.06.34S42.92,15,42.87,15Z" style="fill:#fff"/></g></g></svg>