<svg xmlns="http://www.w3.org/2000/svg" viewBox="0 0 66.67 42.28"><title>south_dakota</title><g id="Layer_2" data-name="Layer 2"><g id="_ÎÓÈ_1" data-name="—ÎÓÈ 1"><path d="M30.47.56l-.91,0a.31.31,0,0,1,0,.24.28.28,0,0,1-.11.14L29.07.58a.31.31,0,0,0,.09-.07C26.26.4,23.36.29,20.45.33c-2.48,0-5,0-7.43,0C9.78.24,6.56.1,3.33,0A1.29,1.29,0,0,0,1.86,1.24C1.77,1.81,1.74,2.39,1.7,3a41.66,41.66,0,0,1-.53,5.57C1,9.27.89,10,.76,10.76a37,37,0,0,0-.21,5.37c-.09,4.53-.54,9-.5,13.57,0,1.44-.1,2.88,0,4.31.06.94.23,1.12,1.14,1.26a60.4,60.4,0,0,0,7,.74c1.62.06,3.23.15,4.85.18,2.16.05,4.3.3,6.45.4,2.51.13,5,.12,7.54.15a49.88,49.88,0,0,1,7.43.31,3,3,0,0,0,1.07,0,32.62,32.62,0,0,1,6.77-.27c2.33.05,4.66.31,7,.48a2.14,2.14,0,0,1,1.65.91c.55.83,1.46.84,2.26,1.09a.54.54,0,0,0,.51-.12A4.74,4.74,0,0,1,57,38.36a6.53,6.53,0,0,1,4,1,1.47,1.47,0,0,0,.59.24,8.3,8.3,0,0,1,3.42,2c.2.17.4.36.72.66a2.86,2.86,0,0,0-.13-.48,2.36,2.36,0,0,1,.3-3.39A2.07,2.07,0,0,0,66.46,37,2.4,2.4,0,0,0,65.83,35a1.52,1.52,0,0,1-.37-2,1.54,1.54,0,0,0,.15-1,1.71,1.71,0,0,1,.56-1.55,1.69,1.69,0,0,0,.5-1.37c-.15-5.12-.28-10.24-.42-15.36a.35.35,0,0,1-.18,0S66,13.6,66,13.5a.8.8,0,0,1,.26-.4c0-1.34-.07-2.68-.11-4A1.9,1.9,0,0,0,65.9,8c-.3-.3-.69-.28-1-.4a3.4,3.4,0,0,1-1.4-5.33c.28-.31.65-.58.63-1.15a1.28,1.28,0,0,0-.87-.18l-9,0c-1.58,0-3.16.05-4.74,0C45.45.89,41.36.77,37.26.68,35,.62,32.74.64,30.47.56ZM4.72,4.76c.07,0,.19.1.2.16a1.19,1.19,0,0,1-.1.28L4.61,5C4.65,4.94,4.69,4.85,4.72,4.76Zm-.46,19c0,.25-.1.51-.41.44s-.33-.31-.32-.56a.73.73,0,0,1,.5-.69C4.32,23.15,4.26,23.47,4.26,23.75Zm.33-17C4.31,6.67,4,6.57,4,6.14c.13-.1.3-.32.41-.29.29.07.59.23.54.61C4.94,6.65,4.81,6.81,4.59,6.75ZM27.27,35.83s-.1-.09-.09-.13a1.78,1.78,0,0,1,.12-.29c.05.08.14.16.15.25S27.34,35.77,27.27,35.83ZM36,21c0,.09-.15.18-.25.22s-.33-.07-.38-.26.12-.35.32-.33A.32.32,0,0,1,36,21Zm25.11,15a1.5,1.5,0,0,1,.43-.09s0,0,.05,0l.06,0,0,.05-.07,0c-.06.15-.14.28-.31.27S61,36.11,61.11,36.06ZM56.64,10.14s.08.08.12.12l-.24.17a1.63,1.63,0,0,1-.17-.2A2.46,2.46,0,0,1,56.64,10.14ZM53.92,17c.57-.18.55.25.58.6h0s0,0,0,0c.79-.22,1.05.68,1.68.8,0,.48-.38.78-.62,1-.52.57-.67.13-.66-.4-.21,0-.57.05-.57-.15s.34-.18.56-.2c-.2-.34-.48-.65-.39-1.09h0v0a.42.42,0,0,1-.16,0c-.27,0-.63.16-.75-.23C53.57,17.24,53.78,17,53.92,17Zm-.5,5c0,.1-.07.19-.1.29s-.11-.09-.11-.12a1.72,1.72,0,0,1,.11-.29S53.43,21.92,53.42,22ZM52.94,18a1.21,1.21,0,0,1,.3.11l-.13.12-.3-.12S52.9,18,52.94,18Zm-1.66-.69s.07.07.11.11a1.34,1.34,0,0,1-.3.12s-.07-.08-.11-.12A1.54,1.54,0,0,1,51.28,17.34Zm0,.73a.6.6,0,0,1,.46.5s-.2.11-.32.12-.5,0-.53-.34C51,18.17,51.12,18,51.32,18.07Zm0,16s.08.07.12.11a1.12,1.12,0,0,1-.31.1s-.07-.07-.11-.11A1.18,1.18,0,0,1,51.27,34ZM44.48,5.94c.29,0,.71-.12.78.26s-.45.53-.74.64-.73-.08-.77-.33C43.68,6.07,44.1,6,44.48,5.94ZM40.11,8.36a.29.29,0,0,1,.44.13.34.34,0,0,1-.22.42A.3.3,0,0,1,40,8.64.36.36,0,0,1,40.11,8.36Z" style="fill:#fff"/></g></g></svg>