<svg xmlns="http://www.w3.org/2000/svg" viewBox="0 0 81.58 21.84"><title>tennessee</title><g id="Layer_2" data-name="Layer 2"><g id="_ÎÓÈ_1" data-name="—ÎÓÈ 1"><path d="M60.31,14.82a6.12,6.12,0,0,0,1.59-.65A1.85,1.85,0,0,1,63,13.89a2.65,2.65,0,0,0,2.32-1.06c1.11-1.1,2.14-2.35,3.73-2.84a.86.86,0,0,0,.51-.53A5.91,5.91,0,0,1,72.24,7a1.11,1.11,0,0,1,1-.07c.36.14.69.4,1.13.25a7.85,7.85,0,0,0,.76-1.28,1.86,1.86,0,0,1,2.62-.68c.22.11.39.33.65.29A1,1,0,0,0,79,5c.57-.87,1.19-1.7,1.83-2.52A3.78,3.78,0,0,0,81.58.31,1.57,1.57,0,0,0,80.24,0c-3,.2-5.95.42-8.92.64-1.79.13-3.58.39-5.37.41-3.91,0-7.81.33-11.72.44-1.76.05-3.52.18-5.28.23-3.51.1-7,.17-10.54.27-4.31.12-8.61.44-12.92.26a6,6,0,0,0-2,.19,1.85,1.85,0,0,1-1.81-.14,1.23,1.23,0,0,0-1.44,0,3,3,0,0,0-.09.41c-.16,1.39-.28,1.53-1.64,1.54A89.57,89.57,0,0,1,8.79,4C8.19,4,7.58,3.92,7,3.89a1.42,1.42,0,0,0-1.24.3,16.49,16.49,0,0,1-1,2.93,5.1,5.1,0,0,0-.64,2.37,7.5,7.5,0,0,1-1.27,3.83C2.09,14.58,1.13,15.71.36,17A1.82,1.82,0,0,0,.13,18.7a3.91,3.91,0,0,1,.24,1.37c0,1.2.14,1.3,1.37,1.43.14,0,.28,0,.43,0a32.93,32.93,0,0,0,6.66.14c1.75-.19,3.51.11,5.27,0a21.81,21.81,0,0,1,3.13-.05c4.05.25,8.1.33,12.16.18,2.4-.09,4.81,0,7.22-.13,5.73-.23,11.46-.77,17.21-.78,2.17,0,1.83.26,2.44-1.75A1.83,1.83,0,0,1,58,17.72c.35,0,.73.05,1.07-.22A2.65,2.65,0,0,0,59.37,16,1.18,1.18,0,0,1,60.31,14.82ZM74.44,2.65c.06-.15.17-.16.28,0a1.89,1.89,0,0,1,.19.3l-.26.14C74.48,3,74.36,2.86,74.44,2.65ZM69,5.31s.07.08.1.12a1.09,1.09,0,0,1-.3.07s-.07-.08-.11-.12A1.08,1.08,0,0,1,69,5.31ZM11.36,17.49l-.29-.15s.11-.11.14-.1a1.47,1.47,0,0,1,.28.14Zm1.37-9.32A1.45,1.45,0,0,1,12.56,8s0-.1,0-.15.19-.14.22,0S12.77,8.06,12.73,8.17Zm3.9.5c-.09,0-.18-.11-.32-.21a2.77,2.77,0,0,1,.54-.05c.09,0,.17.12.26.18A2,2,0,0,1,16.63,8.67Zm4.1,3c-.07,0-.13-.1-.2-.16s.1-.1.13-.09a1.69,1.69,0,0,1,.28.12C20.87,11.55,20.79,11.64,20.73,11.63Zm.42,1.43-.09-.15.15-.26s.1.1.09.13A1.51,1.51,0,0,1,21.15,13.06Zm1.29,3.19s-.07-.09-.1-.13a1.16,1.16,0,0,1,.31-.07s.07.08.11.13A1.23,1.23,0,0,1,22.44,16.25Zm1,4.45c-.05-.07-.09-.15-.13-.21l.18-.17a1.37,1.37,0,0,1,.07.29S23.52,20.67,23.48,20.7Zm1.94-2.32-.28-.15c.05,0,.1-.1.14-.1a1.83,1.83,0,0,1,.28.14Z" style="fill:#fff"/></g></g></svg>