<svg xmlns="http://www.w3.org/2000/svg" viewBox="0 0 136.18 137.06"><title>texas</title><g id="Layer_2" data-name="Layer 2"><g id="_ÎÓÈ_1" data-name="—ÎÓÈ 1"><path d="M134.26,80.22a9.65,9.65,0,0,1-.14-3.43,1.81,1.81,0,0,1,.58-1.23,4,4,0,0,0,.84-1.25,6.33,6.33,0,0,0,.18-5.13c-.68-1.69-1.58-3.28-2.33-4.94a12.13,12.13,0,0,1-.72-1.55A8.24,8.24,0,0,0,131,59.46a3.49,3.49,0,0,1-.89-2.15c0-.57-.12-1.14-.14-1.72a66.77,66.77,0,0,1,.13-7.21c.23-3.16-.06-6.32-.14-9.47a.73.73,0,0,0-.29-.63c-.55-.26-1,.12-1.55.33-.86.36-1.29.3-1.75-.47a1.64,1.64,0,0,0-1.62-.82,5.06,5.06,0,0,1-2.56-.73,12.49,12.49,0,0,1-1.59-1.1,13.88,13.88,0,0,0-1.91-1.32,1.93,1.93,0,0,0-1,.66,1.92,1.92,0,0,1-2.79,0c-.22-.18-.36-.46-.68-.47a1.1,1.1,0,0,0-.62.41c-1.3,1.45-1.3,1.45-3,.63-.52.49-1,1-1.62,1.49a2.25,2.25,0,0,1-3,.25A16.06,16.06,0,0,1,104.36,36a1.06,1.06,0,0,0-1.07-.33,1.73,1.73,0,0,1-1.76-.55c-.24-.19-.36-.55-.77-.55-.34.32-.16.74-.2,1.11a1.72,1.72,0,0,1-1.47,1.62,1.54,1.54,0,0,1-1.86-1.08c-.12-.29-.11-.66-.58-.81a3,3,0,0,1-2,.22c-.68-.25-1.13-.88-1.79-1.07a3.11,3.11,0,0,0-1.08.58A1.71,1.71,0,0,1,89,34.06a9.53,9.53,0,0,0-.83-1.5c-.2-.38-.56-.4-.94-.27a2.35,2.35,0,0,0-.7.5,1.45,1.45,0,0,1-2.13.1,2.26,2.26,0,0,0-1.68-.54,2.33,2.33,0,0,1-1.47-.23A11.23,11.23,0,0,0,78.6,31a3.08,3.08,0,0,1-2.06-1.9,1.08,1.08,0,0,0-.5-.71l-.49.14a3.76,3.76,0,0,1-3.4-.46,6.74,6.74,0,0,1-3.29-5.62c0-.46,0-.93,0-1.4.12-2.94.09-5.89,0-8.84a81.27,81.27,0,0,1,0-8.83,5.56,5.56,0,0,0-.05-1.29,2.81,2.81,0,0,0-.08-.4c-.47.43-.61.35-1.3-.13a1.94,1.94,0,0,1,1-.29,1.19,1.19,0,0,0-.65-.19c-2-.11-4-.38-6-.29C60.19.88,58.61.82,57,.75,54.34.62,51.65.4,49,.38A37.26,37.26,0,0,1,42.72,0a5.55,5.55,0,0,0-1.08,0,.65.65,0,0,0-.71.65,7.71,7.71,0,0,0,0,1,29.63,29.63,0,0,1-.13,3.77,64.4,64.4,0,0,0-.41,7.21c0,3.38-.48,6.73-.74,10.1-.1,1.29-.17,2.58-.24,3.87-.18,3.23-.39,6.46-.53,9.69s-.39,6.38-.77,9.55-.79,6.42-1,9.65A4.25,4.25,0,0,1,37,56.52c-.37,1.18-.64,1.4-1.85,1.32A17,17,0,0,1,33,57.59c-1.6-.31-3.23-.16-4.84-.35a46.38,46.38,0,0,0-6.23-.45,58.76,58.76,0,0,1-7.73-.59C10.79,55.81,7.41,55.41,4,55A13,13,0,0,0,.89,55c-.47.06-.83.26-.88.78a.87.87,0,0,0,.63,1,4.12,4.12,0,0,1,2.64,3.51,1.14,1.14,0,0,0,.84,1.11,5.43,5.43,0,0,1,1.48.87A25.72,25.72,0,0,1,8.49,65a5.41,5.41,0,0,1,1.6,2.64A1.7,1.7,0,0,0,11.34,69a3.8,3.8,0,0,1,1.77,1.18A18.67,18.67,0,0,0,16.33,73a2,2,0,0,1,1,2.12,2.91,2.91,0,0,0,.78,2.37,8.14,8.14,0,0,1,.81,1.14c.49.82.46,1.15-.28,1.77a1.61,1.61,0,0,0-.51,2,11.43,11.43,0,0,0,.51,1.06,11.51,11.51,0,0,1,.74,1.44,2.71,2.71,0,0,0,2,2,1.65,1.65,0,0,1,1.21,1A3.38,3.38,0,0,0,25.29,90a3.87,3.87,0,0,1,2,1.13,2.53,2.53,0,0,0,1.23.83,5.52,5.52,0,0,1,2,1c.85.59,1.71,1.18,2.58,1.76a1.29,1.29,0,0,0,1.07.37c.39-.45.57-1.18,1.16-1.56a2.78,2.78,0,0,0,1.18-2.08,8,8,0,0,1,1.07-2.91,3.46,3.46,0,0,0,.6-1.38,2.14,2.14,0,0,1,2.05-2,4.55,4.55,0,0,0,1.92-.67,2.24,2.24,0,0,1,3.12.25,1.55,1.55,0,0,0,1.6.36l.62-.18a1.49,1.49,0,0,1,1.6.31,1.37,1.37,0,0,0,1.76.29,1.11,1.11,0,0,1,1.44.35c.57.64,1.19,1.26,1.71,1.94A23.35,23.35,0,0,0,58,91.68c.41.34.86.64,1.29,1a1.9,1.9,0,0,1,.9,1.41,7.08,7.08,0,0,0,1.33,3.49,17.64,17.64,0,0,1,2.75,5.81.86.86,0,0,0,.12.3,2.67,2.67,0,0,1,.43,1.85A22.05,22.05,0,0,1,69,110.36a5.78,5.78,0,0,1,.79,1.41,2.22,2.22,0,0,0,1.43,1.46,4,4,0,0,1,1.76,1.7c.35.54.07,1.13-.1,1.67a1.54,1.54,0,0,0,.61,1.88c.73.55.73.72.39,1.56a2,2,0,0,1-.14.3,1.27,1.27,0,0,0,.08,1.41c.6,1,1.14,2,1.78,3a5.44,5.44,0,0,1,1,2.76,2.1,2.1,0,0,0,1.69,2.09,7.19,7.19,0,0,1,2.59,1.3,1.81,1.81,0,0,0,1.21.37,3,3,0,0,1,1.91.63c.68.48,1.33,1,2,1.41,1.3.76,2.63,1.39,4.1.33a1.23,1.23,0,0,1,1.34,0,10.34,10.34,0,0,1,3.93,2.93c.2.28.39.63,1,.54,0-.51.58-.8.58-1.36a3.38,3.38,0,0,0-.44-2.27,3.67,3.67,0,0,1-.47-1.3,2.33,2.33,0,0,0-.4-1,2.7,2.7,0,0,1-.54-1.92c0-.51,0-1,.08-1.51a2.6,2.6,0,0,0,0-.56c-.1,0-.19-.1-.29-.15l.24-.11a1.5,1.5,0,0,0-.33-.59c-.76-.78-.73-1.85-1.11-2.77a.83.83,0,0,1,.24-1,4.56,4.56,0,0,0,1.36-2.11.86.86,0,0,0-1.16-.69,1.76,1.76,0,0,1-2.11-1.14.87.87,0,0,1,.85-.76,3.11,3.11,0,0,1,1.48.15c.31.11.67.24.93,0,.7-.61,1.78-.91,1.73-2.25-.13-.33-.5-.72-.48-1.25a1.45,1.45,0,0,0-1-1.41c-.91-.49-1-.86-.67-2a4.37,4.37,0,0,1,1.44-.32c.58,0,.9.54,1.43.68a4.69,4.69,0,0,0,1-1.78,1.17,1.17,0,0,1-.27-.15,1.16,1.16,0,0,1,.33-2.1,2.22,2.22,0,0,1,2.23,0,2.16,2.16,0,0,0,1.14-1.16,5.45,5.45,0,0,1-.51-.81,1.38,1.38,0,0,1,.27-1.41c.35-.24.78-.1,1.29.44.69.71.69.71,1.65.32l.4-.14c.36-.08.39.49.78.35a1.28,1.28,0,0,0-.56-1.27,5.06,5.06,0,0,1-1.49-2.08.73.73,0,0,1,.25-1c.39-.25.68-.05.91.27a1.6,1.6,0,0,0,1.37.76,1.56,1.56,0,0,0,.34-.23,1.4,1.4,0,0,1,1.86-.18c.69.36,1.43.62,2.12.92a6.12,6.12,0,0,0,1.72-1c0-.47.14-1,.8-1.16,2.1-.51,3.65-1.94,5.29-3.21a2.66,2.66,0,0,0,1.06-1.82,1.9,1.9,0,0,1,1-1.44,6.49,6.49,0,0,0,1.06-.74,1.29,1.29,0,0,0,.32-1.82c-.25-.48-.54-.94-.82-1.4a2,2,0,0,1-.16-2c.54-.35,1,.16,1.38.06s.46-.41.65-.62c.82-.89,1.26-.86,1.91.16a2,2,0,0,1,.13.39c-.21.61-.79,1.1-.49,1.79a1.85,1.85,0,0,0,2.32,0,11.39,11.39,0,0,1,4.19-1.87,2.68,2.68,0,0,0,.3-.12,1.32,1.32,0,0,0,.94-1.29,4,4,0,0,1,1-2.57A3.32,3.32,0,0,0,134.26,80.22ZM13,59.08a.49.49,0,0,1-.63.18c-.48-.22-.6-.72-.94-1.26a2,2,0,0,1,1.45.48A.37.37,0,0,1,13,59.08Zm4.15,12.49c-.11,0-.29-.06-.3-.11,0-.23.16-.22.3-.22s.29.06.3.11C17.51,71.59,17.3,71.53,17.17,71.57Zm17.32-9.66-.3-.14s.09-.12.12-.11a1.25,1.25,0,0,1,.3.12Zm5.9-7.8-.3-.13s.1-.11.13-.1a1.82,1.82,0,0,1,.3.11Zm.87-49.79s.11.1.1.13a1,1,0,0,1-.13.28,1.71,1.71,0,0,1-.09-.3S41.22,4.35,41.26,4.32Zm-.38,18.19a2.47,2.47,0,0,1-.1-.29l.11-.11a1,1,0,0,1,.1.29S40.92,22.48,40.88,22.51Zm.23-6.45c.06-.09.14-.27.17-.26a.65.65,0,0,1,.44.52c0,.08-.12.26-.15.25A.65.65,0,0,1,41.11,16.06Zm.5,1.65-.11-.3.13-.13c0,.11.08.21.1.31S41.65,17.67,41.61,17.71Zm1.31.08a.27.27,0,0,1-.31-.34c0-.15.14-.21.25-.12a.64.64,0,0,1,.23.26C43.1,17.64,43,17.79,42.92,17.79Zm.53-7.16s-.09-.09-.1-.14c0-.22.11-.32.33-.33,0,.07.16.16.15.21S43.65,10.66,43.45,10.63Zm2.49,15.69-.3-.12s.1-.11.13-.11a1.48,1.48,0,0,1,.29.12Zm2.84,23.83a.34.34,0,0,1-.44.26c-.1-.06-.29-.13-.21-.36s.18-.33.39-.27S48.87,49.92,48.78,50.15ZM48,42.86s.23-.08.31,0a.41.41,0,0,1,.14.3c0,.16-.11.2-.23.15S47.88,43.05,48,42.86Zm1.2,17.29c-.65.36-.54,1.33-1.3,1.57-.17.06-.37.15-.46-.07s-.09-.41,0-.51A7.08,7.08,0,0,1,49,59.49C49.23,59.7,49.28,60.07,49.16,60.15Zm.14-1.62a.37.37,0,0,1-.3-.09c-.26-.32.07-.53.17-.79s.19-.43.49-.42c.07.09.21.17.21.25A1.34,1.34,0,0,1,49.3,58.53ZM50.12,37l-.1-.14.12-.28c0,.05.11.1.1.13A1.78,1.78,0,0,1,50.12,37Zm1.58-4.34s-.08-.08-.12-.13.1-.11.13-.11a1.69,1.69,0,0,1,.31.13A2,2,0,0,1,51.7,32.62Zm.11-21.49c-.05,0-.1-.11-.19-.22a3.59,3.59,0,0,1,.53,0c.05,0,.1.12.15.18A3.85,3.85,0,0,1,51.81,11.13Zm.51-6.35c-.67-.17,0-.87-.43-1.19C51.8,3,52.21,3,52.56,3s.72.16.72.6S52.61,4.86,52.32,4.78Zm1.12,20.46c-.19.06-.37,0-.32-.27a4.23,4.23,0,0,1,.35-.75,5.85,5.85,0,0,1,.2.59A.36.36,0,0,1,53.44,25.24Zm.67,25.89a1.69,1.69,0,0,1-.27-.1s.08-.12.11-.11a1.62,1.62,0,0,1,.28.11S54.14,51.14,54.11,51.13ZM55.67,1.42c.06-.07.11-.17.16-.17s.17.09.26.13-.09.1-.13.1A1.88,1.88,0,0,1,55.67,1.42Zm.62,23.06a.18.18,0,0,1-.27-.11c.07-.05.14-.15.21-.15s.12.11.19.17A1,1,0,0,1,56.29,24.48Zm.5-9s-.12-.1-.11-.13a1.51,1.51,0,0,1,.13-.29s.12.09.11.12A1.3,1.3,0,0,1,56.79,15.48Zm1.85,42.61s-.12-.09-.11-.12a1.6,1.6,0,0,1,.13-.3s.11.09.11.13A1.85,1.85,0,0,1,58.64,58.09Zm1-37.72a1.14,1.14,0,0,1-.3-.06c.06-.07.12-.19.16-.18s.17.09.26.14S59.71,20.38,59.67,20.37ZM61.3,5.75A.34.34,0,0,1,61,5.9c-.16,0-.34-.1-.22-.44a.24.24,0,0,1,.33-.11A.28.28,0,0,1,61.3,5.75Zm0-2.13c-.06-.07-.17-.13-.16-.19s.1-.15.15-.22.11.08.1.12A2.33,2.33,0,0,1,61.28,3.62Zm1.26,2.7a.33.33,0,0,1-.33-.3h-.05a.06.06,0,0,0,0,0c-.17,0-.29-.15-.28-.33s.14-.23.18-.14a1.46,1.46,0,0,1,.1.47s0,0,0,0l0,0a1.79,1.79,0,0,1,.47.1C62.77,6.17,62.7,6.31,62.54,6.32Zm.08-1.87a1.57,1.57,0,0,1-.29-.08c.06-.06.13-.16.19-.16a.58.58,0,0,1,.22.15S62.66,4.46,62.62,4.45Zm.45,60.28s-.1-.09-.09-.12a1.33,1.33,0,0,1,.1-.28c.06.07.15.14.16.21S63.13,64.67,63.07,64.73Zm10.36,6c.07-.06.13-.16.19-.16s.15.1.23.15-.09.1-.12.09A1.92,1.92,0,0,1,73.43,70.7Zm.86,45.7a2,2,0,0,1-.47-.16l.36-.16.42.19C74.49,116.31,74.39,116.41,74.29,116.4ZM75.48,70a.37.37,0,0,1-.27-.17c0-.09.05-.21.09-.32a.4.4,0,0,1,.38.3S75.55,70,75.48,70Zm6-3.31c-.09,0-.17-.12-.26-.18a.42.42,0,0,1,.34-.37c.07,0,.19.12.21.2C81.84,66.61,81.69,66.73,81.49,66.73Zm.59-1.51s-.07-.07-.11-.11.09-.11.12-.1a1.72,1.72,0,0,1,.29.11A1.51,1.51,0,0,1,82.08,65.22Zm.47,32.21c-.18,0-.36-.07-.25-.48a.55.55,0,0,1,.42-.32,1.17,1.17,0,0,1,.14.45A.31.31,0,0,1,82.55,97.43Zm1.71-32.22s-.07-.07-.11-.11l.29-.12.12.19A1,1,0,0,1,84.26,65.21ZM87.34,99.3a.38.38,0,0,1-.27-.16c0-.08.05-.2.09-.34.14.12.26.22.37.33C87.47,99.19,87.4,99.31,87.34,99.3Zm2.42,17.33c-.45.31-.72.19-1.54-.68.1,0,.27-.17.29-.15.37.4,1.17,0,1.34.69C89.86,116.53,89.8,116.6,89.76,116.63Zm.85-19.54s-.08-.07-.13-.11a2.33,2.33,0,0,1,.31-.11s.07.08.11.12S90.71,97.07,90.61,97.09Zm-.78-2.69c-.08,0-.29-.15-.4-.26a.13.13,0,0,1,.11-.24c.48.06.81-.51,1.37-.29C90.73,94.14,90.22,94.21,89.83,94.4Zm3.31,35.54a.37.37,0,0,1,.3,0,.35.35,0,0,1,.13.29c0,.15-.11.19-.22.12S93.05,130.13,93.14,129.94Zm-.52-44.32a2,2,0,0,1-.31-.08c.06-.07.12-.19.16-.18a1.08,1.08,0,0,1,.28.15S92.66,85.62,92.62,85.62Zm5.25-13.43s-.1-.09-.1-.13.08-.2.12-.3c.06.09.15.17.15.26S97.93,72.13,97.87,72.19Zm1.78,14.54a1.66,1.66,0,0,1-.27-.13l.13-.1.27.13S99.68,86.74,99.65,86.73Zm3.95,3.67a.4.4,0,0,1-.22-.22c-.07-.21.1-.28.26-.34s.32.11.3.3S103.8,90.46,103.6,90.4ZM111,81.17s-.08-.08-.12-.12a1.15,1.15,0,0,1,.31-.11s.08.07.12.12A1.63,1.63,0,0,1,111,81.17ZM112.38,41l-.83-.63c.41-.56,1-.58,1.58-1C113.49,40.43,112.57,40.52,112.38,41ZM114.45,79c-.21,0-.29-.12-.33-.31s.25-.35.49-.35.36,0,.32.25A.47.47,0,0,1,114.45,79Zm3.93,1.27a.32.32,0,0,1-.11.12l-.42-.33c.13-.07.22-.18.3-.16A.28.28,0,0,1,118.38,80.22Zm6.32-.82c0,.07-.14.11-.25.19l-.3-.38c.09,0,.18-.15.27-.14S124.75,79.19,124.7,79.4Zm1,4.42a2.36,2.36,0,0,1-.38.22c0-.1,0-.2-.07-.3a.32.32,0,0,1,.4-.18C125.75,83.61,125.78,83.72,125.65,83.82Zm1.28,2.2c-.31,0-.54,0-.6-.3s.18-.39.41-.41.48,0,.54.3S127.11,86,126.93,86Zm1.31-6.65c-.15,0-.4,0-.3-.27a.56.56,0,0,1,.38-.31.34.34,0,0,1,.34.36C128.64,79.35,128.42,79.36,128.24,79.37Z" style="fill:#fff"/></g></g></svg>