<svg xmlns="http://www.w3.org/2000/svg" viewBox="0 0 53.73 71.35"><title>utah</title><g id="Layer_2" data-name="Layer 2"><g id="_ÎÓÈ_1" data-name="—ÎÓÈ 1"><path d="M52.77,52.51a.54.54,0,0,1-.07-.13l0-.08c0-.61-.07-1.23-.06-1.84.12-5.73-.21-11.44-.66-17.15-.19-2.48-.46-5-.42-7.46.06-3.27-.34-6.52-.4-9.79a11.69,11.69,0,0,0-.41-2.41c-.16-.68-.47-.93-1.15-.83-1.82.27-3.68.16-5.49.46A67,67,0,0,1,37,14a37.15,37.15,0,0,1-6.24.13c-1.22-.14-1.59-.39-1.82-1.58a20.8,20.8,0,0,1-.25-3,70.31,70.31,0,0,1-.24-8,1.36,1.36,0,0,0-.17-1A1.62,1.62,0,0,0,27,.26c-3.19.12-6.37,0-9.56-.07a24,24,0,0,0-2.81,0,24.09,24.09,0,0,1-4.16.06A48.45,48.45,0,0,0,2.38.13C.85.29.49.63.41,2.19c0,.41,0,.82,0,1.23a14.46,14.46,0,0,1,0,2.08,62.43,62.43,0,0,0,0,9.67A90.34,90.34,0,0,1,.3,26.92,45.44,45.44,0,0,0,.05,34c.08,1.3.17,2.61.17,3.91q0,7.6-.09,15.2A123.23,123.23,0,0,0,.51,66.72c.1.94.2,1.87.39,2.79a1.4,1.4,0,0,0,1.56,1.22c2.2,0,4.42.07,6.61.28a148.08,148.08,0,0,0,15.19.28c5.84-.06,11.68-.29,17.51-.6,3.39-.18,6.77-.45,10.15-.68,1.38-.1,1.9-.68,1.79-2.07-.07-1,0-2-.07-3.06,0-1.39,0-2.78-.13-4.17,0-.77-.11-1.55-.17-2.32l-.06-.07,0-.06c-.13-1.75-.28-3.5-.51-5.24C52.79,52.85,52.79,52.68,52.77,52.51ZM4.49,70.21a2.15,2.15,0,0,1-.34,0c.06-.08.11-.21.18-.21s.18.08.28.12S4.53,70.21,4.49,70.21Zm2.59-3.67s-.08.08-.12.13c-.07-.11-.13-.22-.19-.33s.14-.24.23-.14A.63.63,0,0,1,7.08,66.54ZM3.17,41.48l.34.09c0,.06-.08.15-.12.15a1.89,1.89,0,0,1-.34-.09ZM8,67.36A2.68,2.68,0,0,1,7.77,67s.08-.11.12-.16a1.73,1.73,0,0,1,.17.33S8,67.3,8,67.36Zm-4.12-32,.35.09c0,.06-.09.15-.13.15a2.25,2.25,0,0,1-.35-.09ZM8,60.61a2.58,2.58,0,0,1-.35-.09l.13-.16.35.1S8,60.61,8,60.61ZM4.8,36.49c.14-.11.42-.08.4.19a.59.59,0,0,1-.49.57c-.12,0-.24-.08-.45-.15A3.61,3.61,0,0,1,4.8,36.49ZM9.29,63.73a.36.36,0,0,1,.43-.29c.18,0,.23.14.16.28s-.19.37-.41.32S9.35,63.84,9.29,63.73Zm1.24,4.16a2.68,2.68,0,0,1-.39,0c0-.1.1-.26.15-.26a1.33,1.33,0,0,1,.37.12S10.58,67.88,10.53,67.89ZM6,43.47c-.18,0-.39.05-.43-.19,0-.05.2-.17.32-.2s.53-.07.79-.1l.09.29C6.49,43.34,6.24,43.42,6,43.47Zm7.28,23.06a2.74,2.74,0,0,1-.37-.08s.09-.15.14-.15a2.61,2.61,0,0,1,.36.08C13.34,66.43,13.3,66.53,13.26,66.53ZM9.74,44.9c-.26.05-.53.12-.66-.22s.08-.35.25-.44a.54.54,0,0,1,.71.11C10.21,44.61,10.06,44.85,9.74,44.9Zm2.14,2.61s-.09-.08-.13-.12L12,47.2l.16.2A1.63,1.63,0,0,1,11.88,47.51Zm5,20.51a2.14,2.14,0,0,1-.34-.09l.13-.14.33.09C17,67.93,17,68,16.93,68Zm-.29-4.2a2.22,2.22,0,0,1-.37-.09s.08-.16.12-.16a2.22,2.22,0,0,1,.37.09C16.72,63.72,16.68,63.82,16.64,63.82ZM12.7,33.12a2.58,2.58,0,0,1,.32-.18s.11.06.16.1a2,2,0,0,1-.32.18S12.76,33.15,12.7,33.12Zm3.79,17.46a2.22,2.22,0,0,1-.37-.09c0-.05.08-.16.12-.15a1.53,1.53,0,0,1,.37.08C16.57,50.48,16.53,50.58,16.49,50.58ZM13.07,25.91a2.37,2.37,0,0,1-.36-.09c0-.05.08-.15.12-.15a2,2,0,0,1,.35.09S13.1,25.91,13.07,25.91ZM20.62,67a2.33,2.33,0,0,1-.36-.08s.08-.15.12-.15a2.33,2.33,0,0,1,.36.08C20.7,66.87,20.66,67,20.62,67Zm-5-29.2-.19-.33.12-.15a2,2,0,0,1,.18.32S15.7,37.72,15.66,37.77Zm3.48,12.65A2.58,2.58,0,0,1,19,50.1s.08-.1.12-.16a2.68,2.68,0,0,1,.18.33S19.18,50.37,19.14,50.42ZM11.55,4.23a2.06,2.06,0,0,1-.17-.33s.08-.1.12-.15a2,2,0,0,1,.16.33S11.59,4.18,11.55,4.23ZM20.81,52.7l-.18-.31.11-.16a1.92,1.92,0,0,1,.18.31S20.85,52.65,20.81,52.7Zm3.06,3.44a1.75,1.75,0,0,1-.38-.09,1.06,1.06,0,0,0,.15-.15L24,56C24,56.05,23.91,56.14,23.87,56.14ZM18.63,19.2c0-.25,0-.55.31-.43.16.05.37.27.36.41s-.23.3-.36.45Zm6.62,34.45c-.05,0-.15-.08-.15-.12a2.09,2.09,0,0,1,.08-.34c.05,0,.15.07.15.1A2.33,2.33,0,0,1,25.25,53.65Zm3,2.5-.21-.33.12-.16a1.79,1.79,0,0,1,.19.32S28.31,56.09,28.27,56.15Zm2.9,2.59a1.5,1.5,0,0,1-.36,0c.05-.08.09-.24.14-.24a1,1,0,0,1,.34.12S31.21,58.73,31.17,58.74ZM25.41,12.21c-.1,0-.17-.17-.27-.27a.84.84,0,0,1,.58-.92.36.36,0,0,1,.33.12C26.19,11.41,25.67,12.27,25.41,12.21ZM34.93,59c-.08,0-.18-.09-.28-.14s.08-.14.12-.15a2.46,2.46,0,0,1,.36.06C35.07,58.81,35,58.94,34.93,59Zm-8.16-56c-.11,0-.18-.16-.26-.25l0,0,0,0a2,2,0,0,1-.55,0,.4.4,0,0,1-.23-.29c0-.3.26-.25.42-.12a2.86,2.86,0,0,1,.36.42h.06l0,0,.14-.08.48-.24c.05.12.15.26.12.36A.34.34,0,0,1,26.77,2.94ZM43.64,56.05c-.07-.12-.14-.22-.19-.33s.08-.1.12-.16a2.48,2.48,0,0,1,.17.32S43.68,56,43.64,56.05Zm6.82-2.49-.15-.13.1-.34c.05,0,.15.08.14.12A1.5,1.5,0,0,1,50.46,53.56Z" style="fill:#fff"/></g></g></svg>