<svg xmlns="http://www.w3.org/2000/svg" viewBox="0 0 29.5 55.83"><title>vermont</title><g id="Layer_2" data-name="Layer 2"><g id="_ÎÓÈ_1" data-name="—ÎÓÈ 1"><path d="M.33,5.61a11.83,11.83,0,0,1-.16,3,6.8,6.8,0,0,0,.52,4.34A12.57,12.57,0,0,1,.8,22.09,7.74,7.74,0,0,0,.24,25c0,2.63,0,5.26,0,7.89a6.32,6.32,0,0,0,.34,2.66c1.76.63,2,2.23,2.12,3.92,0,.92.11,1.84.11,2.77,0,3.69,0,7.39,0,11.09a4.92,4.92,0,0,0,.38,2.52c3.24-.48,6.62,0,10.11-.77-.23-2.54.64-4.63,1.43-6.77a14.69,14.69,0,0,0,.88-5,27.14,27.14,0,0,1,.24-3.61,29.49,29.49,0,0,1,4.89-12.85c1.55-2.27,2.07-4.3.12-6.51a.86.86,0,0,1-.11-.19A3.33,3.33,0,0,1,21.2,16a10.78,10.78,0,0,1,2.87-2.19,23.79,23.79,0,0,0,4.62-3.11,7.16,7.16,0,0,0-.36-3.13A6,6,0,0,1,28.7,3.4C30.13.11,29.86-.18,26.13.07S18.61.56,14.85.74c-4,.2-8.1.3-12.15.47C.8,1.3.54,1.56.36,3.48.3,4.19.33,4.9.33,5.61Zm16.64,7a4.07,4.07,0,0,1,.06.59c0,.06-.16.12-.25.18a3.07,3.07,0,0,1-.07-.6C16.71,12.73,16.88,12.68,17,12.62ZM4.48,41.05c.19.05.34.24.51.37-.35.41-.75.26-1.13.09-.15-.06-.23-.27-.41-.51A6.45,6.45,0,0,1,4.48,41.05Z" style="fill:#fff"/></g></g></svg>