<svg xmlns="http://www.w3.org/2000/svg" viewBox="0 0 69.99 34.46"><title>virginia</title><g id="Layer_2" data-name="Layer 2"><g id="_ÎÓÈ_1" data-name="—ÎÓÈ 1"><path d="M52.86,33.57a11.06,11.06,0,0,1,1.29,0c1.51,0,3,0,4.52.05A93.61,93.61,0,0,0,68.13,33a6.31,6.31,0,0,0,.85-.15,1.2,1.2,0,0,0,1-1.12c.1-.79-.08-1.35-.67-1.55-.82-.28-1.67-.66-2.54,0a1.38,1.38,0,0,1-1.79,0,11.58,11.58,0,0,1-2.42-3.47s0-.07.07-.19c.37-.29.75-.13,1.1.14a9,9,0,0,1,.69.69.74.74,0,0,0,1.13.06.71.71,0,0,0-.49-.94,1.75,1.75,0,0,1-.81-.52c-.43-.54-.31-1,.33-1.24.2-.08.43-.07.59-.24s-.07-.72.19-1c.57-.52.83.43,1.39.27a1.42,1.42,0,0,0-.61-1.67c-.26-.18-.58-.28-.85-.45A3.18,3.18,0,0,1,63.77,20c-.11-.32-.14-.66.21-.86s.54,0,.76.23.46.67,1.05.6c.3-.7-.1-1.76.88-2.1a.68.68,0,0,0-.29-.63,9.67,9.67,0,0,0-3.73-2.07A6.15,6.15,0,0,1,59.16,13a1.14,1.14,0,0,0-1-.48,6.26,6.26,0,0,1-.75,0,2.05,2.05,0,0,1-1-.41s0,.07,0,.11-.09.06-.14.08a1.64,1.64,0,0,1,0-.32l0,0a1.79,1.79,0,0,1-.37-1.66,5.81,5.81,0,0,1,.57-1.39c.3-.57.62-1.13.91-1.71a2.23,2.23,0,0,0-.05-2.07,2.88,2.88,0,0,0-2-1.49,2.18,2.18,0,0,1-1.61-1.71c-.09-.35-.14-.7-.22-1s-.14-.5-.52-.51a1.93,1.93,0,0,0-.29.24c-1.5,1.73-2.54,1.77-4.09.15a3.19,3.19,0,0,0-.46-.44c-.19-.14-.34-.4-.73-.22C47.17.66,47,1.32,46.8,2c-.58,1.61-1.32,3.12-3,3.84a.91.91,0,0,0-.5.4,2.86,2.86,0,0,1-2.54,1.56c-.25,1-.67,1.72-1.72,1.87-.13.33-.24.64-.38.93a1.52,1.52,0,0,1-2,1,3.72,3.72,0,0,1-1.13-.6.93.93,0,0,0-1.43.41c-.09.2-.15.41-.22.61a17.21,17.21,0,0,1-3.29,5.64,17.1,17.1,0,0,0-1.49,2.11,1.2,1.2,0,0,0,0,1.49c.4.52.33.86-.24,1.29-1.47,1.12-2.88,2.35-4.92,2.44a6.19,6.19,0,0,0-2.88.81,4.77,4.77,0,0,1-2.88.69,2.32,2.32,0,0,0-1.89.56,2.05,2.05,0,0,1-2.68.14c-.34-.21-.66-.43-1-.66a12.9,12.9,0,0,1-1.91-1.69A3,3,0,0,0,9,25.29,9.33,9.33,0,0,1,6.7,26.61,9.44,9.44,0,0,0,2.63,30.3a2.2,2.2,0,0,1-1.34,1C.35,31.5,0,32,0,33.08a1.61,1.61,0,0,0,1.32.27c1.37-.06,2.73,0,4.1,0,2.9.11,5.81.11,8.71.34,2.54.2,5.08.41,7.63.6a111.25,111.25,0,0,0,12.91-.21c2.95-.13,5.89-.16,8.83-.26A91.36,91.36,0,0,0,52.86,33.57ZM61.8,16.2a.32.32,0,0,1,.1.13c-.12.12-.26.22-.4.34,0-.12-.14-.23-.11-.29A.29.29,0,0,1,61.8,16.2Zm-16,15.51c0,.05.09.12.08.15s-.12.17-.18.26L45.6,32Zm-8-18a1.38,1.38,0,0,1-.25-.17l.15-.07.24.17S37.78,13.76,37.75,13.75ZM35.13,30.12S35,30,35,30s.13-.18.19-.27.11.12.1.15A1.74,1.74,0,0,1,35.13,30.12Zm4.32-14.66c0-.08-.12-.16-.11-.22s.12-.12.19-.18.08.1.07.14A1.74,1.74,0,0,1,39.45,15.46ZM47.33,3.13A1.67,1.67,0,0,1,47.05,3a1.26,1.26,0,0,1,.33-.05s.06.09.09.13S47.35,3.14,47.33,3.13ZM48.79,5.3a.22.22,0,0,1-.28-.18c.05,0,.12-.12.14-.1a1.41,1.41,0,0,1,.29.18A1.3,1.3,0,0,1,48.79,5.3Z" style="fill:#fff"/></g></g></svg>