<svg xmlns="http://www.w3.org/2000/svg" viewBox="0 0 63.48 42.77"><title>washington</title><g id="Layer_2" data-name="Layer 2"><g id="_ÎÓÈ_1" data-name="—ÎÓÈ 1"><path d="M.76,11.74a5.74,5.74,0,0,1,1.48,3.61,7.4,7.4,0,0,0,.62,2.39,19.73,19.73,0,0,1,1.33,4.31c0,.29.14.56.21.84a1.26,1.26,0,0,0,.7.89c1.35.72,1.34.74.53,2.14-.44.77-.31,1.22.49,1.63a1.67,1.67,0,0,1,.2.08c.52.32.56.73.09,1.11-.19.16-.47.2-.66.64a11.15,11.15,0,0,1,.41,3.45,1.87,1.87,0,0,0,.92.3c1,.23,2.08.29,2.84,1.15a1.33,1.33,0,0,0,.78.32,14.81,14.81,0,0,1,1.46.36,2.64,2.64,0,0,1,2.08,2.34c.14,1.07.2,2.14.25,3.22a3.14,3.14,0,0,0,.36,1.63,9.34,9.34,0,0,0,2.23.56,4,4,0,0,0,3.08-.61,2.9,2.9,0,0,1,1.48-.6l3.66-.26a1.61,1.61,0,0,1,1.14.25A2.48,2.48,0,0,0,29,42a.78.78,0,0,1,.43,0,2.74,2.74,0,0,0,1.85-.43,3,3,0,0,1,3-.17,1.56,1.56,0,0,0,1.54,0,14.94,14.94,0,0,1,3.68-1.19A11.53,11.53,0,0,0,41,39.64c1.62-.62,3.28-1.06,4.93-1.55a15.62,15.62,0,0,1,6.52-.35,29.36,29.36,0,0,0,5,0,26.14,26.14,0,0,1,3.65,0,10.85,10.85,0,0,0,1.4.09c.89,0,1.09-.27.86-1.13-.18-.69-.42-1.37-.61-2.06a16.47,16.47,0,0,1-.7-3.26C61.9,28.61,62,25.81,62,23c0-1.31.09-2.64.1-3.95l-.43.27a.35.35,0,0,1-.11,0s0,0,0,0l0,0c-.08.35-.16.69-.25,1-1.63-.78-1.66-.95-.45-2.72.75.34-.24,1.46.7,1.68h.07c0-.24.12-.4.38-.4,0,0,.1.06.16.09A29.87,29.87,0,0,0,62,15.9c-.3-2.79-.4-5.59-.54-8.39A31.08,31.08,0,0,0,61,2.15C60.63.42,60.65.39,58.94.42Q49.51.6,40.08.61C32.53.61,25,.56,17.45.25c-.42,0-.86.07-1.23-.25L15.8.1a2.16,2.16,0,0,0,1.34,1.8,2.24,2.24,0,0,1,1.29,2.4A8.47,8.47,0,0,1,18,7.17a1.38,1.38,0,0,0,.63.67,1.19,1.19,0,0,1,.68,1.43,1.6,1.6,0,0,0,.41,1.4,2.79,2.79,0,0,1,.08,3.5A12.23,12.23,0,0,0,19,15.71a1.34,1.34,0,0,0,0,1A5.91,5.91,0,0,1,18.9,21a6.1,6.1,0,0,1-1.4,1.74c-1,1.13-2.15,1-3.37.73a.82.82,0,0,1-.69-1.2c.33-.78.76-1.52,1.14-2.24,1.9.07,2.19-.17,2.23-1.77-.13-.34-.61-.41-.67-.94.13-.47.28-1.06.45-1.65a2.23,2.23,0,0,1,.49-.69c.29-.39.26-.76-.15-.88-.82-.23-1-.87-1.14-1.54a2,2,0,0,0-.73-1.32,1.69,1.69,0,0,1-1.82-.49,1.13,1.13,0,0,0-.89-.31,49.9,49.9,0,0,1-6.1-.67A11.25,11.25,0,0,1,1.7,8.22a1.66,1.66,0,0,0-1-.41A3,3,0,0,0,.76,11.74ZM54.05,9.41c.05,0,.14.05.14.09a1.71,1.71,0,0,1,0,.32c-.09.07-.2,0-.23-.1S54,9.51,54.05,9.41ZM43.84,11.19a1,1,0,0,1-.2-.12s0-.1,0-.14.13-.19.2,0S43.84,11.08,43.84,11.19Zm7,2.13s.13.06.13.1a1.32,1.32,0,0,1,0,.34c-.09-.06-.21-.11-.22-.17S50.77,13.41,50.81,13.32Zm-1.25-1c.2-.09.35,0,.41.22s-.07.18-.12.32a2.83,2.83,0,0,1-.44-.3S49.48,12.37,49.56,12.34ZM54.82,35.2s.13.07.13.11a1.28,1.28,0,0,1-.06.32l-.14-.11C54.77,35.42,54.79,35.31,54.82,35.2ZM48.9,14.6c-1.21.36-1.21.36-1.93-.91A4.38,4.38,0,0,1,48.9,14.6Zm-5-5.82a1.74,1.74,0,0,1,1,.36c.53.5-.22.83-.29,1.34.51.42,1.31,0,1.79.52.28.41-1.21.66-.09,1.14a2.69,2.69,0,0,1-.55.47c-.29.13-.53-.2-.54-.34,0-.93-1.07-1.32-1.19-2.21-.08-.63-.68-.34-1.12-.57C43.31,9.14,43.53,8.75,43.92,8.78Zm-3.46,4a2,2,0,0,1,.36.3s-.07.11-.12.12a.3.3,0,0,1-.41-.22C40.29,12.82,40.36,12.72,40.46,12.77ZM38.7,35.53a.61.61,0,0,1,.25.08s-.05.12-.09.13a1.56,1.56,0,0,1-.3,0C38.61,35.65,38.65,35.54,38.7,35.53Zm-4.25-6.17a1.38,1.38,0,0,1,.14.27s0,.09-.07.14l-.21-.21C34.36,29.5,34.4,29.43,34.45,29.36ZM26.76,7.12s.13.06.14.1-.07.15-.1.15a1.94,1.94,0,0,1-.33-.07A1.75,1.75,0,0,1,26.76,7.12Zm-5-3.37s.09.06.13.09a1.43,1.43,0,0,1-.27.15s-.09-.05-.13-.08A1.2,1.2,0,0,1,21.77,3.75Z" style="fill:#fff"/></g></g></svg>