<svg xmlns="http://www.w3.org/2000/svg" viewBox="0 0 52.5 43.88"><title>west_virginia</title><g id="Layer_2" data-name="Layer 2"><g id="_ÎÓÈ_1" data-name="—ÎÓÈ 1"><path d="M52.31,11.08a6.07,6.07,0,0,0-1.51-2A2.1,2.1,0,0,0,49,8.53a18.87,18.87,0,0,0-3.18.75,7.77,7.77,0,0,1-3.42.61,4.55,4.55,0,0,0-.51.41,2.19,2.19,0,0,1-2.36.8,1,1,0,0,0-1.1.43c-.39.44-.76.9-1.12,1.37a7.17,7.17,0,0,1-2,1.83,1.52,1.52,0,0,1-2.41-1,7.62,7.62,0,0,1-.19-2.13c0-1.13.06-2.26.09-3.39,0-.39,0-.77-.3-1A1.3,1.3,0,0,0,31.65,7L24,7.2a2.27,2.27,0,0,1-1.71-.4C22,4.62,22.2,2.27,21.61,0a18.46,18.46,0,0,0-.51,2.41c-.08.51-.18,1.06-.67,1.28a2.1,2.1,0,0,0-1.16,2.18c0,3.09-1.88,5-4.18,6.61a2,2,0,0,1-2.26.17A1.14,1.14,0,0,0,12,12.5c-.5.28-.74.85-1.17,1.25a7.56,7.56,0,0,1-1.65.9,1.45,1.45,0,0,0-.66,1.28c0,.46,0,.93-.08,1.38-.11.69-.1,1.44-.64,1.89-.78.19-1.27-.42-1.91-.39a2.94,2.94,0,0,0-1.07,1.81,10.4,10.4,0,0,0-.38,3,2.08,2.08,0,0,1-1.16,2.07,2.59,2.59,0,0,0-1.12,1A3.29,3.29,0,0,1,.67,28,1.1,1.1,0,0,0,0,29.37a8.25,8.25,0,0,0,.66,2.29q1.38,2.9,2.78,5.79a2.7,2.7,0,0,0,1.38,1.4,2.54,2.54,0,0,1,1.46,1.48,7.21,7.21,0,0,0,3,3.16c.8.55,1.15.55,1.71-.19a1.78,1.78,0,0,1,1.63-.72c.59,0,1.18,0,1.76,0a2.92,2.92,0,0,0,1.58-.34,12.12,12.12,0,0,1,4.77-1.51,6.73,6.73,0,0,0,3.39-1.52c.6-.5.7-.65.3-1.37a1.27,1.27,0,0,1,.11-1.52c1-1.25,1.8-2.62,2.79-3.88a13,13,0,0,0,3-6.4,3.55,3.55,0,0,1,3.43-2.56,1.67,1.67,0,0,1,.84.51c.33.31.57.74,1.22.85.61-.9.7-2.4,2.33-2.44,0-.47.07-.76.12-1,.18-1,.52-1.29,1.46-1.1a1.57,1.57,0,0,0,2-1.17,1.3,1.3,0,0,1,1.07-1c1.16-.11,1.6-.95,2-1.84a10.77,10.77,0,0,0,.72-2.67A13.4,13.4,0,0,1,46,11.53c.56-1.53,1.45-1.71,2.62-.58.66.64,1.31,1.3,2,2a1.09,1.09,0,0,0,1.23.41c.5-.2.59-.66.66-1.13A1.69,1.69,0,0,0,52.31,11.08ZM12.58,13.27a.43.43,0,0,1-.36.12c-.19-.08-.39-.2-.19-.59a.33.33,0,0,1,.44-.06A.36.36,0,0,1,12.58,13.27ZM24.06,8c-.09,0-.12-.21-.18-.32s.25-.34.47-.25a.39.39,0,0,1,.17.33A.3.3,0,0,1,24.06,8Zm1,6.24a.7.7,0,0,1-.77,0,1,1,0,0,1-.14-.15c.12-.07.23-.19.35-.19s.48-.38.69,0A.41.41,0,0,1,25.06,14.23Zm5.43-3.4a.61.61,0,0,1-.49.31c-.21,0-.2-.31-.16-.51s.11-.41.46-.29C30.36,10.48,30.54,10.7,30.49,10.83Zm4.87,5.35c-.25-.12-.56-.31-.46-.7a.55.55,0,0,1,.47-.3.62.62,0,0,1,.49.74C35.83,16.14,35.65,16.25,35.36,16.18Z" style="fill:#fff"/></g></g></svg>