<svg xmlns="http://www.w3.org/2000/svg" viewBox="0 0 50.19 55.68"><title>wisconsin</title><g id="Layer_2" data-name="Layer 2"><g id="_ÎÓÈ_1" data-name="—ÎÓÈ 1"><path d="M1.55,28.73a1.21,1.21,0,0,1,.29.44,1.72,1.72,0,0,0,1.11,1c1.72.45,3,1.76,4.78,2.16a1.78,1.78,0,0,1,.72.45,27.32,27.32,0,0,1,2.85,2.63,13.76,13.76,0,0,0,2.22,2,3.81,3.81,0,0,1,1.19,1.24,10,10,0,0,1,1.2,3.09,11.29,11.29,0,0,0,1.37,4.06,2,2,0,0,1,.36,1c0,1.18.08,2.37.06,3.55a2,2,0,0,0,.38,1.51,1,1,0,0,1,.17.92c0,.24-.17.49,0,.72a.81.81,0,0,0,.59.23A6,6,0,0,1,21.91,55a3.68,3.68,0,0,0,2.3.69c.72,0,1.44,0,2.15-.06,2.71-.31,5.41-.69,8.13-.95,3.07-.3,6.12-.78,9.18-1.2A18.3,18.3,0,0,0,46,53a1.2,1.2,0,0,0,1.06-1.39,6.13,6.13,0,0,0-.1-1,12.14,12.14,0,0,0-1-3.18,5.53,5.53,0,0,1-.45-3.77,4.16,4.16,0,0,0,.14-1.92,2.39,2.39,0,0,1,.42-2A2.14,2.14,0,0,0,46.38,38c-.06-.35-.14-.7-.22-1a4.73,4.73,0,0,1,1-4.44,1.49,1.49,0,0,0,.35-1.4c0-.25-.11-.49-.18-.73a4.48,4.48,0,0,1,.41-3.54c.19-.35.36-.71.55-1.05a1.57,1.57,0,0,0,.18-1.54.89.89,0,0,1,.17-1,8.93,8.93,0,0,0,1.28-2.47c.12-.31.38-.6.27-.94a.33.33,0,0,0-.36.09,5.25,5.25,0,0,0-1.54,2.89c-.12.59-.25,1.05-1,1.07a.91.91,0,0,0-.8.63,5.23,5.23,0,0,0-.33.91,1.83,1.83,0,0,1-1.06,1.4,1.52,1.52,0,0,0-.68.67c-.53.9-.67.94-1.79.52a4.48,4.48,0,0,1,.47-2.66c.47-1,.85-2.16,2.07-2.51A2,2,0,0,0,45,21.32a21,21,0,0,1-.88-2.2,1.31,1.31,0,0,0-.66-.8,2.37,2.37,0,0,1-1.2-2.15c0-.47,0-.94,0-1.4A1.79,1.79,0,0,0,41.14,13a1.86,1.86,0,0,1-1.21-1.14,1.31,1.31,0,0,0-1-.79,5.22,5.22,0,0,0-3-.14,3.5,3.5,0,0,1-3.18-.51,6.48,6.48,0,0,0-2.94-1c-1.88-.27-3.77-.52-5.64-.84a4.61,4.61,0,0,1-3.46-2.47,3.81,3.81,0,0,0-1.31-1.39c-.6-.39-1.23-.72-1.8-1.05-.65,0-1.07.56-1.67.53a.8.8,0,0,1-.41-1c.06-.28.18-.55.25-.83A9,9,0,0,0,16.19,0a1.53,1.53,0,0,0-1.1.3A15.23,15.23,0,0,1,12.9,1.46a5.91,5.91,0,0,0-1.11.66,6.76,6.76,0,0,1-2.5,1.21,3.84,3.84,0,0,0-1,.35,2.09,2.09,0,0,1-2.1.15A2.84,2.84,0,0,0,4.5,7.24c.1.49.19,1,.3,1.48a7.49,7.49,0,0,1,.08,2.36,3.36,3.36,0,0,1-2.41,2.77A4,4,0,0,0,0,18c.15.11.32.24.5.35,1.47.91,1.77,1.88,1,3.44a1.56,1.56,0,0,0-.2,1.13,5.83,5.83,0,0,1-.26,3.28A2.09,2.09,0,0,0,1.55,28.73ZM42.05,42.3c-.48.55-.71,1-1.46,1A1.58,1.58,0,0,1,42.05,42.3Zm-1.53-2.95c.06,0,.12.12.22.24a2.9,2.9,0,0,1-.57,0c-.06,0-.11-.12-.17-.19A3.12,3.12,0,0,1,40.52,39.35ZM32.07,49.77s.08.07.12.11a1.71,1.71,0,0,1-.3.09s-.08-.07-.11-.12A1.38,1.38,0,0,1,32.07,49.77ZM27,49.5c.17-.15.33-.07.46.07l.69.71A.79.79,0,0,1,27,50,.34.34,0,0,1,27,49.5ZM23.7,8.74a1.31,1.31,0,0,1,.09.28s-.07.07-.11.11l-.15-.21ZM22.29,45.91c-.21-.09-.45-.18-.45-.45,0-.07.25-.2.39-.2s.49.09.45.4A.3.3,0,0,1,22.29,45.91Zm0-3.56a.5.5,0,0,1,.3.1.63.63,0,0,1-.47.47c-.09,0-.21-.06-.32-.09A.68.68,0,0,1,22.28,42.35Zm-2.44-5.29a1.71,1.71,0,0,1,.49.14c-.07.14-.11.33-.23.41-.28.19-.4-.08-.55-.24S19.69,37.06,19.84,37.06Zm-.05,6.36a.58.58,0,0,1,.62.19c0,.06,0,.2-.06.3l-.88-.27C19.65,43.52,19.71,43.43,19.79,43.42ZM16.15,32.9c.09.09.25.27,0,.4a.33.33,0,0,1-.36-.26c0-.16,0-.44,0-.48C16.15,32.38,16,32.79,16.15,32.9Zm-.63-22.35.43.29c-.09.11-.13.23-.2.25a.28.28,0,0,1-.37-.25C15.37,10.75,15.47,10.65,15.52,10.55ZM11,6.73c.05,0,.14.2.11.23a2.19,2.19,0,0,1-.34.34c-.06-.12-.14-.23-.12-.31A.31.31,0,0,1,11,6.73ZM9.7,11.93l.31.15s-.11.12-.14.11a1.73,1.73,0,0,1-.31-.14Zm-.93,1.68c.37,0,.29.38.44.57,0,0-.1.14-.16.22-.31,0-.35-.24-.35-.48S8.74,13.61,8.77,13.61Z" style="fill:#fff"/></g></g></svg>