<svg xmlns="http://www.w3.org/2000/svg" viewBox="0 0 72.69 57.18"><title>wyoming</title><g id="Layer_2" data-name="Layer 2"><g id="_ÎÓÈ_1" data-name="—ÎÓÈ 1"><path d="M69.33.79A4.39,4.39,0,0,0,68.25.64c-2.1.1-4.21.09-6.31.17-3.57.12-7.14.06-10.7.11-2.47,0-5-.13-7.42-.06-4.7.12-9.4-.18-14.1-.22-2.43,0-4.86-.12-7.29-.17S17.81.41,15.5.35C11.74.25,8,.12,4.2,0a1,1,0,0,0-.82.23,1.82,1.82,0,0,0-.23,1C3,4.15,2.85,7.07,2.7,10c-.12,2.19.14,4.37,0,6.56-.15,2-.36,4.05-.37,6.07,0,5.93-.59,11.82-1.17,17.7-.43,4.4-1,8.78-1.07,13.2A8.44,8.44,0,0,0,.13,56a1.4,1.4,0,0,0,.81.29,30.5,30.5,0,0,0,6.19.14,70.22,70.22,0,0,1,7.54-.08c3,.12,6.07.34,9.11.35,5.1,0,10.21,0,15.31.33A40,40,0,0,0,46,57a32,32,0,0,1,6-.09,37.37,37.37,0,0,0,4.49,0c3.16-.14,6.32-.23,9.48-.29,1.66,0,3.32.07,5,.06,1.38,0,1.6-.28,1.68-1.65,0-.2,0-.4,0-.61,0-1,0-2,0-2.92.21-4.37,0-8.74-.16-13.12-.07-2.51-.38-5-.42-7.53-.06-4.5-.5-9-.68-13.48-.08-1.86-.19-3.72-.18-5.59a80.77,80.77,0,0,0-.66-9.7A1.37,1.37,0,0,0,69.33.79ZM4.07,48.38a.84.84,0,0,1-.34,0,1.2,1.2,0,0,1,.17-.21.23.23,0,0,1,.16,0C4.25,48.22,4.25,48.33,4.07,48.38ZM16.49,38a3.42,3.42,0,0,1-.38-.09c.08-.09.15-.23.22-.23s.2.11.29.17S16.53,38,16.49,38Zm8.19,15.12a1.42,1.42,0,0,1-.33-.11l.13-.14.33.12S24.72,53.09,24.68,53.08Zm1.68.25c-.08,0-.17-.09-.33-.19a3.28,3.28,0,0,1,.59-.11c.09,0,.18.1.26.15A3.1,3.1,0,0,1,26.36,53.33Zm5.19-29.55a3.51,3.51,0,0,1-.4.37c0-.06-.12-.1-.12-.16a.34.34,0,0,1,.32-.42C31.53,23.58,31.63,23.68,31.55,23.78Zm9.8,28.06-.34-.1c0-.05.09-.14.13-.14a2.14,2.14,0,0,1,.34.09Zm6.36-25c-.12,0-.23-.07-.35-.1,0,0,.1-.14.14-.13a1.46,1.46,0,0,1,.34.1S47.75,26.82,47.71,26.82Zm-.49-7.1s-.1-.08-.15-.12a2,2,0,0,1,.33-.15s.1.08.15.12A2.41,2.41,0,0,1,47.22,19.72ZM52.11,14s-.08.07-.12.1l-.15-.3c0-.15.15-.21.22-.11A.63.63,0,0,1,52.11,14Zm1.2-2a.13.13,0,0,0,0,.06c.27.08.45.23.36.52s-.37.3-.45.13,0-.42.09-.65c0,0,0,0,0,0s0,0,0,0c-.41-.06-.69-.44-1.24-.28,1-1.37,1-1.37,2.19-.8-.42.28-1.1.32-1,1.08Zm4.43,15.53a2.09,2.09,0,0,1-.36,0s0,0,0,0l0,0a1.17,1.17,0,0,1,0,.32.77.77,0,0,1-.16.28.26.26,0,0,1-.13-.43c0-.08.17-.12.27-.17v0h0a1.09,1.09,0,0,1,.18-.3.32.32,0,0,1,.5.06A1.87,1.87,0,0,1,57.74,27.57Zm.52-18.25L58.09,9l.2-.15a1.68,1.68,0,0,1,.09.32S58.3,9.27,58.26,9.32Zm9.8,41.57c-.1,0-.2-.09-.31-.14l.29-.2.3.16C68.25,50.78,68.16,50.89,68.06,50.89ZM64.65,14.54l-.15-.33.12-.15a2.41,2.41,0,0,1,.15.33S64.69,14.49,64.65,14.54Z" style="fill:#fff"/></g></g></svg>