<svg xmlns="http://www.w3.org/2000/svg" viewBox="0 0 93.245 126.3"><defs><style>.a{fill:#fff;}</style></defs><g transform="translate(-141 -167)"><g transform="translate(141 167)"><g transform="translate(0 0)"><path class="a" d="M75.975,23.587a5.1,5.1,0,1,0,5.158,5.1A5.2,5.2,0,0,0,75.975,23.587ZM46.594,47.637A13.677,13.677,0,1,0,60.328,61.314,13.714,13.714,0,0,0,46.594,47.637ZM83.683,12H62.125V9.156A9.188,9.188,0,0,0,52.91,0H40.277a9.188,9.188,0,0,0-9.214,9.156V12H9.5A9.46,9.46,0,0,0,0,21.442V71.165a9.46,9.46,0,0,0,9.5,9.446H25.267a28.857,28.857,0,0,0,42.653-.058H83.741a9.5,9.5,0,0,0,9.5-9.446V21.442A9.585,9.585,0,0,0,83.683,12ZM37.959,9.156A2.276,2.276,0,0,1,40.277,6.9H52.91a2.314,2.314,0,0,1,2.318,2.26V12H37.959Zm8.635,74.005A21.848,21.848,0,1,1,68.558,61.314,21.926,21.926,0,0,1,46.594,83.162Zm39.7-12a2.585,2.585,0,0,1-2.608,2.55H72.556a28.139,28.139,0,0,0,2.9-12.46,28.861,28.861,0,0,0-57.721,0,28.138,28.138,0,0,0,2.9,12.46H9.5A2.585,2.585,0,0,1,6.9,71.165V21.442A2.585,2.585,0,0,1,9.5,18.892H83.683a2.585,2.585,0,0,1,2.608,2.55ZM19.82,23.992H14.662a2.585,2.585,0,0,0-2.608,2.55V31.7a2.548,2.548,0,0,0,2.608,2.55H19.82a2.585,2.585,0,0,0,2.608-2.55V26.542A2.585,2.585,0,0,0,19.82,23.992Z" transform="translate(0 0)"/></g></g><path class="a" d="M-43.8-4A4.526,4.526,0,0,0-39,.3c2.4,0,4.2-1.8,4.2-3A1.135,1.135,0,0,0-36-3.8c-1.2,0-1.4,1.7-3,1.7A1.866,1.866,0,0,1-41-4V-6a1.866,1.866,0,0,1,2-1.9c1.6,0,1.6,1.5,2.8,1.5A1.135,1.135,0,0,0-35-7.5c0-1.2-1.6-2.8-4-2.8A4.526,4.526,0,0,0-43.8-6Zm13.5-8.9a1.347,1.347,0,0,0-1.4-1.3,1.347,1.347,0,0,0-1.4,1.3V-1.2A1.347,1.347,0,0,0-31.7.1a1.347,1.347,0,0,0,1.4-1.3ZM-25-8.8a1.347,1.347,0,0,0-1.4-1.3,1.347,1.347,0,0,0-1.4,1.3v7.6A1.347,1.347,0,0,0-26.4.1,1.347,1.347,0,0,0-25-1.2Zm-1.4-2.8A1.405,1.405,0,0,0-24.9-13a1.394,1.394,0,0,0-1.5-1.4A1.394,1.394,0,0,0-27.9-13,1.394,1.394,0,0,0-26.4-11.6ZM-22.8-4A4.526,4.526,0,0,0-18,.3c2.4,0,4.2-1.8,4.2-3A1.135,1.135,0,0,0-15-3.8c-1.2,0-1.4,1.7-3,1.7A1.866,1.866,0,0,1-20-4V-6a1.866,1.866,0,0,1,2-1.9c1.6,0,1.6,1.5,2.8,1.5A1.135,1.135,0,0,0-14-7.5c0-1.2-1.6-2.8-4-2.8A4.526,4.526,0,0,0-22.8-6Zm13.5-8.9a1.347,1.347,0,0,0-1.4-1.3,1.347,1.347,0,0,0-1.4,1.3V-1.2A1.347,1.347,0,0,0-10.7.1,1.347,1.347,0,0,0-9.3-1.2V-3.9h1.2L-5.3-.4A1.326,1.326,0,0,0-4.2.1,1.347,1.347,0,0,0-2.8-1.2a1.984,1.984,0,0,0-.6-1.3L-5.7-5.2l2.1-2.3A1.984,1.984,0,0,0-3-8.8a1.347,1.347,0,0,0-1.4-1.3,1.358,1.358,0,0,0-1.1.5L-8.2-6.3H-9.3Zm16.2,0a1.347,1.347,0,0,0-1.4-1.3,1.347,1.347,0,0,0-1.4,1.3V-1.2A1.347,1.347,0,0,0,5.5.1,1.347,1.347,0,0,0,6.9-1.2V-6.1A1.793,1.793,0,0,1,8.7-7.9a1.793,1.793,0,0,1,1.8,1.8v4.9A1.347,1.347,0,0,0,11.9.1a1.347,1.347,0,0,0,1.4-1.3V-6.1a3.89,3.89,0,0,0-3.7-4.2A3.078,3.078,0,0,0,7.1-9.1H6.9ZM24.7-6A4.5,4.5,0,0,0,20-10.3,4.5,4.5,0,0,0,15.3-6v2A4.526,4.526,0,0,0,20.1.3C23,.3,24.3-1,24.3-1.9A1.135,1.135,0,0,0,23.1-3c-1,0-1.2.9-3,.9a1.866,1.866,0,0,1-2-1.9h5.2a1.347,1.347,0,0,0,1.4-1.3Zm-6.6-.1A1.817,1.817,0,0,1,20-7.9a1.817,1.817,0,0,1,1.9,1.8Zm13.6-4.1a2.781,2.781,0,0,0-2,1.1h-.2a1.622,1.622,0,0,0-1.4-1,1.347,1.347,0,0,0-1.4,1.3v7.6A1.347,1.347,0,0,0,28.1.1a1.347,1.347,0,0,0,1.4-1.3V-5.9a1.839,1.839,0,0,1,1.9-1.9h1.2A1.2,1.2,0,0,0,33.8-9a1.2,1.2,0,0,0-1.2-1.2ZM43.9-6a4.5,4.5,0,0,0-4.7-4.3A4.5,4.5,0,0,0,34.5-6v2A4.526,4.526,0,0,0,39.3.3c2.9,0,4.2-1.3,4.2-2.2A1.135,1.135,0,0,0,42.3-3c-1,0-1.2.9-3,.9a1.866,1.866,0,0,1-2-1.9h5.2a1.347,1.347,0,0,0,1.4-1.3Zm-6.6-.1a1.817,1.817,0,0,1,1.9-1.8,1.817,1.817,0,0,1,1.9,1.8Z" transform="translate(188 293)"/></g></svg>