<svg xmlns="http://www.w3.org/2000/svg" viewBox="0 0 15 10.909"><defs><style>.a{fill:#fff;}</style></defs><g transform="translate(-18 -15.545)"><g transform="translate(18 15.545)"><path class="a" d="M14.444,0H.556C.222,0,0,.176,0,.439V2.288a.507.507,0,0,0,.556.439H14.444A.511.511,0,0,0,15,2.288V.439A.511.511,0,0,0,14.444,0Z"/></g><g transform="translate(18 19.636)"><path class="a" d="M14.444,0H.556C.222,0,0,.176,0,.439V2.288a.507.507,0,0,0,.556.439H14.444A.511.511,0,0,0,15,2.288V.439A.511.511,0,0,0,14.444,0Z"/></g><g transform="translate(18 23.727)"><path class="a" d="M14.444,0H.556C.222,0,0,.176,0,.439V2.288a.507.507,0,0,0,.556.439H14.444A.511.511,0,0,0,15,2.288V.439A.511.511,0,0,0,14.444,0Z"/></g></g></svg>