<svg xmlns="http://www.w3.org/2000/svg" viewBox="0 0 93.245 90"><defs><style>.a{fill:#fff;}</style></defs><g transform="translate(0 0)"><path class="a" d="M75.975,23.587a5.1,5.1,0,1,0,5.158,5.1A5.2,5.2,0,0,0,75.975,23.587ZM46.594,47.637A13.677,13.677,0,1,0,60.328,61.314,13.714,13.714,0,0,0,46.594,47.637ZM83.683,12H62.125V9.156A9.188,9.188,0,0,0,52.91,0H40.277a9.188,9.188,0,0,0-9.214,9.156V12H9.5A9.46,9.46,0,0,0,0,21.442V71.165a9.46,9.46,0,0,0,9.5,9.446H25.267a28.857,28.857,0,0,0,42.653-.058H83.741a9.5,9.5,0,0,0,9.5-9.446V21.442A9.585,9.585,0,0,0,83.683,12ZM37.959,9.156A2.276,2.276,0,0,1,40.277,6.9H52.91a2.314,2.314,0,0,1,2.318,2.26V12H37.959Zm8.635,74.005A21.848,21.848,0,1,1,68.558,61.314,21.926,21.926,0,0,1,46.594,83.162Zm39.7-12a2.585,2.585,0,0,1-2.608,2.55H72.556a28.139,28.139,0,0,0,2.9-12.46,28.861,28.861,0,0,0-57.721,0,28.138,28.138,0,0,0,2.9,12.46H9.5A2.585,2.585,0,0,1,6.9,71.165V21.442A2.585,2.585,0,0,1,9.5,18.892H83.683a2.585,2.585,0,0,1,2.608,2.55ZM19.82,23.992H14.662a2.585,2.585,0,0,0-2.608,2.55V31.7a2.548,2.548,0,0,0,2.608,2.55H19.82a2.585,2.585,0,0,0,2.608-2.55V26.542A2.585,2.585,0,0,0,19.82,23.992Z" transform="translate(0 0)"/></g></svg>