<svg xmlns="http://www.w3.org/2000/svg" viewBox="0 0 53.809 50">
  <defs>
    <style>
      .cls-1 {
        fill: #e81f4e;
      }
    </style>
  </defs>
  <g id="Group_33" data-name="Group 33" transform="translate(0.064 0.015)">
    <g id="Group_32" data-name="Group 32" transform="translate(-0.064 -0.015)">
      <path id="Path_18" data-name="Path 18" class="cls-1" d="M53.474,44.984,30.106,1.978A3.342,3.342,0,0,0,27.553.015a3.552,3.552,0,0,0-3.731,1.964L.258,45.18a3.293,3.293,0,0,0,.785,3.927,3.222,3.222,0,0,0,3.927.393l43.594-.2a3.248,3.248,0,0,0,3.927-.589A3.081,3.081,0,0,0,53.474,44.984Zm-48.9.393L26.964,4.531,49.154,45.18ZM24.8,18.866V30.452a1.855,1.855,0,0,0,1.964,1.964,1.968,1.968,0,0,0,1.964-1.964V18.866a1.964,1.964,0,0,0-3.927,0Zm0,17.673a2.916,2.916,0,1,0,4.124,0A2.847,2.847,0,0,0,24.8,36.54Z" transform="translate(0.064 0.015)"/>
    </g>
  </g>
</svg>
