<svg xmlns="http://www.w3.org/2000/svg" viewBox="0 0 12.06 12"><defs><style>.a{fill:#fff;}</style></defs><path class="a" d="M8.536,6.01l2.887-2.887a1.744,1.744,0,0,0,0-2.526A1.855,1.855,0,0,0,8.9.476L6.01,3.484,3.123.476a2.166,2.166,0,0,0-2.647,0,2.166,2.166,0,0,0,0,2.647L3.484,6.01.476,8.9a2.166,2.166,0,0,0,0,2.647,2.523,2.523,0,0,0,1.323.481,1.809,1.809,0,0,0,1.323-.481L6.01,8.536,8.9,11.423a1.932,1.932,0,0,0,1.323.6,1.809,1.809,0,0,0,1.323-.481,1.744,1.744,0,0,0,0-2.526Z" transform="translate(-0.025 -0.025)"/></svg>