<svg xmlns="http://www.w3.org/2000/svg" viewBox="0 0 126.645 16.778"><defs><style>.a{fill:#fff;}.b{fill:#e81f4e;}</style></defs><g transform="translate(0)"><g transform="translate(32.953)"><path class="a" d="M12.542,40.112h-4.2a4.009,4.009,0,0,1-.4-.681,5.506,5.506,0,0,1-3.405,1.113C1.346,40.544,0,38.318,0,35.892,0,32.2,2.724,28.5,7.857,28.5a11.224,11.224,0,0,1,5.964,1.927l-1.4,7.558A3.511,3.511,0,0,0,12.542,40.112Zm-3.954-8.14a7.572,7.572,0,0,0-.98-.116c-1.545,0-2.475,1.346-2.475,3.7,0,.914.133,1.578.98,1.578a4.46,4.46,0,0,0,1.578-.415Z" transform="translate(0 -23.766)"/><path class="a" d="M96.48,38.3a7.43,7.43,0,0,1-5.515,2.326c-3.6,0-5.764-2.276-5.764-5.1,0-4.768,4.153-6.927,7.509-6.927a5.161,5.161,0,0,1,4.9,2.658l-2.974,1.894a2.707,2.707,0,0,0-2.093-1.213c-1.4,0-2.209,1.794-2.209,3.655,0,1.03.282,1.678,1.213,1.678a3.7,3.7,0,0,0,2.608-1.462Z" transform="translate(-71.047 -23.849)"/><path class="a" d="M170.624,23.785a9.717,9.717,0,0,1-3.572.565c-2.409,0-4.386-1.362-3.854-4.269l.714-3.854H162.6l.648-3.489h1.312l.615-3.106,4.651-.532-.349,3.638h3.007l-.714,3.489h-2.924l-.714,3.837c-.133.748.116.764.615.764a6.063,6.063,0,0,0,2.193-.432Z" transform="translate(-135.589 -7.588)"/><path class="a" d="M226.46,4.984,224.35,16.33H219.4l2.093-11.163ZM227.374,0l-.714,3.871-4.95.166L222.324.6Z" transform="translate(-182.953)"/><path class="a" d="M279.674,31.1l-6.279,11.18h-4.552L266.7,31.1h4.917l.332,3.887.133,1.661.731-1.661,1.827-3.887Z" transform="translate(-222.396 -25.934)"/><path class="a" d="M353.938,33.783c0,4.734-3.455,6.761-7.675,6.761-4.469,0-5.964-2.193-5.964-5.133,0-4.9,3.455-6.911,7.675-6.911C352.46,28.5,353.938,30.676,353.938,33.783Zm-8.455,1.478c-.083,1.512.548,1.894,1.163,1.894,1.063,0,2.027-1.047,2.143-3.439.066-1.362-.5-1.877-1.2-1.877C346.7,31.856,345.616,32.736,345.483,35.261Z" transform="translate(-283.77 -23.766)"/><path class="a" d="M436.424,23.785a9.717,9.717,0,0,1-3.572.565c-2.409,0-4.386-1.362-3.854-4.269l.714-3.854H428.4l.648-3.489h1.312l.615-3.106,4.651-.532-.349,3.638H438.3l-.714,3.489h-2.924l-.714,3.837c-.133.748.116.764.615.764a6.063,6.063,0,0,0,2.193-.432Z" transform="translate(-357.234 -7.588)"/><path class="a" d="M501.209,32.553c0,3.023-4.369,3.356-7.509,3.538-.183.88.731,1.1,1.462,1.1a5.933,5.933,0,0,0,3.256-1.13l1.611,2.326a7.38,7.38,0,0,1-5.515,2.16c-3.7,0-5.814-2.093-5.814-5.2,0-4.386,3.621-6.844,7.442-6.844,2.774,0,5.067,1.3,5.067,4.053Zm-7.077.963c1.512-.1,2.974-.3,2.974-1.2,0-.7-.5-.814-.98-.814-1.262,0-1.777.947-1.993,2.01Z" transform="translate(-407.517 -23.766)"/></g><g transform="translate(0 2.798)"><path class="a" d="M11.874,8.388H1.8L2.992,0H13.066ZM7.228,5.715h0l1.6,1.316h.041a.04.04,0,0,0,.041-.041V6.949l-.37-2.015c0-.041,0-.041.041-.041l1.85-1.151.041-.041a.04.04,0,0,0-.041-.041h-2.1A.04.04,0,0,1,8.3,3.618l-.37-2.179L7.886,1.4c-.041,0-.041,0-.041.041h0L6.816,3.618l-.041.041H4.637c-.041,0-.041,0-.041.041v.041L6.117,4.893v.041L5.172,6.949V6.99h.082L7.228,5.715Z" transform="translate(-1.06)"/><path class="b" d="M32.593,0H46.039l-.493,3.372H32.1Z" transform="translate(-18.901)"/><path class="b" d="M30.852,12.4H44.3L43.8,15.731H30.4Z" transform="translate(-17.9 -7.301)"/><path class="b" d="M.493,24.7H25.658l-.452,3.372H0Z" transform="translate(0 -14.544)"/></g></g></svg>